<svg xmlns="http://www.w3.org/2000/svg" viewBox="0 0 448 512">
<!--! Font Awesome Free 6.2.0 by @fontawesome - https://fontawesome.com License - https://fontawesome.com/license/free (Icons: CC BY 4.0, Fonts: SIL OFL 1.1, Code: MIT License) Copyright 2022 Fonticons, Inc.-->
  <path d="M160 80a48 48 0 0 1 48-48h32a48 48 0 0 1 48 48v352a48 48 0 0 1-48 48h-32a48 48 0 0 1-48-48V80zM0 272a48 48 0 0 1 48-48h32a48 48 0 0 1 48 48v160a48 48 0 0 1-48 48H48a48 48 0 0 1-48-48V272zM368 96h32a48 48 0 0 1 48 48v288a48 48 0 0 1-48 48h-32a48 48 0 0 1-48-48V144a48 48 0 0 1 48-48z"/>
</svg>
