<svg xmlns="http://www.w3.org/2000/svg" viewBox="0 0 500 500"><g id="freepik--Floor--inject-140"><path id="freepik--floor--inject-140" d="M77.66,249.34c-95.18,55-95.17,144,0,199s249.49,54.95,344.67,0,95.17-144,0-199S172.84,194.38,77.66,249.34Z" style="fill:#fafafa"></path></g><g id="freepik--Shadows--inject-140"><path id="freepik--Shadow--inject-140" d="M426.53,379.69l44.24-25.49a1.14,1.14,0,0,0,0-2.16L375.65,297a4.1,4.1,0,0,0-3.72,0L327.7,322.44a1.14,1.14,0,0,0,0,2.16l95.12,55.09A4.1,4.1,0,0,0,426.53,379.69Z" style="fill:#e0e0e0;opacity:0.99"></path><path id="freepik--shadow--inject-140" d="M50.69,337.06c-14,8.06-14,21.14,0,29.21s36.63,8.07,50.6,0,14-21.14,0-29.21S64.66,329,50.69,337.06Z" style="fill:#e0e0e0;opacity:0.99"></path><ellipse id="freepik--shadow--inject-140" cx="234.05" cy="416.15" rx="87.01" ry="50.24" style="fill:#e0e0e0;opacity:0.99"></ellipse></g><g id="freepik--Shelves--inject-140"><g id="freepik--shelves--inject-140"><g id="freepik--Shelf--inject-140"><polygon points="369.2 153.93 397.37 137.67 471.54 180.44 471.54 183.54 443.37 199.8 369.2 157.02 369.2 153.93" style="fill:#ebebeb"></polygon><polygon points="443.37 196.71 369.2 153.93 397.37 137.67 471.54 180.44 443.37 196.71" style="fill:#fafafa"></polygon><polygon points="443.37 196.71 443.37 199.8 471.54 183.54 471.54 180.44 443.37 196.71" style="fill:#e6e6e6"></polygon><polygon points="388.89 110.86 372.37 120.41 372.37 151.84 388.89 142.3 388.89 110.86" style="fill:#ebebeb"></polygon><path d="M372.9,120.93l16-9.18a6.76,6.76,0,0,0,3.66,2l-15.86,9.14A16.1,16.1,0,0,1,372.9,120.93Z" style="fill:#fff"></path><path d="M378.23,122.83a3.39,3.39,0,0,1-3.07,0l-2.7-1.54a.94.94,0,0,1,0-1.77l15.77-9,.66.38-15.5,9a.56.56,0,0,0,0,1.06l2.51,1.42a2.05,2.05,0,0,0,1.84,0l15.5-8.94.75.44Z" style="fill:#fafafa"></path><path d="M394,113.79v31.43l-15.76,9.05a3.39,3.39,0,0,1-3.07,0l-2.7-1.55a1.07,1.07,0,0,1-.63-.88V120.4a1.08,1.08,0,0,0,.63.89l2.7,1.54a3.39,3.39,0,0,0,3.07,0Z" style="fill:#e0e0e0"></path><path d="M376.69,123.2a3.07,3.07,0,0,1-1.53-.37l-2.7-1.54a1.08,1.08,0,0,1-.63-.89v31.44a1.07,1.07,0,0,0,.63.88l2.7,1.55a3.17,3.17,0,0,0,1.53.36Z" style="fill:#f0f0f0"></path><polygon points="395.82 115.62 379.3 125.17 384.43 157.55 400.96 148.01 395.82 115.62" style="fill:#ebebeb"></polygon><path d="M380,125.62l16-9.18a8.82,8.82,0,0,0,4.26,1.65l-15.86,9.14A21.14,21.14,0,0,1,380,125.62Z" style="fill:#fff"></path><path d="M386,127.1a4.26,4.26,0,0,1-3.33.15L379.53,126c-1-.41-1.11-1.13-.26-1.62l15.77-9,.78.32-15.5,8.95c-.51.3-.44.73.16,1l2.92,1.18a2.61,2.61,0,0,0,2-.09l15.49-8.94.89.36Z" style="fill:#fafafa"></path><path d="M401.78,118.05l5.13,32.39-15.77,9.05a4.3,4.3,0,0,1-3.33.15l-3.15-1.28c-.49-.21-.77-.49-.81-.78l-5.14-32.39c.05.29.33.58.82.78l3.15,1.29a4.35,4.35,0,0,0,3.33-.15Z" style="fill:#e0e0e0"></path><path d="M384.4,127.51a4.15,4.15,0,0,1-1.72-.25L379.53,126c-.49-.2-.77-.49-.82-.78l5.14,32.39c0,.29.32.57.81.78l3.15,1.28a4.15,4.15,0,0,0,1.72.26Z" style="fill:#f0f0f0"></path><g id="freepik--Pot--inject-140"><path id="freepik--shadow--inject-140" d="M401.85,157c-3.88,2.25-3.88,5.89,0,8.13a15.53,15.53,0,0,0,14.08,0c3.89-2.24,3.89-5.88,0-8.13A15.59,15.59,0,0,0,401.85,157Z" style="opacity:0.05"></path><path d="M415.22,162.69c3.39-3.46,5.38-12.09,2.08-14.83H400.49c-3.3,2.74-1.31,11.37,2.07,14.82l.09.1.12.11a4,4,0,0,0,.31.27.27.27,0,0,0,.08.07l.25.19c.15.1.29.2.44.28a11.14,11.14,0,0,0,10.09,0h0c.15-.08.29-.18.44-.28l.24-.18.1-.08.29-.26.14-.13Z" style="fill:#f5f5f5"></path><path d="M402,146.55c-3.83,2.21-3.83,5.8,0,8a15.38,15.38,0,0,0,13.89,0c3.83-2.22,3.83-5.81,0-8A15.38,15.38,0,0,0,402,146.55Z" style="fill:#fff"></path><path d="M404.67,148.12c-2.33,1.35-2.33,3.53,0,4.88a9.38,9.38,0,0,0,8.45,0c2.33-1.35,2.33-3.53,0-4.88A9.32,9.32,0,0,0,404.67,148.12Z" style="fill:#ebebeb"></path><path d="M413.12,150.43a9.38,9.38,0,0,0-8.45,0,4,4,0,0,0-1.4,1.28,3.93,3.93,0,0,0,1.4,1.29,9.38,9.38,0,0,0,8.45,0,3.81,3.81,0,0,0,1.39-1.29A3.88,3.88,0,0,0,413.12,150.43Z" style="fill:#e0e0e0"></path><path d="M405.18,151.71a19,19,0,0,1-3.05-4.06c-1.41-2.49-1.67-5.83-.94-6.25s3.7,2.92,3.7,2.92a18,18,0,0,1-.32-4.25c.13-2.23.67-4.25,1.31-4.65s2.06,2.39,2.67,4.42,1,3.71,1,3.71a31.49,31.49,0,0,1,1.1-4.68c.74-2.11,1.41-2.59,1.93-2.38s.86,1.2,1,4a28.76,28.76,0,0,1-.13,4s1.05-1.16,2.21-2.27,1.82-1.4,2.19-1.16.46,2.14-1.51,5.71a20,20,0,0,1-3.73,4.91S409.86,153.48,405.18,151.71Z" style="fill:#ebebeb"></path></g><polygon points="435.11 134.71 418.59 144.25 418.59 175.69 435.11 166.15 435.11 134.71" style="fill:#e0e0e0"></polygon><path d="M419.12,144.78l16-9.18a6.83,6.83,0,0,0,3.66,2l-15.86,9.14A16.1,16.1,0,0,1,419.12,144.78Z" style="fill:#fff"></path><path d="M424.45,146.68a3.39,3.39,0,0,1-3.07,0l-2.7-1.54a.93.93,0,0,1,0-1.77l15.76-9,.67.38-15.5,8.95a.56.56,0,0,0,0,1.06l2.5,1.42a2.08,2.08,0,0,0,1.85,0l15.49-8.94.76.44Z" style="fill:#fafafa"></path><path d="M440.21,137.63v31.44l-15.76,9.05a3.45,3.45,0,0,1-3.07,0l-2.7-1.55a1.07,1.07,0,0,1-.63-.88V144.25a1.07,1.07,0,0,0,.63.88l2.7,1.55a3.39,3.39,0,0,0,3.07,0Z" style="fill:#e0e0e0"></path><path d="M422.91,147.05a3.07,3.07,0,0,1-1.53-.37l-2.7-1.55a1.07,1.07,0,0,1-.63-.88v31.44a1.07,1.07,0,0,0,.63.88l2.7,1.55a3.17,3.17,0,0,0,1.53.36Z" style="fill:#f0f0f0"></path><polygon points="441.87 138.59 425.35 148.13 425.35 179.57 441.87 170.03 441.87 138.59" style="fill:#ebebeb"></polygon><path d="M425.88,148.66l16-9.18a6.79,6.79,0,0,0,3.66,2l-15.86,9.14A16.1,16.1,0,0,1,425.88,148.66Z" style="fill:#fff"></path><path d="M431.21,150.56a3.41,3.41,0,0,1-3.08,0L425.44,149a.93.93,0,0,1,0-1.77l15.76-9,.67.38-15.5,8.95a.56.56,0,0,0,0,1.06l2.5,1.42a2.08,2.08,0,0,0,1.85,0l15.49-8.94.76.44Z" style="fill:#fafafa"></path><path d="M447,141.51V173L431.21,182a3.47,3.47,0,0,1-3.08,0l-2.69-1.55a1.08,1.08,0,0,1-.64-.88V148.13a1.08,1.08,0,0,0,.64.88l2.69,1.55a3.41,3.41,0,0,0,3.08,0Z" style="fill:#e0e0e0"></path><path d="M429.67,150.93a3.11,3.11,0,0,1-1.54-.37L425.44,149a1.08,1.08,0,0,1-.64-.88v31.44a1.08,1.08,0,0,0,.64.88l2.69,1.55a3.21,3.21,0,0,0,1.54.36Z" style="fill:#f0f0f0"></path><polygon points="448.54 145.26 432.02 154.8 437.15 187.19 453.68 177.65 448.54 145.26" style="fill:#ebebeb"></polygon><path d="M432.67,155.25l16-9.18a8.82,8.82,0,0,0,4.26,1.65l-15.86,9.14A21.14,21.14,0,0,1,432.67,155.25Z" style="fill:#fff"></path><path d="M438.73,156.74a4.3,4.3,0,0,1-3.33.15l-3.15-1.29c-1-.4-1.11-1.12-.26-1.61l15.77-9.05.78.32-15.5,9c-.51.29-.44.72.16,1l2.92,1.18a2.61,2.61,0,0,0,2-.09l15.49-8.94.89.36Z" style="fill:#fafafa"></path><path d="M454.5,147.69l5.13,32.39-15.77,9a4.3,4.3,0,0,1-3.33.14L437.38,188c-.49-.2-.77-.48-.81-.78l-5.14-32.38c.05.29.33.57.82.77l3.15,1.29a4.3,4.3,0,0,0,3.33-.15Z" style="fill:#e0e0e0"></path><path d="M437.12,157.15a4.15,4.15,0,0,1-1.72-.26l-3.15-1.29c-.49-.2-.77-.48-.82-.77l5.14,32.38c0,.3.32.58.81.78l3.15,1.28a4,4,0,0,0,1.72.26Z" style="fill:#f0f0f0"></path></g><g id="freepik--shelf--inject-140"><polygon points="369.2 92.92 397.37 76.66 471.54 119.43 471.54 122.52 443.37 138.79 369.2 96.01 369.2 92.92" style="fill:#ebebeb"></polygon><polygon points="443.37 135.69 369.2 92.92 397.37 76.66 471.54 119.43 443.37 135.69" style="fill:#fafafa"></polygon><polygon points="443.37 135.69 443.37 138.79 471.54 122.52 471.54 119.43 443.37 135.69" style="fill:#e6e6e6"></polygon><polygon points="393.04 46.86 374.77 57.41 374.77 92.16 393.04 81.61 393.04 46.86" style="fill:#ebebeb"></polygon><path d="M375.36,58,393,47.84a7.37,7.37,0,0,0,4,2.21L379.55,60.16A18,18,0,0,1,375.36,58Z" style="fill:#fff"></path><path d="M381.25,60.1a3.81,3.81,0,0,1-3.39,0l-3-1.71a1,1,0,0,1,0-2l17.42-10,.74.42-17.13,9.9c-.57.32-.57.84,0,1.17l2.76,1.56a2.23,2.23,0,0,0,2,0l17.13-9.87.83.48Z" style="fill:#fafafa"></path><path d="M398.67,50.1V84.84l-17.42,10a3.75,3.75,0,0,1-3.39,0l-3-1.71a1.18,1.18,0,0,1-.7-1V57.41a1.18,1.18,0,0,0,.7,1l3,1.71a3.81,3.81,0,0,0,3.39,0Z" style="fill:#e0e0e0"></path><path d="M379.55,60.5a3.43,3.43,0,0,1-1.69-.4l-3-1.71a1.18,1.18,0,0,1-.7-1V92.16a1.18,1.18,0,0,0,.7,1l3,1.71a3.43,3.43,0,0,0,1.69.4Z" style="fill:#f0f0f0"></path><polygon points="400.13 52.9 381.87 63.45 387.54 99.25 405.81 88.7 400.13 52.9" style="fill:#ebebeb"></polygon><path d="M382.59,64,400.28,53.8a9.67,9.67,0,0,0,4.7,1.82L387.45,65.73A23.52,23.52,0,0,1,382.59,64Z" style="fill:#fff"></path><path d="M389.28,65.59a4.73,4.73,0,0,1-3.68.16l-3.48-1.42c-1.09-.44-1.22-1.24-.28-1.78l17.43-10,.86.35L383,62.79c-.56.32-.49.8.17,1.07l3.23,1.3a2.82,2.82,0,0,0,2.21-.1l17.13-9.87,1,.4Z" style="fill:#fafafa"></path><path d="M406.71,55.59l5.67,35.79-17.42,10a4.79,4.79,0,0,1-3.69.16l-3.47-1.42c-.55-.22-.86-.53-.91-.86l-5.67-35.8c0,.33.36.64.9.86l3.48,1.43a4.77,4.77,0,0,0,3.68-.17Z" style="fill:#e0e0e0"></path><path d="M387.5,66a4.69,4.69,0,0,1-1.9-.28l-3.48-1.43c-.54-.22-.85-.53-.9-.86l5.67,35.8c.05.33.36.64.91.86l3.47,1.42a4.71,4.71,0,0,0,1.9.29Z" style="fill:#f0f0f0"></path><g id="freepik--Picture--inject-140"><g id="freepik--Frame--inject-140"><polygon points="430.48 117.92 429.19 118.55 405.23 104.71 406.52 104.09 430.48 117.92" style="fill:#fafafa"></polygon><polygon points="406.52 104.09 429.31 117.25 432.63 83.15 409.83 70 406.52 104.09" style="fill:#fff"></polygon><path d="M402.79,105.85l28.37,16.38L435.07,82,406.7,65.63Zm5.88-36.54,24,13.84-3.44,35.4-24-13.84Z" style="fill:#f0f0f0"></path><polygon points="405.23 104.71 406.52 104.09 409.83 70 408.67 69.31 405.23 104.71" style="fill:#e0e0e0"></polygon><polygon points="406.7 65.63 408.01 65.03 436.38 81.41 435.07 82.01 406.7 65.63" style="fill:#fafafa"></polygon><polygon points="436.38 81.41 435.07 82.01 431.16 122.23 432.47 121.62 436.38 81.41" style="fill:#e0e0e0"></polygon></g><g id="freepik--Land--inject-140"><polygon points="407.52 103.44 428.54 115.57 429.1 109.83 425.19 92.95 421.46 98.71 422.23 103.56 416.02 85.66 408.08 97.7 407.52 103.44" style="fill:#f0f0f0"></polygon><path d="M425.51,85.85a3,3,0,0,1,1.39,2.6c-.09.93-.86,1.29-1.72.8a3,3,0,0,1-1.39-2.6C423.88,85.71,424.65,85.35,425.51,85.85Z" style="fill:#f0f0f0"></path></g></g><g id="freepik--pot--inject-140"><path id="freepik--shadow--inject-140" d="M442.29,115.56c-3.89,2.24-3.89,5.88,0,8.13a15.59,15.59,0,0,0,14.08,0c3.89-2.25,3.88-5.89,0-8.13A15.53,15.53,0,0,0,442.29,115.56Z" style="opacity:0.05"></path><path d="M455.66,121.22c3.38-3.46,5.37-12.08,2.07-14.82h-16.8c-3.31,2.74-1.32,11.36,2.06,14.82l.1.09.11.11.31.28.08.06a2.48,2.48,0,0,0,.26.19,3.49,3.49,0,0,0,.43.28,11.14,11.14,0,0,0,10.09,0h0a4.08,4.08,0,0,0,.44-.28l.24-.18.1-.08.29-.26.14-.13Z" style="fill:#f5f5f5"></path><path d="M442.38,105.08c-3.83,2.22-3.83,5.8,0,8a15.38,15.38,0,0,0,13.89,0c3.83-2.21,3.83-5.8,0-8A15.38,15.38,0,0,0,442.38,105.08Z" style="fill:#fff"></path><path d="M445.1,106.65c-2.33,1.35-2.33,3.53,0,4.88a9.32,9.32,0,0,0,8.45,0c2.33-1.35,2.33-3.53,0-4.88A9.32,9.32,0,0,0,445.1,106.65Z" style="fill:#ebebeb"></path><path d="M453.55,109a9.32,9.32,0,0,0-8.45,0,3.79,3.79,0,0,0-1.39,1.28,3.87,3.87,0,0,0,1.39,1.28,9.32,9.32,0,0,0,8.45,0,3.91,3.91,0,0,0,1.4-1.28A3.82,3.82,0,0,0,453.55,109Z" style="fill:#e0e0e0"></path><path d="M445.62,110.25a19.17,19.17,0,0,1-3.06-4.06c-1.41-2.5-1.67-5.84-.94-6.25s3.7,2.92,3.7,2.92A17.85,17.85,0,0,1,445,98.6c.12-2.22.66-4.24,1.3-4.65s2.06,2.4,2.67,4.43,1,3.7,1,3.7a30.88,30.88,0,0,1,1.09-4.68c.74-2.11,1.41-2.58,1.93-2.37s.87,1.19,1,4a27,27,0,0,1-.13,4s1.05-1.15,2.21-2.27,1.83-1.39,2.19-1.16.47,2.14-1.51,5.72a19.94,19.94,0,0,1-3.73,4.91S450.29,112,445.62,110.25Z" style="fill:#ebebeb"></path></g></g></g></g><g id="freepik--Window--inject-140"><g id="freepik--window--inject-140"><path d="M38.69,120.14C38.69,93.39,56.31,61.54,78,49c11.5-6.64,21.85-6.54,29-1,9,3.71,14.68,14,14.68,29.24V203.14l-78.7,45.43L38.69,246Z" style="fill:#e6e6e6"></path><path d="M43.06,248.57V122.66c0-26.74,17.62-58.6,39.35-71.14s39.35-1,39.35,25.71V203.14Z" style="fill:#f5f5f5"></path><path d="M47.36,122.66V241.11l70.09-40.47V77.24c0-13.37-4.7-22.6-12.61-25.5a16.25,16.25,0,0,0-5.74-1c-4.48,0-9.36,1.51-14.54,4.5C64.05,67.09,47.36,97.33,47.36,122.66Z" style="fill:#e0e0e0"></path><polygon points="117.45 200.64 113.01 198.08 47.37 235.99 47.37 241.11 117.45 200.64" style="fill:#ebebeb"></polygon><path d="M47.36,122.66V236L113,198.08V74.66C113,64,110,56,104.84,51.74a16.25,16.25,0,0,0-5.74-1c-4.48,0-9.36,1.51-14.54,4.5C64.05,67.09,47.36,97.33,47.36,122.66Z" style="fill:#fff"></path><polygon points="80.26 222.12 84.56 219.63 84.56 53.69 80.26 53.69 80.26 222.12" style="fill:#f5f5f5"></polygon><path d="M76,61.47V219.64l4.31,2.48V58C78.79,59.09,77.36,60.23,76,61.47Z" style="fill:#e0e0e0"></path><polygon points="117.45 160.54 84.56 179.53 84.56 184.58 117.45 165.59 117.45 160.54" style="fill:#f5f5f5"></polygon><polygon points="113.01 157.98 117.45 160.54 84.56 179.53 84.56 174.48 113.01 157.98" style="fill:#ebebeb"></polygon><polygon points="80.26 182.01 47.37 201 47.37 206.05 80.26 187.06 80.26 182.01" style="fill:#f5f5f5"></polygon><polygon points="75.81 179.45 80.26 182.01 47.37 201 47.37 195.95 75.81 179.45" style="fill:#ebebeb"></polygon><polygon points="117.45 86.82 84.56 105.81 84.56 110.86 117.45 91.87 117.45 86.82" style="fill:#f5f5f5"></polygon><polygon points="113.01 84.26 117.45 86.82 84.56 105.81 84.56 100.76 113.01 84.26" style="fill:#ebebeb"></polygon><polygon points="80.26 108.29 47.37 127.28 47.37 132.33 80.26 113.34 80.26 108.29" style="fill:#f5f5f5"></polygon><polygon points="75.81 105.73 80.26 108.29 47.37 127.28 47.37 122.23 75.81 105.73" style="fill:#ebebeb"></polygon></g></g><g id="freepik--Furniture--inject-140"><g id="freepik--Drawer--inject-140"><polygon points="415.7 354.48 419.5 373.32 423.19 375.45 426.85 373.34 430.68 354.48 423.19 350.15 415.7 354.48" style="fill:#e0e0e0"></polygon><polygon points="415.7 354.48 419.5 373.32 423.19 375.45 426.85 373.34 430.68 354.48 423.19 350.15 415.7 354.48" style="opacity:0.05"></polygon><polygon points="423.19 375.45 423.19 358.8 415.7 354.48 419.5 373.32 423.19 375.45" style="fill:#ebebeb"></polygon><polygon points="415.7 354.48 418.15 366.65 423.19 369.56 428.2 366.66 430.68 354.48 423.19 350.15 415.7 354.48" style="opacity:0.05"></polygon><polygon points="448.64 335.46 452.44 354.3 456.13 356.44 459.79 354.32 463.62 335.46 456.13 331.13 448.64 335.46" style="fill:#e0e0e0"></polygon><polygon points="448.64 335.46 452.44 354.3 456.13 356.44 459.79 354.32 463.62 335.46 456.13 331.13 448.64 335.46" style="opacity:0.05"></polygon><polygon points="456.13 356.44 456.13 339.78 448.64 335.46 452.44 354.3 456.13 356.44" style="fill:#ebebeb"></polygon><polygon points="448.64 335.46 451.09 347.63 456.13 350.54 461.15 347.64 463.62 335.46 456.13 331.13 448.64 335.46" style="opacity:0.05"></polygon><polygon points="335.09 307.96 338.89 326.81 342.58 328.94 346.24 326.83 350.07 307.96 342.58 303.63 335.09 307.96" style="fill:#ebebeb"></polygon><polygon points="335.09 307.96 338.89 326.81 342.58 328.94 346.24 326.83 350.07 307.96 342.58 303.63 335.09 307.96" style="opacity:0.05"></polygon><polygon points="342.58 328.94 342.58 312.29 335.09 307.96 338.89 326.81 342.58 328.94" style="fill:#ebebeb"></polygon><polygon points="335.09 307.96 337.55 320.13 342.58 323.04 347.6 320.14 350.07 307.96 342.58 303.63 335.09 307.96" style="opacity:0.05"></polygon><g id="freepik--Cabinet--inject-140"><g id="freepik--cabinet--inject-140"><polygon points="423.19 366.52 464.01 342.94 464.01 254.58 423.19 278.15 423.19 366.52" style="fill:#e0e0e0"></polygon><polygon points="423.19 278.15 332.97 226.09 332.97 314.45 423.19 366.52 423.19 278.15" style="fill:#ebebeb"></polygon><polygon points="332.97 226.09 423.19 278.15 464.01 254.58 373.8 202.52 332.97 226.09" style="fill:#f5f5f5"></polygon><polygon points="417.36 321.93 338.8 276.59 338.8 309.02 337.73 309.64 416.28 354.97 417.36 354.35 417.36 321.93" style="fill:#e0e0e0"></polygon><polygon points="416.28 322.55 337.73 277.21 337.73 309.64 416.28 354.97 416.28 322.55" style="fill:#f5f5f5"></polygon><path d="M380.31,310.12l-7.94-4.58c-1-.6-1.86-.33-1.86.6a3.72,3.72,0,0,0,1.86,2.76l7.94,4.58c1,.6,1.86.33,1.86-.6A3.72,3.72,0,0,0,380.31,310.12Z" style="fill:#e0e0e0"></path><polygon points="417.36 282.77 338.8 237.44 338.8 269.87 337.73 270.49 416.29 315.82 417.36 315.2 417.36 282.77" style="fill:#e0e0e0"></polygon><polygon points="416.29 283.39 337.73 238.06 337.73 270.49 416.29 315.82 416.29 283.39" style="fill:#f5f5f5"></polygon><path d="M380.31,271l-7.94-4.58c-1-.59-1.86-.32-1.86.61a3.74,3.74,0,0,0,1.86,2.76l7.94,4.58c1,.59,1.86.32,1.86-.61A3.74,3.74,0,0,0,380.31,271Z" style="fill:#e0e0e0"></path></g></g><g id="freepik--pot--inject-140"><path d="M412.48,243c-4.52,2.61-4.52,6.84,0,9.45s11.84,2.61,16.36,0,4.52-6.84,0-9.45S417,240.36,412.48,243Z" style="fill:#e0e0e0"></path><path d="M427.85,248.28c3.94-4,6.25-14,2.41-17.23H410.73c-3.83,3.19-1.52,13.21,2.41,17.22a.57.57,0,0,0,.11.11l.13.14c.11.1.23.21.36.31l.09.08c.1.07.19.15.3.22l.51.33a12.94,12.94,0,0,0,11.72,0h0l.51-.33.28-.21.11-.09c.12-.1.24-.2.35-.31l.15-.15Z" style="fill:#ebebeb"></path><path d="M412.43,229.77c-4.45,2.57-4.45,6.75,0,9.32s11.68,2.57,16.13,0,4.46-6.75,0-9.32S416.89,227.2,412.43,229.77Z" style="fill:#fafafa"></path><path d="M415.59,231.6c-2.71,1.56-2.71,4.1,0,5.66a10.83,10.83,0,0,0,9.82,0c2.71-1.56,2.71-4.1,0-5.66A10.83,10.83,0,0,0,415.59,231.6Z" style="fill:#f5f5f5"></path><path d="M425.41,234.29a10.83,10.83,0,0,0-9.82,0,4.44,4.44,0,0,0-1.62,1.48,4.38,4.38,0,0,0,1.62,1.49,10.83,10.83,0,0,0,9.82,0,4.46,4.46,0,0,0,1.62-1.49A4.53,4.53,0,0,0,425.41,234.29Z" style="fill:#ebebeb"></path><path d="M416.19,235.77a22.27,22.27,0,0,1-3.55-4.72c-1.64-2.89-1.94-6.78-1.1-7.26s4.3,3.4,4.3,3.4a20.81,20.81,0,0,1-.36-4.95c.14-2.58.77-4.93,1.51-5.4s2.39,2.78,3.1,5.14,1.14,4.3,1.14,4.3a36,36,0,0,1,1.27-5.43c.86-2.45,1.64-3,2.25-2.76s1,1.38,1.18,4.65a32.7,32.7,0,0,1-.15,4.67s1.22-1.34,2.57-2.64,2.12-1.62,2.54-1.35.54,2.49-1.76,6.65a23.08,23.08,0,0,1-4.33,5.7S421.62,237.82,416.19,235.77Z" style="fill:#e0e0e0"></path></g><g id="freepik--picture--inject-140"><g id="freepik--frame--inject-140"><polygon points="394.04 240.38 392.6 241.09 365.61 225.76 367.06 225.06 394.04 240.38" style="fill:#fafafa"></polygon><polygon points="367.06 225.06 392.73 239.63 396.18 201.36 370.51 186.79 367.06 225.06" style="fill:#fff"></polygon><path d="M362.88,227.06l31.95,18.15,4.08-45.14-32-18.15Zm6.31-41,27,15.33-3.58,39.73-27-15.32Z" style="fill:#f0f0f0"></path><polygon points="365.61 225.76 367.06 225.06 370.51 186.79 369.19 186.03 365.61 225.76" style="fill:#e0e0e0"></polygon><polygon points="366.95 181.92 368.42 181.23 400.37 199.38 398.9 200.07 366.95 181.92" style="fill:#fafafa"></polygon><polygon points="400.37 199.38 398.9 200.07 394.83 245.21 396.3 244.52 400.37 199.38" style="fill:#e0e0e0"></polygon></g><g id="freepik--land--inject-140"><polygon points="368.18 224.32 391.84 237.76 392.43 231.32 387.91 212.42 383.77 218.91 384.68 224.34 377.57 204.31 368.76 217.87 368.18 224.32" style="fill:#f0f0f0"></polygon><path d="M388.21,204.45a3.3,3.3,0,0,1,1.58,2.9c-.09,1.05-1,1.46-1.92.91a3.3,3.3,0,0,1-1.58-2.9C386.39,204.31,387.25,203.9,388.21,204.45Z" style="fill:#f0f0f0"></path></g></g></g></g><g id="freepik--Plants--inject-140"><g id="freepik--plants--inject-140"><g id="freepik--pot--inject-140"><path d="M56.67,354.05c-10.33-10.66-16.4-37.47-6.32-45.92h51.28c10.08,8.45,4,35.24-6.31,45.91l-.29.3-.35.35a11,11,0,0,1-.94.84l-.24.2c-.26.2-.51.4-.78.59a13.15,13.15,0,0,1-1.34.86c-8.5,5-22.28,5-30.78,0h0a12.35,12.35,0,0,1-1.35-.87c-.26-.18-.49-.36-.72-.55l-.31-.24q-.48-.4-.9-.81l-.41-.41A2.83,2.83,0,0,1,56.67,354.05Z" style="fill:#e0e0e0"></path><path d="M97.18,304.72c11.7,6.83,11.7,17.91,0,24.74s-30.68,6.83-42.38,0-11.7-17.91,0-24.74S85.48,297.89,97.18,304.72Z" style="fill:#f0f0f0"></path><path d="M91.55,308c8.59,5,8.59,13.15,0,18.17s-22.53,5-31.12,0S51.84,313,60.43,308,83,303,91.55,308Z" style="fill:#e0e0e0"></path><path d="M60.43,316.63c8.59-5,22.53-5,31.12,0a14.29,14.29,0,0,1,5.15,4.77,14.39,14.39,0,0,1-5.15,4.78c-8.59,5-22.53,5-31.12,0a14.39,14.39,0,0,1-5.15-4.78A14.29,14.29,0,0,1,60.43,316.63Z" style="fill:#fafafa"></path></g><g id="freepik--Leaves--inject-140"><path d="M64.36,239.25c2.45,4.44-1,12-8.11,13.34,2.23-3.13,4.19-8,2.4-8.7s.28,3.89-3.71,8.11c0,0-2.14,1-5.09-1.41,4.43-3.08,6.43-9.51,4.86-8.61-.63.36-1.73,3.55-4.39,5.54s-5.31,2.11-9.23-1.24c2.38-.38,5.8-1.29,7.78-3.7,1.42-1.72,1.86-2.84-1.4-.85s-4.31,2.83-7.38,2.69-5.74-3.37-5.74-3.37,5,.52,6.2-1.09-4.16.75-7.65-.7a20.41,20.41,0,0,1-5.8-3.69s1.69-4,2.88-5c2.61,2,5.87,4.78,6.38,4.21s-.54-2.69-4.43-4.64a3.39,3.39,0,0,1,3.16-2.4s2,.31,4.93,5.55c.61,1.1,2,2.09-.41-2.14a13.85,13.85,0,0,0-3.79-4.66,5.33,5.33,0,0,1,6.6.68c5.7,4.89,5.9,7.29,6.74,6.94.31-.13-.13-1.38-2.27-4.42a18.44,18.44,0,0,0-4-4.33s2.48-2.83,6.48-.14,6.34,8.25,6.61,8.35c.73.26-.34-4.17-1.91-6.57-1.46-2.23-2.28-3.26-2.28-3.26a5.93,5.93,0,0,1,6.68,2.32c2.87,3.76,2.39,9.26,3.33,9s-.71-9-.71-9S69.44,233.84,64.36,239.25Z" style="fill:#e6e6e6"></path><path d="M51.84,253.13c2.16-2.79,5-5.92,8.74-6.31s7.18,1.59,9.56,4.21a31,31,0,0,1,5.49,9.36,71.85,71.85,0,0,1,3.39,11C82.64,287,83.25,303.08,82.67,319c0,1.25-.1,2.49-.16,3.74H84.2c0-.64.07-1.28.1-1.92a249,249,0,0,0-.08-25,144.7,144.7,0,0,0-3.43-24.69,74,74,0,0,0-3.61-11.67,30.79,30.79,0,0,0-5.75-9.51c-2.76-2.9-6.65-4.92-10.74-4.31-4.25.62-6.75,3.94-9,7.23C51.58,252.94,51.71,253.29,51.84,253.13Z" style="fill:#e0e0e0"></path><path d="M74.83,318.62q.42,3.84.71,7.69h1.87c-.07-1-.14-2-.22-3-.7-8.68-1.9-17.31-3.18-25.91s-2.64-17.16-3.67-25.77c-.5-4.18-1-8.37-1.2-12.57a53.4,53.4,0,0,1,.43-11.92c.65-3.93,2-8.19,4.79-11.14,2.64-2.78,7.72-4,10.35-.51,0,0,.05,0,0-.06-1.64-3-5.87-3.73-8.79-2.33-3.41,1.63-5.48,5.12-6.78,8.52-3,7.87-2.25,16.56-1.43,24.75C69.5,283.88,72.94,301.14,74.83,318.62Z" style="fill:#e0e0e0"></path><path d="M64.75,292c.48,4.42.94,8.85,1.26,13.29.41,5.81.65,11.63.81,17.45h2c0-.87,0-1.74-.08-2.61a205.25,205.25,0,0,0-2.32-26.44c-.4-2.48-1-4.93-1.46-7.38A67.77,67.77,0,0,0,63,278.48c-.08-.24-.32-.12-.29.1.28,2.23.77,4.42,1.13,6.64S64.5,289.73,64.75,292Z" style="fill:#e0e0e0"></path><path d="M77.13,277.81c.87-3.77,7.44-9.24,19-9.43a30.6,30.6,0,0,1,12.11,2.44c-7.53.32-17.49,1.51-18,4.35s3.34,1,6.93-.37c7.79-3,12.7-3.21,12.7-3.21a22.7,22.7,0,0,1,9.78,6.36c-8.2-2.92-17.58-1.51-21.38.53s-3.68,3.76-.47,2.65,9.46-3.52,25.65,0c0,0,3.34,2.2,4.64,8.9-3-2.55-7.35-3.59-11.13-4.36a49.88,49.88,0,0,0-11.74-1.22c-.69,0-2.09.11-2.44.85s.41,1.48,1.06,1.73a13.09,13.09,0,0,0,4.27.6c1.88,0,3.79.21,5.66.4a55.9,55.9,0,0,1,9.3,1.35c1.65.46,5.07,4.74,4.88,9.58-4-.72-12.51-5.55-18.43-4.95s1.1,1.72,6,3.49c4.23,1.52,11.88,4.85,11.88,4.85a95.76,95.76,0,0,1-2.15,12.06,36.55,36.55,0,0,1-12.36.14S109,303.06,106,302s-.63,3.51,2,7.5S111.4,315,111.4,315s-12,2.25-16.85-1.72c-.17-2.44.14-8.8.2-13,.06-4.45,1-8.19-.3-9s-2.66,2.8-3.45,7.17a49.38,49.38,0,0,0-.14,13.23s-8.39-1.53-11.29-3.91c-3.32-7.11.54-15.27,1.38-16.49s-1-5.13-5.18.25a12.43,12.43,0,0,0-2.2,11.64s-6.11-.56-8.66-5.8C60.81,289,64.24,280.27,77.13,277.81Z" style="fill:#e6e6e6"></path><path d="M54,250.32c5.76-.89,13.92.58,18.11,5.28s4.4,10.39,3.17,13.31-2.66-4.47-7-8-6.5-3.3-2.78.44,8.57,10.57,9.26,14.91-3.43,9.13-4.72,8.78.27-4.76-1.74-11.06S62,263.47,58.74,262.46s-2.45.08,1.86,5,9.24,15,7.17,19.68-6.85,6.26-8.11,5.82,1.93-6.35-.43-14.06-7.5-13.19-10.3-11.54-.73,3.79,1.87,9.55,6,17.28,4.71,20.95-8.19,6.06-9.2,4.9,2.21-7.37.62-15.46-4.9-11.26-5.25-8,4,19,2.64,21.64-13.84,6.64-13.84,6.64-6.41-8.13-6.77-10.55,5.5-12.14,8.69-14.9-.78-3-3.33-1.17-8.28,8.91-8.76,12.58c-3.22-3.77-6.07-8.53-3.18-11.58s11.53-8.07,16.58-9.81,8.81-6.67,2.11-5.41-18.33,7.34-20.38,12c-.78-4.21.39-16,7.72-17.85s15-1.29,17.27-2.06-.63-2.8-6.16-3.14-12.9,0-15.78,3.55c.22-4.6.84-9.23,9.33-9.26s12.09,3.47,13.43,2.53-5.27-4.51-10.2-4.82c3.41-3.94,7.57-4.93,12.18-3.88A19.48,19.48,0,0,1,54,250.32Z" style="fill:#f0f0f0"></path><path d="M82.66,230.79c1.66-4.11,7.83-5.49,10.75-4.17-3.16.76-5.83,3.28-4.06,2.51,3.72-1.6,6.05-2.32,10.34-1.43a7.31,7.31,0,0,1,5.41,4.77,26.07,26.07,0,0,0-8.78-1.26c-1.42.08-5.19.66-.56.69,7.29,0,10,2.68,10,2.68s2.43,2.49,2.61,5.33c-3.78-4.11-10-4.82-12.28-5.06s-4.4.94-.61,1.24,10.69,3,12.76,6.8.49,9.71.49,9.71-8.45-11.83-11.64-10.47C97,243.91,106,250,107.51,253.29s-1.91,10.21-1.91,10.21-8.37-.64-10.53-2.08-1.25-10.57-2.39-12-4.32,5.57-2.93,11.59c0,0-4.2.57-5-2.74s.87-10.1,2.78-13.15-1.09-2.43-2.68-.11-3.71,7.46-3.28,10.89c0,0-4.83-2.28-6.06-4.87s3.37-9.4,5.68-11.1.28-3.11-2-1.42-6.1,6.9-6.51,9.57c-2.46-4.71-2.64-10.68,1.58-15C78.74,228.6,82.66,230.79,82.66,230.79Z" style="fill:#f0f0f0"></path></g></g></g><g id="freepik--big-heart--inject-140"><g id="freepik--big-heart--inject-140"><path d="M127.74,62.35c45.41-31.21,109.76-8.79,123.66,53,13.54-61.74,77.83-84,122.83-52.44,55.86,39.16,34.92,160.19-122.58,229.91C88.56,225.52,69.4,102.44,127.74,62.35Z" style="fill:#fff"></path><path d="M251.67,293.89l-.38-.16C203.36,274,165.23,248.47,138,218c-23.62-26.38-37.68-55.16-40.65-83.23-3.3-31.21,7.6-57.9,29.89-73.22a79.34,79.34,0,0,1,74-8.7c24.75,9.71,42.89,30.88,50.22,58.44,7.17-27.53,25.17-48.63,49.86-58.25a78.31,78.31,0,0,1,73.54,9.1c20.7,14.51,30.9,39.92,28,69.7-2.72,27.92-16.43,56.89-39.62,83.79-26.75,31-64.14,57.28-111.12,78.08ZM127.74,62.35l.54.79c-21.7,14.91-32.29,41-29.07,71.43,2.92,27.67,16.82,56.08,40.17,82.16,27,30.16,64.78,55.42,112.26,75.07,46.54-20.66,83.58-46.7,110.06-77.41,22.94-26.6,36.49-55.21,39.17-82.73,2.84-29.07-7.07-53.84-27.19-67.94a76.43,76.43,0,0,0-71.74-8.89c-25.21,9.83-43.29,32-49.61,60.74l-.92,4.22-.95-4.21c-6.47-28.8-24.7-51-50-60.94a77.44,77.44,0,0,0-72.18,8.5Z" style="fill:#e0e0e0"></path></g></g><g id="freepik--Characters--inject-140"><g id="freepik--Couple--inject-140"><g id="freepik--Character--inject-140"><g id="freepik--Bottom--inject-140"><path d="M257.57,391.13c.3,0,.59,3.36-1.11,4.69-2,1.53-7.64,3.94-14.92,2.64s-11.13-3.76-13.94-6.35-6.75-6.26-10-7.15c-3-.82-6.32-2.38-7.26-3.38s-.6-5.22-.6-5.22Z" style="fill:#263238"></path><path d="M213.05,360.2s-.55,0-.79,1c-.28,1.16-.69,4.54-1.26,6.43-.8,2.62-1.52,8.05-1.22,10.23s5.24,3.94,8.39,5.31a41.06,41.06,0,0,1,10.07,7.06c3.3,3,10.4,6.2,15.17,6.5,7.28.46,12.1-1.28,13.68-3.83,2-3.16.64-5.1-7.55-9.39-1.55-.81-7-4.37-8.8-5.66a43.87,43.87,0,0,1-5.49-4.51,32.19,32.19,0,0,1-2.43-2.66,11.21,11.21,0,0,1-2-2.81c-.09-.22-.14-.48-.21-.72a11.24,11.24,0,0,1-.45-2c-.1-.7-.14-1.72-.78-2.17a5.69,5.69,0,0,0-3-.5,22.07,22.07,0,0,0-3.25.31c-1.25.21-2.68.25-3.46,1.38a6,6,0,0,0-.84,3c0,.48-.06,1-.09,1.46,0,.21.06.59-.22.49s-.55-.84-.65-1.09c-.2-.56-.32-1.16-.55-1.71a8.79,8.79,0,0,0-1-1.82,8,8,0,0,0-1.26-1.41,14.49,14.49,0,0,1-1.39-1A3.46,3.46,0,0,1,213.05,360.2Z" style="fill:#455a64"></path><path d="M250.86,384.18c-10.58.22-14.22,6.57-14.86,10.58a24.74,24.74,0,0,0,7.41,1.93c7.28.46,12.4-1.27,14-3.82C259.24,389.9,258.2,387.38,250.86,384.18Z" style="fill:#fafafa"></path><path d="M235,383.52a.5.5,0,0,1-.32-.13.52.52,0,0,1,0-.73,12.39,12.39,0,0,1,9.71-3.3.52.52,0,0,1-.15,1,11.51,11.51,0,0,0-8.8,3A.51.51,0,0,1,235,383.52Z" style="fill:#f0f0f0"></path><path d="M230.63,380.66a.49.49,0,0,1-.32-.14.51.51,0,0,1,0-.72,12.39,12.39,0,0,1,9.72-3.3.51.51,0,0,1,.43.58.5.5,0,0,1-.59.43,11.5,11.5,0,0,0-8.79,3A.54.54,0,0,1,230.63,380.66Z" style="fill:#f0f0f0"></path><path d="M226.57,377.43a.59.59,0,0,1-.33-.13.52.52,0,0,1,0-.73,12.39,12.39,0,0,1,9.72-3.3.52.52,0,0,1-.16,1,11.5,11.5,0,0,0-8.8,3A.49.49,0,0,1,226.57,377.43Z" style="fill:#f0f0f0"></path><path d="M190.52,417.65c-.1,5-.76,8.32-2.41,11.3s-5,4-8.37,3.3-7.81-2.86-8.93-7.12-1.8-7.18-1.2-11.83Z" style="fill:#263238"></path><path d="M175,382.13c-1.38.16-1.55,6.86-2.1,13.58-.6,7.2-2.63,10.25-3.18,16.16-.63,6.75.59,9.71,3.09,13.69s11,7.65,14.88,1.68c3.17-4.86,3.12-10.13,2.57-16.83a149.61,149.61,0,0,1-.18-17c.09-5,1-10.15-.21-10.67-.07.75-.13,1.69-.2,2.42a12.17,12.17,0,0,1-.35,2.69c-.13.38-.42.79-.57.18a4,4,0,0,1,0-1.25c.14-1.86-.8-2-1.31-2.1a63.64,63.64,0,0,0-6.48-.68c-1.07,0-4.74-.06-5.19.57a4.13,4.13,0,0,0-.4,2c-.08,1-.29,1.76-.33,1.45-.09-.73,0-2.61,0-3.07s.05-1,0-1.47S175,382.56,175,382.13Z" style="fill:#455a64"></path><path d="M169.48,415.77a16.81,16.81,0,0,0,3,10.12c2.5,4,11.66,7.64,15.55,1.67,1.94-3,2.36-6.41,2.51-9.91C187.89,413.25,173.23,411.81,169.48,415.77Z" style="fill:#fafafa"></path><path d="M187.22,410.45a.33.33,0,0,1-.17,0c-.06,0-6.59-2.45-12.8-.77a.52.52,0,0,1-.63-.36.51.51,0,0,1,.36-.63c6.57-1.78,13.23.71,13.48.82a.51.51,0,0,1-.24,1Z" style="fill:#f0f0f0"></path><path d="M174.38,404.62a.49.49,0,0,1-.45-.33.51.51,0,0,1,.29-.66c6.16-2.34,13.2.57,13.46.7a.51.51,0,0,1,.24.69.52.52,0,0,1-.68.24c-.06,0-6.92-2.85-12.65-.67A.39.39,0,0,1,174.38,404.62Z" style="fill:#f0f0f0"></path><path d="M174.42,399.89a.5.5,0,0,1-.44-.32.52.52,0,0,1,.28-.67c6.77-2.71,13.46.51,13.71.65a.51.51,0,1,1-.5.9c-.06,0-6.52-3.11-12.82-.59A.46.46,0,0,1,174.42,399.89Z" style="fill:#f0f0f0"></path><path d="M244.77,193c4.26,15.59,3.44,42,2.5,59.44-.91,16.76-7.46,51.09-9.72,73.41s-4.88,42-4.88,42a21.94,21.94,0,0,1-12.48,3.41c-6.95-.41-9.19-3.65-9.19-3.65s-1.56-14.4-1.94-24.25-1.51-22.37-1.48-30.25.25-19.62,2.13-25.61l.15-8.23s-4.67,28.49-6.43,43.86-11.23,66.3-11.23,66.3-1.43,3.41-10.76,2.86-9.77-4.08-9.77-4.08-.06-29.17-.61-39.89,1.55-34.15,3.16-39.72-.24-27.78-.08-36.6-2.73-36.24-.55-53.72,8.66-27.71,8.66-27.71C192.65,201.81,224.82,201.76,244.77,193Z" style="fill:#BA68C8"></path><path d="M244.77,193c4.26,15.59,3.44,42,2.5,59.44-.91,16.76-7.46,51.09-9.72,73.41s-4.88,42-4.88,42a21.94,21.94,0,0,1-12.48,3.41c-6.95-.41-9.19-3.65-9.19-3.65s-1.56-14.4-1.94-24.25-1.51-22.37-1.48-30.25.25-19.62,2.13-25.61l.15-8.23s-4.67,28.49-6.43,43.86-11.23,66.3-11.23,66.3-1.43,3.41-10.76,2.86-9.77-4.08-9.77-4.08-.06-29.17-.61-39.89,1.55-34.15,3.16-39.72-.24-27.78-.08-36.6-2.73-36.24-.55-53.72,8.66-27.71,8.66-27.71C192.65,201.81,224.82,201.76,244.77,193Z" style="fill:#fff;opacity:0.30000000000000004"></path><path d="M209.86,279.25s3.91-29.46,5-42.26c6.31-.54,13.71-5.94,18-10.87-2.38,7.76-10.67,12.51-14.57,13.7L211,279.88l-1.28,7.6Z" style="fill:#BA68C8;opacity:0.6000000000000001"></path><path d="M177.06,236.32c.73-12.53,2.56-25.1,6.77-37,.52-1.48,1.07-2.94,1.66-4.4.07-.17.21,0,.16.11a144,144,0,0,0-7.06,34,7.62,7.62,0,0,0,5.51-2.16,14.07,14.07,0,0,0,3.52-6.08c.76-2.35,1.27-4.79,1.86-7.18.63-2.6,1.25-5.21,1.92-7.8.81-3.11,1.67-6.2,2.49-9.3,0-.14.18-.07.16.05-.61,2.84-1.2,5.69-1.84,8.53s-1.35,5.75-2,8.62c-1.12,4.67-1.91,10.16-5.61,13.59a8.6,8.6,0,0,1-6,2.46c-.1,1.11-.21,2.23-.29,3.35a352.47,352.47,0,0,0-.23,37.77c.43,12.83,1.22,25.71.65,38.56-.58,13.18-3,26.17-4.4,39.27-1.45,13.28-1.54,26.64-1.79,40,0,.25,0,.49,0,.74a3.88,3.88,0,0,1-.54-.69,294.83,294.83,0,0,1,1-35.3c1.16-13.25,3.66-26.34,4.6-39.61s.16-26.4-.32-39.56C176.69,261.67,176.32,249,177.06,236.32Z" style="fill:#BA68C8;opacity:0.6000000000000001"></path></g><g id="freepik--Top--inject-140"><path d="M237.45,131.41c4.45.7,11,3.17,14.37,7.33S270,173.66,270,173.66l31.49,25.57-3.83,12s-27.46-12.9-34.46-16.82c-5.1-2.85-6.89-3.7-11.78-10.81-6-8.69-14.82-24.91-14.82-24.91Z" style="fill:#b16668"></path><path d="M193.66,99.46a6.76,6.76,0,0,1-1.51,1.77,9.84,9.84,0,0,1-3.68,1.44,16.19,16.19,0,0,0-4.92,1.91,6.75,6.75,0,0,0-3.07,4.16c-.35,1.75.21,3.7-.62,5.28a3.46,3.46,0,0,1-5.1,1c.17.15.27,1.29.44,1.6a5.28,5.28,0,0,0,1,1.14,5.66,5.66,0,0,0,3.27,1.66,7.89,7.89,0,0,0,1.59,9.78c.9.77,2,1.37,2.5,2.44.66,1.44-.06,3.1-.11,4.68a7,7,0,0,0,3.58,6,13.8,13.8,0,0,0,7.05,1.66c2.49,0,5-.32,7.46.2,3,.62,5.52,2.45,8.38,3.43a15.57,15.57,0,0,0,14.44-2.48c3.19-2.53,5.41-6.35,9.13-8a28.61,28.61,0,0,0,3-1.24,6.83,6.83,0,0,0,3.11-5.93,11.49,11.49,0,0,0-2.33-6.5c-1.77-2.5-3.36-4.39-4.37-7.26s-4.08-4.46-6.28-6.06c-4.9-3.58-5.31-10-10.46-13.48a19.52,19.52,0,0,0-10.81-3.51c-3.6,0-7.84.76-10.09,3.83C194.62,97.74,194.17,98.63,193.66,99.46Z" style="fill:#263238"></path><g id="freepik--Chest--inject-140"><path d="M179.36,193.86c1.31-4.27,4-8.92,3.54-15.23-.55-7.44-4.42-16.49-4.39-19.58.09-12.46,4.77-21.26,8.07-23.19,0,0,9.13-3.67,14.09-5.43s5.55-2.86,8.56-3.08c7.49-.54,17.59,2.31,21.27,2.66,1.38.12,9,1.4,9,1.41A91.77,91.77,0,0,1,249.07,147c2.71,5.85,5.42,19.29-2.42,27.34-1.24,11.87-.51,19.52-.49,24.36C223.15,213.93,197.66,206.45,179.36,193.86Z" style="fill:#37474f"></path></g><path d="M254.78,91.91a6.3,6.3,0,0,1-.95-1.79,4.91,4.91,0,0,1,0-1.91,21.27,21.27,0,0,0,.49-4.82c-.27-3.16-2.57-5.89-5.36-7.39a21.17,21.17,0,0,0-9.2-2.07c-2.67-.1-5.4,0-7.91-.93-1.37-.5-2.62-1.28-4-1.85a14,14,0,0,0-17.44,5.55,19.51,19.51,0,0,0-1.74,3.84c-9.16,3-8.44,16.77-6.68,21.4,1.82,4.8,7.72,14.23,7.76,16.25l12.67-5.48L235,107.3c1.68-.73,3.53-2,5.38-1.83a23.1,23.1,0,0,0,6.16,0,7.77,7.77,0,0,0,5.64-4,3.89,3.89,0,0,1-1,3.55,6.7,6.7,0,0,0,5.38-5.38A10.59,10.59,0,0,0,254.78,91.91Z" style="fill:#263238"></path><path d="M245.7,88.67c2.68,5-.2,12.19.08,17.42,0,12.57-5.82,22.62-18,19.43-.68,3.38-.27,4,2.7,4.49,2.52,5.72,2.61,14.47-.18,18.65-8.25-2.95-26.89-13.91-29.65-18.23,5.57-2.76,7.86-3.93,8.31-7.79l1.46-12c-4.35,2.69-9.18-3.53-8.75-8.73.28-6.43,7-7.86,9.85-1,.88,2.1,3,1.88,3.21.38.41-1.25-.18-2.23.42-3.41,2.26-1.13,4.57-2.63,5.28-5.26.63-1.94.52-4.23,1.87-5.76C229.07,82.38,241.35,84.63,245.7,88.67Z" style="fill:#b16668"></path><path d="M227.57,128.29a7.49,7.49,0,0,1,.23-2.77c-11.22-2.56-13.91-7.28-15-11a9.69,9.69,0,0,0,2.56,7.36C219.72,126.83,226.69,128.14,227.57,128.29Z" style="fill:#9a4a4d"></path><path d="M244.36,100.42l-3.94-2.76a2.31,2.31,0,0,1,3.29-.66A2.53,2.53,0,0,1,244.36,100.42Z" style="fill:#263238"></path><path d="M229.67,95.53l-4.77,2a2.49,2.49,0,0,1,1.3-3.35A2.71,2.71,0,0,1,229.67,95.53Z" style="fill:#263238"></path><polygon points="233.74 97.47 232.92 110.69 240.22 108.64 233.74 97.47" style="fill:#9a4a4d"></polygon><path d="M243.64,103.76c.29-1-1.1.07-2.33-.28s-1.84-2-2.13-1a2.37,2.37,0,0,0,4.46,1.27Z" style="fill:#263238"></path><path d="M230.27,101.24c.09-1-1.06.28-2.34.17s-2.19-1.6-2.28-.56a2.37,2.37,0,0,0,4.62.39Z" style="fill:#263238"></path><path d="M227.07,110.32a5.57,5.57,0,0,1,.58.93,5.51,5.51,0,0,0,.49.7,6.72,6.72,0,0,0,2.59,2c.24.1.5.19.75.27a5.46,5.46,0,0,1,1.13.34c.15.08-.06.32-.16.35a3.62,3.62,0,0,1-2.1-.22,6.75,6.75,0,0,1-1.81-.93,6.94,6.94,0,0,1-1.39-1.37,3,3,0,0,1-.83-1.8A.48.48,0,0,1,227.07,110.32Z" style="fill:#9a4a4d"></path></g></g><g id="freepik--character--inject-140"><g id="freepik--bottom--inject-140"><path d="M246.57,406.5c.88-3.29-2.25-5.51-3.69-7.48-2.24-3-2.72-7.64-2.57-11.15.18-4.38-.22-7.53,2.56-11.4,3.29-4.57,7.84-9.9,22.88-22.8l-17.31-19.3c-4,5.94-14.18,26.9-14.18,26.9l-.67,1.29a23.73,23.73,0,0,1-5.86,5.38l-1,.49c-1.75,1.14-6.15,2.26-6.22,6.46s1.48,5.31,3.2,8.82a12.8,12.8,0,0,1,1.85,7.58c-.05,3.38-.31,4.83-.45,7.85-.12,2.55,2,6.33,6.72,8.17C238.65,410,245.72,409.75,246.57,406.5Z" style="fill:#f28f8f"></path><path d="M218,374.92a47.65,47.65,0,0,0-5.5,9l4.53,7.08,4.24-6.81A25.55,25.55,0,0,1,218,374.92Z" style="fill:#263238"></path><path d="M217.06,391l6.56-.22a5.94,5.94,0,0,0-.5-4.2,8.47,8.47,0,0,0-1.82-2.39Z"></path><path d="M219.4,373.41a4.86,4.86,0,0,0-1.31,1.36c-.33.68-.13,5,1.16,7.16s3.43,4.45,3.87,7.45-.94,7.52.06,11.73,4.74,9.12,13.19,10.57c6,1,8.37-.07,10.45-1.3.83-2.68.78-3.39-2.46-5.8S219.4,373.41,219.4,373.41Z" style="fill:#263238"></path><path d="M231.09,362.83c-2.84,3.24-3.86,4.49-6.42,5.89-3.09,1.71-3.74,2.41-5.27,4.69-.74,3.59-.08,5.11,3,9.85,2.09,3.24,2.74,5.35,2.53,9.69-.26,5.26-2.16,7.67,3.86,13.28,4.68,4.37,15.24,5,18.21,2.24,2.71-7.08-3.6-6.8-4.82-14.46a25.73,25.73,0,0,1,.66-12.59,33.94,33.94,0,0,1,2.34-5.43c1.07-1.74,2-3,1.24-4l-1.62,1.9c-1.55.29-5.24-.68-7.62-2.81-5.74-5.13-3.56-8.54-3.56-8.54l.67-1.29C233.69,360.5,232.7,361,231.09,362.83Z" style="fill:#37474f"></path><path d="M304.15,213.86c2.36,8.9,4.5,14.34,6.29,38.32,1.67,22.48,0,32.5-2,43.58-.69,3.94-2.83,8.52-6.81,14.25-12.47,17.95-36.76,46-36.76,46s-5.28-.29-11.5-5.79c-6-5.31-6.76-14.07-6.76-14.07s1.51-2.95,11.87-19.54,12.24-34.87,12.24-34.87l-3.87-72.14C282,211.58,282.57,211.69,304.15,213.86Z" style="fill:#263238"></path><path d="M253.41,350.24c-6-5.31-6.76-14.07-6.76-14.07s1.51-2.95,11.87-19.54,12.24-34.87,12.24-34.87l-3-55.23c11.93-1.44,28.48-.67,28.48-.67,0,7.89-2,17.58-13.18,23,0,0,.68,38.79.55,50.13-.11,8.65-3.31,30.56-4.83,40.47-7.72,9.38-13.9,16.53-13.9,16.53S259.63,355.74,253.41,350.24Z"></path><path d="M272.48,392.21l.15-1.73,3.49-35.85L250.2,359.7l4.7,29.53.14,1.49s.21,8,11,8C273.85,398.76,272.48,392.21,272.48,392.21Z" style="fill:#f28f8f"></path><polygon points="258.01 424.16 267.48 421.27 268.11 413.08 258.46 416.07 258.01 424.16"></polygon><path d="M249.63,405.46c-.5,3,1.74,14.67,1.74,14.67l6.64,4,.45-8.08s1.83,1.55,3.66,5.89c1.73,4.11,3.17,7.17,7.53,9.36s9.1,2.87,15.66,2.3c4.66-.41,7.59-2.14,8.4-3.2a3.49,3.49,0,0,0,.34-1.7Z" style="fill:#263238"></path><path d="M272.63,390.48c1.28-.05,1.14,1.07,2.45,7.91,1,5.11,6.43,16.11,10.14,19.91,3.25,3.34,9.58,4.53,8.83,10.43-3,3.43-13.09,4.46-18.9,2.85-7.42-2.05-9.68-5.47-12.43-12.11-2.21-5.32-4.31-6-7.44-8.16-2.07-1.45-4.89-3.55-5.65-5.85,0-5,2.2-8.17,3-10.66s.5-5.26,2.24-5.57l.14,1.49s1.46,4,9.83,4.47,7.61-3,7.61-3Z" style="fill:#37474f"></path><path d="M300.91,203.54s1.48,13.1-3.05,24.82c-3.92,10.17-11,15.73-18.28,17.88,0,0,.79,46.4,1.21,52.87s-1.31,29.77-3.2,45.09-2.17,20.58-2.17,20.58-4.19,3.34-13.11,3.19-11.61-4.07-11.61-4.07-5-18-4.76-31.93c.14-8,2-11.91.78-19.89s-10-43.75-12.12-60.46c-2-16.35-1.27-29.32,7.85-40.81C254.56,219.63,289.34,211.33,300.91,203.54Z" style="fill:#263238"></path><path d="M253.72,206.32C247.17,215,237.53,233,243,259.51c1.55,7.54,3.12,14.83,4.63,21.87,3.53,16.48,6.32,29.51,6.59,34.45a40.71,40.71,0,0,1-.68,8.29,71.56,71.56,0,0,0-.68,19.54C253.7,352.11,255,361,256,367c-.37-.11-.73-.23-1-.35-1-6-2.23-14.7-3-22.93a72.34,72.34,0,0,1,.69-19.78,40.53,40.53,0,0,0,.67-8.1c-.26-4.86-3.05-17.85-6.57-34.3-1.51-7-3.08-14.32-4.63-21.87-5.52-26.71,4.1-44.94,10.75-53.81Z"></path></g><path id="freepik--Arm--inject-140" d="M311.92,207.8c-1.48-5.59-6.36-17.9-9.66-26.18.09.23,2.93-18,3.53-25.27.79-9.57-3.89-18-16.84-20.09,0,0-6.77,44.4-5.75,49.77s19.17,31.27,19.17,31.27S312.93,211.62,311.92,207.8Z" style="fill:#ffa8a7"></path><g id="freepik--chest--inject-140"><path d="M303.05,153.43c-8.2-11.42-13.88-16.73-19-17.94l-22.78.51s-4.91.9-11.05,1.79-12,5.48-13,12c-.47,2.91,2.71,14.16,7.15,26.55,3.36,9.39,5.54,15.73,5.39,23.58,8,16.6,51.23,15.23,49.48-1.27,0,0,3.65-10,3.17-19.48C308.67,170.82,307.61,159.77,303.05,153.43Z" style="fill:#ffa8a7"></path><path d="M280.85,151.52c5.44,2.64,14.34,15,7.6,28.8,4.14-4.55,5-13.57,2.93-18.56C289,156,284.44,152.31,280.85,151.52Z" style="fill:#f28f8f"></path><g id="freepik--Dress--inject-140"><path d="M241.27,181s3.6,9.82,4.1,15.51c.23,2.65.1,9.93-3.66,14.73,5.08,6.67,19.18,11.93,26.08,13a48,48,0,0,0,17.79-.64,42.33,42.33,0,0,0,14.22-6.38c1.51-1,2.95-2.15,4.35-3.31-1.15-4.42-.72-9.58-2.42-15.53.92-10.75,1.14-18.69,1.14-18.69a16.88,16.88,0,0,0,6.16-8.41c3.16-9.5-3.61-18.69-10.66-26.08a92.5,92.5,0,0,0-9.42-8.89c-4.3-1.07-8.32-1.76-9.8-2.2,1.27.38,2.83,2,3.89,2.82,1.43,1.08,2.84,2.2,4.18,3.39,2.42,2.16,4.95,4.54,5.53,7.87a8,8,0,0,1,0,3.19,7.17,7.17,0,0,1-4,4.59,14.71,14.71,0,0,1-6.12,1.22c-9.41.2-19.85-4.32-25.65-11.87-1.06-1.38-2.14-2.74-3.31-4-.54-.59-2.81-3.53-3.6-3.47a55.68,55.68,0,0,0-5.62,1s4,6.27,4.79,11.18a43.07,43.07,0,0,1-1.94,19.45A33.54,33.54,0,0,1,241.27,181Z" style="fill:#BA68C8"></path><path d="M287,180.63a19.87,19.87,0,0,1-14.94,3.79,19.26,19.26,0,0,1-7.36-2.85,35.08,35.08,0,0,1-4.56-4.31c-.09-.08-.16.14-.14.2a14.66,14.66,0,0,0,5,6.16,16.61,16.61,0,0,0,7.41,2.71,17.52,17.52,0,0,0,7.91-.62,15,15,0,0,0,6.79-4.86C287.15,180.79,287.16,180.54,287,180.63Z" style="opacity:0.2"></path></g></g><g id="freepik--Head--inject-140"><path d="M245.84,102.38c-3.39-1.68-6-8.65-3-15.95,2-4.8,8.74-9.71,15-8.18,8.9-3.43,23.11-.33,27.82,7.29s4.84,17.49-.77,26.76c-3.65,6-6.07,10.12-6.07,10.12Z" style="fill:#263238"></path><path d="M271.74,120.18c.29-1.19,1.08-2.29.91-3.56-.14-1-.87-.9-1.2-1.85a4.53,4.53,0,0,1,.71-4,9.44,9.44,0,0,1,3.13-2.69c.55-.32,1.13-1.54,1.54-2a5.3,5.3,0,0,0,1.14-1.85,8.29,8.29,0,0,1,7.21-5,25,25,0,0,1,4.72.53c.71.11,1.38-.07,2.08,0a7.17,7.17,0,0,1,3,1,4.41,4.41,0,0,1,2.2,3.33,8.76,8.76,0,0,0,.17,2.3,5.78,5.78,0,0,0,1.29,2.19,5.09,5.09,0,0,1,1.29,2.22,3.45,3.45,0,0,1-.7,3.25,4.69,4.69,0,0,0-1.65,3.27,9,9,0,0,1-.51,3.36,3.27,3.27,0,0,1-2,1.68c-.89.26-1.92.16-2.65.73s-.87,1.62-1.29,2.46a3.76,3.76,0,0,1-3.42,2c-1.2,0-2.35-.66-3.55-.53a8.06,8.06,0,0,0-2.24.82,9.52,9.52,0,0,1-5.5.63,5.17,5.17,0,0,1-4.13-4.36C272.18,122.75,271.37,121.69,271.74,120.18Z" style="fill:#263238"></path><path d="M291.19,106.88c-1.23-2.08-4.35-3.48-6.61-2.15s-2.51,2.63-3.45,4.28-4.4,2.32-5-4.46c-.6-6.33-.46-8.12-2.81-11.6-3.14-4.64-11-6-14-1.39-.93-5-5.83-5.52-8.16-3.71-2.78,2.14-4.51,3.84-5.92,15.78-1.44,12.18,1.35,19.26,4.1,21.39,2.08,1.61,4.28,2.74,8.85,3.07l-.37,3.94h0c-.26,2.17-2.38,4.76-7.54,5.76,2.63.73,24.09,6.47,30.82,4.93s1.84-7.15-1.87-8.66c-.57-.23-1.1-.64-.75-3.32h0L279.84,117a3.94,3.94,0,0,0,3,2c2.47.53,4.48-.65,6-2.27C292.27,113.16,292.68,109.42,291.19,106.88Z" style="fill:#ffa8a7"></path><path d="M248.76,99.14l4.57-1.51a2.32,2.32,0,0,0-3-1.58A2.54,2.54,0,0,0,248.76,99.14Z" style="fill:#263238"></path><path d="M264.24,98.69l4,3.25a2.48,2.48,0,0,0-.28-3.58A2.71,2.71,0,0,0,264.24,98.69Z" style="fill:#263238"></path><polygon points="259.79 99.37 256.77 112.27 250.36 108.21 259.79 99.37" style="fill:#f28f8f"></polygon><path d="M258.11,128.09a31.5,31.5,0,0,0,11.94-2.53c2.79-1.17,5.17-4.46,6.26-7.46a11,11,0,0,1-5,9c-4.87,3.26-13.45,3.78-13.45,3.78Z" style="fill:#f28f8f"></path><path d="M248.49,102.55c0-1,1,.38,2.32.4s2.33-1.38,2.32-.34a2.37,2.37,0,0,1-4.64-.06Z" style="fill:#263238"></path><path d="M262,104c.22-1,.94.57,2.19.84s2.56-.9,2.35.11a2.37,2.37,0,0,1-4.54-1Z" style="fill:#263238"></path><path d="M261.71,87.12a2.24,2.24,0,0,1,1.42-2.51l-2.07-1c-1.23-.46-2.08-1.64-3.31-2.11-1.48-.55-3.45.36-3.64,1.92a3.92,3.92,0,0,0,1.49,3.09,7.84,7.84,0,0,1,2.2,2.75,2,2,0,0,1,0,1.41c-.31.66-1.09,1-1.5,1.57a2.19,2.19,0,0,0,.55,2.8,4.11,4.11,0,0,0,3,.76,2.13,2.13,0,0,1-1.39-1.53,1,1,0,0,1,0-.58c.23-.63,1.11-.59,1.77-.66a3,3,0,0,0,2.44-3.87A17.43,17.43,0,0,1,261.71,87.12Z" style="fill:#263238"></path><path d="M262.48,113.6a5.1,5.1,0,0,0-.82.72,5,5,0,0,1-.68.53,6.53,6.53,0,0,1-1.53.79,6.15,6.15,0,0,1-1.51.36c-.27,0-.54,0-.81,0a5.73,5.73,0,0,0-1.17,0c-.17,0,0,.33,0,.38a3.53,3.53,0,0,0,2.08.4,6.86,6.86,0,0,0,2-.37,7.09,7.09,0,0,0,1.72-.91c.48-.34,1.19-.88,1.31-1.49A.47.47,0,0,0,262.48,113.6Z" style="fill:#b16668"></path></g></g><g id="freepik--arm--inject-140"><path d="M288.67,219.28c.31-.07.62-.15.92-.24a2.64,2.64,0,0,0,1.21-.59,1.81,1.81,0,0,0,.22-2.09,3,3,0,0,0-1.76-1.33,9.29,9.29,0,0,0-2.23-.3c.75-.27,1.32-.51,1.3-1.35a1.63,1.63,0,0,0-.53-1.26,5.12,5.12,0,0,0-2.93-1.11,16.12,16.12,0,0,0-3.32.33c-4.91.79-10.06.86-14.69-.93-.17-.07-.38-.18-.37-.36a.44.44,0,0,1,.24-.31,11.68,11.68,0,0,1,4.78-1.41c1.49-.23,3.41-.38,4.5-1.53a2.14,2.14,0,0,0,.63-1.11,1.1,1.1,0,0,0-.47-1.11,1.56,1.56,0,0,0-.57-.16,38,38,0,0,0-9.52-.7c-1.5.15-2.84.7-4.28,1a38.8,38.8,0,0,1-4.29.47c-7,.59-11.58-2-17.17-4.79q-9.06-4.53-18.16-9l-15-31.42s-8-20.87-20.57-24.12c-6.14,1.92-8.86,8.73-9.56,12.9-.82,4.83,1.49,11.87,7.18,22.56,5.49,10.31,15.35,26.27,17.46,30.2,3.73,7,3.86,8.1,13.28,11.95,6.57,2.69,26.4,6.87,30,8.07s7.64,1.6,11.15,3.22a59.34,59.34,0,0,0,11.9,4.29,24.74,24.74,0,0,0,11.35.22c.64-.16,3.71-.59,3.73-1.54a.64.64,0,0,0-.14-.39,3.43,3.43,0,0,0-2.35-1.39,16.32,16.32,0,0,0-2.8-.12,17.41,17.41,0,0,1-5.9-1c-.11,0-.24-.11-.22-.22s.12-.14.22-.16a6.33,6.33,0,0,1,1.38-.1,42.81,42.81,0,0,0,9-.84,7.27,7.27,0,0,0,2-.69,3.06,3.06,0,0,0,1.43-1.54c.17-.46.17-1.06.59-1.37a3.15,3.15,0,0,1,1.42-.5Z" style="fill:#b16668"></path><path d="M285.46,215.34c-1.61.11-3.18.4-4.78.58s-3,.3-4.53.34a33.84,33.84,0,0,1-4.27-.12c-1.51-.14-3-.4-4.49-.59-.07,0-.08.13,0,.14a29.89,29.89,0,0,0,9.15,1.13,33.2,33.2,0,0,0,4.47-.47,36.93,36.93,0,0,0,4.47-.94S285.51,215.34,285.46,215.34Z" style="fill:#9a4a4d"></path><path d="M286.14,219.79c-1.61.1-3.18.39-4.78.57s-3,.3-4.53.35a33.85,33.85,0,0,1-4.27-.13c-1.51-.14-3-.4-4.49-.58-.07,0-.08.12,0,.14a29.58,29.58,0,0,0,9.15,1.12,31.64,31.64,0,0,0,4.47-.46,41.2,41.2,0,0,0,4.47-.94S286.19,219.78,286.14,219.79Z" style="fill:#9a4a4d"></path></g><g id="freepik--Hand--inject-140"><path d="M306.91,206.32a.37.37,0,0,0,0-.11,6.45,6.45,0,0,0-1.27-3.65,13.11,13.11,0,0,0-1.36-1.62,5.09,5.09,0,0,0-1.34-1.2,10.2,10.2,0,0,0-3.57-.81l-3.52-.18c-.68,0-2.35-.45-2.84.16a.9.9,0,0,0-.15.64c.15,2.79,3.35,3,5.49,3.3a10.78,10.78,0,0,1,1.59.27c.89.27,1.9,1,1.33,2a6,6,0,0,1-2.3,2.13,14.53,14.53,0,0,1-3.19,1.17c-1.53.4-4,.9-4.27,2.79a1.31,1.31,0,0,0,.3,1.15,1.71,1.71,0,0,0,1.2.35,19.51,19.51,0,0,0,2.16-.09,1.59,1.59,0,0,0-.37.18l-.6.31a4.34,4.34,0,0,0-1.08.88,2,2,0,0,0-.54,1.09.7.7,0,0,0,.06.43,1,1,0,0,0,.3.32,5.92,5.92,0,0,0,3.37.63,3.16,3.16,0,0,0-.74.29,1.73,1.73,0,0,0-.72.84,1.55,1.55,0,0,0-.11.56.71.71,0,0,0,.46.7,3.22,3.22,0,0,0,1,.27,10.16,10.16,0,0,0,1.23.08,14.84,14.84,0,0,0,2.4-.11,9.28,9.28,0,0,0,3.56-.95.38.38,0,0,1,.25-.07c.22.05,0,.28,0,.37a3.12,3.12,0,0,0-.26.7,2.79,2.79,0,0,0,0,1.62,1.49,1.49,0,0,0,1.2,1c.8.07,1-1.06,1.31-1.64.37-.78.74-1.57,1.08-2.36a8.68,8.68,0,0,0,.81-4.91,7.37,7.37,0,0,1-.23-1.47c0-.35.14-.68.19-1a3.15,3.15,0,0,0-.27-1.91,6.07,6.07,0,0,1-.54-1.12A4.57,4.57,0,0,1,306.91,206.32Z" style="fill:#b16668"></path><path d="M305.67,206.87a8.34,8.34,0,0,1-.8,1.54,4.92,4.92,0,0,1-.86,1.16,7.48,7.48,0,0,1-2.44,1.69,26.67,26.67,0,0,1-6,1.29l-.4,0a10.85,10.85,0,0,0,4-.2,11.23,11.23,0,0,0,3.23-.84,7.51,7.51,0,0,0,2.32-1.87,6.37,6.37,0,0,0,1-2.78C305.75,206.85,305.69,206.8,305.67,206.87Z" style="fill:#9a4a4d"></path><path d="M306.35,211.07a7.92,7.92,0,0,1-.74,1.45,5.11,5.11,0,0,1-.82,1.09,6.81,6.81,0,0,1-2.29,1.58,24.58,24.58,0,0,1-5.63,1.21l-.37,0a10.21,10.21,0,0,0,3.77-.2,10.57,10.57,0,0,0,3-.78,7,7,0,0,0,2.18-1.76,6,6,0,0,0,.93-2.61S306.37,211,306.35,211.07Z" style="fill:#9a4a4d"></path></g><g id="freepik--hand--inject-140"><path d="M312.25,211.57a.43.43,0,0,1,0-.11,6.37,6.37,0,0,0-.35-3.85,13.36,13.36,0,0,0-.93-1.9c-.65-1.11-1.52-2.09-2.25-3.16s-1.69-2.38-2.58-3.54a1,1,0,0,0-.53-.43.89.89,0,0,0-.81.42,4.44,4.44,0,0,0-.56,4,13.92,13.92,0,0,0,2,3.67c.46.69,1.27,1.89.5,2.67a5.5,5.5,0,0,1-2.42,1.22,14.24,14.24,0,0,1-3.38.37c-1.59,0-4.08-.07-4.82,1.69a1.34,1.34,0,0,0,0,1.19,1.74,1.74,0,0,0,1.08.62c.64.17,1.47.34,2.12.44a1.14,1.14,0,0,0-.4.08l-.65.16a4.4,4.4,0,0,0-1.26.59,2.09,2.09,0,0,0-.79.93.84.84,0,0,0-.05.44,1,1,0,0,0,.22.38,6,6,0,0,0,3.12,1.42,2.88,2.88,0,0,0-.78.1,1.75,1.75,0,0,0-.91.65,1.55,1.55,0,0,0-.24.52.74.74,0,0,0,0,.26.87.87,0,0,0,.3.52,3.16,3.16,0,0,0,.92.5,10,10,0,0,0,1.17.38,17,17,0,0,0,2.36.47,9.69,9.69,0,0,0,3.68-.07.37.37,0,0,1,.27,0c.2.1-.05.28-.12.36a2.9,2.9,0,0,0-.41.62,2.74,2.74,0,0,0-.37,1.58,1.47,1.47,0,0,0,.92,1.25c.77.26,1.26-.78,1.67-1.28.55-.67,1.09-1.34,1.62-2a8.72,8.72,0,0,0,1.95-4.57,7.38,7.38,0,0,1,.13-1.49,8.79,8.79,0,0,1,.43-.94,3.16,3.16,0,0,0,.19-1.92,6.29,6.29,0,0,1-.25-1.22A3.5,3.5,0,0,1,312.25,211.57Z" style="fill:#ffa8a7"></path><path d="M311.92,207.61c-1.57-3.16-4.07-5.73-6.08-8.61-.16-.18-.29-.23-.45-.16-1.21.85-1.3,2.81-.88,4.16.83,3.22,5.64,6.18-.18,7.54,3.08-1.06,3.25-2,1.29-4.47-1.42-1.95-2.67-4.81-1.12-7.06.24-.36.75-.84,1.28-.63a1.1,1.1,0,0,1,.42.3c.82,1.11,1.6,2.21,2.39,3.34a24.53,24.53,0,0,1,3.33,5.59Z" style="fill:#f28f8f"></path><path d="M310.91,211.8a8.92,8.92,0,0,1-1.15,1.31,5.14,5.14,0,0,1-1.11.91,7.43,7.43,0,0,1-2.78,1.06,26.67,26.67,0,0,1-6.12-.18l-.4-.05a11,11,0,0,0,3.94.76,11.67,11.67,0,0,0,3.34,0,7.65,7.65,0,0,0,2.71-1.27,6.37,6.37,0,0,0,1.62-2.45S311,211.73,310.91,211.8Z" style="fill:#f28f8f"></path><path d="M310.56,216a7.32,7.32,0,0,1-1.07,1.23,4.59,4.59,0,0,1-1.05.86,6.81,6.81,0,0,1-2.6,1,24.58,24.58,0,0,1-5.75-.17l-.38,0a10.35,10.35,0,0,0,3.7.71,10.66,10.66,0,0,0,3.14,0,7.11,7.11,0,0,0,2.54-1.18,5.9,5.9,0,0,0,1.52-2.31C310.64,216,310.6,216,310.56,216Z" style="fill:#f28f8f"></path></g><g id="freepik--arm--inject-140"><path d="M244.46,138.74c-6.33,1-12.35,3.86-16,13.76s-9.92,52.77-9.92,52.77c3.51,1.37,8.27,1.28,13.41-3.77s11.76-19.62,11.76-19.62,6.65-15.63,6.68-24.71C250.4,148.36,248.49,142.83,244.46,138.74Z" style="fill:#f28f8f"></path><path d="M235.57,134.26h0a14.27,14.27,0,0,0-5.08-4.13c-2.55-1.47-8.68-7-9.61-7.73s-2.73-4.08-4-6.22-2.33-3.5-4.5-2.23c-.05-.13-.19-.47-.51-1.23-.76-1.77-1.54-2.21-2.44-2.22a2.87,2.87,0,0,0-1.22.33,3.62,3.62,0,0,0-1.35-1.55c-1.08-.63-1.89-.41-2.18.11s.11,1.7.82,4.5a43.61,43.61,0,0,0,1.83,6.23,4.63,4.63,0,0,0,.25,2.74,61.91,61.91,0,0,0,6.38,9.22c1.14,1.31,7.66,7,9.52,9.28,2.2,2.47,1.13,7-.82,12.68-2,5.86-4,11.95-6,17.18a83.61,83.61,0,0,0-3.88,13.3c-1,4.81.05,11.58,2.77,17.94,2.35,5.47,9.38,2.72,14.25-3.07s6.72-10.61,7.47-15.42a111.91,111.91,0,0,0,1.35-18.55c.06-12.59,0-16.43-.12-18.92C238.16,141.75,237.81,137.46,235.57,134.26Z" style="fill:#ffa8a7"></path><path d="M213.91,132.09c1.31,1.33,2.73,2.54,4.11,3.8s2.74,2.52,4.08,3.83a16.63,16.63,0,0,1,1.88,2.11,5.87,5.87,0,0,1,.82,2.72,17.79,17.79,0,0,1-.76,5.58c-.5,1.8-1.12,3.57-1.73,5.33l-1.82,5.28c-1.23,3.52-2.48,7-3.89,10.49,1.27-3.5,2.43-7,3.61-10.58l1.77-5.31c.6-1.76,1.21-3.52,1.69-5.31a17.55,17.55,0,0,0,.79-5.45,5.53,5.53,0,0,0-.76-2.58,18.46,18.46,0,0,0-1.81-2.08C219.29,137.26,216.48,134.79,213.91,132.09Z" style="fill:#b16668"></path><path d="M212.32,114a1.32,1.32,0,0,0,.09,1c.14.33.32.65.5,1l1,2c.65,1.31,1.27,2.63,1.88,4,.3.65.58,1.37.9,2a20.11,20.11,0,0,0,1.25,1.75l2.72,3.45a34.13,34.13,0,0,1-3.18-3.07,15.12,15.12,0,0,1-1.4-1.75,8,8,0,0,1-.51-1l-.46-1c-.6-1.34-1.19-2.69-1.74-4-.29-.68-.55-1.37-.8-2.05-.12-.35-.26-.7-.35-1.06A1.32,1.32,0,0,1,212.32,114Z" style="fill:#f28f8f"></path><path d="M208.16,110.84c-.4.28-.31.76-.15,1.14s.34.8.52,1.2c.35.81.68,1.63,1,2.44.62,1.65,1.16,3.32,1.76,4.94A20,20,0,0,0,214,125c1,1.41,2.14,2.77,3.19,4.17a43.82,43.82,0,0,1-3.62-3.84,15.92,15.92,0,0,1-2.93-4.45c-.65-1.66-1.14-3.33-1.66-5-.24-.84-.5-1.67-.78-2.5-.13-.42-.26-.84-.36-1.28a2.19,2.19,0,0,1-.05-.68A.71.71,0,0,1,208.16,110.84Z" style="fill:#f28f8f"></path><path d="M207.28,120.13c.49.81.95,1.62,1.45,2.39a26.81,26.81,0,0,0,1.61,2.23,53.78,53.78,0,0,1,3.38,4.46,25,25,0,0,1-2.08-1.89,23.57,23.57,0,0,1-1.89-2.1,13.5,13.5,0,0,1-1.54-2.41A11.5,11.5,0,0,1,207.28,120.13Z" style="fill:#f28f8f"></path><path d="M238.56,165.43c0-5.27,0-10.55-.11-15.83-.06-2.63-.22-5.27-.53-7.88a16.24,16.24,0,0,0-2.47-7.38l.19,0h0l-.11.07-.08-.11a10.58,10.58,0,0,0-2.85-2.73c-1.09-.77-2.31-1.34-3.41-2.14-2.19-1.59-4.23-3.33-6.27-5.07l-1.53-1.31c-.26-.23-.5-.43-.76-.67a6.93,6.93,0,0,1-.67-.8c-.78-1.11-1.45-2.28-2.13-3.43a38.87,38.87,0,0,0-2.12-3.4,2.91,2.91,0,0,0-1.49-1.12,2.53,2.53,0,0,0-1.8.42l-.15.08-.07-.16a10.24,10.24,0,0,0-1.36-2.68,1.79,1.79,0,0,0-1.21-.67,2.45,2.45,0,0,0-1.4.29l-.13.06-.06-.13a3.42,3.42,0,0,0-1.19-1.42,1.94,1.94,0,0,0-1.72-.34.77.77,0,0,0-.47.65,3.3,3.3,0,0,0,.09.93c.14.63.33,1.26.49,1.89l1,3.78a26.56,26.56,0,0,0,1.17,3.7l0,0v0a4.69,4.69,0,0,0,.54,3.31c.57,1,1.2,2,1.85,3a67.65,67.65,0,0,0,4.14,5.65,70,70,0,0,1-4.23-5.59c-.66-1-1.31-1.94-1.9-3a4.78,4.78,0,0,1-.59-3.45v.08a25.85,25.85,0,0,1-1.21-3.74l-1-3.78c-.17-.63-.35-1.26-.5-1.9a3.34,3.34,0,0,1-.1-1,1,1,0,0,1,.61-.85,2.18,2.18,0,0,1,2,.35,3.66,3.66,0,0,1,1.29,1.54l-.19-.07a2.72,2.72,0,0,1,1.56-.34,2.12,2.12,0,0,1,1.4.77,5,5,0,0,1,.82,1.34l.6,1.42-.22-.08a2.88,2.88,0,0,1,2-.46A3.14,3.14,0,0,1,216,114.6a38.45,38.45,0,0,1,2.16,3.42c.69,1.15,1.36,2.31,2.13,3.39a5.81,5.81,0,0,0,.63.75c.22.21.51.43.75.65l1.52,1.32c2,1.75,4.06,3.5,6.22,5.08,1.07.79,2.29,1.37,3.4,2.15a11.34,11.34,0,0,1,2.91,2.83l-.19-.05h0l.11-.07.08.11a16.63,16.63,0,0,1,2.47,7.51c.3,2.63.45,5.27.49,7.91C238.72,154.88,238.61,160.16,238.56,165.43Z" style="fill:#b16668"></path></g></g></g><g id="freepik--Hearts--inject-140"><g id="freepik--hearts--inject-140"><path d="M154.26,121.68s-8.34-4.5-10.68.58c-1.51,3.27,2,7.56,7.16,8.16a59.06,59.06,0,0,0,10.93,0s2.55-9.3,1.27-14.08-5.28-4.31-7.46-1.6C153.44,117.31,154.26,121.68,154.26,121.68Z" style="fill:#BA68C8"></path><path d="M154.26,121.68s-8.34-4.5-10.68.58c-1.51,3.27,2,7.56,7.16,8.16a59.06,59.06,0,0,0,10.93,0s2.55-9.3,1.27-14.08-5.28-4.31-7.46-1.6C153.44,117.31,154.26,121.68,154.26,121.68Z" style="fill:#fff;opacity:0.5"></path><path d="M149.72,87.36s-2.32-2.25-4.69-1.44-2.45,2.93,0,4.76c2.21,1.66,7.64,1.27,7.64,1.27s2.33-4.25,1.84-7-2.71-4.12-4.27-2.3A4.58,4.58,0,0,0,149.72,87.36Z" style="fill:#BA68C8"></path><path d="M332.58,162s1-3.07-.75-4.85-3.71-.91-4.29,2.08c-.52,2.71,2.21,7.42,2.21,7.42s4.84.23,7.11-1.43,2.51-4.24.19-4.84A4.58,4.58,0,0,0,332.58,162Z" style="fill:#BA68C8"></path><path d="M332.58,162s1-3.07-.75-4.85-3.71-.91-4.29,2.08c-.52,2.71,2.21,7.42,2.21,7.42s4.84.23,7.11-1.43,2.51-4.24.19-4.84A4.58,4.58,0,0,0,332.58,162Z" style="fill:#fff;opacity:0.5"></path><path d="M158.63,168.61s-1.94-3-4.7-2.72-3.36,2.56-1.19,5.14c2,2.33,7.93,3.25,7.93,3.25s3.55-4,3.71-7.11-1.91-5.11-4-3.53A5.06,5.06,0,0,0,158.63,168.61Z" style="fill:#BA68C8"></path><path d="M322,95.06s1.07-6.22-2.87-9.18-7.46-.74-7.71,5.23c-.22,5.39,6.45,13.76,6.45,13.76s9.45-.91,13.37-4.74,3.63-8.91-1-9.44C324.79,90.09,322,95.06,322,95.06Z" style="fill:#BA68C8"></path><path d="M252.31,55.11s-1-6.52-6.05-6.68c-4.31-.14-7.38,3.65-5.29,9.4C242.86,63,251.53,69,251.53,69S261.85,63.54,264,58.36s-.92-10.81-5.53-9.45A8.76,8.76,0,0,0,252.31,55.11Z" style="fill:#BA68C8"></path><path d="M252.31,55.11s-1-6.52-6.05-6.68c-4.31-.14-7.38,3.65-5.29,9.4C242.86,63,251.53,69,251.53,69S261.85,63.54,264,58.36s-.92-10.81-5.53-9.45A8.76,8.76,0,0,0,252.31,55.11Z" style="fill:#fff;opacity:0.5"></path><path d="M176.79,88.48c-1.41-3-7.25-4-7.7.24-.48,4.41,6.76,6.59,9.85,7.18.43.09.73-.43.22-.57-2.81-.75-5.95-1.58-8-3.8-1.28-1.37-2-3.69.17-4.82,1.89-1,4,.54,5.19,1.87.11.13.38.12.27-.1Z" style="fill:#455a64"></path><path d="M176.87,88.78a5.37,5.37,0,0,1,1.89-3.69c2.14-1.9,5.21-.56,4.9,2.35-.36,3.28-3.11,5.57-4.92,8.06-.29.4.49.58.74.28,2-2.39,7.61-8.11,4-11.43a3.73,3.73,0,0,0-4.91,0c-1.15.89-2.64,2.86-2.06,4.38.06.14.39.28.39,0Z" style="fill:#455a64"></path><path d="M319.54,126.7c1-3.14-2.48-7.91-5.74-5.15s.34,9.43,2.16,12c.26.36.83.19.56-.26-1.51-2.49-3.21-5.25-3.16-8.28,0-1.87,1.1-4.05,3.45-3.37,2,.6,2.51,3.14,2.46,4.94,0,.17.19.35.27.12Z" style="fill:#455a64"></path><path d="M319.38,127a5.35,5.35,0,0,1,3.92-1.36c2.87.1,4.15,3.19,1.92,5.08-2.52,2.12-6.09,1.87-9.12,2.43-.49.09-.05.76.34.72,3.1-.35,11.1-.62,10.76-5.53a3.71,3.71,0,0,0-3.56-3.38c-1.44-.16-3.88.25-4.5,1.74-.06.14.08.47.24.3Z" style="fill:#455a64"></path></g></g></svg>
