<svg xmlns="http://www.w3.org/2000/svg" viewBox="0 0 500 500"><g id="freepik--background-complete--inject-150"><rect x="61.42" y="156.55" width="58.81" height="61.3" style="fill:#e0e0e0"></rect><rect x="57.44" y="156.55" width="58.81" height="61.3" style="fill:#fafafa"></rect><path d="M116.26,217.87H57.42V156.53h58.84Zm-58.81,0h58.78V156.56H57.45Z" style="fill:#e0e0e0"></path><rect x="65.34" y="164.79" width="43" height="44.82" style="fill:#fff"></rect><path d="M65.34,209.91a6.89,6.89,0,0,1-1.06,1.23c-.69.73-1.65,1.71-2.73,2.77s-2.08,2-2.81,2.69a7.76,7.76,0,0,1-1.25,1,6.89,6.89,0,0,1,1.06-1.23c.69-.73,1.65-1.71,2.74-2.78s2.08-2,2.81-2.69A6.78,6.78,0,0,1,65.34,209.91Z" style="fill:#e0e0e0"></path><path d="M108.34,209.8a6.4,6.4,0,0,1,1.23,1.06c.73.68,1.71,1.65,2.77,2.73s2,2.08,2.69,2.81a6.77,6.77,0,0,1,1,1.24,6.53,6.53,0,0,1-1.23-1c-.73-.69-1.71-1.66-2.78-2.74s-2-2.08-2.69-2.82A7.12,7.12,0,0,1,108.34,209.8Z" style="fill:#e0e0e0"></path><path d="M108.22,164.91a7.74,7.74,0,0,1,1.06-1.24c.69-.72,1.65-1.7,2.74-2.77s2.07-2,2.81-2.69a6.53,6.53,0,0,1,1.24-1,7.84,7.84,0,0,1-1.06,1.23c-.68.72-1.65,1.7-2.74,2.77s-2.08,2-2.81,2.7A6.53,6.53,0,0,1,108.22,164.91Z" style="fill:#e0e0e0"></path><path d="M65.22,165A7.29,7.29,0,0,1,64,164c-.73-.68-1.71-1.65-2.77-2.73s-2-2.07-2.69-2.81a7.49,7.49,0,0,1-1-1.24,6.4,6.4,0,0,1,1.23,1.06c.73.68,1.71,1.65,2.78,2.73s2,2.09,2.69,2.82A6.07,6.07,0,0,1,65.22,165Z" style="fill:#e0e0e0"></path><path d="M108.22,209.61s0-.08,0-.22,0-.36,0-.62c0-.57,0-1.37,0-2.42,0-2.13,0-5.22,0-9.14,0-7.85,0-19-.08-32.42l.16.16-42.88,0h0l.19-.19c0,16.45,0,31.84,0,44.82l-.16-.16,31.05.08,8.72,0,2.31,0h0l-2.27,0-8.69,0-31.15.08h-.16v-.16c0-13,0-28.37,0-44.82v-.19h.19l42.88,0h.17v.17c0,13.43-.07,24.65-.09,32.53,0,3.9,0,7,0,9.09,0,1,0,1.84,0,2.39,0,.26,0,.46,0,.61S108.23,209.61,108.22,209.61Z" style="fill:#e0e0e0"></path><rect x="79.67" y="180.02" width="14.35" height="14.35" style="fill:#ebebeb"></rect><path d="M362.5,353.23a38.14,38.14,0,0,0-16.3-5.61c-2.66-.27-5.57-.19-7.71,1.42a1.6,1.6,0,0,0-.8,1.41,1.75,1.75,0,0,0,.76,1c6.63,5.06,16.66,5.7,24.05,1.82" style="fill:#e0e0e0"></path><path d="M362.08,352.77a80,80,0,0,1-10.53-9.26A26.77,26.77,0,0,1,345,331.3c-.28-1.39-.37-3,.52-4.08,8.39,6.55,15,15,16.61,25.55" style="fill:#e0e0e0"></path><path d="M362.41,353.17a38,38,0,0,1,.2-13.82A18.65,18.65,0,0,1,370,327.94c1.45,3.39.82,7.3-.2,10.84a52.59,52.59,0,0,1-7.3,15.37" style="fill:#e0e0e0"></path><path d="M370.64,367.91c-5,.6-9.35,3.24-13.07,6.61a24.76,24.76,0,0,0-7.48,12.84c4.9-.3,9.05-3.76,12.07-7.63s5.1-8.12,8.41-11.75" style="fill:#e0e0e0"></path><path d="M372.42,370.27a32.27,32.27,0,0,1,3.72-30.5c2.85,10.12,1.81,21.55-3.72,30.5" style="fill:#e0e0e0"></path><path d="M383.29,383.21A23.31,23.31,0,0,0,361,396c-.27.55-.52,1.25-.15,1.75a1.64,1.64,0,0,0,1.48.43c4.39-.28,8.29-2.93,11.5-5.94s6-6.48,9.56-9.09" style="fill:#e0e0e0"></path><path d="M382.94,382.5a41.57,41.57,0,0,1-.41-23.19c.82-3,2.19-6.12,5-7.52a1,1,0,0,1,.76-.14,1,1,0,0,1,.47.56,13.88,13.88,0,0,1,1.17,6.65,41.77,41.77,0,0,1-1,6.74c-.87,4.11-1.33,8.54-3.59,12.08a25.32,25.32,0,0,0-1.44,2.66c-.42.9-.43,1.22-.82,1.94" style="fill:#e0e0e0"></path><path d="M411.71,386.79c-2.13-8.11.14-17.94,5.24-24.59.38-.48.88-1,1.49-.95.95.08,1.19,1.34,1.15,2.28a44.44,44.44,0,0,1-7.88,23.26" style="fill:#e0e0e0"></path><path d="M414.31,388.56c9.85,2.57,21.15.07,29.34-6a23.77,23.77,0,0,0-15.88-1.95c-5.31,1.22-10.16,3.6-13.46,7.92" style="fill:#e0e0e0"></path><path d="M416.5,383.16c5.51-9,16.09-14.86,26.63-15.4-1.22,4.29-4.74,7.62-8.71,9.63s-8.41,2.89-12.79,3.74c-1.7.33-4,.7-5.13,2" style="fill:#e0e0e0"></path><path d="M412.26,357c1.5-5.12,3-10.28,3.41-15.6s-.35-10.86-3.11-15.43c-5.15,10-5.67,21.63-.45,31.56" style="fill:#e0e0e0"></path><path d="M429.61,348.2c6-10.95,18.32-19.7,30.77-20.93-4.8,12-17.89,21.19-30.77,20.93" style="fill:#e0e0e0"></path><path d="M425.82,350.34c9,1.37,16.65,7.11,25.05,10.59a11.17,11.17,0,0,0,5.66,1.09,4.43,4.43,0,0,0,2.77-7.84,12,12,0,0,0-4.11-2.5c-9.15-3.81-19-3.9-28.59-1.59" style="fill:#e0e0e0"></path><path d="M420.62,356.65c2,.58,2.73,1.63,4.34,3a46.89,46.89,0,0,0,19,9.75c.73.18,1.68.25,2-.4s-.08-1.27-.49-1.78A26.17,26.17,0,0,0,434,359.45c-4.38-1.63-8.18-3.6-13.41-3.18" style="fill:#e0e0e0"></path><path d="M414.75,318.58A35.94,35.94,0,0,0,442.31,328a1.85,1.85,0,0,0,1.25-.45c.69-.75-.14-1.92-.95-2.55-8.1-6.31-17.91-8.93-27.86-6.37" style="fill:#e0e0e0"></path><path d="M421.71,316a38.39,38.39,0,0,1,34.38-5.67c-4.33,4.26-10.33,6.56-16.38,7.19a51.82,51.82,0,0,1-18-1.52" style="fill:#e0e0e0"></path><path d="M418.94,298.53c-.79-8.08-.27-14.46-.84-22.59,0-.65-.18-1.43-.79-1.66-.84-.33-1.55.71-1.83,1.57a25.94,25.94,0,0,0,3.45,22.51" style="fill:#e0e0e0"></path><path d="M418.36,299.43c5.48-3.39,9.59-7.82,13.4-13,2.64-3.62,4.87-8,4.27-12.4a12.82,12.82,0,0,0-9.66,4.8,27,27,0,0,0-4.93,9.91c-1.07,3.56-1.82,7.21-3.08,10.71" style="fill:#e0e0e0"></path><path d="M431.52,295.77a108,108,0,0,0,33-19.44c-3.94-1.58-8.45-.63-12.39,1-9,3.63-16.34,9.76-20.75,18.39" style="fill:#e0e0e0"></path><path d="M422.06,303.85c6.09.67,12.27,1.1,18.31.09s11.54-3.34,17.08-5.68a2,2,0,0,0,1.17-.88,1.35,1.35,0,0,0-.42-1.46,3.5,3.5,0,0,0-1.46-.68c-6-1.69-12.53-.9-18.46,1.1a85.85,85.85,0,0,0-16.22,7.51" style="fill:#e0e0e0"></path><path d="M387.32,318.85c-4.16-8.38-3.89-18.16-.3-26.79,2.53,3.84,2.83,8.74,2.37,13.32s-1.85,9.29-1.94,13.89" style="fill:#e0e0e0"></path><path d="M370.73,310.49A37.38,37.38,0,0,0,343,322.32c5.17.81,10.5-.52,15.21-2.82s8.88-5.52,13-8.72" style="fill:#e0e0e0"></path><path d="M359.58,306.76c-5.07-.41-9.95-1-14.82.45s-9.32,4.89-11.3,9.59a26.8,26.8,0,0,0,13.89-2.63,80.3,80.3,0,0,0,12.23-7.41" style="fill:#e0e0e0"></path><path d="M376.09,306.93c-4.56-3-9.25-6-14.56-7.27s-11.46-.32-15.17,3.68c4.3,2.52,9.52,2.82,14.5,2.82s11.1-.06,15.8,1.6" style="fill:#e0e0e0"></path><path d="M376.12,307.17c-7.8-7.66-10.76-21.41-7.62-31.89a48.6,48.6,0,0,1,7.62,31.89" style="fill:#e0e0e0"></path><path d="M397.56,285.47c1.47-3.42,2.51-7,3.83-10.49a30.28,30.28,0,0,1,5.45-9.67,14.34,14.34,0,0,1,9.66-5,38.92,38.92,0,0,1-18.75,25.22" style="fill:#e0e0e0"></path><path d="M393.68,290c-2.43-3.35-5.24-7.89-8.55-10.4s-7.59-4-11.62-3A27.06,27.06,0,0,0,393.68,290" style="fill:#e0e0e0"></path><path d="M394.46,285.75a57.77,57.77,0,0,1-3.85-12.46c-.64-4.31-.25-8.91,1.95-12.67,4.28,8.1,5.66,16.78,2.12,25.22" style="fill:#e0e0e0"></path><path d="M397.6,260.62c2.43-8,9.77-13.93,17.7-16.64a6.66,6.66,0,0,1,3.11-.46,2.68,2.68,0,0,1,2.28,1.91c.29,1.36-.83,2.59-1.9,3.49a60.14,60.14,0,0,1-21.19,11.7" style="fill:#e0e0e0"></path><path d="M397.69,254.06c.31-5.17.63-10.42,2.31-15.32s4.93-9.5,9.64-11.64c.81,5.22-1.5,10.42-4.28,14.92s-6.13,8.73-7.8,13.75" style="fill:#e0e0e0"></path><path d="M397.56,257.62c-2-5.84-2.21-13.27-5.71-18.36-2.45-3.56-6.37-6-8.47-9.76a14.79,14.79,0,0,0,.49,11.08,32.07,32.07,0,0,0,6.47,9.27c2.6,2.76,4.81,4.85,7.22,7.77" style="fill:#e0e0e0"></path><path d="M397.6,429.79c-.15,0-.29-39-.3-87.1s.11-87.1.26-87.1.29,39,.3,87.1S397.76,429.79,397.6,429.79Z" style="fill:#e0e0e0"></path><path d="M431.68,313a9.32,9.32,0,0,1-1.46.55l-4,1.36c-3.4,1.16-8.08,2.84-13.15,4.92s-9.76,3.9-12.46,6.24a9.17,9.17,0,0,0-2.5,3.31c-.39.92-.46,1.48-.51,1.47a1.18,1.18,0,0,1,0-.41,5.39,5.39,0,0,1,.29-1.14,8.7,8.7,0,0,1,2.44-3.53,21.66,21.66,0,0,1,5.4-3.36c2.17-1,4.56-2.06,7.11-3.11,5.09-2.08,9.8-3.7,13.24-4.77,1.72-.54,3.12-.93,4.09-1.19A7.63,7.63,0,0,1,431.68,313Z" style="fill:#e0e0e0"></path><path d="M442.86,285.53a3,3,0,0,1-.42.44l-1.25,1.17-4.67,4.25L421,305.23c-6.07,5.4-11.32,10.57-15,14.45-1.82,1.95-3.25,3.55-4.23,4.68l-1.13,1.29a3,3,0,0,1-.42.43s.1-.19.33-.5.58-.79,1.05-1.36c.93-1.17,2.32-2.82,4.11-4.81a197.69,197.69,0,0,1,14.86-14.6c6.1-5.39,11.64-10.23,15.67-13.72l4.79-4.11,1.32-1.1C442.68,285.63,442.84,285.51,442.86,285.53Z" style="fill:#e0e0e0"></path><path d="M414.42,310.73c-.16-.08,1.11-3,2.37-6.71s1.88-6.82,2-6.8a23.28,23.28,0,0,1-1.51,7,44.38,44.38,0,0,1-1.88,4.69A7.64,7.64,0,0,1,414.42,310.73Z" style="fill:#e0e0e0"></path><path d="M397.64,334.33a6.74,6.74,0,0,1-.94-1.08l-2.39-3.08c-2-2.6-4.8-6.19-7.92-10.12s-6-7.46-8.06-10l-2.45-3a7,7,0,0,1-.85-1.16,7.26,7.26,0,0,1,1,1c.63.68,1.51,1.67,2.59,2.92,2.16,2.48,5.08,6,8.2,9.91s5.86,7.57,7.79,10.23c1,1.34,1.74,2.42,2.26,3.19A7.26,7.26,0,0,1,397.64,334.33Z" style="fill:#e0e0e0"></path><path d="M390.16,324.74a13.85,13.85,0,0,1-3.13-5.86,16.89,16.89,0,0,1-.71-5.91l.25,0c-.11.45-.19.69-.24.68s0-.26,0-.72l.25,0a27.49,27.49,0,0,0,1,5.75C388.58,322.2,390.32,324.64,390.16,324.74Z" style="fill:#e0e0e0"></path><path d="M380.52,312.6a10.65,10.65,0,0,0-2.19-1.27,14.66,14.66,0,0,0-6.07-.48,37.63,37.63,0,0,0-6.11,1,18.24,18.24,0,0,1-2.51.6,8.6,8.6,0,0,1,2.4-1,28.17,28.17,0,0,1,6.18-1.16,13.23,13.23,0,0,1,6.26.67A3.93,3.93,0,0,1,380.52,312.6Z" style="fill:#e0e0e0"></path><path d="M378.23,309.66c0,.09-1.27-.51-3.35-1.22A33.75,33.75,0,0,0,358,307.15c-2.15.39-3.46.8-3.49.7a3.44,3.44,0,0,1,.89-.38,22.73,22.73,0,0,1,2.53-.71,30.18,30.18,0,0,1,8.64-.6,29.74,29.74,0,0,1,8.45,1.91,20.34,20.34,0,0,1,2.39,1.08A3.62,3.62,0,0,1,378.23,309.66Z" style="fill:#e0e0e0"></path><path d="M397.56,297.22a70.13,70.13,0,0,1-2.44-8.48,69.35,69.35,0,0,1-1.9-8.62,69,69,0,0,1,2.45,8.48A70.31,70.31,0,0,1,397.56,297.22Z" style="fill:#e0e0e0"></path><path d="M397.72,297.22c-.17.06-.87-2.48-2.71-5.08a22.68,22.68,0,0,0-4-4.11,3.58,3.58,0,0,1,1.53.8,12.23,12.23,0,0,1,2.91,3A11.31,11.31,0,0,1,397.72,297.22Z" style="fill:#e0e0e0"></path><path d="M397.6,409c-.06,0-.17-.93-.61-2.59a37.37,37.37,0,0,0-2.61-6.75c-2.69-5.51-7.6-12.49-13.83-19.48-3.08-3.53-6.08-6.86-8.62-10a71.14,71.14,0,0,1-6.17-8.9,42.76,42.76,0,0,1-3.11-6.6c-.29-.81-.5-1.45-.61-1.89a2.61,2.61,0,0,1-.16-.67c.05,0,.33.89,1,2.48A48.31,48.31,0,0,0,366.1,361a76.34,76.34,0,0,0,6.23,8.77c2.55,3.15,5.55,6.46,8.65,10,6.24,7,11.14,14.08,13.76,19.67a33.6,33.6,0,0,1,2.46,6.88,18,18,0,0,1,.34,1.95A3,3,0,0,1,397.6,409Z" style="fill:#e0e0e0"></path><path d="M428.4,374.22a13.81,13.81,0,0,1-1.61.9,34.51,34.51,0,0,0-4.19,2.77,47.8,47.8,0,0,0-5.5,5c-1.93,2-3.92,4.4-6,6.94-4,5.09-7.85,9.59-10.12,13.19-1.15,1.78-2,3.28-2.54,4.34a12.86,12.86,0,0,1-.89,1.62,1.79,1.79,0,0,1,.15-.45c.12-.29.28-.73.54-1.27a43,43,0,0,1,2.4-4.46c2.21-3.68,6-8.24,10-13.32,2-2.55,4.05-4.92,6-6.95a43.48,43.48,0,0,1,5.63-5,29.21,29.21,0,0,1,4.32-2.64c.54-.27,1-.43,1.26-.56A1.31,1.31,0,0,1,428.4,374.22Z" style="fill:#e0e0e0"></path><path d="M429,385.5a24.09,24.09,0,0,1-3.41.5,44.82,44.82,0,0,0-8.09,1.59,24.68,24.68,0,0,0-7.25,3.8c-1.67,1.29-2.45,2.36-2.53,2.3a2.71,2.71,0,0,1,.5-.79,14.46,14.46,0,0,1,1.78-1.82,22,22,0,0,1,7.33-4,36.1,36.1,0,0,1,8.22-1.46A19.74,19.74,0,0,1,429,385.5Z" style="fill:#e0e0e0"></path><path d="M408.72,392.45c-.18-.1,1.35-2.45,2.55-5.61s1.38-6,1.58-5.95a5.45,5.45,0,0,1-.06,1.83,19.37,19.37,0,0,1-1,4.31,21,21,0,0,1-2,4A5.66,5.66,0,0,1,408.72,392.45Z" style="fill:#e0e0e0"></path><path d="M438.37,343.92a2.24,2.24,0,0,1-.54.29l-1.61.73c-.7.3-1.55.68-2.51,1.19s-2.09,1-3.26,1.71l-1.86,1.06c-.65.37-1.29.81-2,1.24-1.38.83-2.75,1.85-4.22,2.9a72.94,72.94,0,0,0-16.23,16.79c-1,1.51-2,2.91-2.75,4.31-.41.7-.83,1.35-1.17,2l-1,1.89c-.66,1.2-1.13,2.34-1.6,3.32s-.82,1.84-1.1,2.56-.5,1.19-.67,1.62a2.54,2.54,0,0,1-.28.56,3.19,3.19,0,0,1,.17-.6l.57-1.66c.25-.73.57-1.61,1-2.6s.89-2.16,1.54-3.37c.3-.62.63-1.26,1-1.93s.76-1.33,1.15-2c.77-1.42,1.74-2.85,2.74-4.37a76.69,76.69,0,0,1,7.45-9.16,75.85,75.85,0,0,1,8.89-7.76c1.49-1,2.88-2.06,4.28-2.88.68-.42,1.33-.85,2-1.22l1.89-1c1.19-.68,2.33-1.17,3.31-1.65s1.85-.83,2.57-1.1l1.65-.64A2.79,2.79,0,0,1,438.37,343.92Z" style="fill:#e0e0e0"></path><path d="M414,360.25a3.89,3.89,0,0,1,1.34-2,8.45,8.45,0,0,1,5.4-2.08,14.87,14.87,0,0,1,5.68,1.11,7.7,7.7,0,0,1,2.15,1,12.91,12.91,0,0,1-2.28-.67,17.23,17.23,0,0,0-5.53-.92,8.7,8.7,0,0,0-5.16,1.81A16.34,16.34,0,0,0,414,360.25Z" style="fill:#e0e0e0"></path><path d="M410.36,364c-.16-.09,1.22-2.1,1.53-5a20.44,20.44,0,0,0-.34-5.21,3.53,3.53,0,0,1,.63,1.46,10.2,10.2,0,0,1,.27,3.82,10.4,10.4,0,0,1-1.14,3.65C410.83,363.6,410.41,364.05,410.36,364Z" style="fill:#e0e0e0"></path><path d="M370.66,414.59c.85,14.91,5.34,30.06,12.24,45.39H413c6.58-15.17,10.77-30.31,11.51-45.39Z" style="fill:#e0e0e0"></path><path d="M419.59,438.71c0,.16-9.89.28-22.09.28s-22.09-.12-22.09-.28,9.89-.28,22.09-.28S419.59,438.55,419.59,438.71Z" style="fill:#fafafa"></path><path d="M418.92,444.11c0,.15-9.27.28-20.71.28s-20.71-.13-20.71-.28,9.27-.28,20.71-.28S418.92,444,418.92,444.11Z" style="fill:#fafafa"></path><path d="M383.39,424.38a85.65,85.65,0,0,1,0,13.84,85.65,85.65,0,0,1,0-13.84Z" style="fill:#fafafa"></path><path d="M399.49,424.38a91.81,91.81,0,0,1,0,14.33,88.66,88.66,0,0,1,0-14.33Z" style="fill:#fafafa"></path><path d="M414.6,424.26a95.43,95.43,0,0,1,0,14.61,92.15,92.15,0,0,1,0-14.61Z" style="fill:#fafafa"></path><path d="M423.51,424.38c0,.15-11.61.28-25.91.28s-25.91-.13-25.91-.28,11.59-.28,25.91-.28S423.51,424.22,423.51,424.38Z" style="fill:#fafafa"></path><path d="M315.82,81.43C315.33,72.53,311.52,64,306,57s-12.71-12.41-21.12-14.76a34,34,0,0,0-38.36,15.27A34.13,34.13,0,0,0,237.06,46a34.53,34.53,0,0,0-26.2-6.75c-8.63,1.36-16.51,6-22.69,12.2s-11.09,14.32-12.62,23.1c-1.91,11-.48,23.24,4.71,33.12,5.47,10.44,14.79,19.16,24.52,25.82,16.35,11.2,37.92,25.29,37.92,25.29s19.69-13,37.23-22.22c10.44-5.49,20.71-13.06,27.36-22.79C313.59,104.57,316.44,92.57,315.82,81.43Z" style="fill:#ebebeb"></path></g><g id="freepik--Floor--inject-150"><path d="M458.79,461c0,.14-92.93.26-207.54.26S43.69,461.17,43.69,461s92.91-.26,207.56-.26S458.79,460.88,458.79,461Z" style="fill:#263238"></path></g><g id="freepik--Shelf--inject-150"><rect x="33.53" y="113.29" width="110.59" height="10.65" style="fill:#455a64"></rect><path d="M82.33,51.74s0-.05.06-.15l.22-.4c.2-.36.52-.87,1-1.5a16.27,16.27,0,0,1,4.76-4.5,11.6,11.6,0,0,1,4.26-1.56,10.62,10.62,0,0,1,5.18.54,8.42,8.42,0,0,1,4.43,3.63c1,1.78,1.35,3.87,1.94,5.86a11,11,0,0,0,1.24,2.8,8.47,8.47,0,0,0,2.11,2.07c.79.58,1.62,1.11,2.37,1.72a10.56,10.56,0,0,1,1.93,2.09,13,13,0,0,1,2,4.83A16.94,16.94,0,0,1,114,71.7a35,35,0,0,1-1.15,6.45c-.2.75-.37,1.32-.48,1.71a5.36,5.36,0,0,1-.19.59,3.16,3.16,0,0,1,.12-.61c.1-.42.24-1,.41-1.73a36.86,36.86,0,0,0,1-6.42,16.88,16.88,0,0,0-.3-4.46,12.65,12.65,0,0,0-2-4.7,10.11,10.11,0,0,0-1.87-2c-.73-.59-1.56-1.11-2.36-1.71a8.63,8.63,0,0,1-2.2-2.15,11.09,11.09,0,0,1-1.28-2.9c-.6-2-.93-4.08-1.9-5.78a8.15,8.15,0,0,0-4.25-3.5,10.35,10.35,0,0,0-5-.56,11.47,11.47,0,0,0-4.17,1.49,16.59,16.59,0,0,0-4.77,4.36c-.46.61-.8,1.11-1,1.45A3.29,3.29,0,0,1,82.33,51.74Z" style="fill:#e0e0e0"></path><path d="M108.42,59.06c-.55-.52-.82-.16-1.56,0a4.58,4.58,0,0,0-2,1,8.4,8.4,0,0,0-2.73,8.82,6.55,6.55,0,0,0,6-9.85" style="fill:#e0e0e0"></path><path d="M85.85,48.78c-.28-.69-.67-.49-1.4-.69a4.64,4.64,0,0,0-2.22,0A8.36,8.36,0,0,0,76,54.92a6.56,6.56,0,0,0,9.67-6.3" style="fill:#e0e0e0"></path><path d="M113.39,73a7.56,7.56,0,0,0-11.9.58A9.4,9.4,0,0,0,107.66,76a9.57,9.57,0,0,0,6.21-2.51" style="fill:#e0e0e0"></path><path d="M111.53,62.58a7.68,7.68,0,0,0,7.75-9.15,6.88,6.88,0,0,0-8,9.07" style="fill:#e0e0e0"></path><path d="M103.59,50.37a7.68,7.68,0,0,0,10.35-6.06,6.88,6.88,0,0,0-10.56,5.9" style="fill:#e0e0e0"></path><path d="M100.93,46.39a7.66,7.66,0,0,0-10.35,6,6.88,6.88,0,0,0,10.56-5.9" style="fill:#e0e0e0"></path><path d="M97.75,44.24A7.67,7.67,0,0,0,101.84,33a6.88,6.88,0,0,0-4.35,11.29" style="fill:#e0e0e0"></path><path d="M89.62,44.63A7.68,7.68,0,0,0,83.36,34.4a6.89,6.89,0,0,0,6.11,10.45" style="fill:#e0e0e0"></path><polyline points="122.41 99.61 126.74 72.41 93.53 72.81 96.81 99.26" style="fill:#263238"></polyline><path d="M108.08,67.44a5.66,5.66,0,0,1-5.51.47,6,6,0,0,1-3-4.77,6.83,6.83,0,0,1,5.51-.28,6.74,6.74,0,0,1,3.66,4.1" style="fill:#DF33C6"></path><path d="M92.9,73.3a5.69,5.69,0,0,1-5.51.47,6,6,0,0,1-3-4.77,6.77,6.77,0,0,1,5.5-.28,6.67,6.67,0,0,1,3.66,4.09" style="fill:#DF33C6"></path><path d="M101.42,60.22a5.67,5.67,0,0,1-4.35,3.42,6,6,0,0,1-5.14-2.32,6.79,6.79,0,0,1,4.45-3.26,6.69,6.69,0,0,1,5.3,1.4" style="fill:#DF33C6"></path><path d="M95.88,67a5.68,5.68,0,0,1,5,2.45,6,6,0,0,1,.11,5.64,6.39,6.39,0,0,1-5.87-8" style="fill:#DF33C6"></path><path d="M90.53,77.7a5.69,5.69,0,0,1-.13,5.53,6,6,0,0,1-5.06,2.49,6.74,6.74,0,0,1,.31-5.5c.87-1.59,2.45-2.38,4.42-2.82" style="fill:#DF33C6"></path><path d="M81.7,79A3.84,3.84,0,0,1,83,78.13a5.53,5.53,0,0,1,1.8-.32,22.63,22.63,0,0,1,2.45.14,6.94,6.94,0,0,0,3-.26,4.63,4.63,0,0,0,2.49-2.4,14.13,14.13,0,0,0,1.07-3.68,10.54,10.54,0,0,1,1.28-3.77A13.33,13.33,0,0,1,97.94,65a13.62,13.62,0,0,0,2.69-2.73A9,9,0,0,0,102,56a8.72,8.72,0,0,0-1.63-4,6.83,6.83,0,0,0-.79-.87,1.47,1.47,0,0,0-.32-.27,1.57,1.57,0,0,0,.26.32,8.39,8.39,0,0,1,.74.91,9,9,0,0,1,1.49,4,8.82,8.82,0,0,1-1.36,6,13.74,13.74,0,0,1-2.64,2.64,13.37,13.37,0,0,0-2.88,2.93,10.89,10.89,0,0,0-1.33,3.9,13.64,13.64,0,0,1-1,3.59,4.37,4.37,0,0,1-2.3,2.28,7.09,7.09,0,0,1-2.89.28,19.81,19.81,0,0,0-2.48-.09A5.56,5.56,0,0,0,83,78a3.17,3.17,0,0,0-1,.65,1.27,1.27,0,0,0-.21.23Z" style="fill:#DF33C6"></path><path d="M81.7,79A3.84,3.84,0,0,1,83,78.13a5.53,5.53,0,0,1,1.8-.32,22.63,22.63,0,0,1,2.45.14,6.94,6.94,0,0,0,3-.26,4.63,4.63,0,0,0,2.49-2.4,14.13,14.13,0,0,0,1.07-3.68,10.54,10.54,0,0,1,1.28-3.77A13.33,13.33,0,0,1,97.94,65a13.62,13.62,0,0,0,2.69-2.73A9,9,0,0,0,102,56a8.72,8.72,0,0,0-1.63-4,6.83,6.83,0,0,0-.79-.87,1.47,1.47,0,0,0-.32-.27,1.57,1.57,0,0,0,.26.32,8.39,8.39,0,0,1,.74.91,9,9,0,0,1,1.49,4,8.82,8.82,0,0,1-1.36,6,13.74,13.74,0,0,1-2.64,2.64,13.37,13.37,0,0,0-2.88,2.93,10.89,10.89,0,0,0-1.33,3.9,13.64,13.64,0,0,1-1,3.59,4.37,4.37,0,0,1-2.3,2.28,7.09,7.09,0,0,1-2.89.28,19.81,19.81,0,0,0-2.48-.09A5.56,5.56,0,0,0,83,78a3.17,3.17,0,0,0-1,.65,1.27,1.27,0,0,0-.21.23Z" style="fill:#DF33C6"></path><path d="M145.1,81.75a8.41,8.41,0,0,1,11.37-8.28,14,14,0,0,1-11.07,8.17" style="fill:#DF33C6"></path><path d="M147.29,82.91c1.63,1.78,1.52,4.65.36,6.76a15.23,15.23,0,0,1-5.16,5,10.88,10.88,0,0,1,4.69-12.37" style="fill:#DF33C6"></path><path d="M139.42,74.54a9.69,9.69,0,0,1-11,8.64,13.21,13.21,0,0,1,3.69-7c2-1.77,5.2-2.43,7.43-.94" style="fill:#DF33C6"></path><path d="M139.48,71.88a5.67,5.67,0,0,1,5.15-4.32,9.88,9.88,0,0,1,6.7,2.25A8.71,8.71,0,0,1,139.45,71" style="fill:#DF33C6"></path><path d="M151.85,92.09c2.28,2,2.85,5.42,1.9,8.26a13.67,13.67,0,0,1-5.66,6.78A18,18,0,0,1,147,98.35a9.21,9.21,0,0,1,5-7" style="fill:#DF33C6"></path><path d="M139.85,65.21a7,7,0,0,0-11.1-.65,6.05,6.05,0,0,0,10.92.29" style="fill:#DF33C6"></path><path d="M137.05,58.36a9.11,9.11,0,0,0,11.62-7.12,21,21,0,0,0-5.49.08,9,9,0,0,0-4.86,2.39,4.84,4.84,0,0,0-1.27,4.65" style="fill:#DF33C6"></path><path d="M131.78,56.59a7.44,7.44,0,0,0,.05-11.49A15.61,15.61,0,0,0,128.57,52a5.81,5.81,0,0,0,0,2.87,2.65,2.65,0,0,0,2,1.89" style="fill:#DF33C6"></path><g style="opacity:0.4"><path d="M145.1,81.75a8.41,8.41,0,0,1,11.37-8.28,14,14,0,0,1-11.07,8.17"></path></g><g style="opacity:0.4"><path d="M147.29,82.91c1.63,1.78,1.52,4.65.36,6.76a15.23,15.23,0,0,1-5.16,5,10.88,10.88,0,0,1,4.69-12.37"></path></g><g style="opacity:0.4"><path d="M139.42,74.54a9.69,9.69,0,0,1-11,8.64,13.21,13.21,0,0,1,3.69-7c2-1.77,5.2-2.43,7.43-.94"></path></g><g style="opacity:0.4"><path d="M139.48,71.88a5.67,5.67,0,0,1,5.15-4.32,9.88,9.88,0,0,1,6.7,2.25A8.71,8.71,0,0,1,139.45,71"></path></g><g style="opacity:0.4"><path d="M151.85,92.09c2.28,2,2.85,5.42,1.9,8.26a13.67,13.67,0,0,1-5.66,6.78A18,18,0,0,1,147,98.35a9.21,9.21,0,0,1,5-7"></path></g><g style="opacity:0.4"><path d="M139.85,65.21a7,7,0,0,0-11.1-.65,6.05,6.05,0,0,0,10.92.29"></path></g><g style="opacity:0.4"><path d="M137.05,58.36a9.11,9.11,0,0,0,11.62-7.12,21,21,0,0,0-5.49.08,9,9,0,0,0-4.86,2.39,4.84,4.84,0,0,0-1.27,4.65"></path></g><g style="opacity:0.4"><path d="M131.78,56.59a7.44,7.44,0,0,0,.05-11.49A15.61,15.61,0,0,0,128.57,52a5.81,5.81,0,0,0,0,2.87,2.65,2.65,0,0,0,2,1.89"></path></g><path d="M122.67,73.29s0-.07,0-.19,0-.33,0-.55c0-.48-.07-1.19-.09-2.1a18.82,18.82,0,0,1,1.23-7.55,11.71,11.71,0,0,1,3-4.27,8.12,8.12,0,0,1,5.52-2,6.93,6.93,0,0,1,3.12.78,6.23,6.23,0,0,1,2.4,2.3,12.3,12.3,0,0,1,1.4,6.94,49.77,49.77,0,0,0-.17,7.3,11.41,11.41,0,0,0,.91,3.39A7.14,7.14,0,0,0,142.05,80a10.36,10.36,0,0,0,2.84,1.46,14.93,14.93,0,0,1,2.68,1.21,9.82,9.82,0,0,1,3.53,3.84,9.22,9.22,0,0,1,1,4.2,9.89,9.89,0,0,1-.53,3.25,11.73,11.73,0,0,1-1.26,2.52s.05,0,.13-.14.19-.24.32-.45a8.84,8.84,0,0,0,.94-1.89,9.62,9.62,0,0,0,.6-3.29,9.25,9.25,0,0,0-1-4.31,9.89,9.89,0,0,0-3.59-4c-1.64-1.09-3.81-1.36-5.48-2.68a8.57,8.57,0,0,1-2.81-5.84,50.83,50.83,0,0,1,.18-7.25,12.64,12.64,0,0,0-1.46-7.13,6.48,6.48,0,0,0-2.54-2.42,7.22,7.22,0,0,0-3.27-.81,8.41,8.41,0,0,0-5.73,2.14,11.64,11.64,0,0,0-3.07,4.4,15.61,15.61,0,0,0-1,4.3,24.74,24.74,0,0,0-.09,3.34c0,.92.1,1.63.16,2.11,0,.22.05.4.07.54Z" style="fill:#DF33C6"></path><g style="opacity:0.30000000000000004"><path d="M122.67,73.29s0-.07,0-.19,0-.33,0-.55c0-.48-.07-1.19-.09-2.1a18.82,18.82,0,0,1,1.23-7.55,11.71,11.71,0,0,1,3-4.27,8.12,8.12,0,0,1,5.52-2,6.93,6.93,0,0,1,3.12.78,6.23,6.23,0,0,1,2.4,2.3,12.3,12.3,0,0,1,1.4,6.94,49.77,49.77,0,0,0-.17,7.3,11.41,11.41,0,0,0,.91,3.39A7.14,7.14,0,0,0,142.05,80a10.36,10.36,0,0,0,2.84,1.46,14.93,14.93,0,0,1,2.68,1.21,9.82,9.82,0,0,1,3.53,3.84,9.22,9.22,0,0,1,1,4.2,9.89,9.89,0,0,1-.53,3.25,11.73,11.73,0,0,1-1.26,2.52s.05,0,.13-.14.19-.24.32-.45a8.84,8.84,0,0,0,.94-1.89,9.62,9.62,0,0,0,.6-3.29,9.25,9.25,0,0,0-1-4.31,9.89,9.89,0,0,0-3.59-4c-1.64-1.09-3.81-1.36-5.48-2.68a8.57,8.57,0,0,1-2.81-5.84,50.83,50.83,0,0,1,.18-7.25,12.64,12.64,0,0,0-1.46-7.13,6.48,6.48,0,0,0-2.54-2.42,7.22,7.22,0,0,0-3.27-.81,8.41,8.41,0,0,0-5.73,2.14,11.64,11.64,0,0,0-3.07,4.4,15.61,15.61,0,0,0-1,4.3,24.74,24.74,0,0,0-.09,3.34c0,.92.1,1.63.16,2.11,0,.22.05.4.07.54Z"></path></g><path d="M74.32,67.35a7.1,7.1,0,0,1-.5-2.43,6.21,6.21,0,0,1,.65-2.81,5.85,5.85,0,0,1,2.71-2.62,5.74,5.74,0,0,1,2.13-.57,6.86,6.86,0,0,1,2.39.28c1.63.42,3.24,1.35,5.16,1.73a6.07,6.07,0,0,0,3-.07,4.51,4.51,0,0,0,2.44-2c1.16-1.8,1.49-4.06,2.89-5.71a5.73,5.73,0,0,1,2.62-1.72,7.31,7.31,0,0,1,3.07-.31,7.88,7.88,0,0,1,5.1,2.65,12.14,12.14,0,0,1,2.53,4.68,14.23,14.23,0,0,1,.56,4.64,51.17,51.17,0,0,1-.86,6.79l-.32,1.84c0,.19,0,.35-.07.48s0,.16,0,.16a1.66,1.66,0,0,0,0-.16c0-.13.06-.28.1-.47.1-.45.22-1.06.39-1.83a46.1,46.1,0,0,0,1-6.8,14,14,0,0,0-.53-4.73,12.25,12.25,0,0,0-2.57-4.82,8.89,8.89,0,0,0-2.33-1.86,7.63,7.63,0,0,0-3-.92,7.83,7.83,0,0,0-3.21.32A6.07,6.07,0,0,0,94.9,53c-1.48,1.78-1.79,4-2.9,5.76a4.2,4.2,0,0,1-2.25,1.81,5.9,5.9,0,0,1-2.83.08c-1.85-.36-3.47-1.27-5.14-1.7a7.14,7.14,0,0,0-2.49-.27,6.35,6.35,0,0,0-2.22.62A6.08,6.08,0,0,0,74.29,62a6.18,6.18,0,0,0-.61,2.9A5.8,5.8,0,0,0,74,66.76,3,3,0,0,0,74.32,67.35Z" style="fill:#DF33C6"></path><path d="M93.74,55.3a6.48,6.48,0,0,1-5.92.39,6,6,0,0,1-3-4.77,6.83,6.83,0,0,1,5.51-.28A6.7,6.7,0,0,1,94,54.74" style="fill:#DF33C6"></path><path d="M87.45,61a6.49,6.49,0,0,1-2.75,5.26,6,6,0,0,1-5.64.1,6.78,6.78,0,0,1,2.62-4.85,6.67,6.67,0,0,1,5.4-1" style="fill:#DF33C6"></path><path d="M76.52,59.74a6.46,6.46,0,0,1-5.93-.24,6,6,0,0,1-2.49-5.06,6.78,6.78,0,0,1,5.5.31,6.71,6.71,0,0,1,3.21,4.46" style="fill:#DF33C6"></path><path d="M102.91,51.52a6.76,6.76,0,0,0,2.36-5.59,6,6,0,0,0-3.66-4.29,6.37,6.37,0,0,0,.93,9.88" style="fill:#DF33C6"></path><path d="M145.56,43.7s0-.05-.06-.15-.14-.24-.22-.41c-.21-.35-.52-.86-1-1.5a16.2,16.2,0,0,0-4.75-4.49,11.67,11.67,0,0,0-4.26-1.56,10.5,10.5,0,0,0-5.18.54,8.42,8.42,0,0,0-4.43,3.63c-1,1.78-1.35,3.86-2,5.86a10.48,10.48,0,0,1-1.23,2.79,8.51,8.51,0,0,1-2.11,2.08c-.79.58-1.62,1.11-2.37,1.72a10.56,10.56,0,0,0-1.93,2.09,12.8,12.8,0,0,0-2,4.83,16.93,16.93,0,0,0-.27,4.53A35,35,0,0,0,115,70.11c.2.74.36,1.32.48,1.71a4,4,0,0,0,.19.59,4.65,4.65,0,0,0-.12-.61c-.1-.42-.24-1-.41-1.73a36.84,36.84,0,0,1-1-6.43,16.91,16.91,0,0,1,.3-4.46,12.58,12.58,0,0,1,2-4.69,9.92,9.92,0,0,1,1.88-2c.73-.6,1.55-1.12,2.36-1.71a8.64,8.64,0,0,0,2.19-2.16,10.73,10.73,0,0,0,1.29-2.89,27.5,27.5,0,0,1,1.9-5.79,8.06,8.06,0,0,1,4.24-3.49,10.38,10.38,0,0,1,5-.56,11.6,11.6,0,0,1,4.17,1.49,16.59,16.59,0,0,1,4.77,4.36c.46.61.79,1.11,1,1.45A4.71,4.71,0,0,0,145.56,43.7Z" style="fill:#DF33C6"></path><path d="M119.47,51c.55-.51.82-.15,1.56,0a4.69,4.69,0,0,1,2,1,8.4,8.4,0,0,1,2.72,8.81,6.55,6.55,0,0,1-6-9.84" style="fill:#DF33C6"></path><path d="M142,40.74c.27-.7.67-.49,1.39-.69a4.67,4.67,0,0,1,2.23,0,8.4,8.4,0,0,1,6.25,6.79,6.55,6.55,0,0,1-9.67-6.3" style="fill:#DF33C6"></path><path d="M114.5,64.92a7.56,7.56,0,0,1,11.9.58,9.4,9.4,0,0,1-6.17,2.43A9.58,9.58,0,0,1,114,65.41" style="fill:#DF33C6"></path><path d="M116.35,54.53a7.67,7.67,0,0,1-7.74-9.15,6.89,6.89,0,0,1,8,9.08" style="fill:#DF33C6"></path><path d="M124.3,42.33A7.68,7.68,0,0,1,114,36.27a6.88,6.88,0,0,1,10.56,5.9" style="fill:#DF33C6"></path><path d="M127,38.34A7.66,7.66,0,0,1,137.3,44.4a6.89,6.89,0,0,1-10.56-5.9" style="fill:#DF33C6"></path><path d="M130.13,36.2a7.68,7.68,0,0,1-4.08-11.27,6.89,6.89,0,0,1,4.35,11.29" style="fill:#DF33C6"></path><path d="M138.27,36.59a7.68,7.68,0,0,1,6.26-10.23,6.88,6.88,0,0,1-6.11,10.44" style="fill:#DF33C6"></path><polygon points="127.17 96.46 124.63 99.61 93.37 99.61 91.24 96.46 127.17 96.46" style="fill:#263238"></polygon><path d="M91.93,96.43c0,.1,7.68.18,17.15.18s17.15-.08,17.15-.18-7.67-.18-17.15-.18S91.93,96.33,91.93,96.43Z" style="fill:#455a64"></path><path d="M95.44,84.56s.06.1.2.26a6.69,6.69,0,0,0,.63.67,11.73,11.73,0,0,0,2.79,1.94,12.44,12.44,0,0,0,4.88,1.25,11.85,11.85,0,0,0,3-.25,16.93,16.93,0,0,0,3-1c2-.86,3.85-1.83,5.63-2.4a9.71,9.71,0,0,1,4.86-.47,6.41,6.41,0,0,1,3,1.38,12.24,12.24,0,0,1,.85.89,1.35,1.35,0,0,0-.16-.28,4.32,4.32,0,0,0-.6-.71,6.19,6.19,0,0,0-3-1.53,9.73,9.73,0,0,0-5,.4,61.51,61.51,0,0,0-5.67,2.39,17.35,17.35,0,0,1-3,1,11.58,11.58,0,0,1-2.89.27,12.45,12.45,0,0,1-4.79-1.15A15.06,15.06,0,0,1,95.44,84.56Z" style="fill:#455a64"></path><path d="M95.13,82.12s.07.1.22.25A6.78,6.78,0,0,0,96,83a12.85,12.85,0,0,0,2.89,1.79,13.39,13.39,0,0,0,7.91,1,20.22,20.22,0,0,0,3.09-.88c2.06-.75,4-1.61,5.76-2.11a11.48,11.48,0,0,1,4.91-.45,7.36,7.36,0,0,1,3.09,1.19c.65.45.93.8,1,.77a2,2,0,0,0-.19-.26,6,6,0,0,0-.69-.63,7.13,7.13,0,0,0-3.13-1.32,11.49,11.49,0,0,0-5,.38c-1.84.5-3.75,1.35-5.79,2.09a20.25,20.25,0,0,1-3,.87,13.94,13.94,0,0,1-2.91.22A14.1,14.1,0,0,1,99,84.55,16.85,16.85,0,0,1,95.13,82.12Z" style="fill:#455a64"></path><rect x="78.03" y="69.4" width="6.26" height="42.85" style="fill:#DF33C6"></rect><path d="M83.52,75.24a6.87,6.87,0,0,1-2.68.27,6.87,6.87,0,0,1-2.68-.27A6.87,6.87,0,0,1,80.84,75,6.87,6.87,0,0,1,83.52,75.24Z" style="fill:#fafafa"></path><path d="M83.64,74.31a6.94,6.94,0,0,1-2.69.27,6.87,6.87,0,0,1-2.68-.27A6.87,6.87,0,0,1,81,74,6.94,6.94,0,0,1,83.64,74.31Z" style="fill:#fafafa"></path><path d="M83.52,108.94a6.87,6.87,0,0,1-2.68.27,6.87,6.87,0,0,1-2.68-.27,6.87,6.87,0,0,1,2.68-.27A6.87,6.87,0,0,1,83.52,108.94Z" style="fill:#fafafa"></path><path d="M83.64,108a6.94,6.94,0,0,1-2.69.27,6.87,6.87,0,0,1-2.68-.27,7.1,7.1,0,0,1,2.68-.27A7.17,7.17,0,0,1,83.64,108Z" style="fill:#fafafa"></path><path d="M80.72,102.41c-.15,0-.27-4.91-.27-11s.12-11,.27-11,.27,4.9.27,11S80.87,102.41,80.72,102.41Z" style="fill:#fafafa"></path><rect x="47.07" y="69.27" width="11.45" height="42.85" style="fill:#DF33C6"></rect><path d="M49.76,112.67a1,1,0,0,1-.14-.24c-.08-.15-.19-.39-.32-.71a12.42,12.42,0,0,1-.83-2.9,7.55,7.55,0,0,1,.66-4.72,6.41,6.41,0,0,1,2-2.24,4.76,4.76,0,0,1,3.3-.78,3.58,3.58,0,0,1,1.71.79,2.28,2.28,0,0,1,.82,1.81,2.63,2.63,0,0,1-1,1.81,3.5,3.5,0,0,1-2,.83,5.19,5.19,0,0,1-4-1.47,6.56,6.56,0,0,1-2-4.12,11,11,0,0,1,.6-4.78,8.83,8.83,0,0,1,2.8-4.18,4.66,4.66,0,0,1,2.48-1,3.2,3.2,0,0,1,2.57.91A2.14,2.14,0,0,1,57,93.05a2.42,2.42,0,0,1-.4,1.4A3.69,3.69,0,0,1,54.31,96a5.4,5.4,0,0,1-5-1.69,8.4,8.4,0,0,1-2-4.82,11.67,11.67,0,0,1,.49-5,6.9,6.9,0,0,1,3-3.81,5.06,5.06,0,0,1,4.54-.48A2.41,2.41,0,0,1,56.78,82a2.75,2.75,0,0,1-.52,2.16,3.58,3.58,0,0,1-3.86,1,6.65,6.65,0,0,1-3-2.16,9.77,9.77,0,0,1-2.28-5.87,9.42,9.42,0,0,1,1.06-4.66A9.3,9.3,0,0,1,49.94,70a7.48,7.48,0,0,1,.59-.51.86.86,0,0,1,.22-.15,11,11,0,0,0-2.43,3.18,9.29,9.29,0,0,0,1.33,10.19,6.26,6.26,0,0,0,2.87,2,3.14,3.14,0,0,0,3.38-.89,2.3,2.3,0,0,0,.43-1.8,1.91,1.91,0,0,0-1.22-1.4,4.6,4.6,0,0,0-4.1.47,6.43,6.43,0,0,0-2.73,3.54,11.42,11.42,0,0,0-.45,4.78A7.92,7.92,0,0,0,49.67,94a4.84,4.84,0,0,0,4.52,1.52,3.16,3.16,0,0,0,2-1.33A1.64,1.64,0,0,0,56,92.08a2.73,2.73,0,0,0-2.15-.75,4.14,4.14,0,0,0-2.19.86,8.41,8.41,0,0,0-2.63,3.93,10.38,10.38,0,0,0-.59,4.55,6,6,0,0,0,1.84,3.83A4.75,4.75,0,0,0,54,105.88a2.72,2.72,0,0,0,2.56-2.22,1.84,1.84,0,0,0-.67-1.49,3.07,3.07,0,0,0-1.5-.71,4.33,4.33,0,0,0-3,.69,6.07,6.07,0,0,0-2,2.1,7.45,7.45,0,0,0-.73,4.54,13.5,13.5,0,0,0,.73,2.89C49.63,112.33,49.78,112.66,49.76,112.67Z" style="fill:#fafafa"></path><rect x="99.99" y="85.1" width="11.45" height="42.85" transform="translate(-0.81 212.24) rotate(-90)" style="fill:#e0e0e0"></rect><path d="M126.66,109.57s-.07.05-.22.13l-.7.33a11.78,11.78,0,0,1-2.84.83,7.28,7.28,0,0,1-4.6-.67,6.17,6.17,0,0,1-2.18-2,4.84,4.84,0,0,1-.77-3.3,3.47,3.47,0,0,1,.77-1.7,2.16,2.16,0,0,1,1.77-.82,2.49,2.49,0,0,1,1.77,1,3.55,3.55,0,0,1,.81,2,5.26,5.26,0,0,1-1.44,4.06,6.33,6.33,0,0,1-4,2,10.42,10.42,0,0,1-4.67-.59,8.62,8.62,0,0,1-4.08-2.81,4.72,4.72,0,0,1-1-2.47,3.29,3.29,0,0,1,.89-2.57,2,2,0,0,1,1.31-.59,2.34,2.34,0,0,1,1.37.39,3.74,3.74,0,0,1,1.54,2.31,5.47,5.47,0,0,1-1.65,5,8.13,8.13,0,0,1-4.71,2,11.45,11.45,0,0,1-4.88-.49,6.81,6.81,0,0,1-3.72-3A5.21,5.21,0,0,1,95,104a2.35,2.35,0,0,1,1.71-1.48,2.66,2.66,0,0,1,2.1.52,3.64,3.64,0,0,1,1,3.86,6.66,6.66,0,0,1-2.11,3A9.29,9.29,0,0,1,92,112.24a9,9,0,0,1-4.54-1,9.19,9.19,0,0,1-2.37-1.8,6.73,6.73,0,0,1-.5-.6c-.11-.14-.16-.21-.15-.22A10.6,10.6,0,0,0,87.51,111a8.86,8.86,0,0,0,4.44.94,9.12,9.12,0,0,0,5.51-2.27,6.29,6.29,0,0,0,2-2.87,3.21,3.21,0,0,0-.87-3.38,2.21,2.21,0,0,0-1.76-.43,1.9,1.9,0,0,0-1.37,1.22,4.72,4.72,0,0,0,.46,4.1A6.26,6.26,0,0,0,99.34,111a10.91,10.91,0,0,0,4.67.45,7.58,7.58,0,0,0,4.41-1.83,4.94,4.94,0,0,0,1.49-4.53,3.17,3.17,0,0,0-1.31-2,1.57,1.57,0,0,0-2,.13,2.71,2.71,0,0,0-.73,2.14,4.07,4.07,0,0,0,.85,2.19,8.05,8.05,0,0,0,3.82,2.64,10.13,10.13,0,0,0,4.45.59,5.88,5.88,0,0,0,3.74-1.85,4.82,4.82,0,0,0,1.35-3.68,2.73,2.73,0,0,0-2.17-2.57,1.76,1.76,0,0,0-1.45.67,3.13,3.13,0,0,0-.7,1.51,4.41,4.41,0,0,0,.68,3,5.85,5.85,0,0,0,2,2,7.12,7.12,0,0,0,4.44.72,13.71,13.71,0,0,0,2.82-.72C126.33,109.69,126.65,109.55,126.66,109.57Z" style="fill:#fafafa"></path><rect x="58" y="73.04" width="19.86" height="39.02" style="fill:#263238"></rect><path d="M77.18,79.53a85.46,85.46,0,0,1-9.61.27A85.46,85.46,0,0,1,58,79.53a85.46,85.46,0,0,1,9.61-.27A85.46,85.46,0,0,1,77.18,79.53Z" style="fill:#e0e0e0"></path><path d="M77.43,82.49a86.27,86.27,0,0,1-9.49.27,86.27,86.27,0,0,1-9.49-.27,83.4,83.4,0,0,1,9.49-.27A83.4,83.4,0,0,1,77.43,82.49Z" style="fill:#e0e0e0"></path><path d="M78.07,107.65a92.48,92.48,0,0,1-10,.27,92.6,92.6,0,0,1-10-.27,95.8,95.8,0,0,1,10-.27A95.68,95.68,0,0,1,78.07,107.65Z" style="fill:#e0e0e0"></path><path d="M77.8,104.18a87.81,87.81,0,0,1-9.74.27,87.69,87.69,0,0,1-9.73-.27,87.69,87.69,0,0,1,9.73-.27A87.81,87.81,0,0,1,77.8,104.18Z" style="fill:#e0e0e0"></path></g><g id="freepik--Picture--inject-150"><rect x="349.03" y="30.26" width="117.51" height="151.77" style="fill:#455a64"></rect><path d="M466.54,30.26a2.82,2.82,0,0,1-.32.4l-1,1.14-4,4.35,0,.05h-.08c-10.21.11-30.29.18-53.33.18s-43.13-.07-53.34-.18h-.07l-.05-.05-4-4.35-1-1.14a2.82,2.82,0,0,1-.32-.4s.14.1.39.34l1.07,1.08,4.08,4.24-.12-.05c10.21-.1,30.29-.17,53.34-.17s43.12.07,53.33.17l-.12.05,4.09-4.24,1.07-1.08C466.4,30.36,466.53,30.24,466.54,30.26Z" style="fill:#263238"></path><path d="M349,182a2.51,2.51,0,0,1,.32-.41l1-1.14,4-4.35.05,0h.07c10.22-.1,30.29-.17,53.33-.17s43.13.07,53.34.17h.08l0,0,4,4.35,1,1.14a2.51,2.51,0,0,1,.32.41,2.41,2.41,0,0,1-.38-.35c-.28-.27-.63-.63-1.07-1.08L461,176.36l.12,0c-10.21.11-30.29.18-53.34.18s-43.11-.07-53.33-.18l.12,0-4.08,4.24-1.07,1.08A2.69,2.69,0,0,1,349,182Z" style="fill:#263238"></path><rect x="354.45" y="36.04" width="106.67" height="140.21" style="fill:#fff"></rect><path d="M371.14,135.24c3.17-3,7.86-3.87,12.24-3.77s8.72,1,13.1,1c7-.09,14-2.68,20.9-1.49,2.2.38,4.44,1.15,6.63.68,1.92-.4,3.53-1.71,5.41-2.27,4.86-1.45,10.34,2.35,15,.37V161H371.14Z" style="fill:#DF33C6"></path><path d="M372.62,136.5c-.19,0-.34-18.54-.34-41.4s.15-41.41.34-41.41S373,72.23,373,95.1,372.8,136.5,372.62,136.5Z" style="fill:#263238"></path><path d="M376,136.5c-.18,0-.34-18.54-.34-41.4s.16-41.41.34-41.41.34,18.54.34,41.41S376.14,136.5,376,136.5Z" style="fill:#263238"></path><path d="M379.29,136.5c-.19,0-.34-18.54-.34-41.4s.15-41.41.34-41.41.34,18.54.34,41.41S379.48,136.5,379.29,136.5Z" style="fill:#263238"></path><path d="M382.63,136.5c-.19,0-.34-18.54-.34-41.4s.15-41.41.34-41.41S383,72.23,383,95.1,382.82,136.5,382.63,136.5Z" style="fill:#263238"></path><path d="M386,136.5c-.18,0-.34-18.54-.34-41.4s.16-41.41.34-41.41.34,18.54.34,41.41S386.15,136.5,386,136.5Z" style="fill:#263238"></path><path d="M389.3,136.5c-.19,0-.34-18.54-.34-41.4s.15-41.41.34-41.41.34,18.54.34,41.41S389.49,136.5,389.3,136.5Z" style="fill:#263238"></path><path d="M392.64,136.5c-.19,0-.34-18.54-.34-41.4s.15-41.41.34-41.41S393,72.23,393,95.1,392.83,136.5,392.64,136.5Z" style="fill:#263238"></path><path d="M396,136.5c-.18,0-.34-18.54-.34-41.4s.16-41.41.34-41.41.34,18.54.34,41.41S396.16,136.5,396,136.5Z" style="fill:#263238"></path><path d="M399.31,136.5c-.19,0-.34-18.54-.34-41.4s.15-41.41.34-41.41.34,18.54.34,41.41S399.5,136.5,399.31,136.5Z" style="fill:#263238"></path><path d="M402.65,136.5c-.19,0-.34-18.54-.34-41.4s.15-41.41.34-41.41S403,72.23,403,95.1,402.84,136.5,402.65,136.5Z" style="fill:#263238"></path><path d="M406,136.5c-.18,0-.34-18.54-.34-41.4s.16-41.41.34-41.41.35,18.54.35,41.41S406.17,136.5,406,136.5Z" style="fill:#263238"></path><path d="M409.32,136.5c-.19,0-.34-18.54-.34-41.4s.15-41.41.34-41.41.34,18.54.34,41.41S409.51,136.5,409.32,136.5Z" style="fill:#263238"></path><path d="M412.66,136.5c-.19,0-.34-18.54-.34-41.4s.15-41.41.34-41.41S413,72.23,413,95.1,412.85,136.5,412.66,136.5Z" style="fill:#263238"></path><path d="M416,136.5c-.19,0-.35-18.54-.35-41.4s.16-41.41.35-41.41.34,18.54.34,41.41S416.18,136.5,416,136.5Z" style="fill:#263238"></path><path d="M419.33,136.5c-.19,0-.34-18.54-.34-41.4s.15-41.41.34-41.41.34,18.54.34,41.41S419.52,136.5,419.33,136.5Z" style="fill:#263238"></path><path d="M422.67,136.5c-.19,0-.34-18.54-.34-41.4s.15-41.41.34-41.41S423,72.23,423,95.1,422.86,136.5,422.67,136.5Z" style="fill:#263238"></path><path d="M426,136.5c-.19,0-.34-18.54-.34-41.4s.15-41.41.34-41.41.34,18.54.34,41.41S426.19,136.5,426,136.5Z" style="fill:#263238"></path><path d="M429.34,136.5c-.19,0-.34-18.54-.34-41.4s.15-41.41.34-41.41.34,18.54.34,41.41S429.53,136.5,429.34,136.5Z" style="fill:#263238"></path><path d="M432.68,136.5c-.19,0-.34-18.54-.34-41.4s.15-41.41.34-41.41S433,72.23,433,95.1,432.87,136.5,432.68,136.5Z" style="fill:#263238"></path><path d="M436,136.5c-.19,0-.34-18.54-.34-41.4s.15-41.41.34-41.41.34,18.54.34,41.41S436.2,136.5,436,136.5Z" style="fill:#263238"></path><path d="M439.35,136.5c-.19,0-.34-18.54-.34-41.4s.15-41.41.34-41.41.34,18.54.34,41.41S439.54,136.5,439.35,136.5Z" style="fill:#263238"></path><path d="M442.69,136.5c-.19,0-.34-18.54-.34-41.4s.15-41.41.34-41.41S443,72.23,443,95.1,442.88,136.5,442.69,136.5Z" style="fill:#263238"></path></g><g id="freepik--Table--inject-150"><path d="M69.43,249.42a5.37,5.37,0,0,1,.38,2.34,7.53,7.53,0,0,1,1.06-2.65c.19-.3.49-.62.84-.53s.46.52.47.88a5.68,5.68,0,0,1-.65,2.85,6.3,6.3,0,0,1,2.41-1.87.59.59,0,0,1,.53,0c.18.11.18.37.15.58a4.88,4.88,0,0,1-3,3.76l-.51.08a4.56,4.56,0,0,1-3.26-5.22c.08-.42.32-.91.75-.92S69.29,249.07,69.43,249.42Z" style="fill:#DF33C6"></path><path d="M80.87,272.27A14.67,14.67,0,0,0,76,270.32a19.92,19.92,0,0,0,.14-10.72,10.3,10.3,0,0,0-1.81-3.86,5.25,5.25,0,0,0-3.64-2,5.15,5.15,0,0,0-4,1.88l-1.79,4.13a16.1,16.1,0,0,0-.21,1.82,21.92,21.92,0,0,0,2.61,11.58A12.16,12.16,0,0,0,64,282.83H85.24C85.61,278.89,84.11,274.61,80.87,272.27Z" style="fill:#455a64"></path><path d="M66.32,274.44s.05-.09.16-.23a6.55,6.55,0,0,1,.53-.61,9.52,9.52,0,0,1,2.36-1.8,10.94,10.94,0,0,1,4.19-1.34,10.14,10.14,0,0,1,9.52,4.1,11.06,11.06,0,0,1,1.91,4,10.19,10.19,0,0,1,.31,3,7.29,7.29,0,0,1-.09.8,1,1,0,0,1,0,.28,13.48,13.48,0,0,0-.39-4,11.26,11.26,0,0,0-1.92-3.85,10,10,0,0,0-9.26-4A11.17,11.17,0,0,0,69.47,272,13,13,0,0,0,66.32,274.44Z" style="fill:#263238"></path><path d="M64.55,263.07a5.59,5.59,0,0,1,0-1.41,12.13,12.13,0,0,1,.57-3.36,7,7,0,0,1,1.82-2.9,2.93,2.93,0,0,1,1.2-.75s-.45.3-1,.92a7.45,7.45,0,0,0-1.67,2.83,14.75,14.75,0,0,0-.65,3.27A7,7,0,0,1,64.55,263.07Z" style="fill:#263238"></path><path d="M76.83,280.12a20.94,20.94,0,0,1,2-2,19.88,19.88,0,0,1,2.05-2,9.25,9.25,0,0,1-1.82,2.19A9.37,9.37,0,0,1,76.83,280.12Z" style="fill:#263238"></path><path d="M74.47,278.89a6.79,6.79,0,0,1,.34-2.11,7.16,7.16,0,0,1,.66-2,7,7,0,0,1-.35,2.1A7.34,7.34,0,0,1,74.47,278.89Z" style="fill:#263238"></path><path d="M68.16,276.53a5.55,5.55,0,0,1,1.21,1.92,5.34,5.34,0,0,1,.64,2.17,15.46,15.46,0,0,1-.94-2A13.33,13.33,0,0,1,68.16,276.53Z" style="fill:#263238"></path><path d="M75,266.6a21.12,21.12,0,0,1,3.13-4.14,10.45,10.45,0,0,1-1.44,2.17A10.31,10.31,0,0,1,75,266.6Z" style="fill:#263238"></path><path d="M73.48,260a15,15,0,0,1,1.63-2.66A15.4,15.4,0,0,1,77,254.82a15.81,15.81,0,0,1-1.63,2.66A15.4,15.4,0,0,1,73.48,260Z" style="fill:#263238"></path><path d="M71.09,261.7a8.7,8.7,0,0,1,.3,2.25,7.92,7.92,0,0,1,0,2.27,7.7,7.7,0,0,1-.3-2.25A8,8,0,0,1,71.09,261.7Z" style="fill:#263238"></path><path d="M61.54,264.72a14.66,14.66,0,0,1,3,1.54,14.52,14.52,0,0,1,2.75,2,23,23,0,0,1-2.92-1.7A23.42,23.42,0,0,1,61.54,264.72Z" style="fill:#263238"></path><g style="opacity:0.30000000000000004"><path d="M69.19,270.44a7.54,7.54,0,0,1,3.44-.85,4.32,4.32,0,0,1,3.46,1v.05a12.79,12.79,0,0,0-8.72,2.72A3.47,3.47,0,0,1,69.19,270.44Z"></path></g><path d="M79.29,228.71a4.32,4.32,0,0,1,1.86-.07,6,6,0,0,1-2-1.08c-.22-.18-.44-.45-.34-.71s.45-.31.73-.28a4.44,4.44,0,0,1,2.17.77,4.94,4.94,0,0,1-1.23-2.06.45.45,0,0,1,0-.41.46.46,0,0,1,.47-.07,3.84,3.84,0,0,1,2.67,2.67v.41a3.57,3.57,0,0,1-4.39,2.05c-.32-.1-.68-.33-.65-.67S79,228.79,79.29,228.71Z" style="fill:#DF33C6"></path><path d="M122.14,201.55a4.08,4.08,0,0,1-.08,1.87,6.09,6.09,0,0,1,1.24-1.88c.2-.2.48-.4.74-.28s.27.48.22.76a4.53,4.53,0,0,1-1,2.09,5,5,0,0,1,2.15-1.05.45.45,0,0,1,.41.05c.12.11.09.31,0,.47A3.85,3.85,0,0,1,123,206l-.41,0a3.59,3.59,0,0,1-1.68-4.54c.13-.32.39-.66.72-.59S122.09,201.26,122.14,201.55Z" style="fill:#DF33C6"></path><path d="M92.31,257.12c.31,0,.61.05.91.07.55-6.07-1.29-12.23.56-18l-.24.31a13.66,13.66,0,0,1-6.66-.59,8.3,8.3,0,0,1-4.82-4.47,6,6,0,0,1,1-6.31c2.11-2.19,5.81-2.08,8.44-.56s4.33,3.91,6,6.32a11.17,11.17,0,0,1,2.9-1.67c-2.93-4-5.76-8.27-6.69-13.14-1-5.33,1-11.64,5.93-13.86,4.21-1.9,9.49-.19,12.46,3.35.23.28.43.58.64.87l-.1-.29a7.65,7.65,0,0,1,4-4.21,6.5,6.5,0,0,1,5.75.27,5.67,5.67,0,0,1,2.83,4.94,6.32,6.32,0,0,1-3.66,5.25,9.85,9.85,0,0,1-6.3.58,19.17,19.17,0,0,1,0,5.66,32.8,32.8,0,0,1-4.79,11.86,10.22,10.22,0,0,1,1.73,1.42c3.81,4,4.06,10.42,2.06,15.57s-7.42,9-11.18,13h0a24.69,24.69,0,0,1,2.88,9.07,8.24,8.24,0,0,1,7.28-4.67c1.64,0,3.48.74,4,2.3a4.19,4.19,0,0,1-1.28,3.93,10.41,10.41,0,0,1-9.62,2.81l0-1a42.87,42.87,0,0,1-.17,6.93H81.86S75.38,256.49,92.31,257.12Z" style="fill:#455a64"></path><rect x="54.07" y="282.83" width="57.37" height="10.17" transform="translate(165.5 575.82) rotate(180)" style="fill:#DF33C6"></rect><polygon points="107.15 290.98 100.17 321.36 65.98 321.36 58.35 290.98 107.15 290.98" style="fill:#DF33C6"></polygon><path d="M54.1,293c0,.11,12.94.2,28.9.2s28.9-.09,28.9-.2-12.94-.2-28.9-.2S54.1,292.9,54.1,293Z" style="fill:#263238"></path><path d="M87.81,258.12a1.31,1.31,0,0,1,.33-.19,7.37,7.37,0,0,1,1-.43,9.67,9.67,0,0,1,4-.46,12.06,12.06,0,0,1,5.62,2,15.05,15.05,0,0,1,4.83,5.45,22.62,22.62,0,0,1,2.31,6.93,37.5,37.5,0,0,1,.38,5.95c0,1.7-.06,3.07-.09,4,0,.44,0,.8,0,1.09a1.42,1.42,0,0,1,0,.38,1.67,1.67,0,0,1,0-.38c0-.29,0-.65,0-1.1v-4a39,39,0,0,0-.46-5.91,22.17,22.17,0,0,0-2.3-6.82,14.94,14.94,0,0,0-4.71-5.37,12.06,12.06,0,0,0-5.47-2,10.12,10.12,0,0,0-3.93.35C88.29,257.89,87.83,258.16,87.81,258.12Z" style="fill:#263238"></path><path d="M92.94,245.25a.85.85,0,0,1,0-.29,8,8,0,0,1,0-.83,14.39,14.39,0,0,1,.36-3,14.09,14.09,0,0,1,1.69-4.21,11.44,11.44,0,0,1,1.62-2.15,9.85,9.85,0,0,1,2.27-1.8,10.11,10.11,0,0,1,2.71-1,11.87,11.87,0,0,1,2.69-.2,13.17,13.17,0,0,1,4.42,1.05,15.31,15.31,0,0,1,2.68,1.46c.3.2.52.39.67.5l.22.19a8.71,8.71,0,0,1-1-.58,17,17,0,0,0-2.7-1.36,13.5,13.5,0,0,0-4.34-1,11.17,11.17,0,0,0-2.61.21,9.79,9.79,0,0,0-2.62,1,9.44,9.44,0,0,0-2.2,1.74,11.8,11.8,0,0,0-1.6,2.08,14.82,14.82,0,0,0-1.72,4.12,15.72,15.72,0,0,0-.45,3A10,10,0,0,1,92.94,245.25Z" style="fill:#263238"></path><path d="M115.48,219.59a10,10,0,0,1-.21-1.94c0-.61-.11-1.32-.24-2.1a10,10,0,0,0-.69-2.46,24.85,24.85,0,0,0-2.21-4.12c-.66-1-1.17-1.56-1.13-1.59s.16.1.4.35a10.26,10.26,0,0,1,.91,1.11,20,20,0,0,1,2.33,4.13,9.71,9.71,0,0,1,.68,2.54,18,18,0,0,1,.18,2.12A13.93,13.93,0,0,1,115.48,219.59Z" style="fill:#263238"></path><path d="M112.35,274.11a6.9,6.9,0,0,1,1.65,1.22,6.79,6.79,0,0,1,1.44,1.47,12.94,12.94,0,0,1-3.09-2.69Z" style="fill:#263238"></path><path d="M114.38,272.09a6.6,6.6,0,0,1,2.06-.37,6.77,6.77,0,0,1,2.08,0,6.75,6.75,0,0,1-2,.36A7.06,7.06,0,0,1,114.38,272.09Z" style="fill:#263238"></path><path d="M112.84,268.51a10.94,10.94,0,0,1,1.15-1.59,12.87,12.87,0,0,1,1.16-1.59,4.1,4.1,0,0,1-.9,1.77A4.27,4.27,0,0,1,112.84,268.51Z" style="fill:#263238"></path><path d="M110.12,266.87a8.69,8.69,0,0,1-.37,2.34,9,9,0,0,1-.69,2.28,8.79,8.79,0,0,1,.37-2.35A9.52,9.52,0,0,1,110.12,266.87Z" style="fill:#263238"></path><path d="M108.31,275.06c-.06-.06.32-.51.85-1s1-.82,1.08-.75-.33.51-.86,1S108.37,275.13,108.31,275.06Z" style="fill:#263238"></path><path d="M99.88,273.48c-.07-.07.4-.66,1-1.32s1.2-1.16,1.27-1.1a4.33,4.33,0,0,1-1,1.32A4.6,4.6,0,0,1,99.88,273.48Z" style="fill:#263238"></path><path d="M98.05,265.69a4.83,4.83,0,0,1,.77-1.58,4.89,4.89,0,0,1,1.06-1.41,9.71,9.71,0,0,1-1.83,3Z" style="fill:#263238"></path><path d="M92.68,259.35a6.64,6.64,0,0,1,.19,2,6.54,6.54,0,0,1-.14,2,12.51,12.51,0,0,1,0-4Z" style="fill:#263238"></path><path d="M81.41,261.5A15.07,15.07,0,0,1,83,263.37a15.06,15.06,0,0,1,1.53,1.93,11.12,11.12,0,0,1-3.14-3.8Z" style="fill:#263238"></path><path d="M80,272.56a6.89,6.89,0,0,1,2,.23,6.22,6.22,0,0,1,1.94.54,6.12,6.12,0,0,1-2-.23A6.23,6.23,0,0,1,80,272.56Z" style="fill:#263238"></path><path d="M91.65,276.42a6.08,6.08,0,0,1,.78-2.22,5.94,5.94,0,0,1,1.33-1.93,17.73,17.73,0,0,1-1,2.08A14.84,14.84,0,0,1,91.65,276.42Z" style="fill:#263238"></path><path d="M87.76,271.11a8.23,8.23,0,0,1-.07-3.28,4.4,4.4,0,0,1,.19,1.64A4.34,4.34,0,0,1,87.76,271.11Z" style="fill:#263238"></path><path d="M100.33,280.47a3.68,3.68,0,0,1,.69-1.71,3.64,3.64,0,0,1,1.21-1.39,9.06,9.06,0,0,1-.94,1.56A9.71,9.71,0,0,1,100.33,280.47Z" style="fill:#263238"></path><path d="M87,281.24a5.27,5.27,0,0,1-.87-1.58,5,5,0,0,1-.57-1.7,5.14,5.14,0,0,1,.87,1.57A4.81,4.81,0,0,1,87,281.24Z" style="fill:#263238"></path><path d="M107.73,256.57a7.68,7.68,0,0,1,2.22-.09,7.48,7.48,0,0,1,2.21.24,8.35,8.35,0,0,1-2.22.08A7.84,7.84,0,0,1,107.73,256.57Z" style="fill:#263238"></path><path d="M112.57,248.29a22.59,22.59,0,0,1,4.45-3.15,12.69,12.69,0,0,1-2.13,1.71A11.75,11.75,0,0,1,112.57,248.29Z" style="fill:#263238"></path><path d="M112.06,237.66a13.57,13.57,0,0,1,1.74-1.15,16.28,16.28,0,0,1,1.74-1.16,4.69,4.69,0,0,1-1.56,1.43A4.61,4.61,0,0,1,112.06,237.66Z" style="fill:#263238"></path><path d="M106.65,233.9a10.43,10.43,0,0,1,.47-2.59,10.54,10.54,0,0,1,.78-2.52,11.67,11.67,0,0,1-.47,2.59A11.5,11.5,0,0,1,106.65,233.9Z" style="fill:#263238"></path><path d="M97.59,231.22a5.63,5.63,0,0,1,1,1.56,5.42,5.42,0,0,1,.77,1.72,6.18,6.18,0,0,1-1-1.56A5.71,5.71,0,0,1,97.59,231.22Z" style="fill:#263238"></path><path d="M89.78,249.16c.06-.07,1.09.72,2.45,1.55s2.53,1.41,2.49,1.5a11.9,11.9,0,0,1-4.94-3.05Z" style="fill:#263238"></path><path d="M102.44,253.19a5.88,5.88,0,0,1,1.55-1.14,6.32,6.32,0,0,1,1.72-.88,5.58,5.58,0,0,1-1.55,1.15A5.8,5.8,0,0,1,102.44,253.19Z" style="fill:#263238"></path><path d="M104.56,244.61c-.07-.07.75-.87,1.51-2s1.18-2.24,1.27-2.21a5.33,5.33,0,0,1-1,2.38A5.27,5.27,0,0,1,104.56,244.61Z" style="fill:#263238"></path><path d="M100.4,242.68a6.65,6.65,0,0,1-.06-2.08,7.24,7.24,0,0,1,.25-2.07,6.83,6.83,0,0,1,.07,2.08A6.65,6.65,0,0,1,100.4,242.68Z" style="fill:#263238"></path><path d="M98.11,251.16a13.78,13.78,0,0,1-.49-4.24,14.65,14.65,0,0,1,.49,4.24Z" style="fill:#263238"></path><path d="M91.69,225.61a20.5,20.5,0,0,1,.68,2.37,17.23,17.23,0,0,1,.67,2.38,9.79,9.79,0,0,1-1.35-4.75Z" style="fill:#263238"></path><path d="M87.17,240.5A16.33,16.33,0,0,1,89,239.14a18.3,18.3,0,0,1,1.87-1.35,5.76,5.76,0,0,1-1.68,1.61A5.67,5.67,0,0,1,87.17,240.5Z" style="fill:#263238"></path><path d="M81,235.93a14.8,14.8,0,0,1,2.26-.46,16.78,16.78,0,0,1,2.27-.41,9,9,0,0,1-4.53.87Z" style="fill:#263238"></path><path d="M87,230.82a3.4,3.4,0,0,1,1.29.64c.66.42,1.17.83,1.12.9s-.63-.2-1.29-.63S87,230.9,87,230.82Z" style="fill:#263238"></path><path d="M84,225.3a4,4,0,0,1,1.47,1.22,4.07,4.07,0,0,1,1,1.62,9.76,9.76,0,0,1-1.25-1.41A11.19,11.19,0,0,1,84,225.3Z" style="fill:#263238"></path><path d="M80,230.56a12.83,12.83,0,0,1,2.09.52,11.91,11.91,0,0,1,2.07.6A8.46,8.46,0,0,1,80,230.56Z" style="fill:#263238"></path><path d="M108.12,223.49a32.9,32.9,0,0,1,1.83-2.8,27.36,27.36,0,0,1,1.87-2.77,12.66,12.66,0,0,1-1.6,3A12.83,12.83,0,0,1,108.12,223.49Z" style="fill:#263238"></path><path d="M106.31,217.05a9.11,9.11,0,0,1,.15-2.41,9.26,9.26,0,0,1,.48-2.36,9.4,9.4,0,0,1-.16,2.41A9,9,0,0,1,106.31,217.05Z" style="fill:#263238"></path><path d="M100.05,218.05c.1,0,.36,1.22,1,2.64s1.33,2.46,1.25,2.52a8.56,8.56,0,0,1-2.23-5.16Z" style="fill:#263238"></path><path d="M92.7,219.61c.08-.06,1,1,2.26,2.2s2.39,2,2.34,2.12a9.27,9.27,0,0,1-2.56-1.88A9.66,9.66,0,0,1,92.7,219.61Z" style="fill:#263238"></path><path d="M95.55,206.26c.09,0,.37,1.34.88,3s1,2.9.94,2.94a9.75,9.75,0,0,1-1.25-2.85A9.31,9.31,0,0,1,95.55,206.26Z" style="fill:#263238"></path><path d="M104,201.87a8.79,8.79,0,0,1,.31,2.37,8.89,8.89,0,0,1,0,2.4,9.71,9.71,0,0,1-.3-2.38A9.61,9.61,0,0,1,104,201.87Z" style="fill:#263238"></path><path d="M121.49,213.16a9.28,9.28,0,0,1,1.82.13,9.78,9.78,0,0,1,1.82.16,3.75,3.75,0,0,1-1.85.16A3.79,3.79,0,0,1,121.49,213.16Z" style="fill:#263238"></path><path d="M121,208.75a13,13,0,0,1,2.51-1.51,13.1,13.1,0,0,1,2.65-1.23,13.09,13.09,0,0,1-2.5,1.51A13,13,0,0,1,121,208.75Z" style="fill:#263238"></path><path d="M116.25,208.91a8,8,0,0,1,.53-2.25,8.2,8.2,0,0,1,.85-2.15,8.71,8.71,0,0,1-.54,2.25A8.85,8.85,0,0,1,116.25,208.91Z" style="fill:#263238"></path><g style="opacity:0.30000000000000004"><path d="M103,263.49a7.55,7.55,0,0,0-3.23-5.94c-1.91-1.28-5.34-1.41-6.7-.45a10.36,10.36,0,0,1,5.88,2,16.34,16.34,0,0,1,4.05,4.36"></path></g><g style="opacity:0.30000000000000004"><path d="M110.49,233.9a6.55,6.55,0,0,0-4.61-3.6c-2-.35-4.74.73-5.48,2a9,9,0,0,1,5.37-.42,14.32,14.32,0,0,1,4.72,2.06"></path></g><g style="opacity:0.30000000000000004"><path d="M115.44,216.31a5.19,5.19,0,0,0,.32-4.48,4.38,4.38,0,0,0-3.19-2.56,13.55,13.55,0,0,1,2.83,7.12"></path></g><path d="M84.83,259.51s-.25.23-.65.7a12.87,12.87,0,0,0-1.47,2.16,23.41,23.41,0,0,0-2.1,8.3,37.39,37.39,0,0,0,.43,8.61c.17,1.1.33,2,.45,2.59a4.69,4.69,0,0,1,.14,1,6.27,6.27,0,0,1-.28-.93c-.15-.6-.36-1.48-.56-2.58a33.68,33.68,0,0,1-.53-8.68,21.93,21.93,0,0,1,2.24-8.4,10.7,10.7,0,0,1,1.58-2.12A2.57,2.57,0,0,1,84.83,259.51Z" style="fill:#263238"></path><path d="M111.43,282.83h-.17l-.51,0-2,0-7.24.05L77.66,283l-23.59-.05.11-.11c0,3.12,0,5.66,0,7.45,0,.86,0,1.53,0,2l0,.53a1.23,1.23,0,0,1,0,.18s0-.06,0-.18,0-.31,0-.53c0-.49,0-1.16,0-2,0-1.79,0-4.33-.07-7.45v-.12h.12l23.59,0,23.88,0,7.24.05,2,0,.51,0Z" style="fill:#263238"></path><path d="M92.06,309.29v12.6H37.9a6.3,6.3,0,0,1-6.3-6.3h0a6.3,6.3,0,0,1,6.3-6.3" style="fill:#e0e0e0"></path><path d="M73.84,311.93H92.06a0,0,0,0,1,0,0v7.32a0,0,0,0,1,0,0H73.84A3.28,3.28,0,0,1,70.57,316v-.77A3.28,3.28,0,0,1,73.84,311.93Z" style="fill:#fafafa"></path><polygon points="115.5 300.84 106.9 321.28 112.44 321.28 116.26 310.25 115.5 300.84" style="fill:#455a64"></polygon><polygon points="141.92 282.42 145.29 321.46 117.16 321.36 114.04 282.42 141.92 282.42" style="fill:#455a64"></polygon><polygon points="139.17 285.47 142.08 317.71 120.98 317.99 118.13 285.28 139.17 285.47" style="fill:#fafafa"></polygon><polygon points="134.69 289.93 136.35 312.12 125.09 312.12 123.11 289.93 134.69 289.93" style="fill:#263238"></polygon><rect x="42.79" y="371.09" width="12.17" height="89.53" style="fill:#455a64"></rect><rect x="137.06" y="370.36" width="12.17" height="90.35" style="fill:#455a64"></rect><polygon points="154.95 372.17 38.24 372.39 38.24 329.18 154.95 329.18 154.95 372.17" style="fill:#455a64"></polygon><path d="M155,372.17s0-.26,0-.76,0-1.25,0-2.22c0-1.95,0-4.81,0-8.51,0-7.39,0-18.12-.08-31.5l.15.15-116.71.07.22-.22v.1c0,15,0,29.6,0,43.11l-.21-.21,83.58-.06h24.33l6.52,0h1.72l-1.67,0-6.47,0-24.28.1-83.73.26H38V329h.21L155,329h.15v.15c0,13.41-.06,24.17-.08,31.59,0,3.69,0,6.54,0,8.48,0,1,0,1.68,0,2.19S155,372.17,155,372.17Z" style="fill:#263238"></path><path d="M145.35,363.63s0-.17,0-.49,0-.82,0-1.44c0-1.27,0-3.13,0-5.53,0-4.81-.05-11.8-.08-20.58l.15.14-98.27.06h0l.23-.2v28l-.23-.19,70.29.09,20.55.05,5.51,0h1.93l-.46,0h-1.41l-5.47,0-20.49.06-70.45.09h-.23v-.2c0-8.84,0-18.3,0-28v-.2h.25l98.27.07h.16v.13c0,8.81-.07,15.83-.09,20.66,0,2.39,0,4.24,0,5.5,0,.61,0,1.08,0,1.41S145.35,363.63,145.35,363.63Z" style="fill:#263238"></path><path d="M50.58,360A6.94,6.94,0,0,1,49,361.82a7.48,7.48,0,0,1-1.86,1.6,7.18,7.18,0,0,1,1.55-1.87A7.48,7.48,0,0,1,50.58,360Z" style="fill:#263238"></path><path d="M50.58,339.27a7.68,7.68,0,0,1-1.92-1.7,7.71,7.71,0,0,1-1.61-2A7.94,7.94,0,0,1,49,337.3,7.71,7.71,0,0,1,50.58,339.27Z" style="fill:#263238"></path><path d="M145.53,335.68a7.93,7.93,0,0,1-2.14,1.95,13.34,13.34,0,0,1-2.45,1.64,7.93,7.93,0,0,1,2.14-1.95A13.34,13.34,0,0,1,145.53,335.68Z" style="fill:#263238"></path><path d="M145.36,363.64a10.12,10.12,0,0,1-2.38-1.7,9.13,9.13,0,0,1-2-2,10.31,10.31,0,0,1,2.37,1.69A9.24,9.24,0,0,1,145.36,363.64Z" style="fill:#263238"></path><path d="M140.94,360s0-.13,0-.37,0-.6,0-1c0-.93,0-2.29,0-4.06,0-3.54,0-8.69-.08-15.21l.15.12-90,.08h0l.24-.2c0,7.11,0,14,0,20.69l-.23-.2,64.21.09,18.89,0,5.09,0h1.33l.46,0h-1.73l-5,0-18.84.05L51,360.15h-.23V339.07H51l90,.08h.14v.12c0,6.55-.06,11.73-.08,15.29,0,1.75,0,3.1,0,4,0,.44,0,.78,0,1S140.94,360,140.94,360Z" style="fill:#263238"></path><path d="M104.24,347.7a9.28,9.28,0,0,0-2.19-.94,7.55,7.55,0,0,0-2.17-.32h-6a7.18,7.18,0,0,0-4.79,1.75,3.9,3.9,0,0,0-.72.82,2.24,2.24,0,0,0,.24,2.78c.77.69,2.35.36,2.48-.64a2.55,2.55,0,0,0,2.76,2.33,3.47,3.47,0,0,0,3-2.43A2.34,2.34,0,0,0,99,353.29a2.39,2.39,0,0,0,2.5-1.9,3,3,0,0,0,3.11,1.38,2.22,2.22,0,0,0,1.44-1.52A3.38,3.38,0,0,0,104.24,347.7Z" style="fill:#e0e0e0"></path><path d="M95,346.42a11.42,11.42,0,0,0-2.47,2.13,11.16,11.16,0,0,0-1.39,2.89s-.09-.38,0-1a5.51,5.51,0,0,1,1-2.14A5.87,5.87,0,0,1,94,346.74C94.54,346.45,94.93,346.37,95,346.42Z" style="fill:#263238"></path><path d="M97.25,346.65a12.15,12.15,0,0,1-.5,4.48,6,6,0,0,1,0-2.26A5.87,5.87,0,0,1,97.25,346.65Z" style="fill:#263238"></path><path d="M100.14,346.59s.34.07.7.45a3.51,3.51,0,0,1,.85,1.75,6.34,6.34,0,0,1,0,1.9c-.07.47-.16.76-.21.76s-.09-.31-.09-.78a11.76,11.76,0,0,0-.14-1.81,4.15,4.15,0,0,0-.66-1.65C100.34,346.83,100.11,346.64,100.14,346.59Z" style="fill:#263238"></path><rect x="29.87" y="321.36" width="132.07" height="10.4" style="fill:#455a64"></rect><path d="M161.94,331.76s0-.24,0-.68,0-1.13,0-2c0-1.76,0-4.34,0-7.72l.08.08-132.06.14h0l.22-.22v10.4l-.22-.22,93.68.09,28.1.07,7.62,0,2,0h.69l-.66,0h-1.95l-7.57,0-28,.07L29.87,332h-.22V321.14h.23l132.06.14H162v.08c0,3.4,0,6-.05,7.77,0,.86,0,1.52,0,2S161.94,331.76,161.94,331.76Z" style="fill:#263238"></path></g><g id="freepik--Hearts--inject-150"><path d="M167.88,170.66a7.21,7.21,0,0,0-2.14-3.76A6.86,6.86,0,0,0,162,165a5.69,5.69,0,0,0-4.28,1.18,5.59,5.59,0,0,0-1.62,2.14,5.58,5.58,0,0,0-6.21-2.18,6.89,6.89,0,0,0-3.42,2.48,7.12,7.12,0,0,0-1.54,4,8.77,8.77,0,0,0,1.49,5.29,12.36,12.36,0,0,0,4.56,3.66c2.9,1.46,6.72,3.28,6.72,3.28s2.92-2.55,5.57-4.43a12.35,12.35,0,0,0,3.95-4.31A8.81,8.81,0,0,0,167.88,170.66Z" style="fill:#DF33C6"></path><path d="M344.12,207.73a7,7,0,0,0-1.68-3.81,6.7,6.7,0,0,0-3.41-2.24,5.48,5.48,0,0,0-4.23.71,5.55,5.55,0,0,0-1.77,1.9,5.41,5.41,0,0,0-1.55-1.78,5.48,5.48,0,0,0-4.18-.94,6.75,6.75,0,0,0-3.53,2,6.94,6.94,0,0,0-1.88,3.72,8.38,8.38,0,0,0,.91,5.21,11.87,11.87,0,0,0,4,4c2.64,1.69,6.12,3.82,6.12,3.82s3.06-2.16,5.79-3.7a11.94,11.94,0,0,0,4.21-3.74A8.4,8.4,0,0,0,344.12,207.73Z" style="fill:#DF33C6"></path><path d="M351.49,231a3.34,3.34,0,0,0-.8-1.82,3.17,3.17,0,0,0-1.63-1.06,2.59,2.59,0,0,0-2,.33,2.53,2.53,0,0,0-.84.91,2.56,2.56,0,0,0-2.73-1.3,3.22,3.22,0,0,0-1.69,1,3.29,3.29,0,0,0-.89,1.77,4,4,0,0,0,.43,2.49,5.57,5.57,0,0,0,1.91,1.89c1.25.81,2.91,1.82,2.91,1.82s1.46-1,2.76-1.76a5.84,5.84,0,0,0,2-1.78A4.07,4.07,0,0,0,351.49,231Z" style="fill:#DF33C6"></path><path d="M180.43,281.68a3.24,3.24,0,0,0-.8-1.81A3.12,3.12,0,0,0,178,278.8a2.66,2.66,0,0,0-2,.34,2.58,2.58,0,0,0-.84.9,2.49,2.49,0,0,0-.74-.84,2.56,2.56,0,0,0-2-.45,3.12,3.12,0,0,0-1.68,1,3.38,3.38,0,0,0-.9,1.77,4.06,4.06,0,0,0,.43,2.49,5.75,5.75,0,0,0,1.91,1.89c1.26.8,2.92,1.81,2.92,1.81s1.45-1,2.75-1.76a5.56,5.56,0,0,0,2-1.78A4,4,0,0,0,180.43,281.68Z" style="fill:#DF33C6"></path><path d="M172.06,202.26a3.06,3.06,0,0,0-.6-1.72,3,3,0,0,0-1.42-1.09,2.39,2.39,0,0,0-1.87.17,2.3,2.3,0,0,0-.84.77,2.21,2.21,0,0,0-.62-.83,2.38,2.38,0,0,0-1.79-.55,2.93,2.93,0,0,0-1.61.77,3,3,0,0,0-.95,1.56,3.7,3.7,0,0,0,.22,2.32,5.27,5.27,0,0,0,1.62,1.86c1.1.83,2.55,1.87,2.55,1.87s1.41-.84,2.65-1.42a5.29,5.29,0,0,0,2-1.49A3.74,3.74,0,0,0,172.06,202.26Z" style="fill:#DF33C6"></path><path d="M216.81,68.47a3.07,3.07,0,0,0-.61-1.72,2.84,2.84,0,0,0-1.42-1.09,2.39,2.39,0,0,0-1.87.17,2.35,2.35,0,0,0-.83.77,2.45,2.45,0,0,0-.62-.83,2.4,2.4,0,0,0-1.8-.55,2.86,2.86,0,0,0-1.61.77,3.1,3.1,0,0,0-1,1.56,3.77,3.77,0,0,0,.23,2.32A5.08,5.08,0,0,0,209,71.73c1.09.83,2.55,1.87,2.55,1.87s1.4-.84,2.65-1.42a5.17,5.17,0,0,0,2-1.5A3.7,3.7,0,0,0,216.81,68.47Z" style="fill:#DF33C6"></path><path d="M331.52,130.1a4.59,4.59,0,0,0-.92-2.61,4.34,4.34,0,0,0-2.14-1.64,3.57,3.57,0,0,0-4.1,1.41,3.56,3.56,0,0,0-.93-1.25,3.64,3.64,0,0,0-2.72-.83,4.47,4.47,0,0,0-2.44,1.17,4.59,4.59,0,0,0-1.43,2.37,5.58,5.58,0,0,0,.34,3.49,7.93,7.93,0,0,0,2.45,2.83c1.66,1.25,3.85,2.83,3.85,2.83s2.13-1.27,4-2.16a7.83,7.83,0,0,0,3-2.26A5.56,5.56,0,0,0,331.52,130.1Z" style="fill:#DF33C6"></path><path d="M204.59,84.27a4.67,4.67,0,0,0-.94-2.66,4.51,4.51,0,0,0-2.19-1.69,3.64,3.64,0,0,0-4.19,1.45,3.66,3.66,0,0,0-1-1.28,3.73,3.73,0,0,0-2.77-.85,4.58,4.58,0,0,0-2.5,1.2,4.74,4.74,0,0,0-1.46,2.42,5.75,5.75,0,0,0,.34,3.57,8.11,8.11,0,0,0,2.51,2.89c1.7,1.28,3.94,2.89,3.94,2.89s2.18-1.3,4.1-2.2a8.08,8.08,0,0,0,3-2.31A5.75,5.75,0,0,0,204.59,84.27Z" style="fill:#DF33C6"></path></g><g id="freepik--Characters--inject-150"><path d="M195.84,164.06c.1,2.87-1.58,5.54-3.67,7.51s-4.59,3.45-6.79,5.3-4.16,4.23-4.56,7.08,1.27,6.1,4.1,6.64A12.16,12.16,0,0,0,197,210.07Z" style="fill:#263238"></path><polygon points="284.72 448.82 284.31 438.31 265.99 437.62 266.27 450.48 272.93 454.5 284.72 448.82" style="fill:#263238"></polygon><path d="M243.45,225.78s-10.24,24.56-11.4,45.15S244.5,350.5,246.81,364c1.58,9.2,9.33,55.15,18.65,83.11h14.37s-9.32-93.21-8.94-102.92,3.89-61.36,3.89-61.36l5.05-39.22Z" style="fill:#263238"></path><path d="M311.75,233.9c-1.16.38-35.54,7.78-35.54,7.78S262.41,348,261.25,362s18.58,85.12,18.58,85.12h19.8s-.39-47-3.49-61.36S293,367.9,295,359s17.43-48.52,22.48-72.21S311.75,233.9,311.75,233.9Z" style="fill:#263238"></path><path d="M272.73,269.76s0,.16,0,.47-.08.78-.14,1.36c-.15,1.22-.36,3-.62,5.23-.57,4.57-1.38,11.13-2.38,19.23-2.05,16.24-4.87,38.64-8,63.38a49,49,0,0,0,.59,9.16c.42,3,.94,5.94,1.51,8.83,1.13,5.76,2.42,11.29,3.71,16.54,2.58,10.5,5.18,19.88,7.41,27.75s4.11,14.21,5.41,18.59c.65,2.17,1.15,3.87,1.51,5.05l.38,1.31c.08.3.11.45.11.45s-.06-.14-.16-.43-.25-.75-.43-1.3c-.38-1.17-.91-2.86-1.6-5-1.36-4.37-3.3-10.7-5.58-18.55s-4.9-17.24-7.52-27.74c-1.3-5.24-2.6-10.78-3.74-16.56-.58-2.88-1.1-5.84-1.52-8.85a48.93,48.93,0,0,1-.6-9.26c3.07-24.8,6-47.17,8.14-63.4,1.07-8.09,1.93-14.64,2.53-19.2.31-2.25.55-4,.72-5.22.09-.58.15-1,.2-1.36S272.73,269.76,272.73,269.76Z" style="fill:#455a64"></path><path d="M265.87,448.09v1.2s-20.34,8.4-20.52,12.28l40.53-.6-.74-13.48A23.18,23.18,0,0,1,265.87,448.09Z" style="fill:#263238"></path><path d="M285.89,461l-.18-3.24-38.78,1.76s-1.8.81-1.57,2.08Z" style="fill:#455a64"></path><path d="M265.74,449.41c0,.2,1,.27,2,.9s1.51,1.44,1.69,1.36-.13-1.22-1.33-1.95S265.69,449.23,265.74,449.41Z" style="fill:#fff"></path><path d="M261.51,451.23c0,.19.82.52,1.5,1.35s.9,1.71,1.09,1.69.31-1.13-.56-2.14S261.51,451,261.51,451.23Z" style="fill:#fff"></path><path d="M259.17,456.36c.18,0,.44-1-.08-2s-1.46-1.5-1.54-1.33.5.73.92,1.62S259,456.34,259.17,456.36Z" style="fill:#fff"></path><polygon points="279.7 425.28 282.92 456.57 297.26 454.18 297.58 423.38 279.7 425.28" style="fill:#263238"></polygon><path d="M297.77,446.06s-10.06,10.19-15.56,4.58l-1,3.06-3.78,21.55a2.82,2.82,0,0,0,1.95,3.22,2.86,2.86,0,0,0,2.9-.84c3.82-4.27,17.75-20.05,17.42-22l-.55-5.15c-.12-1.07-1.15-3.61-1.15-3.84Z" style="fill:#263238"></path><path d="M279.89,478.56l19.64-24.71.11,1.13a3.12,3.12,0,0,1-.8,2.58c-1.54,2.49-5.93,8.14-16.47,20.07a2.89,2.89,0,0,1-2.48.93Z" style="fill:#455a64"></path><path d="M285.07,466.37a8.74,8.74,0,0,0-2.58-1.85,8.9,8.9,0,0,0-3.2-.29c0-.07.3-.3.93-.45a4.4,4.4,0,0,1,2.48.2,4.25,4.25,0,0,1,2,1.46C285.06,466,285.14,466.35,285.07,466.37Z" style="fill:#fff"></path><path d="M283.45,470.11a22.75,22.75,0,0,0-2.52-.92,22.1,22.1,0,0,0-2.7-.09c-.09-.13,1.17-.81,2.82-.49S283.59,470,283.45,470.11Z" style="fill:#fff"></path><path d="M288.27,461.48a27.58,27.58,0,0,0-3.79-1.68c-2.2-.64-4.11-.37-4.13-.55a6.35,6.35,0,0,1,4.3,0C287,459.89,288.4,461.39,288.27,461.48Z" style="fill:#fff"></path><path d="M299.63,447.12a6.3,6.3,0,0,1-1.34.1l-3.66.08c-3.09.05-7.37.07-12.08.07s-9,0-12.09-.07l-3.66-.08a6.19,6.19,0,0,1-1.34-.1,7.14,7.14,0,0,1,1.34-.1l3.66-.08c3.09-.05,7.37-.08,12.09-.08s9,0,12.08.08l3.66.08A7.27,7.27,0,0,1,299.63,447.12Z" style="fill:#455a64"></path><path d="M281.71,447.11a19.5,19.5,0,0,1,.2,3.34h0v0c-.21,1.44-.51,3.27-.86,5.26-.41,2.36-.82,4.48-1.13,6a12.66,12.66,0,0,1-.62,2.47,13,13,0,0,1,.26-2.53c.23-1.55.57-3.69,1-6.05.35-2,.69-3.82,1-5.24v0A17.66,17.66,0,0,1,281.71,447.11Z" style="fill:#455a64"></path><path d="M237.76,454.68v1.21s-20.33,8.39-20.51,12.27l40.53-.6L257,454.08A23.16,23.16,0,0,1,237.76,454.68Z" style="fill:#263238"></path><path d="M257.78,467.56l-.18-3.24-38.78,1.76s-1.8.81-1.57,2.08Z" style="fill:#455a64"></path><path d="M237.62,456c0,.2,1,.28,2,.9s1.51,1.44,1.69,1.36-.13-1.22-1.33-1.95S237.58,455.82,237.62,456Z" style="fill:#fff"></path><path d="M233.4,457.82c0,.2.82.52,1.5,1.35s.89,1.71,1.09,1.7.31-1.14-.56-2.15S233.4,457.64,233.4,457.82Z" style="fill:#fff"></path><path d="M231.06,463c.18,0,.44-1-.09-2s-1.45-1.5-1.53-1.33.5.74.91,1.63S230.86,462.93,231.06,463Z" style="fill:#fff"></path><polygon points="251.59 431.87 254.81 463.16 269.15 460.77 269.47 429.97 251.59 431.87" style="fill:#263238"></polygon><path d="M269.66,452.65s-10.06,10.19-15.56,4.58l-1,3.07-3.77,21.54a2.81,2.81,0,0,0,2,3.22,2.88,2.88,0,0,0,2.9-.83c3.81-4.28,17.75-20.06,17.42-22l-.56-5.15a38.56,38.56,0,0,0-1.15-3.84Z" style="fill:#263238"></path><path d="M251.78,485.15l19.64-24.7.1,1.12a3.11,3.11,0,0,1-.79,2.59c-1.54,2.48-5.93,8.13-16.47,20.06a2.89,2.89,0,0,1-2.48.93Z" style="fill:#455a64"></path><path d="M257,473a8.36,8.36,0,0,0-2.58-1.85,8.79,8.79,0,0,0-3.2-.3c0-.06.3-.3.93-.45a4.49,4.49,0,0,1,2.48.2,4.39,4.39,0,0,1,2,1.46C257,472.55,257,472.94,257,473Z" style="fill:#fff"></path><path d="M255.34,476.7a25.38,25.38,0,0,0-2.52-.92,24.72,24.72,0,0,0-2.7-.09c-.09-.13,1.17-.81,2.82-.48S255.48,476.62,255.34,476.7Z" style="fill:#fff"></path><path d="M260.16,468.07a29.08,29.08,0,0,0-3.79-1.68c-2.2-.64-4.11-.37-4.13-.55a6.42,6.42,0,0,1,4.3,0C258.91,466.48,260.29,468,260.16,468.07Z" style="fill:#fff"></path><path d="M253.59,453.71a17.49,17.49,0,0,1,.21,3.33h0v0c-.21,1.44-.51,3.27-.86,5.26-.41,2.36-.82,4.49-1.13,6a12.66,12.66,0,0,1-.62,2.47,12.09,12.09,0,0,1,.26-2.53c.22-1.55.57-3.69,1-6.05.35-2,.69-3.81,1-5.24v0A19.31,19.31,0,0,1,253.59,453.71Z" style="fill:#455a64"></path><path d="M234.52,141.56c-.66,0-39,3.53-44,5.36s-5.76,4.45-4.58,10.47,51,0,51,0Z" style="fill:#ae7461"></path><path d="M267.53,136.58c-3.16-10.29-6.66-19.31-8.09-24.77-4.06-15.44-7.79-33.4-30.37-31.79a47.74,47.74,0,0,0-6.63,1.89,26.77,26.77,0,0,0-17.52,22.2l-1.23,10.78c-1.38,12.17,1.67,24.07,6.07,35.5a.58.58,0,0,1,0,.1l50.9,7.58h10.77A106.17,106.17,0,0,0,267.53,136.58Z" style="fill:#263238"></path><path d="M226.07,85.9l1.41-1.34,15.26,6.15a4.26,4.26,0,0,1,4,4.12l-.14,49.72a13.91,13.91,0,0,1-2.69,9l-2.14,2.83c-4.89,6.45-14.94,5.92-18.81-1.19a5.29,5.29,0,0,1-.54-1.28c-.08-.45-.2-.74-.23-1.12-.45-4-.48-7.46-.48-7.46-.27-4.4-.36-6.2-.36-6.16s-9.35-1.07-11.87-13.07c-1.26-6-1-14.17-.67-22.25C209.33,92.65,217.08,85.89,226.07,85.9Z" style="fill:#ffbf9d"></path><path d="M230,111.8a1.55,1.55,0,0,0,1.57,1.49,1.47,1.47,0,0,0,1.53-1.47,1.55,1.55,0,0,0-1.57-1.5A1.49,1.49,0,0,0,230,111.8Z" style="fill:#263238"></path><path d="M214.07,112.22a1.54,1.54,0,0,0,1.57,1.49,1.49,1.49,0,0,0,1.53-1.48,1.55,1.55,0,0,0-1.57-1.49A1.48,1.48,0,0,0,214.07,112.22Z" style="fill:#263238"></path><path d="M210.44,107c.2.2,1.33-.73,3-.81s2.93.69,3.1.48-.13-.45-.68-.81a4.31,4.31,0,0,0-2.5-.64,4.12,4.12,0,0,0-2.37.9C210.49,106.56,210.34,106.94,210.44,107Z" style="fill:#263238"></path><path d="M227.39,106.45c.23.17,1.26-.87,2.91-1.12s3,.39,3.14.16-.18-.43-.77-.73a4.24,4.24,0,0,0-4.82.76C227.4,106,227.29,106.38,227.39,106.45Z" style="fill:#263238"></path><path d="M221.54,119.34a11.32,11.32,0,0,0-2.73-.35c-.43,0-.84-.09-.92-.37a2.08,2.08,0,0,1,.22-1.28c.35-1,.71-2.15,1.09-3.31,1.52-4.71,2.6-8.57,2.41-8.63s-1.58,3.71-3.1,8.42c-.36,1.16-.71,2.26-1,3.32a2.47,2.47,0,0,0-.14,1.69,1.07,1.07,0,0,0,.74.58,2.76,2.76,0,0,0,.73.07A10.15,10.15,0,0,0,221.54,119.34Z" style="fill:#263238"></path><path d="M221.38,139.15a30.78,30.78,0,0,0,16-5.13s-3.65,8.58-15.81,8Z" style="fill:#ff9a6c"></path><path d="M226.59,101.28c.21.42,1.65,0,3.42,0s3.24.29,3.41-.15c.07-.21-.24-.6-.87-.94a5.26,5.26,0,0,0-2.64-.6,5,5,0,0,0-2.56.75C226.76,100.67,226.49,101.07,226.59,101.28Z" style="fill:#263238"></path><path d="M210.68,104c.31.37,1.44-.08,2.82-.17s2.57.12,2.82-.29c.11-.19-.1-.56-.63-.9a3.91,3.91,0,0,0-2.33-.5,3.85,3.85,0,0,0-2.21.87C210.68,103.43,210.54,103.82,210.68,104Z" style="fill:#263238"></path><path d="M246.46,116.05S240,117.6,230.92,98c-3.1-6.68-9.13-13.41-9.13-13.41l5.66-.82s16.85,4.75,17.14,5,4.25,8.72,4.25,8.72Z" style="fill:#263238"></path><path d="M244.35,115.26c0-.9.9-3.07,1.78-3.26,2.36-.48,6.65-.51,7,5.52.47,8.24-7.91,7-7.93,6.78S244.5,118.37,244.35,115.26Z" style="fill:#ffbf9d"></path><path d="M247.53,121s.15.09.39.19a1.41,1.41,0,0,0,1.08,0c.85-.37,1.51-1.79,1.46-3.28a4.72,4.72,0,0,0-.52-2,1.64,1.64,0,0,0-1.14-1,.71.71,0,0,0-.82.44c-.1.24,0,.4-.08.41s-.19-.12-.14-.47a.88.88,0,0,1,.3-.53,1.1,1.1,0,0,1,.78-.26,2,2,0,0,1,1.57,1.2,5,5,0,0,1,.63,2.26c0,1.67-.72,3.27-1.9,3.68a1.51,1.51,0,0,1-1.32-.14C247.55,121.23,247.5,121.05,247.53,121Z" style="fill:#ff9a6c"></path><path d="M250.9,125.66a2.95,2.95,0,1,1-2.94-3A2.95,2.95,0,0,1,250.9,125.66Z" style="fill:#455a64"></path><path d="M268.44,164.38l-2.6-21.6-18.65-5.63a186.41,186.41,0,0,1-5.84,39.77,51.85,51.85,0,0,0,21.39,2.23c.32-3.48.63-7,.95-10.44.47,2.62.93,5.24,1.4,7.87a7.74,7.74,0,0,0,3.5-5.49A22.9,22.9,0,0,0,268.44,164.38Z" style="fill:#263238"></path><path d="M253.85,179.2l.06-.27c0-.19.1-.45.18-.79.17-.7.41-1.73.72-3,.61-2.65,1.51-6.47,2.39-11.25a120.12,120.12,0,0,0,2-16.9,73.38,73.38,0,0,0-1.88-20.7,52,52,0,0,0-8.64-18.81c-.49-.63-1-1.27-1.48-1.85s-1-1.2-1.52-1.74l-.77-.82-.79-.78c-.52-.53-1.06-1-1.57-1.51-2.1-1.93-4.14-3.63-6-5.23s-3.46-3.07-4.81-4.45c-.35-.34-.66-.69-1-1s-.6-.65-.87-1-.52-.62-.77-.9l-.66-.85c-.44-.53-.76-1-1.06-1.46a13.18,13.18,0,0,1-.72-1.12c-.18-.3-.32-.53-.41-.7a1.82,1.82,0,0,1-.14-.24l.16.23.43.69c.19.3.42.68.74,1.1s.64.92,1.07,1.44l.67.84.78.89c.27.31.56.63.87.95s.63.66,1,1c1.36,1.37,3,2.83,4.83,4.42s3.89,3.28,6,5.22c.52.49,1.06,1,1.58,1.5l.8.78.78.83c.54.54,1,1.14,1.53,1.73s1,1.23,1.49,1.87a52,52,0,0,1,8.7,18.89A73.06,73.06,0,0,1,259.46,147a119.7,119.7,0,0,1-2.09,16.93c-.9,4.77-1.83,8.59-2.47,11.23-.32,1.32-.58,2.34-.76,3l-.21.79C253.88,179.12,253.85,179.2,253.85,179.2Z" style="fill:#455a64"></path><path d="M228.18,122.22a2.43,2.43,0,0,0-2.2-.68,3.17,3.17,0,0,0-2.55,2,1.94,1.94,0,0,0,.16,1.42c.15.21,0,.11.26.24a5.57,5.57,0,0,0,2.5.93,2.38,2.38,0,0,0,2.28-1.41A2.41,2.41,0,0,0,228.18,122.22Z" style="fill:#ff9a6c"></path><path d="M227.4,120c-.27,0,.07,1.83-1.21,3.4s-3.23,1.75-3.2,2,.5.26,1.31.13A4.54,4.54,0,0,0,227,124a3.92,3.92,0,0,0,.89-2.83C227.8,120.41,227.52,120,227.4,120Z" style="fill:#263238"></path><g style="opacity:0.31"><path d="M236.91,117.49c0,1.1-1.93,2-4.32,2s-4.32-.89-4.32-2,1.93-2,4.32-2S236.91,116.4,236.91,117.49Z" style="fill:#ef9673"></path></g><g style="opacity:0.31"><path d="M215.65,117.49c0,1.1-1.31,2-2.93,2s-2.94-.89-2.94-2,1.32-2,2.94-2S215.65,116.4,215.65,117.49Z" style="fill:#ef9673"></path></g><path d="M193.9,254.73s-7.84,27.38,5.45,62.37,20.72,63,21.23,70.53,1.31,15.33,8.3,39.2c5.11,17.43,8.88,27.85,8.88,27.85,5.3,3,10.92,3.8,16,.9,0,0-.5-41.57-8.17-69.56s-12.92-71.75-10.29-87.57-3.06-24.81-3.06-24.81Z" style="fill:#455a64"></path><path d="M278.15,294.26c5.1-24.62-10.6-49.79-10.6-49.79l-40.87,33.29S218,377.4,223.14,390.32,252.78,456,252.78,456l16.63-6.42s-4.79-41.11-10.37-52c-4-7.85-10.6-11.58-7.53-21.81S274,314.41,278.15,294.26Z" style="fill:#455a64"></path><path d="M193.71,255.27c-.15-.06,32.6,24,32.6,24l43.91-29.9-4.53-8.78s-26.63,9.62-38.28,7.21S200,240.6,200,240.6Z" style="fill:#455a64"></path><path d="M215.19,261.07a1.92,1.92,0,0,1,.21.27l.6.83c.53.75,1.29,1.83,2.27,3.24l8.53,12.26,0,.05v0c-.41,4.6-.57,9.93-.86,15.87s-.59,12.48-.92,19.5-.76,14.52-1.17,22.39-.88,16.08-1.66,24.54c-.82,7-1.55,13.94-.94,20.58a49,49,0,0,0,.66,4.9,32.48,32.48,0,0,0,1.17,4.69c1.11,3,2.41,5.87,3.63,8.68,5,11.23,9.62,21.27,13.49,29.72s7,15.24,9.22,20c1.07,2.35,1.91,4.17,2.49,5.44.27.61.49,1.08.64,1.42s.2.49.2.49l-.25-.47-.68-1.4c-.6-1.25-1.47-3.07-2.59-5.39l-9.37-19.92c-3.91-8.42-8.6-18.44-13.59-29.68-1.23-2.81-2.52-5.67-3.66-8.71a31.86,31.86,0,0,1-1.19-4.76,47.33,47.33,0,0,1-.68-4.94c-.62-6.71.11-13.66.93-20.69.78-8.42,1.19-16.66,1.67-24.51s.83-15.36,1.21-22.38.7-13.56,1-19.5.5-11.27.94-15.87l0,.1-8.41-12.35-2.21-3.28-.56-.85A1.74,1.74,0,0,1,215.19,261.07Z" style="fill:#263238"></path><path d="M247.85,102.48s-.43,19.44,2.29,32.45l.91,4.34s12.95,6.31,22.12,4.66l3-20.46Z" style="fill:#263238"></path><path d="M298.41,102c-4.23-8.39-7.54-18.56-16.36-22.56-6.54-3-13.09-2.64-20-.65-3.4,1-6.89,3.51-9.47,5.93-3.53,3.32-4.12,8.45-5.06,13.21-1.87,9.53,1.46,21,4.93,23.58l40.4,10.18c6.25-5.46,10.36-8,9.18-17.84A35.84,35.84,0,0,0,298.41,102Z" style="fill:#263238"></path><path d="M283.4,86.62l-24.15-1.16c-7.52.71-10.58,10.76-9.55,18.24,1.15,8.31,2.87,18.41,5.08,24.33,4.45,11.91,14.2,11.57,14.2,11.57s.07.18.88,3.82l1.19,5.93a10.42,10.42,0,0,0,3.6,6.16c4.38,3.5,10.57,2.6,17.07-1.79,3.76-2.54,3.11-4.81,2.63-10.59l-6-54.42A6.52,6.52,0,0,0,283.4,86.62Z" style="fill:#ae7461"></path><path d="M254.48,113.49a1.61,1.61,0,0,0,1.85,1.28,1.54,1.54,0,0,0,1.34-1.75,1.62,1.62,0,0,0-1.85-1.29A1.55,1.55,0,0,0,254.48,113.49Z" style="fill:#263238"></path><path d="M253,110.69c.24.16,1.26-1,3-1.3s3.11.26,3.26,0-.21-.44-.83-.73a4.45,4.45,0,0,0-2.66-.26,4.24,4.24,0,0,0-2.3,1.29C253,110.21,252.87,110.62,253,110.69Z" style="fill:#263238"></path><path d="M269.4,110.56a1.61,1.61,0,0,0,1.85,1.28,1.54,1.54,0,0,0,1.33-1.75,1.6,1.6,0,0,0-1.84-1.28A1.53,1.53,0,0,0,269.4,110.56Z" style="fill:#263238"></path><path d="M269.58,106.85c.24.17,1.26-1,3-1.3s3.11.26,3.26,0-.2-.44-.83-.72a4.36,4.36,0,0,0-2.66-.27,4.24,4.24,0,0,0-2.3,1.29C269.57,106.37,269.47,106.78,269.58,106.85Z" style="fill:#263238"></path><path d="M265.69,119.36a11.21,11.21,0,0,0-2.86.06c-.44,0-.87,0-1-.24a2.29,2.29,0,0,1,0-1.35c.2-1.13.4-2.32.62-3.56.83-5.06,1.33-9.19,1.13-9.22s-1,4-1.87,9.11c-.19,1.24-.38,2.43-.56,3.57a2.61,2.61,0,0,0,.12,1.75,1.13,1.13,0,0,0,.84.49,3,3,0,0,0,.76,0A11.57,11.57,0,0,0,265.69,119.36Z" style="fill:#263238"></path><path d="M268.93,139.61a31.91,31.91,0,0,0,15.59-7.73s-2.33,9.44-14.88,10.78Z" style="fill:#6f4439"></path><path d="M272.06,121.77a2.51,2.51,0,0,0-2.28-.7,3.26,3.26,0,0,0-2.62,2,2,2,0,0,0,.16,1.47c.16.22.05.12.27.24a5.69,5.69,0,0,0,2.58,1,2.46,2.46,0,0,0,2.35-1.45A2.49,2.49,0,0,0,272.06,121.77Z" style="fill:#6f4439"></path><path d="M271.24,119.52c-.27,0,.08,1.89-1.24,3.51s-3.33,1.8-3.29,2.06.51.27,1.34.13a4.64,4.64,0,0,0,2.77-1.62,4.08,4.08,0,0,0,.93-2.91C271.66,119.9,271.37,119.49,271.24,119.52Z" style="fill:#263238"></path><path d="M267.45,100.85c.23.44,1.91,0,4-.07s3.75.27,4-.19c.09-.21-.25-.61-1-1a6.91,6.91,0,0,0-6,.19C267.66,100.22,267.34,100.64,267.45,100.85Z" style="fill:#263238"></path><path d="M251.74,105.67c.42.31,1.63-.39,3.19-.76s2.95-.41,3.16-.88c.09-.22-.21-.56-.87-.79a4.9,4.9,0,0,0-2.74,0,4.77,4.77,0,0,0-2.37,1.35C251.65,105.08,251.55,105.52,251.74,105.67Z" style="fill:#263238"></path><path d="M258.85,84.17v.27h0A2.74,2.74,0,0,1,258.85,84.17Z" style="fill:#263238"></path><path d="M289.12,139.91c-.43-3.29-2.5-6.18-2.91-9.47-.43-3.48,1.06-6.92,1.16-10.42.15-5.62-3.19-10.74-5.24-16a13.3,13.3,0,0,1-9-2.65c-3.14-2.25-5.48-5.42-7.77-8.54A17,17,0,0,0,271,101.5a4.58,4.58,0,0,1-4.1-.31,10.33,10.33,0,0,1-3.08-2.92A28.2,28.2,0,0,1,259.23,89a36,36,0,0,0,5.07,13.85,6.4,6.4,0,0,0-2.63.75,3,3,0,0,1-2.65.08,3.34,3.34,0,0,1-1.09-1.46A37.73,37.73,0,0,1,254.5,90a39.54,39.54,0,0,0-1.12,7.56,13.76,13.76,0,0,0,1.74,7.35,1.11,1.11,0,0,1-1.52.36,2.6,2.6,0,0,1-1-1.37,19.56,19.56,0,0,1-1.11-6.27c-.69,2.45-.48,5.06-.58,7.61s-.57,5.26-2.31,7.13a33.09,33.09,0,0,1-2-9.43,28.9,28.9,0,0,1,.93-8.1,22.59,22.59,0,0,1,3.26-8.08c2.83-4,4.66-3,7.25-2.4l.3,0,0-.17v-.52a35.51,35.51,0,0,1,18.33-3.57c4.67.36,6.85.16,10,3.6.06.07.72-.58.78-.51,7.34,8,16.93,21.87,22.8,44.87h0Z" style="fill:#263238"></path><path d="M283.5,68.47a8.5,8.5,0,0,0-9.25-.69c-1.77,1-3.23,2.83-3.1,4.85.17,2.87,3.27,4.77,3.88,7.57l3.16,1.89A7.6,7.6,0,0,0,286,77.33,8,8,0,0,0,283.5,68.47Z" style="fill:#263238"></path><path d="M287.22,83a46.2,46.2,0,0,0-7.33-4,34.79,34.79,0,0,0-8.11-1.81,8.7,8.7,0,0,1,2.47,0,21.56,21.56,0,0,1,5.83,1.36,23.89,23.89,0,0,1,5.26,2.84A8.64,8.64,0,0,1,287.22,83Z" style="fill:#455a64"></path><g style="opacity:0.30000000000000004"><path d="M278.86,112.69c.29,1.06-1.34,2.43-3.64,3.06s-4.41.28-4.7-.78,1.35-2.43,3.65-3S278.57,111.64,278.86,112.69Z" style="fill:#6f4439"></path></g><g style="opacity:0.30000000000000004"><path d="M259.41,118c.29,1.06-.75,2.27-2.31,2.69s-3.07-.08-3.36-1.14.75-2.26,2.31-2.69S259.12,116.94,259.41,118Z" style="fill:#6f4439"></path></g><path d="M294.18,141.56c.65,1.09,18.22,5.55,21.17,14.55s-12.36,44.92-12,52,10.8,24.74,10.51,27.41c-1.3,12.4-36,20.71-49.21,8.66l-6.9-88.4,7.57-7.69,4.57-4.64s2.77,8,9.17,8.14c6,.11,15.15-10,15.15-10Z" style="fill:#DF33C6"></path><path d="M313.65,188.45c1.21.29-20.51,40.32-25.89,44.2s-8.75,3.87-8.75,3.87l-1.22-20.41,3.94-2.11,10.32-29.5S306.55,186.72,313.65,188.45Z" style="fill:#ae7461"></path><path d="M309.08,148.84s7.22,4.73,8.32,9.45c2.63,11.25-3.33,32.06-3.33,32.06l-23.91-4,8.64-20.87Z" style="fill:#DF33C6"></path><path d="M290.58,181.34a8.29,8.29,0,0,1,.13-1.57,40.78,40.78,0,0,1,.83-4.2,44.89,44.89,0,0,1,10.32-19.12,13.54,13.54,0,0,1,5.15-3.74,7.1,7.1,0,0,1,4.28-.24,4.64,4.64,0,0,1,1.09.44,1.32,1.32,0,0,1,.33.23c0,.05-.5-.26-1.47-.48a7.27,7.27,0,0,0-4.1.4,13.38,13.38,0,0,0-4.93,3.72,47.1,47.1,0,0,0-4.64,6.14,48.1,48.1,0,0,0-5.67,12.75c-.5,1.73-.78,3.15-1,4.14A10.15,10.15,0,0,1,290.58,181.34Z" style="fill:#263238"></path><path d="M258.76,79.92a39.17,39.17,0,0,0-4.36,3.48,24.09,24.09,0,0,0-6.62,11.45c-1.34,5.11-.38,10-.26,13.39.13,1.65.24,3,.33,4.09a8,8,0,0,1,.09,1.5,8.45,8.45,0,0,1-.29-1.48c-.15-1-.33-2.35-.5-4.08s-.35-3.78-.52-6.07a23.83,23.83,0,0,1,3.59-14.37,23.55,23.55,0,0,1,3.93-4.7,21.93,21.93,0,0,1,3.28-2.5c.41-.26.74-.44,1-.56S258.76,79.9,258.76,79.92Z" style="fill:#455a64"></path><path d="M260.63,179.18l5.06-30.12-19-4.85s-10.75,10.41-17.11,9.48c-7.6-1.12-8.66-6-8.66-6s-10.08,3.22-11.15,3.15c-4.17-.28-9.75,26.54-10.38,35.38s8,30.65,8,30.65L198,238.51s11.25,15.38,26.7,15.14C248.48,253.28,269,242,269,242Z" style="fill:#e0e0e0"></path><path d="M240.37,245.91a7.18,7.18,0,0,1-1.26.57,11.36,11.36,0,0,1-1.53.55,20.21,20.21,0,0,1-2.08.57,23.28,23.28,0,0,1-2.57.47c-.92.15-1.93.19-3,.26a30.83,30.83,0,0,1-13.4-2.6c-1-.46-1.87-.87-2.68-1.36a21,21,0,0,1-2.2-1.39,18.25,18.25,0,0,1-1.72-1.31,11.77,11.77,0,0,1-1.21-1.07,6.39,6.39,0,0,1-1-1c.08-.08,1.45,1.34,4.08,3.08a22.25,22.25,0,0,0,2.21,1.32c.8.47,1.72.86,2.66,1.3a34.28,34.28,0,0,0,6.46,2,35.06,35.06,0,0,0,6.73.58c1-.06,2-.07,2.95-.21a24.43,24.43,0,0,0,2.55-.4C238.52,246.61,240.33,245.8,240.37,245.91Z" style="fill:#263238"></path><path d="M188.89,147.64s-9.56,3.89-5.27,15c4.09,10.6,36.61,22.51,36.61,22.51l7.06-14.29L201,151.76Z" style="fill:#ae7461"></path><path d="M193.24,184.5c-.8-.19-1.05-13.54,0-19.06s1.69-10.54,2.74-12.65,5.05-5.12,6.84-4.69,1.78,1.48,1.78,1.48,2-1.16,3.48-.74a2.49,2.49,0,0,1,1.68,2,3.39,3.39,0,0,1,2.21,1.4,5,5,0,0,1,1.05,3.15s2.31,1.69,2.42,3.16-7.79,14.88-9.05,15.28l-.72,1.47.51,8.81Z" style="fill:#ffbf9d"></path><path d="M192.8,178.48s-1.58,25.15-1.75,31.82,1.19,23.92,8.71,25.12,7-12.48,8-20.85-2.13-37.07-2.13-37.07Z" style="fill:#ffbf9d"></path><path d="M206.34,178c-4.58,4.44-5.84,11.51-4.67,17.8s4.41,12,7.78,17.39" style="fill:#e0e0e0"></path><path d="M211.91,213.11s-.13-.05-.36-.19-.58-.35-1-.66a22.86,22.86,0,0,1-3.23-2.9,24.34,24.34,0,0,1-4.3-26.82,22.81,22.81,0,0,1,2.17-3.77c.29-.42.56-.72.72-.93s.27-.31.29-.3a38.85,38.85,0,0,0-2.84,5.14,24.78,24.78,0,0,0,4.23,26.43A38.36,38.36,0,0,0,211.91,213.11Z" style="fill:#263238"></path><path d="M204.91,149.8c0,.15-1.09.47-2.11,1.39s-1.51,2-1.65,1.91a3.13,3.13,0,0,1,1.3-2.3A3.21,3.21,0,0,1,204.91,149.8Z" style="fill:#ff9a6c"></path><path d="M209.85,151.15c.07.14-1,.72-2.09,1.73s-1.74,2-1.88,2a5.73,5.73,0,0,1,4-3.7Z" style="fill:#ff9a6c"></path><path d="M213.32,155.66c.05.14-.58.46-1.19,1s-1,1.15-1.14,1.09.07-.83.79-1.48S213.28,155.52,213.32,155.66Z" style="fill:#ff9a6c"></path><path d="M229.68,171.18s17.56,3.59,18.83,4.77.94,16.24.94,16.24-5.85,5.38-5.85,5.62-14.33-2.38-14.33-2.38L221,190.21V177.3Z" style="fill:#ae7461"></path><path d="M264.3,148.68a16,16,0,0,1,11.86,11.66c2.77,10.08,10.56,54.52,10.56,54.52s-22.45,7.56-30.16,1.24c0,0-5.11-39.15-5.5-42.32S248.09,150.66,264.3,148.68Z" style="fill:#e0e0e0"></path><g style="opacity:0.30000000000000004"><path d="M278.27,233.79a163.07,163.07,0,0,1-21.74-12.38l-35.4-17.7a112.82,112.82,0,0,0,15,23.16c6,6.95,13.43,12.88,21.94,16.39,4.35,1.78,9.27,2.92,13.72,1.42S279.72,238.25,278.27,233.79Z"></path></g><path d="M229.88,195.81c.59,1,26.68,20.29,26.68,20.29,5.65,3.78,14.43,2.52,24.31.43,0,0,4.15,21-3.16,24.55s-9.29,3.16-18.38-.6S221,202.93,221,202.93Z" style="fill:#ffbf9d"></path><path d="M246.49,173.85c.11.38,4.52,5.44,5.36,8.35s.23,14.28.23,14.28l3.34,10.59,1.14,9s-15.76-9.38-19.34-14.46-6.08-8.07-6.08-8.07L229,180l2.53-10.32h3s0,3.15-.13,4.7.13,4.68.13,4.68l1.88,2.91,1,1.13s-.75-7.7-.75-8.17.66-5.81.66-5.81l3.94,1,.36,4.8,3,9.48,3.94,5.07-2.08-7s-2.8-4.5-2.43-6.1S246.49,173.85,246.49,173.85Z" style="fill:#ae7461"></path><path d="M221,202.93a21.68,21.68,0,0,1-2.2-8.46c-.34-5.28-.56-18.21.51-20.45s10.73-7.64,12.41-7.42,8.54,1.91,9.55,3.48-.22,3.26-2.58,2.59L232.38,171l-5.4,2.81-2.13,4.72,1.46,1.35s3-4.83,3.75-5.73,2.54-2.92,3.89-.67-.23,2.58-.9,5.28-2.13,6.63-2.13,6.63.67,6.17.22,8.2a3.71,3.71,0,0,1-1.74,2.62Z" style="fill:#ffbf9d"></path><path d="M223.18,172.29s-.75-2.95.84-4.08,5.57-4.24,6-4.24,12.42,2.65,12.65,4.16-1.82,2.27-1.82,2.27l-8.55-1.74Z" style="fill:#ffbf9d"></path><path d="M236.73,174c-.3-.4-.6-7.51,0-8.95s1-1.89,2.42-1.82,1.74,3.57,1.74,5.38a34.11,34.11,0,0,0,.76,5.26Z" style="fill:#ae7461"></path><path d="M231.14,193.57a5.62,5.62,0,0,1,.93,1c.57.66,1.36,1.64,2.32,2.87s2,2.74,3.27,4.37a30.19,30.19,0,0,0,4.84,4.49c3.74,2.9,7.34,5.25,9.93,7l3.08,2a7.67,7.67,0,0,1,1.1.78,6.32,6.32,0,0,1-1.21-.6c-.76-.43-1.85-1.06-3.17-1.88a113.32,113.32,0,0,1-10-6.86,29.45,29.45,0,0,1-4.91-4.61l-3.18-4.44-2.18-3A8.35,8.35,0,0,1,231.14,193.57Z" style="fill:#6f4439"></path><path d="M252.08,196.48a1.52,1.52,0,0,1,0-.48c0-.37,0-.83,0-1.38,0-1.21.05-3,.05-5.12,0-1.09,0-2.28-.07-3.56,0-.64-.07-1.31-.14-2a7.86,7.86,0,0,0-.4-2,18.49,18.49,0,0,0-2.26-3.92c-.46-.66-.94-1.31-1.45-2-.25-.33-.51-.66-.76-1l-.39-.51-.2-.26a1.86,1.86,0,0,1-.21-.35l.35.17a5.26,5.26,0,0,0-1.6,1.1,2.09,2.09,0,0,0-.68,1.69,10.29,10.29,0,0,0,1,2.8,28.7,28.7,0,0,0,1.41,2.57l0,0v0l1.51,6.34.25,1.07-.66-.87c-1.22-1.58-2.35-3.05-3.37-4.39l0,0v0c-.83-3-1.52-5.5-2-7.3-.22-.82-.39-1.49-.52-2a3.07,3.07,0,0,1-.15-.71,3.47,3.47,0,0,1,.26.68l.63,2c.54,1.78,1.28,4.25,2.19,7.24l0-.06c1.05,1.32,2.19,2.78,3.43,4.35l-.41.19-1.56-6.33,0,.07c-.51-.83-1-1.7-1.44-2.62a10.49,10.49,0,0,1-1-3,2.61,2.61,0,0,1,.83-2.11,5.73,5.73,0,0,1,1.77-1.22l.18.22.15,0h0s0,0,0,0l.09.12.19.26.38.5.77,1c.5.67,1,1.33,1.45,2a19.5,19.5,0,0,1,2.28,4.05,8.38,8.38,0,0,1,.4,2.14c.06.7.09,1.37.11,2,0,1.3,0,2.49,0,3.58,0,2.18-.13,3.92-.21,5.12,0,.56-.07,1-.1,1.38A2.43,2.43,0,0,1,252.08,196.48Z" style="fill:#6f4439"></path><path d="M236.65,174.88a12.76,12.76,0,0,1,.38,2.33c.18,1.46.4,3.49.62,5.81l.08.76-.52-.56-1-1.12,0,0v0l-.25-.38-1.62-2.53,0-.06V179a35.42,35.42,0,0,1,0-5.17,9.14,9.14,0,0,1,.22-2,9.22,9.22,0,0,1,.09,2c0,1.26.05,3,.2,5.11l0-.11,1.64,2.52.25.38,0,0,1,1.13-.44.2c-.21-2.34-.36-4.39-.45-5.85A12,12,0,0,1,236.65,174.88Z" style="fill:#6f4439"></path><path d="M241.74,174.64a3.25,3.25,0,0,1-.29-1c-.14-.63-.33-1.54-.52-2.67-.09-.57-.18-1.2-.23-1.88s0-1.39-.12-2.14a10.89,10.89,0,0,0-.43-2.28,2.71,2.71,0,0,0-.54-1,.66.66,0,0,0-.41-.23,2.77,2.77,0,0,0-.58,0,1.33,1.33,0,0,0-1,.42,4,4,0,0,0-.58,1,6.76,6.76,0,0,0-.38,2.24c-.07,1.5-.05,2.87,0,4s0,2,0,2.71a3.69,3.69,0,0,1,0,1,3.11,3.11,0,0,1-.17-1c-.07-.64-.15-1.57-.21-2.72s-.11-2.51-.07-4a7,7,0,0,1,.39-2.43,4.14,4.14,0,0,1,.67-1.15,1.78,1.78,0,0,1,1.32-.6,2.85,2.85,0,0,1,.71,0,1.2,1.2,0,0,1,.69.37,3.15,3.15,0,0,1,.65,1.2,10.57,10.57,0,0,1,.43,2.4c.07.75.05,1.51.07,2.15s.1,1.29.17,1.86C241.58,173.22,241.82,174.63,241.74,174.64Z" style="fill:#6f4439"></path><path d="M265.07,150.81a27.11,27.11,0,0,0-2.84.41,13.82,13.82,0,0,0-6.71,3.76,16,16,0,0,0-3,4.41c-.2.44-.37.9-.57,1.36s-.32,1-.48,1.44a10.63,10.63,0,0,0-.23,3.13c.12,4.38.62,9.2,1.14,14.24,1.08,10.1,2.25,19.22,3,25.83.39,3.26.7,5.92.93,7.83q.14,1.32.21,2.13a3.54,3.54,0,0,1,0,.75,4,4,0,0,1-.13-.74c-.08-.53-.19-1.24-.31-2.12-.27-1.9-.64-4.55-1.1-7.81-.89-6.59-2.12-15.71-3.2-25.81-.52-5.06-1-9.88-1.1-14.3a11.16,11.16,0,0,1,.27-3.26c.17-.5.32-1,.51-1.47s.38-.94.6-1.38a15.66,15.66,0,0,1,3.16-4.49,14,14,0,0,1,3.69-2.61,14.43,14.43,0,0,1,3.23-1.09A10.52,10.52,0,0,1,265.07,150.81Z" style="fill:#263238"></path><path d="M236.31,168.08a22.6,22.6,0,0,0-2.27-.65,11.06,11.06,0,0,0-5.57.61,24.43,24.43,0,0,0-5,2.7,11.7,11.7,0,0,1-2,1.25,10.06,10.06,0,0,1,1.83-1.56,20.27,20.27,0,0,1,5.06-2.88,10.36,10.36,0,0,1,5.82-.48,7.05,7.05,0,0,1,1.67.62C236.15,167.9,236.33,168.05,236.31,168.08Z" style="fill:#ff9a6c"></path></g></svg>
