<svg xmlns="http://www.w3.org/2000/svg" viewBox="0 0 500 500"><g id="freepik--background-complete--inject-197"><rect x="416.78" y="398.49" width="33.12" height="0.25" style="fill:#ebebeb"></rect><rect x="322.53" y="401.21" width="8.69" height="0.25" style="fill:#ebebeb"></rect><rect x="396.59" y="389.21" width="19.19" height="0.25" style="fill:#ebebeb"></rect><rect x="52.46" y="390.89" width="43.19" height="0.25" style="fill:#ebebeb"></rect><rect x="104.56" y="390.89" width="6.33" height="0.25" style="fill:#ebebeb"></rect><rect x="131.47" y="395.11" width="93.68" height="0.25" style="fill:#ebebeb"></rect><path d="M237,337.8H43.92a5.71,5.71,0,0,1-5.71-5.71V60.66A5.71,5.71,0,0,1,43.92,55H237a5.71,5.71,0,0,1,5.71,5.71V332.09A5.71,5.71,0,0,1,237,337.8ZM43.92,55.2a5.47,5.47,0,0,0-5.46,5.46V332.09a5.47,5.47,0,0,0,5.46,5.46H237a5.47,5.47,0,0,0,5.46-5.46V60.66A5.47,5.47,0,0,0,237,55.2Z" style="fill:#ebebeb"></path><path d="M453.31,337.8H260.21a5.72,5.72,0,0,1-5.71-5.71V60.66A5.72,5.72,0,0,1,260.21,55h193.1A5.71,5.71,0,0,1,459,60.66V332.09A5.71,5.71,0,0,1,453.31,337.8ZM260.21,55.2a5.47,5.47,0,0,0-5.46,5.46V332.09a5.47,5.47,0,0,0,5.46,5.46h193.1a5.47,5.47,0,0,0,5.46-5.46V60.66a5.47,5.47,0,0,0-5.46-5.46Z" style="fill:#ebebeb"></path><rect y="382.4" width="500" height="0.25" style="fill:#ebebeb"></rect><rect x="346.62" y="283.51" width="34.84" height="93.58" style="fill:#ebebeb"></rect><rect x="361.63" y="288.51" width="4.83" height="4.83" style="fill:#fefefe"></rect><rect x="351.23" y="297.3" width="4.83" height="4.83" style="fill:#fefefe"></rect><rect x="361.63" y="306.09" width="4.83" height="4.83" style="fill:#fefefe"></rect><rect x="372.02" y="306.09" width="4.83" height="4.83" style="fill:#fefefe"></rect><rect x="351.23" y="314.89" width="4.83" height="4.83" style="fill:#fefefe"></rect><rect x="372.02" y="314.89" width="4.83" height="4.83" style="fill:#fefefe"></rect><rect x="361.63" y="323.68" width="4.83" height="4.83" style="fill:#fefefe"></rect><rect x="361.63" y="341.27" width="4.83" height="4.83" style="fill:#fefefe"></rect><rect x="372.02" y="341.27" width="4.83" height="4.83" style="fill:#fefefe"></rect><rect x="351.23" y="350.06" width="4.83" height="4.83" style="fill:#fefefe"></rect><rect x="372.02" y="350.06" width="4.83" height="4.83" style="fill:#fefefe"></rect><rect x="297.06" y="254.76" width="45.55" height="122.34" transform="translate(639.68 631.86) rotate(180)" style="fill:#f5f5f5"></rect><rect x="316.68" y="261.29" width="6.32" height="6.32" transform="translate(639.68 528.89) rotate(180)" style="fill:#fefefe"></rect><rect x="330.27" y="272.78" width="6.32" height="6.32" transform="translate(666.86 551.88) rotate(180)" style="fill:#fefefe"></rect><rect x="316.68" y="284.28" width="6.32" height="6.32" transform="translate(639.68 574.87) rotate(180)" style="fill:#fefefe"></rect><rect x="303.09" y="284.28" width="6.32" height="6.32" transform="translate(612.49 574.87) rotate(180)" style="fill:#fefefe"></rect><rect x="330.27" y="295.77" width="6.32" height="6.32" transform="translate(666.86 597.86) rotate(180)" style="fill:#fefefe"></rect><rect x="303.09" y="295.77" width="6.32" height="6.32" transform="translate(612.49 597.86) rotate(180)" style="fill:#fefefe"></rect><rect x="316.68" y="307.27" width="6.32" height="6.32" transform="translate(639.68 620.85) rotate(180)" style="fill:#fefefe"></rect><rect x="316.68" y="330.26" width="6.32" height="6.32" transform="translate(639.68 666.83) rotate(180)" style="fill:#fefefe"></rect><rect x="303.09" y="330.26" width="6.32" height="6.32" transform="translate(612.49 666.83) rotate(180)" style="fill:#fefefe"></rect><rect x="330.27" y="341.75" width="6.32" height="6.32" transform="translate(666.86 689.82) rotate(180)" style="fill:#fefefe"></rect><rect x="303.09" y="341.75" width="6.32" height="6.32" transform="translate(612.49 689.82) rotate(180)" style="fill:#fefefe"></rect><rect x="228.9" y="283.51" width="34.84" height="93.58" style="fill:#f0f0f0"></rect><rect x="243.91" y="288.51" width="4.83" height="4.83" style="fill:#fefefe"></rect><rect x="233.51" y="297.3" width="4.83" height="4.83" style="fill:#fefefe"></rect><rect x="243.91" y="306.09" width="4.83" height="4.83" style="fill:#fefefe"></rect><rect x="254.3" y="306.09" width="4.83" height="4.83" style="fill:#fefefe"></rect><rect x="233.51" y="314.89" width="4.83" height="4.83" style="fill:#fefefe"></rect><rect x="254.3" y="314.89" width="4.83" height="4.83" style="fill:#fefefe"></rect><rect x="243.91" y="323.68" width="4.83" height="4.83" style="fill:#fefefe"></rect><rect x="243.91" y="341.27" width="4.83" height="4.83" style="fill:#fefefe"></rect><rect x="254.3" y="341.27" width="4.83" height="4.83" style="fill:#fefefe"></rect><rect x="233.51" y="350.06" width="4.83" height="4.83" style="fill:#fefefe"></rect><rect x="254.3" y="350.06" width="4.83" height="4.83" style="fill:#fefefe"></rect><polygon points="132.35 377.1 93.93 377.1 93.93 309.42 132.35 294.88 132.35 377.1" style="fill:#ebebeb"></polygon><rect x="110.3" y="308.92" width="5.67" height="5.67" style="fill:#fff"></rect><rect x="122.5" y="308.92" width="5.67" height="5.67" style="fill:#fff"></rect><rect x="98.11" y="319.23" width="5.67" height="5.67" style="fill:#fff"></rect><rect x="110.3" y="329.54" width="5.67" height="5.67" style="fill:#fff"></rect><rect x="122.5" y="329.54" width="5.67" height="5.67" style="fill:#fff"></rect><rect x="98.11" y="339.86" width="5.67" height="5.67" style="fill:#fff"></rect><rect x="110.3" y="352.47" width="5.67" height="5.67" transform="translate(226.28 710.61) rotate(180)" style="fill:#fff"></rect><rect x="98.11" y="352.47" width="5.67" height="5.67" transform="translate(201.89 710.61) rotate(180)" style="fill:#fff"></rect><rect x="122.5" y="362.79" width="5.67" height="5.67" transform="translate(250.66 731.24) rotate(180)" style="fill:#fff"></rect><polygon points="145.95 377.1 196.19 377.1 196.19 288.61 145.95 269.6 145.95 377.1" style="fill:#f5f5f5"></polygon><rect x="167.36" y="287.95" width="7.41" height="7.41" transform="translate(342.13 583.32) rotate(180)" style="fill:#fff"></rect><rect x="151.42" y="287.95" width="7.41" height="7.41" transform="translate(310.24 583.32) rotate(180)" style="fill:#fff"></rect><rect x="183.3" y="301.44" width="7.41" height="7.41" transform="translate(374.02 610.28) rotate(180)" style="fill:#fff"></rect><rect x="167.36" y="314.92" width="7.41" height="7.41" transform="translate(342.13 637.25) rotate(180)" style="fill:#fff"></rect><rect x="151.42" y="314.92" width="7.41" height="7.41" transform="translate(310.24 637.25) rotate(180)" style="fill:#fff"></rect><rect x="183.3" y="328.4" width="7.41" height="7.41" transform="translate(374.02 664.22) rotate(180)" style="fill:#fff"></rect><rect x="167.36" y="344.9" width="7.41" height="7.41" style="fill:#fff"></rect><rect x="183.3" y="344.9" width="7.41" height="7.41" style="fill:#fff"></rect><rect x="151.42" y="358.39" width="7.41" height="7.41" style="fill:#fff"></rect><polygon points="428.29 267.35 428.29 248.57 423.8 248.57 423.8 227.62 420.01 227.62 420.01 218.15 412.41 206.93 404.81 218.15 404.81 227.62 401.03 227.62 401.03 248.57 396.53 248.57 396.53 267.35 391.98 267.35 391.98 377.1 432.84 377.1 432.84 267.35 428.29 267.35" style="fill:#f5f5f5"></polygon><rect x="409.58" y="273.2" width="5.67" height="5.67" style="fill:#fefefe"></rect><rect x="421.77" y="273.2" width="5.67" height="5.67" style="fill:#fefefe"></rect><rect x="397.39" y="293.83" width="5.67" height="5.67" style="fill:#fefefe"></rect><rect x="421.77" y="293.83" width="5.67" height="5.67" style="fill:#fefefe"></rect><rect x="409.58" y="304.14" width="5.67" height="5.67" style="fill:#fefefe"></rect><rect x="397.39" y="314.45" width="5.67" height="5.67" style="fill:#fefefe"></rect><rect x="409.58" y="314.45" width="5.67" height="5.67" style="fill:#fefefe"></rect><rect x="421.77" y="324.76" width="5.67" height="5.67" style="fill:#fefefe"></rect><rect x="397.39" y="335.08" width="5.67" height="5.67" style="fill:#fefefe"></rect><rect x="409.58" y="345.39" width="5.67" height="5.67" style="fill:#fefefe"></rect><rect x="421.77" y="345.39" width="5.67" height="5.67" style="fill:#fefefe"></rect><polygon points="89.86 377.1 56.15 377.1 56.15 276.07 89.86 259.93 89.86 377.1" style="fill:#f0f0f0"></polygon><rect x="62.02" y="282.12" width="6.29" height="6.29" style="fill:#fff"></rect><rect x="75.55" y="293.56" width="6.29" height="6.29" style="fill:#fff"></rect><rect x="62.02" y="305" width="6.29" height="6.29" style="fill:#fff"></rect><rect x="75.55" y="316.45" width="6.29" height="6.29" style="fill:#fff"></rect><rect x="75.55" y="327.89" width="6.29" height="6.29" style="fill:#fff"></rect><rect x="62.02" y="339.33" width="6.29" height="6.29" style="fill:#fff"></rect><rect x="75.55" y="362.22" width="6.29" height="6.29" style="fill:#fff"></rect><path d="M46.55,371.61H85.78a0,0,0,0,1,0,0v11a0,0,0,0,1,0,0H44.41a0,0,0,0,1,0,0v-8.87A2.15,2.15,0,0,1,46.55,371.61Z" style="fill:#e0e0e0"></path><rect x="84.59" y="371.61" width="41.38" height="11.02" style="fill:#f5f5f5"></rect><rect x="124.97" y="371.61" width="41.38" height="11.02" style="fill:#e0e0e0"></rect><rect x="165.16" y="371.61" width="41.38" height="11.02" style="fill:#f5f5f5"></rect><rect x="205.54" y="371.61" width="41.38" height="11.02" style="fill:#e0e0e0"></rect><rect x="245.73" y="371.61" width="41.38" height="11.02" style="fill:#f5f5f5"></rect><rect x="286.11" y="371.61" width="41.38" height="11.02" style="fill:#e0e0e0"></rect><rect x="326.3" y="371.61" width="41.38" height="11.02" style="fill:#f5f5f5"></rect><rect x="366.68" y="371.61" width="41.38" height="11.02" style="fill:#e0e0e0"></rect><path d="M406.86,371.61H446.1a2.15,2.15,0,0,1,2.15,2.15v8.87a0,0,0,0,1,0,0H406.86a0,0,0,0,1,0,0v-11A0,0,0,0,1,406.86,371.61Z" style="fill:#f5f5f5"></path><path d="M391.85,161.72a12.09,12.09,0,0,0-8.79-11.62,12.07,12.07,0,0,0-17.18-13.44,20,20,0,0,0-33,5.15,12.07,12.07,0,0,0-10.83,7.86c-.25,0-.51,0-.76,0a12.09,12.09,0,1,0,0,24.17l.46,0c1.43,5.08,6.08,5.42,11.62,5.42a12.33,12.33,0,0,0,2.94-.37c2.22,2.57,5.49,2.51,9.15,2.51s7.15-.05,9.37-2.77c2.74,2.49,6.37,2.32,10.36,2.32,7.42,0,13.61-.15,15.11-7.12A12.07,12.07,0,0,0,391.85,161.72Z" style="fill:#fafafa"></path><path d="M147.6,146.5A11.89,11.89,0,0,0,139,135.07a12.31,12.31,0,0,0,.29-2.59,11.87,11.87,0,0,0-17.19-10.63,19.65,19.65,0,0,0-32.44,5.06A11.88,11.88,0,0,0,79,134.65c-.25,0-.5,0-.75,0a11.89,11.89,0,0,0,0,23.78l.45,0c1.41,5,6,5.34,11.43,5.34a12.06,12.06,0,0,0,2.9-.37c2.18,2.53,5.39,2.47,9,2.47s7-.05,9.22-2.72c2.7,2.44,6.27,2.28,10.2,2.28,7.29,0,13.38-.15,14.86-7A11.88,11.88,0,0,0,147.6,146.5Z" style="fill:#f5f5f5"></path><path d="M335.19,120.58a13.63,13.63,0,0,0-3.2.11,22.23,22.23,0,0,0-41.58-11.84A13.35,13.35,0,0,0,270.09,119a13.24,13.24,0,0,0,1.1,6.61,13.4,13.4,0,1,0,11.29,24.22c1.93,4.18,5.93,5.29,10.85,5.76,5.55.54,10.64-.38,13.12-5,2.19,2.68,5.4,2.53,9.12,2.89,6.26.61,11.89-1.2,13.91-6.87a13.78,13.78,0,0,0,3.12.72,13.43,13.43,0,0,0,2.59-26.74Z" style="fill:#f5f5f5"></path><path d="M194.61,144.75a8.35,8.35,0,0,0-6.09-8,7.9,7.9,0,0,0,.21-1.83,8.37,8.37,0,0,0-12.11-7.49A13.83,13.83,0,0,0,153.78,131a8.35,8.35,0,0,0-7.5,5.45c-.18,0-.35,0-.53,0a8.38,8.38,0,0,0,0,16.75l.32,0c1,3.52,4.21,3.76,8.05,3.76a8.64,8.64,0,0,0,2-.26c1.53,1.78,3.8,1.74,6.33,1.74s5,0,6.49-1.92c1.9,1.72,4.42,1.61,7.18,1.61,5.14,0,9.43-.11,10.47-4.93A8.37,8.37,0,0,0,194.61,144.75Z" style="fill:#f0f0f0"></path><path d="M411.8,136.05a7.15,7.15,0,0,0-5.19-6.87,7.31,7.31,0,0,0,.17-1.56,7.13,7.13,0,0,0-10.33-6.39,11.82,11.82,0,0,0-19.51,3,7.15,7.15,0,0,0-6.4,4.65l-.45,0a7.15,7.15,0,1,0,0,14.3l.27,0c.84,3,3.6,3.21,6.87,3.21a7.15,7.15,0,0,0,1.74-.22c1.31,1.52,3.25,1.48,5.41,1.48s4.23,0,5.54-1.63c1.63,1.47,3.77,1.37,6.13,1.37,4.39,0,8.05-.09,8.94-4.21A7.15,7.15,0,0,0,411.8,136.05Z" style="fill:#f5f5f5"></path></g><g id="freepik--Shadow--inject-197"><ellipse id="freepik--path--inject-197" cx="245.18" cy="412.39" rx="193.89" ry="11.32" style="fill:#f5f5f5"></ellipse></g><g id="freepik--character-4--inject-197"><path d="M311.77,244.89a5.11,5.11,0,0,1,2.76-6.52c8-3.41,24.49-10.08,33.9-10.89,12.71-1.08,49.09-7.7,57.21-2.73S408.76,246.6,414,245s5-9.95,7.75-11S412,213,404.48,213.47s-58.72,1.68-72.47,6.46S284,245.48,300.93,255.58c3,1.77,9.93-3.09,13.76,1.4C317.35,260.1,314,250.81,311.77,244.89Z" style="fill:#407BFF"></path><path d="M421.76,234C424.51,233,412,213,404.48,213.47s-58.72,1.68-72.47,6.46S284,245.48,300.93,255.58c1.31.78,3.39.27,5.64-.15.33-4.38,1.3-14,3.6-15.78,3-2.33,21.17-11,26.34-12s33.5-4.33,39.16-4.83,30.67-2,32.67,1.83a157.11,157.11,0,0,1,8,19C419.25,240.76,419.49,234.9,421.76,234Z" style="fill:#fff;opacity:0.2"></path><path d="M408.51,221.32c1.95,2.32,7.84,11.71,10.85,16.56.68-1.85,1.3-3.43,2.4-3.85C424.51,233,412,213,404.48,213.47s-58.72,1.68-72.47,6.46c-13.39,4.66-46.22,24.45-32.32,34.82,1-2.89,4.34-11.9,7.82-15.1,4.16-3.83,23.5-14.66,29-15.16S405.84,218.15,408.51,221.32Z" style="fill:#fff;opacity:0.2"></path><path d="M404.48,213.47c-7.47.5-58.72,1.68-72.47,6.46-12.37,4.3-41.33,21.52-34.72,32.29,1.22-3.3,5.14-12.9,12.72-17.9,8.83-5.83,20.66-12.33,25-13.33s70.33-5.84,73.16-3.84c2.27,1.6,9.82,13,12.77,17.49a2.05,2.05,0,0,1,.82-.61C424.51,233,412,213,404.48,213.47Z" style="fill:#fff;opacity:0.2"></path><g style="opacity:0.9"><path d="M321.67,232.56l-2.46-.81a1.72,1.72,0,0,1-1.11-.89,1.19,1.19,0,0,1,.6-1.62,1.47,1.47,0,0,1,1.49.09c.17-.59.25-1,.86-1.29a1.08,1.08,0,0,1,1.57.52,1.93,1.93,0,0,1,0,1.46Z" style="fill:#fff"></path></g><g style="opacity:0.9"><path d="M337.2,226.18l-2.08-1.55a1.71,1.71,0,0,1-.76-1.19,1.18,1.18,0,0,1,1.08-1.35,1.48,1.48,0,0,1,1.38.55c.35-.5.55-.84,1.22-.94a1.07,1.07,0,0,1,1.33,1,1.84,1.84,0,0,1-.49,1.38Z" style="fill:#fff"></path></g><g style="opacity:0.9"><path d="M378.13,221.32l-1.91-1.75a1.74,1.74,0,0,1-.64-1.27,1.19,1.19,0,0,1,1.21-1.23c.69,0,.92.27,1.32.69.4-.46.63-.78,1.32-.81a1.07,1.07,0,0,1,1.22,1.12,1.91,1.91,0,0,1-.63,1.32Z" style="fill:#fff"></path></g><g style="opacity:0.9"><path d="M398.56,219.74,397,217.69a1.74,1.74,0,0,1-.41-1.36,1.18,1.18,0,0,1,1.41-1c.68.08.86.42,1.18.9.47-.38.75-.66,1.43-.57a1.07,1.07,0,0,1,1,1.31,1.91,1.91,0,0,1-.85,1.2Z" style="fill:#fff"></path></g><path d="M395.87,232.42l1.61-6.4-.82-3.48a1.74,1.74,0,0,1,.52-1.67h0a1.73,1.73,0,0,1,2.35,0l2.25,2.11a1.75,1.75,0,0,1,.51,1.59l-.23,1.17-1.48,1.46-.41,6.68Z" style="fill:#e4897b"></path><path d="M375,243.6a1.68,1.68,0,0,1,1.64-.09c2.73,1.21,9.05,2.27,11.75,1.37,3.17-1.06,7.33-14.85,7.33-14.85l4.87,1.25s-.75,18.7-8.17,20.6a44.64,44.64,0,0,1-16.59.54A3.57,3.57,0,0,1,373,248.8C373,247,373.46,244.72,375,243.6Z" style="fill:#407BFF"></path><path d="M380.2,252.89a19.49,19.49,0,0,0-3.42-6.73l-3.1-.85a9.25,9.25,0,0,0-.73,3.49,3.57,3.57,0,0,0,2.91,3.62A31.83,31.83,0,0,0,380.2,252.89Z" style="opacity:0.1"></path><path d="M384.25,314.88s7.3,25.13,8.39,32.47,6.22,57,6.22,57l-5.68,1.7s-9.74-30.78-10.56-55.07c0,0-7.26-19-11.09-31.84Z" style="fill:#e4897b"></path><path d="M365.9,316.83s-3.56,26.13-5.28,33.33-15.38,55.13-15.38,55.13l-5.86-.73s2.4-32.32,10.64-55.05c0,0,.34-20.46,1.56-33.84Z" style="fill:#e4897b"></path><path d="M353.76,277.88v8.76s8.47.7,21.74-1.7l.85-8.61Z" style="fill:#e4897b"></path><path d="M376.67,282.26l2.71,16.1a182.08,182.08,0,0,1,8,22.87l-14.48,6.49s-3.65-11.43-8-18.49-4.19-24.15-4.19-24.15L373.15,284Z" style="fill:#263238"></path><path d="M376.67,282.26l2.71,16.1a182.08,182.08,0,0,1,8,22.87l-14.48,6.49s-3.65-11.43-8-18.49-4.19-24.15-4.19-24.15L373.15,284Z" style="fill:#fff;opacity:0.30000000000000004"></path><path d="M368.42,292.49,362,300.43a27.08,27.08,0,0,0,2.9,8.8,62.75,62.75,0,0,1,3.67,7.19C373.49,294.43,368.42,292.49,368.42,292.49Z" style="opacity:0.1"></path><path d="M353.23,284.1a145.83,145.83,0,0,0,23.44-1.84s-1.35,7.63-5.68,12a76.16,76.16,0,0,1-4.33,14.83l-1.87,20.33h-15a188.34,188.34,0,0,1,.94-22.59S348.87,297.65,353.23,284.1Z" style="fill:#263238"></path><path d="M353.23,284.1a145.83,145.83,0,0,0,23.44-1.84s-1.35,7.63-5.68,12a76.16,76.16,0,0,1-4.33,14.83l-1.87,20.33h-15a188.34,188.34,0,0,1,.94-22.59S348.87,297.65,353.23,284.1Z" style="fill:#fff;opacity:0.30000000000000004"></path><polygon points="365.9 327.73 348.86 327.73 349.24 330.83 365.15 330.83 365.9 327.73" style="fill:#407BFF"></polygon><polygon points="365.9 327.73 348.86 327.73 349.24 330.83 365.15 330.83 365.9 327.73" style="fill:#fff;opacity:0.5"></polygon><polygon points="388.17 322.16 373.17 329.42 371.89 326.69 387.16 319.15 388.17 322.16" style="fill:#407BFF"></polygon><polygon points="388.17 322.16 373.17 329.42 371.89 326.69 387.16 319.15 388.17 322.16" style="fill:#fff;opacity:0.5"></polygon><path d="M346.76,245.21c4.36-1.23,16.87-4.26,28.18-2.41a2.45,2.45,0,0,1,2.05,2.14c.74,6.29,2,22.9-.21,33.79,0,0-13.56,2.54-24,1.13,0,0-.52-18.19-6.93-32.66A1.44,1.44,0,0,1,346.76,245.21Z" style="fill:#407BFF"></path><path d="M346.05,405.87c2.1,1.34,3.84,4,8.55,3.65,1-.07,1.14,2.81-1.24,3.27-3.94.76-11.32.39-13.61.39s-1-4.85-.91-6.48c.33-4.21,1-16.86,1-16.86l8.27.33.26,4.2,1.27-4.14,1.13.64S345.7,401.48,346.05,405.87Z"></path><path d="M399.47,405.87c2.1,1.34,3.85,4,8.56,3.65,1-.07,1.13,2.81-1.24,3.27-3.94.76-11.33.39-13.62.39s-1-4.85-.9-6.48c.32-4.21-4.34-16.86-4.34-16.86l8.27.33,1.26,4.2.27-4.14,1.13-.41S399.13,401.48,399.47,405.87Z"></path><path d="M358.54,230.06c.56,3.29,1.06,10-.65,12.95a1.76,1.76,0,0,0,.33,2.17,9.24,9.24,0,0,0,7.82,2.56c4-.43,3.11-2.81,2.41-4.41a1.69,1.69,0,0,0-1-.92c-3.56-1.25-3.32-3.33-2.57-6.06Z" style="fill:#e4897b"></path><path d="M361,234.91a5.7,5.7,0,0,0,3.52,3.24,16.06,16.06,0,0,1,.4-1.8l-3.68-3.65A2.37,2.37,0,0,0,361,234.91Z" style="opacity:0.2;isolation:isolate"></path><path d="M366.92,226.47c-3.18-2.71-4.38-7.39-3.92-8.31s6.3-1.68,7-1.15c3.47,2.56.19,7.4.19,7.4l1,2Z" style="fill:#263238"></path><path d="M366.92,226.47c-3.18-2.71-4.38-7.39-3.92-8.31s6.3-1.68,7-1.15c3.47,2.56.19,7.4.19,7.4l1,2Z" style="fill:#fff;opacity:0.5"></path><path d="M357.27,224.66c.53,5,.59,8,3.25,10.44,4,3.72,10.1,1.13,11.07-3.94.88-4.59-.14-12-5.15-13.78a6.89,6.89,0,0,0-9.17,7.28Z" style="fill:#e4897b"></path><path d="M356.43,228c-2.9-3-4.82-7.34-4.24-8.17,1.56-2.2,5.95-3.26,8.34-1.54,3.52,2.48-.64,8-.64,8l.84,2.06Z" style="fill:#263238"></path><path d="M356.43,228c-2.9-3-4.82-7.34-4.24-8.17,1.56-2.2,5.95-3.26,8.34-1.54,3.52,2.48-.64,8-.64,8l.84,2.06Z" style="fill:#fff;opacity:0.5"></path><path d="M365.21,225.76c0,.41.25.74.52.72s.47-.35.45-.76-.25-.73-.52-.72S365.19,225.36,365.21,225.76Z" style="fill:#263238"></path><path d="M369.84,225.56c0,.4.25.73.52.71s.46-.35.44-.76-.24-.73-.51-.72S369.82,225.15,369.84,225.56Z" style="fill:#263238"></path><path d="M368.13,225.79a14.6,14.6,0,0,0,2.11,3.41,2.37,2.37,0,0,1-1.94.46Z" style="fill:#ff5652"></path><path d="M363.53,223.91a.25.25,0,0,1-.12,0,.25.25,0,0,1-.06-.33,2.4,2.4,0,0,1,1.91-1.08.24.24,0,0,1,.24.24.24.24,0,0,1-.25.24h0a1.91,1.91,0,0,0-1.5.87A.25.25,0,0,1,363.53,223.91Z" style="fill:#263238"></path><path d="M368.25,231.59a.23.23,0,0,1,.07.1.25.25,0,0,1-.19.28,2.42,2.42,0,0,1-2.12-.59.24.24,0,1,1,.35-.33h0a1.94,1.94,0,0,0,1.68.45A.22.22,0,0,1,368.25,231.59Z" style="fill:#263238"></path><path d="M371.55,223.61a.26.26,0,0,1-.19-.13,1.9,1.9,0,0,0-1.39-1,.24.24,0,1,1,0-.48,2.39,2.39,0,0,1,1.79,1.28.22.22,0,0,1-.09.32h0A.22.22,0,0,1,371.55,223.61Z" style="fill:#263238"></path><path d="M353.81,248.59h-3.34L347,250.13a76.8,76.8,0,0,1,2.47,7.82C355,253.74,353.81,248.59,353.81,248.59Z" style="opacity:0.1"></path><path d="M318.12,242.09l-4.47-4.86-.94-3.45a1.7,1.7,0,0,0-1.25-1.22h0a1.71,1.71,0,0,0-2,1.13l-1,2.93a1.74,1.74,0,0,0,.31,1.64l.75.92,2,.58,3.55,5.68Z" style="fill:#e4897b"></path><path d="M346.76,245.21c-4.59,1.08-10.75,4.67-15.66,4.82S316,239.38,316,239.38l-3.07,3.1s7.35,16,18.92,15.29c9.55-.64,15.35-2.18,19.22-4.36,2.11-1.19,4.05-3.53,2.51-6.51S346.76,245.21,346.76,245.21Z" style="fill:#407BFF"></path><path d="M359.06,219.88c4.48,1.17,13.82-1.68,12.85-5-.53-1.84-4.32-.5-4.32-.5s2.09-2.51,1.17-3.41c-1.31-1.27-5.86,1.2-6.55,2.05.14-.56.38-1.33-.06-1.71-1.18-1-13.74,4.57-8.08,8.11C357.72,221.65,359.06,219.88,359.06,219.88Z" style="fill:#263238"></path><path d="M372.31,229.25s-2.84-2.3-4.43-2.07-7,1.44-7,1.44.69,4.12-1,5.66a11.36,11.36,0,0,0,7.64,2.42S371.57,235.43,372.31,229.25Z" style="fill:#407BFF"></path><path d="M359.87,234.28c.9-.83,1.11-2.41,1.12-3.69,1.72-.39,5.41-1.15,7.1-1a8.91,8.91,0,0,1,3.84,1.57c-1.25,4.5-4.42,5.5-4.42,5.5A11.36,11.36,0,0,1,359.87,234.28Z" style="fill:#fff;opacity:0.2"></path><path d="M360.82,232.38a45.86,45.86,0,0,1,6.53-.33,6.91,6.91,0,0,1,3.4,1.84,6.74,6.74,0,0,1-3.24,2.81,11.36,11.36,0,0,1-7.64-2.42A3.58,3.58,0,0,0,360.82,232.38Z" style="fill:#fff;opacity:0.2"></path><path d="M359.87,234.28a2.7,2.7,0,0,0,.58-.82c1.23.64,4.13,2,5.78,2.11,1.44.06,2.53,0,3.08,0a5.6,5.6,0,0,1-1.8,1.11A11.36,11.36,0,0,1,359.87,234.28Z" style="opacity:0.1"></path><path d="M360.3,234.53a4.33,4.33,0,0,1-2.76-2.55,6,6,0,0,1,0-4.63,1,1,0,0,1,.78-.59h.1c1.23,0,2.95,2.14,3,2.23l-.27.22c-.49-.61-1.94-2.17-2.81-2.1a.65.65,0,0,0-.51.4,5.7,5.7,0,0,0,.06,4.34,4,4,0,0,0,2.53,2.35Z"></path><path d="M355,229.46a4.8,4.8,0,0,0,3.07,2c1.66.28,2.32-1.24,1.72-2.71s-2.06-3.08-3.65-2.69A2.14,2.14,0,0,0,355,229.46Z" style="fill:#e4897b"></path><path d="M376.5,251a1.46,1.46,0,0,0-1.27-.46c-.86.07-1.2.54-1.63,1.18a1.78,1.78,0,0,0-1.69-.89,1.88,1.88,0,0,0-1.65,2.12,3,3,0,0,0,.91,2l2.59,2.71,2.43-3.14a3.41,3.41,0,0,0,.8-2.18A2,2,0,0,0,376.5,251Zm-2.68,2.9,1.13,1.68L373.9,257Zm-.25,3.07-1.06-1.11,1-1.93Zm-3-4a1.5,1.5,0,0,1,1.33-1.71h.17c.61,0,.88.33,1.3.84l0,0,0,1.09-1.22,2.39-.86-.9A2.59,2.59,0,0,1,370.6,253Zm5.35,1.34-.77,1-1.37-2.05,0-1.14,0-.06c.43-.64.7-1,1.43-1.09a1.15,1.15,0,0,1,1,.36,1.65,1.65,0,0,1,.39,1.09A3,3,0,0,1,376,254.31Z" style="fill:#fff;opacity:0.9"></path></g><g id="freepik--character-3--inject-197"><path d="M294.32,240.54s10.17,1.9,14,.64,10.8-18.29,10.8-18.29l-1.85-4.7A1.81,1.81,0,0,1,318,216l2.41-1.45a1.83,1.83,0,0,1,2.6.79l1.83,4a1.81,1.81,0,0,1-.55,2.21l-1.25,2s-7,25.88-12.65,26.31-17.09-1-17.09-1Z" style="fill:#eec1bb"></path><path d="M286.05,238.21,298,240.12l-1.11,10.63s-17.92.3-16.43-8.68A4.86,4.86,0,0,1,286.05,238.21Z" style="fill:#407BFF"></path><path d="M286.05,238.21,298,240.12l-1.11,10.63s-17.92.3-16.43-8.68A4.86,4.86,0,0,1,286.05,238.21Z" style="fill:#fff;opacity:0.8"></path><polygon points="298.53 239.54 297.37 251.36 295.44 251.36 296.48 238.91 298.53 239.54" style="fill:#407BFF"></polygon><polygon points="298.53 239.54 297.37 251.36 295.44 251.36 296.48 238.91 298.53 239.54" style="fill:#fff;opacity:0.5"></polygon><path d="M288.17,242.51l3.3,7.88a20.87,20.87,0,0,1-8.2-2.54l-.16-.65,1.44-4.69Z" style="opacity:0.1"></path><path d="M249.14,250.25s-3.55,11.4-5.8,15.28-13.15,19-13.15,19l-4.06.19a3.66,3.66,0,0,0-3.47,3.18h0A3.62,3.62,0,0,0,223,290l.14.29a3.7,3.7,0,0,0,4.38,2l2.3-.68,2.91-3.6s14.39-12.95,17.11-18.5,7-15.89,7-15.89Z" style="fill:#eec1bb"></path><path d="M259.51,247.7l-3.83,11.4-10.36-2.84s2.62-17.63,11.28-14.7A4.83,4.83,0,0,1,259.51,247.7Z" style="fill:#407BFF"></path><path d="M259.51,247.7l-3.83,11.4-10.36-2.84s2.62-17.63,11.28-14.7A4.83,4.83,0,0,1,259.51,247.7Z" style="fill:#fff;opacity:0.8"></path><polygon points="256.16 259.73 244.63 256.66 244.95 254.76 257.12 257.83 256.16 259.73" style="fill:#407BFF"></polygon><polygon points="256.16 259.73 244.63 256.66 244.95 254.76 257.12 257.83 256.16 259.73" style="fill:#fff;opacity:0.5"></polygon><path d="M273.33,214.49s7.74,5.11,1.72,14.63-4.87-15.33-4.87-15.33Z" style="fill:#263238"></path><path d="M273.33,214.49s7.74,5.11,1.72,14.63-4.87-15.33-4.87-15.33Z" style="opacity:0.5"></path><path d="M289.18,294.83s10.2,44,11.22,53.38,6.11,48.26,6.11,48.26L298.87,398S291,374.4,288.28,356c-.09-.58-.17-1.16-.24-1.73a46.67,46.67,0,0,0-1.46-7c-.11-.39-.24-.81-.37-1.26-2.46-8.33-7.41-24.81-9.6-30a20.91,20.91,0,0,1-11.12-19Z" style="fill:#263238"></path><path d="M281,328.82c-1.7-5.41-3.34-10.36-4.37-12.81a18.89,18.89,0,0,1-4.11-2.85c-.47-2.09-.76-3.42-.76-3.42l3.1-5.71S281,306.88,281,328.82Z" style="opacity:0.6000000000000001"></path><path d="M276.8,296s-.6,47.94-5.06,59.6-9.56,41.7-9.56,41.7L255,396s-.77-28.43,3.48-41c.19-.57.4-1.12.62-1.63a15.08,15.08,0,0,0,1.09-7.34h0l-2.6-28s-3.86-14.22-1.3-23.21Z" style="fill:#263238"></path><path d="M283.33,238.63,256.69,241a5.79,5.79,0,0,0-5.25,6.07l3.46,51.84,35.71-2.84-1.42-52.25A5.33,5.33,0,0,0,283.33,238.63Z" style="fill:#407BFF"></path><path d="M283.33,238.63,256.69,241a5.79,5.79,0,0,0-5.25,6.07l3.46,51.84,35.71-2.84-1.42-52.25A5.33,5.33,0,0,0,283.33,238.63Z" style="fill:#fff;opacity:0.8"></path><path d="M274.61,239.28l-.38,2.49-2.92,1-3.92-.61-3.63-1.76a1.81,1.81,0,0,1,.11-.6c1.26-3.35-.27-9.14-1.43-12.44l8.29,5.21C270.44,235.38,271.11,238.45,274.61,239.28Z" style="fill:#eec1bb"></path><path d="M265.82,229.49l4.91,3a13.1,13.1,0,0,0,0,2.17,6,6,0,0,1-4.91-2.78C265.24,230.89,265.41,229.68,265.82,229.49Z" style="opacity:0.2;isolation:isolate"></path><path d="M260.18,222c1.43,5.09,2,8.13,5.2,10.21,4.79,3.13,10.67-.61,10.79-6,.1-4.89-2.26-12.36-7.77-13.32a7.23,7.23,0,0,0-8.4,5.8A7.13,7.13,0,0,0,260.18,222Z" style="fill:#eec1bb"></path><path d="M268.6,221.75c.09.42.39.72.67.66s.42-.45.33-.87-.39-.71-.67-.65S268.51,221.34,268.6,221.75Z" style="fill:#2e353a"></path><path d="M273.36,220.73c.09.42.39.71.66.65s.43-.45.34-.86-.39-.72-.67-.66S273.27,220.31,273.36,220.73Z" style="fill:#2e353a"></path><path d="M271.63,221.27a15.49,15.49,0,0,0,2.79,3.15,2.52,2.52,0,0,1-1.93.81Z" style="fill:#d4827d"></path><path d="M266.54,220.14a.29.29,0,0,1-.13,0,.26.26,0,0,1-.12-.34,2.53,2.53,0,0,1,1.79-1.45.26.26,0,1,1,.07.51h0a2,2,0,0,0-1.4,1.16A.27.27,0,0,1,266.54,220.14Z" style="fill:#2e353a"></path><path d="M274.8,218.42a.23.23,0,0,1-.22-.1,2,2,0,0,0-1.62-.81.26.26,0,0,1-.28-.23.25.25,0,0,1,.23-.27,2.54,2.54,0,0,1,2.09,1,.25.25,0,0,1,0,.34h0A.27.27,0,0,1,274.8,218.42Z" style="fill:#2e353a"></path><path d="M274.44,226.58a38.85,38.85,0,0,0-6.24,1.18c.76,1,1.95,1.73,4.26,1.16S274.44,226.58,274.44,226.58Z" style="fill:#2e353a"></path><path d="M274.23,226.6c-.08.28-.09,1-.56,1.22a29.69,29.69,0,0,1-4.08.68c-.43.05-.87-.46-1.2-.79A46.25,46.25,0,0,1,274.23,226.6Z" style="fill:#fff"></path><path d="M274,238.91a3.07,3.07,0,0,1-2.55,3.27c-2.8.57-7.91-2.33-7.91-2.33l-2.1.54,7.3,5.72,2.9-3.17,3.95,2v-5.76Z" style="fill:#407BFF"></path><path d="M274,238.91a3.07,3.07,0,0,1-2.55,3.27c-2.8.57-7.91-2.33-7.91-2.33l-2.1.54,7.3,5.72,2.9-3.17,3.95,2v-5.76Z" style="fill:#fff;opacity:0.5"></path><path d="M266.07,216.81s-1.88,1.33-1.79,3.05-.09,4.7-1.61,5.59-4.41-1.69-3.05-7.93l4.17-1.73Z" style="fill:#263238"></path><path d="M266.07,216.81s-1.88,1.33-1.79,3.05-.09,4.7-1.61,5.59-4.41-1.69-3.05-7.93l4.17-1.73Z" style="fill:#fff;opacity:0.5"></path><path d="M268,215.44a11.53,11.53,0,0,1-5.59,2.91c-3.9,1-3.9-1.59-1.93-4.24s11.51-2.78,13.35-.76Z" style="fill:#263238"></path><path d="M264.77,217.72s11.37-9.24,13.66,6.32C278.43,224,278.5,203.43,264.77,217.72Z" style="fill:#407BFF"></path><path d="M277.08,225.23s-3-2.4-4.62-2.17-7.33,1.5-7.33,1.5.72,4.3-1,5.91a11.87,11.87,0,0,0,8,2.53S276.3,231.66,277.08,225.23Z" style="fill:#407BFF"></path><path d="M264.11,230.47c.94-.87,1.16-2.51,1.16-3.85,1.79-.4,5.65-1.19,7.41-1a9.19,9.19,0,0,1,4,1.64c-1.3,4.69-4.6,5.74-4.6,5.74A11.87,11.87,0,0,1,264.11,230.47Z" style="fill:#fff;opacity:0.2"></path><path d="M265.09,228.48a48.53,48.53,0,0,1,6.82-.33,7.07,7.07,0,0,1,3.54,1.92,7.07,7.07,0,0,1-3.37,2.93,11.87,11.87,0,0,1-8-2.53A3.68,3.68,0,0,0,265.09,228.48Z" style="fill:#fff;opacity:0.2"></path><path d="M264.11,230.47a2.85,2.85,0,0,0,.6-.85c1.28.66,4.31,2.13,6,2.2,1.51.05,2.64,0,3.22,0a6,6,0,0,1-1.87,1.17A11.87,11.87,0,0,1,264.11,230.47Z" style="opacity:0.1"></path><path d="M264.76,230.73v-.35a4,4,0,0,1-3.25-2,3.58,3.58,0,0,1-.49-3.21,1.11,1.11,0,0,1,.68-.59c1.36-.48,3.86.76,3.89.77l.16-.32c-.11,0-2.67-1.31-4.17-.79a1.44,1.44,0,0,0-.88.79,3.89,3.89,0,0,0,.51,3.54A4.27,4.27,0,0,0,264.76,230.73Z" style="fill:#263238"></path><path d="M258.7,227.35a5.08,5.08,0,0,0,3.53,1.5c1.77,0,1.75-1.86,1.31-3.1-.8-1.27-2.68-2.81-4.26-2.13A2.23,2.23,0,0,0,258.7,227.35Z" style="fill:#eec1bb"></path><path d="M261,227.85a.74.74,0,1,0,.74-.73A.74.74,0,0,0,261,227.85Z" style="fill:#407BFF"></path><path d="M261,227.85a.74.74,0,1,0,.74-.73A.74.74,0,0,0,261,227.85Z" style="opacity:0.2"></path><path d="M307.89,403.84c2.35.73,4.41,1.79,8.88.31,1-.31,1.76,2.33-.43,3.34-3.63,1.65-3,.92-6.09,2.37-2.6,1.23-4.4,2.23-6.47,3.26l-.18.05a.84.84,0,0,1-1-.64l-1.2-5.19L296.45,392l8.07-1.71,1.24,3.83L306,390l1.24.31S306.53,399.86,307.89,403.84Z" style="fill:#407BFF"></path><path d="M261.55,406.2c2.09,1.28,3.83,3.82,8.53,3.48,1-.06,1.13,2.69-1.24,3.13-3.93.72-11.29.37-13.57.37s-1-4.63-.9-6.18c.32-4-1-16.1-1-16.1l8.25.31.26,4,1.26-4,1.13.61S261.21,402,261.55,406.2Z" style="fill:#407BFF"></path><rect x="318.7" y="196.91" width="1.02" height="27.25" transform="translate(-26.62 47.37) rotate(-8.15)" style="fill:#407BFF"></rect><path d="M317.53,198.83s-8-1.92-12,.61-10,0-10,0,3.94,4.92,3.68,10.3c0,0,5.6,3.1,9.41-.69s10.52.38,10.52.38Z" style="fill:#263238"></path><path d="M304.54,205.37a3.29,3.29,0,0,1-1.55-2,1.83,1.83,0,0,1,1.62-2.31,2.8,2.8,0,0,1,2.49.86c.51-.85.79-1.43,1.94-1.63a2,2,0,0,1,2.47,1.58,2.93,2.93,0,0,1-.58,2.34l-2.52,3.6Z" style="fill:#407BFF"></path><path d="M303,203.41a2.93,2.93,0,0,0,.95,1.51l7.35-1.29a2.66,2.66,0,0,0,.22-1.72,1.68,1.68,0,0,0-.09-.32L303,203.08A1.86,1.86,0,0,0,303,203.41Z" style="fill:#fff;opacity:0.2"></path><path d="M304,204.94a4.46,4.46,0,0,0,.57.43l1.82,1.17,3.38-.59,1.19-1.7a4.46,4.46,0,0,0,.34-.59Z" style="fill:#fff;opacity:0.4"></path><polygon points="308.41 207.85 309.72 205.98 306.39 206.56 308.41 207.85" style="fill:#fff;opacity:0.6000000000000001"></polygon></g><g id="freepik--character-1--inject-197"><path d="M77,209.74s37-11,78.25,0c0,0,19.75.13,30.75,17.19s36.75,18.92,36.75,18.92-33.09,12.87-63.56,11.42-52.19,7-52.19,7S79.2,233.49,77,209.74Z" style="fill:#407BFF"></path><path d="M155.2,209.74s19.75.13,30.75,17.19c5.93,9.2,16.15,14,24.31,16.43h0s-31.37-5.16-39.12-1.89-33.25,1.1-48.5,1.44-28.27-.83-28.63,4.75C86.44,236.77,78.14,222.28,77,209.74,77,209.74,114,198.74,155.2,209.74Z" style="fill:#fff;opacity:0.2"></path><path d="M77,209.74s37-11,78.25,0c0,0,19.75.13,30.75,17.19,4.45,6.9,11.32,11.32,17.91,14.13h0s-17.72-7.25-26.47-8.16-17.25,1.93-31.25,3.13-37-6.91-58.48,1.77C82.35,228.82,77.8,218.77,77,209.74Z" style="fill:#fff;opacity:0.2"></path><path d="M77,209.74s37-11,78.25,0c0,0,19.75.13,30.75,17.19a33.64,33.64,0,0,0,8.84,9.1h0s-22.15-15.66-40.15-9.1c-17.22,6.28-24.28-8.81-71.13,3.25C80.13,223.36,77.57,216.28,77,209.74Z" style="fill:#fff;opacity:0.2"></path><path d="M77,209.74s37-11,78.25,0c0,0,16.42.12,27.65,13.07-.3-.23-15.58-11.66-28.21-7.88s-31.39-7.51-75.85,3.65A44.66,44.66,0,0,1,77,209.74Z" style="fill:#fff;opacity:0.2"></path><path d="M159.89,250.1c9.75.37,57.62-5,57.62-5h0a50.16,50.16,0,0,0,5.19.73s-33.09,12.87-63.56,11.42-52.19,7-52.19,7-2-2.2-4.91-5.85C103.44,246.3,150.14,249.74,159.89,250.1Z" style="opacity:0.2"></path><path d="M109.37,288.34l47.2,117.52,5.46-1.21s-6.35-39.48-14.05-55.81c-.24-.52-.49-1-.73-1.48a34.06,34.06,0,0,1-3.23-9.24l0-.12c-1.34-6.67-4.34-19.05-10.78-37.27Z" style="fill:#ebb376"></path><path d="M154,406.4a2.55,2.55,0,0,1-1.81-.09.54.54,0,0,1-.12-.6.8.8,0,0,1,.37-.42c.92-.47,3.2.27,3.3.3a.15.15,0,0,1,.1.13.16.16,0,0,1-.09.14A10.73,10.73,0,0,1,154,406.4Zm-1.17-.94a.58.58,0,0,0-.25.09.38.38,0,0,0-.24.25c-.06.19,0,.26,0,.3.35.33,1.82,0,2.88-.33A6.46,6.46,0,0,0,152.87,405.46Z" style="fill:#407BFF"></path><path d="M155.77,405.86h-.06c-.76-.17-2.43-1.14-2.44-1.82,0-.16.06-.38.43-.5a1.07,1.07,0,0,1,.82.08c.87.46,1.35,2,1.38,2.07a.15.15,0,0,1,0,.14A.1.1,0,0,1,155.77,405.86Zm-1.92-2.06h-.08c-.25.07-.24.17-.25.21,0,.4,1.18,1.2,2,1.48a3.33,3.33,0,0,0-1.15-1.63.7.7,0,0,0-.51-.07Z" style="fill:#407BFF"></path><path d="M156.21,404.92l6.37-1.33a.53.53,0,0,1,.59.29l2.23,4.95A.87.87,0,0,1,165,410a.49.49,0,0,1-.17.06c-2.3.44-4.37.74-7.23,1.34-3.37.71-2.43.93-6.39,1.82-2.38.53-3.39-2.1-2.4-2.44,4.51-1.56,4.7-3.06,6.15-5.09A2.07,2.07,0,0,1,156.21,404.92Z" style="fill:#263238"></path><path d="M101.84,279.15,84.26,404.57l5.33,1.66s13.85-36.51,15.25-54.06c.07-.8.11-1.57.12-2.29a25.09,25.09,0,0,1,2-9.36l0-.1c3.44-8.19,9.7-24,12.3-36.52,0,0,13-5.8,3.3-24.4Z" style="fill:#ebb376"></path><path d="M101.84,279.15,93.76,331.4s2.33,3.83,16.5,3.33c0,0,8.33-19,8-29.83,0,0,10.16-3.67,9.66-12.83s-3.66-12.92-3.66-12.92Z" style="fill:#407BFF"></path><path d="M115.29,292.24l5.4,11.47-.08.05-.35.14s0,0,0,.06a16.26,16.26,0,0,1-2,.94c.12,4.15-1,9.48-2.48,14.5-7-14.89-4.93-26.41-4.93-26.41Z" style="opacity:0.1"></path><path d="M125.34,279.15s7.13,2.6,8.88,18.78a76.8,76.8,0,0,0,3.38,15.55l4.49,13.75s-5.83,7-14.75,6.67c0,0-10.65-24-14.68-31.67-2.64-5-4-8-4.9-21.83Z" style="fill:#407BFF"></path><path d="M78.59,216.23s7.18,21.21,11.5,24.84c2.8,2.35,15.33,8,15.33,8l8-5.34s-14.85-5.43-18.83-9c-4.47-4-12.33-20.16-12.33-20.16v-5.34a1.65,1.65,0,0,0-.47-1.14l-1.55-1.58a1.62,1.62,0,0,0-2.4.07l-2.77,3.2a1.63,1.63,0,0,0,0,2.1Z" style="fill:#ebb376"></path><path d="M157.7,216.38s-5.93,22.29-9.17,25.33c-2.67,2.51-15.95,8.82-15.95,8.82l-8.27-4.91s15.61-6.24,19.4-10C148,231.38,154,214.9,154,214.9l-.27-5.33a1.6,1.6,0,0,1,.41-1.16l1.46-1.67a1.63,1.63,0,0,1,2.4-.05l2.94,3.06a1.65,1.65,0,0,1,.13,2.1Z" style="fill:#ebb376"></path><path d="M112.42,241.9l-11.16-4.46s-3.34,2.54-4.42,8.38l8.29,3.41S117.55,243.82,112.42,241.9Z" style="fill:#263238"></path><path d="M105.13,249.23l-7.59-3.13h0c4,.56,8.64-2.76,8.64-2.76l1.61.65.57,2.37.15,1.21C106.71,248.54,105.13,249.23,105.13,249.23Z" style="opacity:0.5"></path><path d="M134.59,248.15a69,69,0,0,0-8.25,31s-10.22,6.63-24.5,0c0,0-2.5-17.41-2.25-23.83.15-3.95,3-8.11,5.25-10.73a7.5,7.5,0,0,1,5.74-2.69h22.76Z" style="fill:#263238"></path><path d="M122.41,241.9h1.44c-1,1.85-4.23,6.58-9.57,6.17-5-.39-2.37-4.3-.8-6.17h.85c2.15-1.1,2.17-3.39,1.82-5.6l6.91-5.06C122.26,234.09,121.32,239,122.41,241.9Z" style="fill:#ebb376"></path><path d="M120.22,233.33l-4.1,3a10.21,10.21,0,0,1,.18,1.91c1.47-.1,3.76-1.23,4-2.75A6.22,6.22,0,0,0,120.22,233.33Z" style="opacity:0.2;isolation:isolate"></path><path d="M126.94,226.42c-2.33,5.23-3.2,7.49-6.93,9.23-5.6,2.61-11.51-1.38-10.8-7.2.64-5.24,4.33-12.91,10.36-13.09a7.82,7.82,0,0,1,7.37,11.06Z" style="fill:#ebb376"></path><path d="M114.37,224.28a12.47,12.47,0,0,1-2.59,2.21,2,2,0,0,0,1.44.87Z" style="fill:#d58745"></path><path d="M121.06,223.47a.25.25,0,0,0,.12,0,.22.22,0,0,0,.13-.29h0a2.66,2.66,0,0,0-1.81-1.64.24.24,0,0,0-.27.18.22.22,0,0,0,.17.26,2.26,2.26,0,0,1,1.49,1.38A.26.26,0,0,0,121.06,223.47Z" style="fill:#2e353a"></path><path d="M111.8,220.09a.25.25,0,0,0,.12,0,2.19,2.19,0,0,1,2,.2.24.24,0,0,0,.32-.05h0a.24.24,0,0,0,0-.32,2.69,2.69,0,0,0-2.43-.26.23.23,0,0,0-.15.29.23.23,0,0,0,.19.15Z" style="fill:#2e353a"></path><path d="M117.72,224.71c-.16.43-.52.7-.81.59s-.39-.54-.22-1,.52-.69.81-.59S117.88,224.27,117.72,224.71Z" style="fill:#2e353a"></path><path d="M112.79,222.87c-.16.44-.52.7-.8.6s-.39-.54-.23-1,.53-.7.81-.6S113,222.44,112.79,222.87Z" style="fill:#2e353a"></path><path d="M112.69,222l-.94-.69S112,222.29,112.69,222Z" style="fill:#2e353a"></path><path d="M117.61,223.8l-.93-.69S116.92,224.13,117.61,223.8Z" style="fill:#2e353a"></path><path d="M126,247.18l4.31-1.63,4.28,2.5,0,.1a57.37,57.37,0,0,0-3.72,8.1c-3.07-1.12-6-7-6-7Z" style="opacity:0.5"></path><path d="M127.94,241.9c3.34-.33,10.15-3.67,10.15-3.67,2.25,5.2,4,8.84,4,8.84-4.17,3.5-13.83,7-17.17,2.16C124.92,249.23,121.87,242.51,127.94,241.9Z" style="fill:#263238"></path><path d="M111.66,229.59a33.6,33.6,0,0,1,6.28,1.08,3.75,3.75,0,0,1-4.45,1.57,2.18,2.18,0,0,1-1.87-2.45A1.42,1.42,0,0,1,111.66,229.59Z" style="fill:#2e353a"></path><path d="M114.83,231.4a4.48,4.48,0,0,0-2.71.07,2.6,2.6,0,0,0,1.37.76,4.37,4.37,0,0,0,2.7-.08A2.52,2.52,0,0,0,114.83,231.4Z" style="fill:#892b29"></path><path d="M111.88,229.6a1,1,0,0,0,.55.85,26.19,26.19,0,0,0,4.13.6,1.35,1.35,0,0,0,1.18-.44A39,39,0,0,0,111.88,229.6Z" style="fill:#fff"></path><path d="M81.79,403.77c-.7-.23-1.39-.59-1.52-1a.51.51,0,0,1,.2-.58A.71.71,0,0,1,81,402c1,0,2.64,1.82,2.71,1.9a.14.14,0,0,1,0,.16.16.16,0,0,1-.14.08A10.81,10.81,0,0,1,81.79,403.77Zm-.54-1.39-.27-.06a.37.37,0,0,0-.32.11c-.16.13-.15.22-.12.28.14.46,1.56.93,2.66,1.15A6.26,6.26,0,0,0,81.25,402.38Z" style="fill:#407BFF"></path><path d="M83.56,404.17a.09.09,0,0,1-.06,0c-.58-.52-1.54-2.19-1.21-2.79.07-.15.24-.3.62-.21a1.07,1.07,0,0,1,.68.47,4.06,4.06,0,0,1,.16,2.48.13.13,0,0,1-.1.1A.1.1,0,0,1,83.56,404.17Zm-.64-2.75-.07,0c-.25-.06-.3,0-.32.06-.16.38.42,1.63,1,2.27a3.28,3.28,0,0,0-.18-2,.73.73,0,0,0-.41-.32Z" style="fill:#407BFF"></path><path d="M84.42,403.57l6.18,2a.53.53,0,0,1,.36.55l-.52,5.4a.88.88,0,0,1-1,.79l-.18,0c-2.22-.77-4.16-1.54-6.94-2.44-3.27-1.07-2.57-.4-6.44-1.6-2.33-.73-1.9-3.51-.87-3.32,4.69.91,5.6-.3,7.86-1.35A2.15,2.15,0,0,1,84.42,403.57Z" style="fill:#263238"></path><path d="M124.66,230.39s.49-3.4-.81-5.06-4.83-4-5.6-8.91c0,0-3.46,3.6-6.45,3.67s3.93-7.84,7.43-6.42c0,0,10.46-1.69,11.53,8.33C131.56,229.6,124.66,230.39,124.66,230.39Z" style="fill:#2e353a"></path><path d="M110.78,258.82l-3-4.32a3.51,3.51,0,0,1-.71-2.8,2.43,2.43,0,0,1,3-1.91c1.37.25,1.7.94,2.31,2,1-.74,1.6-1.28,3-1a2.18,2.18,0,0,1,1.92,2.76,3.88,3.88,0,0,1-1.84,2.35Z" style="fill:#407BFF"></path><path d="M117.24,253.49a3.46,3.46,0,0,1-1.13,1.82l-8.76-1.55a3.27,3.27,0,0,1-.28-2.06,2.52,2.52,0,0,1,.12-.39l10.11,1.79A2.63,2.63,0,0,1,117.24,253.49Z" style="fill:#fff;opacity:0.2"></path><path d="M116.08,255.33a4.64,4.64,0,0,1-.68.51l-2.18,1.41-4-.71-1.41-2a4.8,4.8,0,0,1-.42-.7Z" style="fill:#fff;opacity:0.4"></path><polygon points="110.78 258.82 109.22 256.58 113.18 257.27 110.78 258.82" style="fill:#fff;opacity:0.6000000000000001"></polygon><path d="M121.32,229.11s-5.22-3.31-8.63-3.53-3.26.24-3.26.24a7.92,7.92,0,0,0,4.4,10.51s5.49-.16,7.49-2.07C121.32,234.26,120.44,232.48,121.32,229.11Z" style="fill:#407BFF"></path><path d="M121.32,229.11s-5.22-3.31-8.63-3.53-3.26.24-3.26.24a7.92,7.92,0,0,0,4.4,10.51s5.49-.16,7.49-2.07C121.32,234.26,120.44,232.48,121.32,229.11Z" style="fill:#fff;opacity:0.5"></path><path d="M120.38,229.89s-5.58-3.1-7.92-3.13a6.33,6.33,0,0,0-3.31.6,9.63,9.63,0,0,0-.16,1.87s1.92-1.56,11.29,1.83Z" style="fill:#fff;opacity:0.2"></path><path d="M120.28,231.63s-8.11-2.87-11.06-1.24a9.22,9.22,0,0,0,1.46,3.25s2.78-1.53,9.7-.72Z" style="fill:#fff;opacity:0.2"></path><path d="M120.56,233.33s-7.68-.49-8.78,1.17l1.3.95a16.1,16.1,0,0,0,7.65-1.61Z" style="fill:#fff;opacity:0.2"></path><path d="M121,234.54c4.2-.76,4.68-4.2,4.59-6.19a.73.73,0,0,0-.39-.67c-1.05-.55-4,1.26-4.33,1.47l.19.29c.85-.53,3.24-1.85,4-1.45.08,0,.19.12.2.38.09,1.87-.36,5.12-4.31,5.83Z" style="fill:#263238"></path><path d="M126.63,231.12a4.19,4.19,0,0,1-2.76,1.62c-1.45.19-2-1.16-1.4-2.43s1.91-2.6,3.29-2.21a1.89,1.89,0,0,1,1.22,2.37A1.78,1.78,0,0,1,126.63,231.12Z" style="fill:#ebb376"></path><path d="M118.73,214.88s-2.28,2.3,2,8.83c3.47,5.34,2.37,7.92,2.37,7.92s4.55-2.75,1.1-7.11C122.18,222,120.1,220.59,118.73,214.88Z" style="fill:#407BFF"></path></g><g id="freepik--character-2--inject-197"><polygon points="276.87 163.98 169.2 171.98 169.2 214.27 171.2 216.27 278.87 208.27 278.87 165.98 276.87 163.98" style="fill:#407BFF"></polygon><polygon points="276.87 206.27 169.2 214.27 169.2 171.98 276.87 163.98 276.87 206.27" style="fill:#fff;opacity:0.2"></polygon><polygon points="276.87 206.27 169.2 214.27 169.2 171.98 276.87 163.98 276.87 206.27" style="fill:#fff;opacity:0.1"></polygon><polygon points="169.2 199.56 169.2 214.27 276.87 206.27 276.87 191.56 169.2 199.56" style="opacity:0.1"></polygon><polygon points="169.2 208.2 169.2 214.27 276.87 206.27 276.87 200.2 169.2 208.2" style="fill:#fff;opacity:0.4"></polygon><polygon points="169.2 189.99 276.87 181.99 276.87 163.98 169.2 171.98 169.2 189.99" style="fill:#fff;opacity:0.2"></polygon><polygon points="169.2 179.77 276.87 171.77 276.87 163.98 169.2 171.98 169.2 179.77" style="fill:#fff;opacity:0.2"></polygon><path d="M184.77,219.88s-3.78,24.74-.53,27.37,18,6.81,18,6.81l2.42-8.39-15.06-4.3-.21-21.16,2.9-5A2.79,2.79,0,0,0,192,212l-.37-.44a2.81,2.81,0,0,0-3.23-.79l-3,1.25a2.8,2.8,0,0,0-1.67,3.21Z" style="fill:#ffc3bd"></path><path d="M209.11,244.34A112.17,112.17,0,0,1,197,242.41a28.34,28.34,0,0,0-2.64,10.41s8.92,2.82,12,1.07S209.11,244.34,209.11,244.34Z" style="fill:#263238"></path><path d="M198.87,242.14l-2.59-.53s-2.78,2.59-3,11.49l2.45.7S196.65,245.91,198.87,242.14Z" style="fill:#263238"></path><path d="M198.87,242.14l-2.59-.53s-2.78,2.59-3,11.49l2.45.7S196.65,245.91,198.87,242.14Z" style="fill:#fff;opacity:0.30000000000000004"></path><path d="M201.14,247a20.35,20.35,0,0,0-2.66,6.86,23.19,23.19,0,0,0,5.42.57l1.09-3.71S203.18,244.06,201.14,247Z" style="opacity:0.30000000000000004"></path><g style="opacity:0.9"><path d="M179,183l-2-2.91a2.38,2.38,0,0,1-.47-1.88,1.63,1.63,0,0,1,2-1.28c.92.16,1.15.63,1.56,1.32.67-.5,1.07-.86,2-.69a1.47,1.47,0,0,1,1.3,1.85,2.6,2.6,0,0,1-1.24,1.58Z" style="fill:#fff"></path></g><path d="M177.56,196.64l-1.62-2.34a2,2,0,0,1-.39-1.52,1.31,1.31,0,0,1,1.61-1c.74.13.92.51,1.25,1.06a1.82,1.82,0,0,1,1.61-.56,1.18,1.18,0,0,1,1,1.5,2.1,2.1,0,0,1-1,1.28Z" style="fill:#407BFF"></path><g style="opacity:0.9"><path d="M264.9,189.25l-2.83-2.11a2.34,2.34,0,0,1-1-1.62,1.61,1.61,0,0,1,1.47-1.84c.92-.14,1.28.23,1.88.75.48-.68.75-1.15,1.67-1.29a1.46,1.46,0,0,1,1.81,1.35,2.57,2.57,0,0,1-.67,1.88Z" style="fill:#fff"></path></g><path d="M268.59,202l-2.26-3.77a3,3,0,0,1-.42-2.38,2,2,0,0,1,2.57-1.42c1.13.28,1.37.88,1.82,1.77a2.77,2.77,0,0,1,2.53-.69,1.83,1.83,0,0,1,1.45,2.42,3.25,3.25,0,0,1-1.67,1.85Z" style="fill:#407BFF"></path><path d="M221.1,343.61s1.46,10.07,1.82,13.41c1.45,13.4,8.41,53.23,8.41,53.23L238,410s.39-31.87-2.4-47.22c-.52-2.89-1.61-5-1.94-6.59s.25-2.66.57-6.92c.15-2,.31-4.34.47-6.92Z" style="fill:#ffc3bd"></path><path d="M196.29,341l-8.86,64.74,6.39,1.4s9.17-26.25,11-43.43c.29-2.7,0-5.19.25-7.29.25-1.75.93-2.59,2.33-6.68.63-1.82,1.35-4,2.12-6.27Z" style="fill:#ffc3bd"></path><path d="M184.74,404.12a2.86,2.86,0,0,1-1.75-1,.6.6,0,0,1,.19-.65.83.83,0,0,1,.57-.23c1.15,0,3,1.86,3.11,1.95a.14.14,0,0,1,0,.17.15.15,0,0,1-.15.09A11.15,11.15,0,0,1,184.74,404.12Zm-.68-1.51a1,1,0,0,0-.3,0,.39.39,0,0,0-.35.13c-.17.16-.15.26-.12.32.18.5,1.79.94,3,1.11A7.17,7.17,0,0,0,184.06,402.61Z" style="fill:#407BFF"></path><path d="M186.72,404.45a.06.06,0,0,1-.07,0c-.67-.54-1.83-2.33-1.5-3,.06-.16.25-.34.68-.27a1.16,1.16,0,0,1,.77.48,4.56,4.56,0,0,1,.33,2.74.22.22,0,0,1-.11.12A.17.17,0,0,1,186.72,404.45Zm-.87-3-.08,0c-.28-.05-.33.06-.35.09-.16.43.56,1.78,1.22,2.46a3.67,3.67,0,0,0-.32-2.19.83.83,0,0,0-.47-.33Z" style="fill:#407BFF"></path><path d="M187.63,403.75l7,1.87a.58.58,0,0,1,.43.58l-.26,6a1,1,0,0,1-1,.93.64.64,0,0,1-.2,0c-2.5-.72-4.7-1.45-7.82-2.29-3.69-1-2.87-.3-7.22-1.4-2.62-.66-2.3-3.76-1.16-3.61,5.24.72,6.18-.67,8.62-1.95A2.3,2.3,0,0,1,187.63,403.75Z" style="fill:#263238"></path><path d="M228.48,406.43a2.84,2.84,0,0,1-1.95-.45.57.57,0,0,1,0-.68.77.77,0,0,1,.48-.38c1.09-.33,3.43.93,3.53,1a.15.15,0,0,1,.08.16.16.16,0,0,1-.12.13A10.6,10.6,0,0,1,228.48,406.43Zm-1.08-1.26a1,1,0,0,0-.3.05.44.44,0,0,0-.3.23c-.11.19-.07.29,0,.34.31.42,2,.39,3.21.21A7.63,7.63,0,0,0,227.4,405.17Z" style="fill:#407BFF"></path><path d="M230.47,406.2a.07.07,0,0,1-.06,0c-.8-.33-2.42-1.72-2.3-2.47,0-.18.14-.4.57-.45a1.16,1.16,0,0,1,.88.25,4.45,4.45,0,0,1,1.09,2.53.16.16,0,0,1-.07.14A.14.14,0,0,1,230.47,406.2Zm-1.67-2.64h-.09c-.28,0-.3.14-.31.18,0,.45,1,1.55,1.86,2a3.56,3.56,0,0,0-.92-2,.83.83,0,0,0-.54-.19Z" style="fill:#407BFF"></path><path d="M231.15,405.26l7.2-.17a.58.58,0,0,1,.58.44l1.44,5.84a1,1,0,0,1-.7,1.17.64.64,0,0,1-.2,0c-2.6,0-4.91-.08-8.15,0-3.81.09-2.83.53-7.32.69-2.7.1-3.27-3-2.12-3.14,5.23-.78,5.74-2.37,7.72-4.3A2.31,2.31,0,0,1,231.15,405.26Z" style="fill:#263238"></path><path d="M210.53,343.46c3.64-11,8.46-26.41,10.12-36l1.28-17.9-19.42.22-.53,3.09L195.27,341Z" style="fill:#407BFF"></path><path d="M213.09,304.38l3.65-2.13,3.55,7.12c-1.07,5.38-2.92,12.16-4.94,18.89C212.72,318.53,213.09,304.38,213.09,304.38Z" style="opacity:0.1"></path><path d="M235.14,342.3c1-15.89,1.82-40.93-1.86-49.79l-1.17-4.32-20.65,2s.07,2.78.13,3.71c.2,3.35,1.22,13.37,1.22,13.37a24.4,24.4,0,0,0,2.67,9.1l1.85,3.56,3.22,23.73Z" style="fill:#407BFF"></path><path d="M235.69,242.68l13.7-5.72,3.3-22.18-1.85-5.73a2.52,2.52,0,0,1,1-2.86l.55-.38a2.53,2.53,0,0,1,3.29.37l2.49,2.69a2.52,2.52,0,0,1,.46,2.73l-1.68,3.86s1.66,23.5-1.41,26.6-18.16,10.24-18.16,10.24Z" style="fill:#ffc3bd"></path><path d="M231.61,242.27c2.89-.51,5-1.11,11.09-3.84l2.9,10.39s-8.07,4.93-12.19,4.52C228.48,252.86,228.5,242.82,231.61,242.27Z" style="fill:#263238"></path><polygon points="240.3 238.43 243.75 250.63 246.69 249.04 243.44 238.1 240.3 238.43" style="fill:#263238"></polygon><polygon points="240.3 238.43 243.75 250.63 246.69 249.04 243.44 238.1 240.3 238.43" style="fill:#fff;opacity:0.30000000000000004"></polygon><path d="M231.91,248.38c0,.09.81-2.48.81-2.48L237,245s.12,6.61,5.31,5.64c-2.71,1.36-6.46,3-8.87,2.71a3.66,3.66,0,0,1-.81-.18C232.27,251,231.91,248.32,231.91,248.38Z" style="opacity:0.30000000000000004"></path><path d="M234.2,292.79l3.12-48.26a2.72,2.72,0,0,0-3-2.87l-29.6,2.77a4.43,4.43,0,0,0-4,4.43l.24,45S215.54,296.89,234.2,292.79Z" style="fill:#263238"></path><polygon points="235.81 340.66 219.59 342.39 220.02 345.27 235.91 343.64 235.81 340.66" style="fill:#407BFF"></polygon><polygon points="235.81 340.66 219.59 342.39 220.02 345.27 235.91 343.64 235.81 340.66" style="fill:#fff;opacity:0.30000000000000004"></polygon><polygon points="211.78 342.1 194.44 339.12 194.08 342.1 210.58 345.01 211.78 342.1" style="fill:#407BFF"></polygon><polygon points="211.78 342.1 194.44 339.12 194.08 342.1 210.58 345.01 211.78 342.1" style="fill:#fff;opacity:0.30000000000000004"></polygon><path d="M220,327.19a1.74,1.74,0,0,0,1.63-1.57s2.25.82,3.5-.6c0,0,2.58.63,3.79,0,0,0,1.58,2,3,1.78,0,0-1.94.47-2.37,1.18,0,0-2.44-.79-3.14,0,0,0-2.45-.49-3.49.28,0,0-2.74-.23-3.54.26C219.37,328.52,220.12,327.69,220,327.19Z" style="fill:#407BFF"></path><path d="M220,327.19a1.74,1.74,0,0,0,1.63-1.57s2.25.82,3.5-.6c0,0,2.58.63,3.79,0,0,0,1.58,2,3,1.78,0,0-1.94.47-2.37,1.18,0,0-2.44-.79-3.14,0,0,0-2.45-.49-3.49.28,0,0-2.74-.23-3.54.26C219.37,328.52,220.12,327.69,220,327.19Z" style="fill:#fff;opacity:0.5"></path><path d="M220.29,328a9,9,0,0,1,10.58-1.08Z" style="fill:#ffc3bd"></path><path d="M199,326a1.74,1.74,0,0,0,1.91-1.21s2,1.27,3.55.13c0,0,2.4,1.14,3.71.77,0,0,1.15,2.25,2.58,2.35,0,0-2,.07-2.56.68,0,0-2.23-1.27-3.08-.64,0,0-2.29-1-3.47-.44,0,0-2.64-.77-3.52-.46C198.14,327.21,199,326.55,199,326Z" style="fill:#407BFF"></path><path d="M199,326a1.74,1.74,0,0,0,1.91-1.21s2,1.27,3.55.13c0,0,2.4,1.14,3.71.77,0,0,1.15,2.25,2.58,2.35,0,0-2,.07-2.56.68,0,0-2.23-1.27-3.08-.64,0,0-2.29-1-3.47-.44,0,0-2.64-.77-3.52-.46C198.14,327.21,199,326.55,199,326Z" style="fill:#fff;opacity:0.5"></path><path d="M199.15,326.87A9,9,0,0,1,209.73,328Z" style="fill:#ffc3bd"></path><path d="M197.64,331.43a1.75,1.75,0,0,0,2.06-.95s1.85,1.52,3.5.6c0,0,2.23,1.45,3.57,1.26,0,0,.84,2.38,2.24,2.67,0,0-2-.2-2.62.33,0,0-2-1.56-3-1,0,0-2.15-1.27-3.39-.9,0,0-2.51-1.12-3.43-.92C196.61,332.48,197.59,331.94,197.64,331.43Z" style="fill:#407BFF"></path><path d="M197.64,331.43a1.75,1.75,0,0,0,2.06-.95s1.85,1.52,3.5.6c0,0,2.23,1.45,3.57,1.26,0,0,.84,2.38,2.24,2.67,0,0-2-.2-2.62.33,0,0-2-1.56-3-1,0,0-2.15-1.27-3.39-.9,0,0-2.51-1.12-3.43-.92C196.61,332.48,197.59,331.94,197.64,331.43Z" style="fill:#fff;opacity:0.5"></path><path d="M197.66,332.27A9,9,0,0,1,208,334.76Z" style="fill:#ffc3bd"></path><path d="M221.29,334.31a1.58,1.58,0,0,0,1.48-1.43s2,.75,3.18-.54c0,0,2.34.57,3.44,0,0,0,1.43,1.79,2.72,1.61,0,0-1.76.43-2.15,1.07,0,0-2.22-.71-2.85,0,0,0-2.22-.44-3.17.26,0,0-2.49-.21-3.21.24C220.73,335.52,221.41,334.76,221.29,334.31Z" style="fill:#407BFF"></path><path d="M221.29,334.31a1.58,1.58,0,0,0,1.48-1.43s2,.75,3.18-.54c0,0,2.34.57,3.44,0,0,0,1.43,1.79,2.72,1.61,0,0-1.76.43-2.15,1.07,0,0-2.22-.71-2.85,0,0,0-2.22-.44-3.17.26,0,0-2.49-.21-3.21.24C220.73,335.52,221.41,334.76,221.29,334.31Z" style="fill:#fff;opacity:0.5"></path><path d="M221.57,335a8.14,8.14,0,0,1,9.6-1Z" style="fill:#ffc3bd"></path><path d="M215,214.86a18.86,18.86,0,0,1-7.16-.25s4.08,4.5,7.45,2.08Z" style="fill:#263238"></path><path d="M215,214.86a18.86,18.86,0,0,1-7.16-.25s4.08,4.5,7.45,2.08Z" style="opacity:0.6000000000000001"></path><path d="M211.15,243.83l1-.09a2.43,2.43,0,0,0,1.8-1.06c1.33-1.94,1.16-4.76.64-7.05l9.78-6.85c-.88,3.46-1.76,9.1-.8,13.1.24,1,.87.71.87.71.16,1.66,3.06,5-5.1,5.32C211.31,248.17,209.06,245.91,211.15,243.83Z" style="fill:#ffc3bd"></path><path d="M220.35,231.58l-5.79,4a13.28,13.28,0,0,1,.38,2.58c2.09.42,5.23-1.56,5.53-3.6A8.75,8.75,0,0,0,220.35,231.58Z" style="opacity:0.2;isolation:isolate"></path><path d="M225.64,224.71c-1.31,5.5-1.81,8.79-5.11,11.12-5,3.51-11.39-.3-11.75-6.09-.32-5.22,1.89-13.33,7.72-14.55a7.79,7.79,0,0,1,9.21,6.05A7.68,7.68,0,0,1,225.64,224.71Z" style="fill:#ffc3bd"></path><path d="M213.66,223.23a16.36,16.36,0,0,1-2.84,3.47,2.63,2.63,0,0,0,2.09.8Z" style="fill:#ed847e"></path><path d="M217.17,223.86c-.06.42-.35.73-.63.67s-.44-.41-.37-.83.35-.74.64-.67S217.25,223.44,217.17,223.86Z" style="fill:#2e353a"></path><path d="M212.37,223.21c-.07.43-.35.74-.63.67s-.44-.4-.38-.83.36-.73.64-.67S212.44,222.79,212.37,223.21Z" style="fill:#2e353a"></path><path d="M218.92,222.51a.22.22,0,0,0,.24-.33h0a2.45,2.45,0,0,0-1.86-1.34.25.25,0,0,0-.27.23h0a.25.25,0,0,0,.23.27h0a2,2,0,0,1,1.46,1A.23.23,0,0,0,218.92,222.51Z" style="fill:#2e353a"></path><path d="M210.59,221.29a.23.23,0,0,0,.2-.11,2.1,2.1,0,0,1,1.61-.93.26.26,0,0,0,0-.51h0a2.61,2.61,0,0,0-2,1.16.24.24,0,0,0,.06.34h0A.24.24,0,0,0,210.59,221.29Z" style="fill:#2e353a"></path><path d="M211.89,230.1a35.86,35.86,0,0,1,6.21.19c-.68,1.19-1.79,2.11-4.12,1.89S211.89,230.1,211.89,230.1Z" style="fill:#2e353a"></path><path d="M215.17,231.31a4.65,4.65,0,0,0-2.6.37,2.65,2.65,0,0,0,1.41.5,4.64,4.64,0,0,0,2.6-.38A2.55,2.55,0,0,0,215.17,231.31Z" style="fill:#de5753"></path><path d="M212.1,230.08a.87.87,0,0,0,.64.68,27.51,27.51,0,0,0,4.06,0,1.36,1.36,0,0,0,1.09-.51A43,43,0,0,0,212.1,230.08Z" style="fill:#fff"></path><path d="M208.18,227.51s3.25-3.44,5.25-3A85.65,85.65,0,0,1,222,228s-.81,3.88,0,5.75a10.22,10.22,0,0,1-8.45,3.06C208.43,236.13,208.18,227.51,208.18,227.51Z" style="fill:#263238"></path><path d="M212.88,224.51c-2,.14-4.7,3-4.7,3s.25,8.62,5.36,9.3a7.72,7.72,0,0,0,1.16.08C210.67,231.07,211.87,226.59,212.88,224.51Z" style="fill:#fff;opacity:0.1"></path><path d="M221.77,234h-.29l0-.35a3.46,3.46,0,0,0,3-1.27,5,5,0,0,0,1-4.18,1.07,1.07,0,0,0-.64-.82c-1.12-.42-3.2,1-3.22,1l-.2-.28c.09-.07,2.25-1.57,3.54-1.09a1.42,1.42,0,0,1,.86,1.06,5.38,5.38,0,0,1-1.06,4.5A3.79,3.79,0,0,1,221.77,234Z" style="fill:#407BFF"></path><path d="M227.7,221.29l-2.25,6.86-2.42.68s.73-4,0-5.05,0-4.47,0-4.47l3.09.43Z" style="fill:#263238"></path><path d="M227.7,221.29l-2.25,6.86-2.42.68s.73-4,0-5.05,0-4.47,0-4.47l3.09.43Z" style="fill:#fff;opacity:0.5"></path><path d="M227.7,221.29s-18-1.54-18.29-10a11.08,11.08,0,0,0,7.48.94C220.74,211.13,230.6,216.21,227.7,221.29Z" style="fill:#263238"></path><path d="M227.32,230.64a5.34,5.34,0,0,1-3.58,2c-1.87.2-2.51-1.56-1.74-3.16s2.5-3.3,4.26-2.75A2.42,2.42,0,0,1,227.32,230.64Z" style="fill:#ffc3bd"></path><path d="M212.57,245.31s-2.7.73-1.95,8.06-1.5,17.38-1.5,17.38,3.12-1.56,5.68.31,3.94-1.06,3.94-1.06-4.68-17.25-1.43-20.09S212.57,245.31,212.57,245.31Z" style="fill:#407BFF"></path><path d="M212.57,245.31s-2.7.73-1.95,8.06-1.5,17.38-1.5,17.38,3.12-1.56,5.68.31,3.94-1.06,3.94-1.06-4.68-17.25-1.43-20.09S212.57,245.31,212.57,245.31Z" style="fill:#fff;opacity:0.4"></path><path d="M213.2,251.9s-1.44,1.25-.63,5.16-1.43,9.48.19,12c.19.3,1.32.5,1.32.5a.63.63,0,0,0,.85-.63,122.07,122.07,0,0,0-1.28-12.28A14.23,14.23,0,0,1,213.2,251.9Z" style="opacity:0.1"></path><path d="M213.66,243.6a14.14,14.14,0,0,0,9.73-2.82,1.28,1.28,0,0,1,1-.24,1.94,1.94,0,0,1,1.46,1.53,2.14,2.14,0,0,1,1.69,0,.65.65,0,0,1,.27.7c-.3,1.35-1.68,5.83-6.59,6.38C215.45,249.81,213.66,243.6,213.66,243.6Z" style="fill:#407BFF"></path><path d="M213.66,243.6a14.14,14.14,0,0,0,9.73-2.82,1.28,1.28,0,0,1,1-.24,1.94,1.94,0,0,1,1.46,1.53,2.14,2.14,0,0,1,1.69,0,.65.65,0,0,1,.27.7c-.3,1.35-1.68,5.83-6.59,6.38C215.45,249.81,213.66,243.6,213.66,243.6Z" style="fill:#fff;opacity:0.5"></path><path d="M223,244.37a11.83,11.83,0,0,0,2.38-1.56S225.66,245.21,223,244.37Z" style="opacity:0.1"></path><path d="M212.57,242.41c3,1.72,9.82,4.4,13.31,4s-5.2,5.29-5.2,5.29-1.33,2.85-3.49,1.64S205.7,243,210,242.9C210,242.9,210.71,241.36,212.57,242.41Z" style="fill:#407BFF"></path><path d="M212.57,242.41c3,1.72,9.82,4.4,13.31,4s-5.2,5.29-5.2,5.29-1.33,2.85-3.49,1.64S205.7,243,210,242.9C210,242.9,210.71,241.36,212.57,242.41Z" style="fill:#fff;opacity:0.6000000000000001"></path><path d="M211.15,243.83s1.4,3.68,7.62,6.42a1.48,1.48,0,0,0,1.61-.26l.87-.81S217.35,249.35,211.15,243.83Z" style="opacity:0.1"></path></g><g id="freepik--Text--inject-197"><path d="M197.89,183.11a4.82,4.82,0,0,1,2.38,1.78,5.13,5.13,0,0,1,.84,3,5.82,5.82,0,0,1-.84,3.11,6,6,0,0,1-2.38,2.2,9.44,9.44,0,0,1-3.65,1l-3.19.28v4.36l-3.66.32V183.33l6.85-.6A8.62,8.62,0,0,1,197.89,183.11Zm-1.35,7.18a2.7,2.7,0,0,0,.86-2.09,2.32,2.32,0,0,0-.86-2,3.68,3.68,0,0,0-2.51-.49l-3,.26v5.49l3-.26A4.08,4.08,0,0,0,196.54,190.29Z" style="fill:#263238"></path><path d="M213.79,196.84l-3-4.14-.19,0-3.18.28v4.4l-3.66.32V181.9l6.84-.6a8.58,8.58,0,0,1,3.65.38,4.82,4.82,0,0,1,2.39,1.79,5.09,5.09,0,0,1,.83,3,5.78,5.78,0,0,1-.84,3.12,6.11,6.11,0,0,1-2.41,2.16l3.55,4.78Zm-.93-12a3.62,3.62,0,0,0-2.51-.5l-3,.27v5.51l3-.26a4.14,4.14,0,0,0,2.51-.94,2.77,2.77,0,0,0,.86-2.11A2.29,2.29,0,0,0,212.86,184.8Z" style="fill:#263238"></path><path d="M220.32,180.45l3.66-.32V196l-3.66.32Z" style="fill:#263238"></path><path d="M227.73,179.8l7.19-.63a9.65,9.65,0,0,1,4.55.59,6.45,6.45,0,0,1,3.07,2.5,7.21,7.21,0,0,1,1.1,4.06,8.19,8.19,0,0,1-1.1,4.25,8.29,8.29,0,0,1-3.07,3,10.74,10.74,0,0,1-4.55,1.38l-7.19.63Zm7,12.2a5.81,5.81,0,0,0,3.78-1.65,5.08,5.08,0,0,0,1.41-3.71,4.27,4.27,0,0,0-1.41-3.45,5,5,0,0,0-3.78-1l-3.35.3v9.81Z" style="fill:#263238"></path><path d="M258.65,190v2.94L246.4,194V178.17l12-1v2.94l-8.31.73v3.43l7.34-.64v2.85l-7.34.64v3.66Z" style="fill:#263238"></path></g></svg>