<svg xmlns="http://www.w3.org/2000/svg" viewBox="0 0 500 500"><g id="freepik--Floor--inject-189"><g id="freepik--floor--inject-189"><g id="freepik--Grass--inject-189"><ellipse id="freepik--grass--inject-189" cx="250" cy="349.81" rx="231.53" ry="133.67" style="fill:#fafafa"></ellipse></g><path d="M285.29,265.91c18.92,4.14-6.2,8.39,6,14.87,8.11,4.3,18.1,2.4,26.62,6.11-2.24.61-13.76,1-14.14,4.58-.5,4.6,10.49,6.85,13.56,7.62,7.61,1.91,17.4,3.75,25.18,2.54,6.73-1,10.77-6.31,4.14-11.39,10-.36,21.6,5.79,31.25,8.48.43,3.64-3.34,2.81-4,5.38-1.28,4.89,3.75,6.74,7.3,8.56s19.54,7.57,18.89-.78c5.89,5.77,39.34,17.46,42.9,8.59,2.9-7.25-12.36-12.2-13.18-18.91,8.44-2.89,15.4,2,22.47,6.11a72.18,72.18,0,0,0,21.4,7.61c-10.14-22-30.13-42.75-60-60-71.79-41.45-179-50-265.39-25.61a15.39,15.39,0,0,0,1.71,2.2c7.23,7.8,21.09,13.14,30.62,17.22,21.33,9.13,48.51,9.61,71.47,11.89A291.79,291.79,0,0,1,285.29,265.91Zm-44.76.44c-2.81.14-7.92.1-9.93,2.62-7.22,9.08,16,13,20.72,13.54,4.2.45,18.93,2.71,19.67-3.51C272.07,269.88,246.63,266.05,240.53,266.35Zm213.61,86.71c6.52-.21,8.41-5,5.4-10.74-4-7.77-14.71-9.08-22.32-10.68-7.91-1.67-17-2.24-24.66-4.7-5.07-1.63-9.28-6.67-13.88-3.45-2.15,1.51-2.47,4.34-5.42,5.37-3.54,1.23-6.5-.39-9.48-2.14-5.87-3.45-10.76-8.25-16.36-12-12.63-8.33-24.71-1.26-38.11-4.29-6.82-1.54-48.42-21.2-52.51-10.11-2.17,5.87,23.29,12.13,27.58,12.75,2.32.33,7.68.11,9.44,1.88,1.59,1.58.67,5.58,1.69,7.54,2.86,5.48,13.2,7.6,18.93,7.71,5.31.11,8.85-7.06,12.29-6.62,2.63.34,1.85,2.54,2.64,4.44,1.84,4.42,1.92,7,6.51,9.53,7.86,4.26,16.8,8.09,25.65,9.47,9.88,1.54,25.35,9,35.06,5.89,4.49-1.41,2.62-4.61,5.35-7s7.11-1.82,10.33-.89C439.93,347.22,445.54,353.33,454.14,353.06Zm.14,10.64c-8.68-3.14-19.28-3.78-21.89,1.21-5.54,10.62,36.07,25,34,8.41C465.89,369.6,460.59,366,454.28,363.7Z" style="fill:#f5f5f5"></path></g></g><g id="freepik--Shadows--inject-189"><ellipse id="freepik--Shadow--inject-189" cx="353.55" cy="401.17" rx="78.79" ry="45.49" style="fill:#ebebeb"></ellipse><ellipse id="freepik--shadow--inject-189" cx="153.35" cy="401.17" rx="85.7" ry="49.48" style="fill:#ebebeb"></ellipse></g><g id="freepik--Plants--inject-189"><g id="freepik--plants--inject-189"><g id="freepik--Plant--inject-189"><path d="M415.9,346.82a20.37,20.37,0,0,1,2.85,1.5,18.34,18.34,0,0,1,2.53,2.12,23.64,23.64,0,0,1,4,5.41,16.58,16.58,0,0,1,2,11.93,16.43,16.43,0,0,1-3.13,7.16c-.21.26-.4-.07-.3-.29,2.2-4.67,3.59-10.22,1.78-15.25a24.81,24.81,0,0,0-3.74-6.58,26.88,26.88,0,0,0-2.72-3c-.43-.42-.88-.83-1.34-1.22a24.56,24.56,0,0,0-1.93-1.61s-.06-.19,0-.15Z" style="fill:#37474f"></path><path d="M418,342.36a1.63,1.63,0,1,0,2.27.4A1.62,1.62,0,0,0,418,342.36Z" style="fill:#BA68C8"></path><path d="M412.28,348.06a1.63,1.63,0,1,0,2.27.4A1.63,1.63,0,0,0,412.28,348.06Z" style="fill:#BA68C8"></path><path d="M412.29,340a1.35,1.35,0,0,0,1.55,2.22,1.35,1.35,0,1,0-1.55-2.22Z" style="fill:#BA68C8"></path><path d="M406.5,340.71a1.35,1.35,0,1,0,1.88.34A1.35,1.35,0,0,0,406.5,340.71Z" style="fill:#BA68C8"></path><path d="M406.6,335.38a1.35,1.35,0,1,0,1.88.33A1.35,1.35,0,0,0,406.6,335.38Z" style="fill:#BA68C8"></path></g><g id="freepik--Flower--inject-189"><path d="M438.15,375.34l.09,0a.31.31,0,0,0,.09-.43c-6.78-10.4-6.23-24,1.45-35.5a.33.33,0,0,0-.09-.44.31.31,0,0,0-.44.09c-7.81,11.71-8.36,25.58-1.44,36.19A.32.32,0,0,0,438.15,375.34Z" style="fill:#455a64"></path><path d="M433.23,357.23a.32.32,0,0,1-.19-.31c.33-3.9,3.7-11.16,9.28-11.73,3.53-.36,4.53,1.52,4.79,2.35a4.15,4.15,0,0,1-1.93,4.7,15.18,15.18,0,0,1-4.16,1.37c-2.5.57-5.09,1.16-7.44,3.55a.31.31,0,0,1-.14.09A.3.3,0,0,1,433.23,357.23Zm7.65-4.23a15,15,0,0,0,4-1.3,3.52,3.52,0,0,0,1.64-4c-.46-1.44-2-2.13-4.12-1.91-5.13.53-8,6.88-8.6,10.28a12.88,12.88,0,0,1,5.5-2.72C439.83,353.24,440.36,353.12,440.88,353Z" style="fill:#455a64"></path><path d="M433.44,357.25a.32.32,0,0,0,.22-.23c.78-3.08,5.33-7.43,9.54-8.14a.33.33,0,0,0,.26-.36.32.32,0,0,0-.36-.26c-4.05.67-9.13,5-10.05,8.61a.31.31,0,0,0,.23.38Z" style="fill:#455a64"></path><path d="M433.75,353.41a.32.32,0,0,1-.29-.31c0-2.08-4-5.67-6.78-7.57a6.37,6.37,0,0,1-2.84-4.91,3.87,3.87,0,0,1,1.88-3.26,3.23,3.23,0,0,1,3.65.08c3,1.84,5.66,8,4.72,15.7a.31.31,0,0,1-.24.26Zm-7.68-15.53a3.23,3.23,0,0,0-1.6,2.74A5.7,5.7,0,0,0,427,345c.24.17,5,3.53,6.57,6.45.4-6.7-1.95-11.87-4.57-13.49a2.87,2.87,0,0,0-2.21-.44A2.58,2.58,0,0,0,426.07,337.88Z" style="fill:#455a64"></path><path d="M433.85,353.4a.32.32,0,0,0,.24-.31c-.18-5.77-4.47-11.86-6.07-13.21a.32.32,0,0,0-.44,0,.31.31,0,0,0,0,.44c1.54,1.3,5.67,7.17,5.84,12.75a.31.31,0,0,0,.32.3Z" style="fill:#455a64"></path><path d="M450,339.27a22.4,22.4,0,0,1-9.75-1.24c-3-4.44-3.95-6.48-4.46-10.57a6.53,6.53,0,0,1,.41-2.91,1.55,1.55,0,0,1,1.87-.81,2.37,2.37,0,0,1,1,1.32q1,2.34,2.11,4.7a11.16,11.16,0,0,1,.15-5.68c.2-.67.61-1.44,1.32-1.45s1.23,1,1.35,1.83a19.83,19.83,0,0,1-.15,6.43,22,22,0,0,1,4.95-4.82,1.53,1.53,0,0,1,1.31-.38c.76.27.63,1.38.29,2.11a14.07,14.07,0,0,1-3.25,4.43,16.6,16.6,0,0,1,7.06-2.18,1.54,1.54,0,0,1,1.1.23c.57.52.07,1.46-.49,2a13.61,13.61,0,0,1-5.34,2.95c1.34,0,4.42.19,4.64,1.28S452.13,339.05,450,339.27Z" style="fill:#BA68C8"></path></g><g id="freepik--plant--inject-189"><path d="M468.57,384.37a16.6,16.6,0,0,0-1.94-1.33,19.72,19.72,0,0,0-2.68-1.53,17.05,17.05,0,0,0-6.58-1.59,12.68,12.68,0,0,0-6.67,1.5,29.77,29.77,0,0,0-5.35,3.92c-.22.19-.31-.13-.2-.29a14.5,14.5,0,0,1,12.24-6,17.19,17.19,0,0,1,7,1.69,13.23,13.23,0,0,1,2.51,1.61,13.47,13.47,0,0,1,1.74,1.88s0,.17-.05.11Z" style="fill:#37474f"></path><path d="M473.23,382.56a1.39,1.39,0,1,1-.86-1.76A1.38,1.38,0,0,1,473.23,382.56Z" style="fill:#BA68C8"></path><path d="M469.9,388.51a1.38,1.38,0,1,1-2.61-.9,1.38,1.38,0,1,1,2.61.9Z" style="fill:#BA68C8"></path><path d="M476.5,386.61a1.15,1.15,0,1,1-2.18-.75,1.15,1.15,0,0,1,2.18.75Z" style="fill:#BA68C8"></path><path d="M477.24,391.51a1.15,1.15,0,1,1-.71-1.46A1.15,1.15,0,0,1,477.24,391.51Z" style="fill:#BA68C8"></path><path d="M481.56,390.19a1.15,1.15,0,1,1-.71-1.47A1.15,1.15,0,0,1,481.56,390.19Z" style="fill:#BA68C8"></path></g><g id="freepik--Leaf--inject-189"><path d="M431.65,394.79c-3.57-1-11-1.75-15.23-9.44s-.76-22.78,2.59-26.42c2.34-2.55,18.33,5.6,21.92,14.36S441,393.86,431.65,394.79Z" style="fill:#BA68C8"></path><path d="M431.65,394.79c-3.57-1-11-1.75-15.23-9.44s-.76-22.78,2.59-26.42c2.34-2.55,18.33,5.6,21.92,14.36S441,393.86,431.65,394.79Z" style="fill:#fff;opacity:0.4"></path><path d="M434.21,393.12a.3.3,0,0,0,.19-.23c2-12.76-6.91-27.69-12.45-32.46a.3.3,0,0,0-.43,0,.31.31,0,0,0,0,.43c5.44,4.7,14.19,19.37,12.24,31.9a.31.31,0,0,0,.26.35A.29.29,0,0,0,434.21,393.12Z" style="fill:#fff"></path><path d="M428.25,369.09a.35.35,0,0,0,.2-.28.3.3,0,0,0-.3-.31,17.71,17.71,0,0,1-8.67-2.82.3.3,0,0,0-.42.07.31.31,0,0,0,.07.43,18.39,18.39,0,0,0,9,2.93Z" style="fill:#fff"></path><path d="M430,372.19a.27.27,0,0,0,.12-.09,8.29,8.29,0,0,0,2.31-5.56.3.3,0,0,0-.3-.31.32.32,0,0,0-.31.31,7.73,7.73,0,0,1-2.17,5.17.3.3,0,0,0,0,.43A.3.3,0,0,0,430,372.19Z" style="fill:#fff"></path><path d="M431.48,375.54a.32.32,0,0,0,.19-.31.31.31,0,0,0-.34-.28c-4.15.43-9.79-.1-13.15-2.84a.31.31,0,0,0-.39.47c3,2.43,8.07,3.55,13.6,3Z" style="fill:#fff"></path><path d="M433.31,380.61a.21.21,0,0,0,.11-.08,21.69,21.69,0,0,0,4.75-7.87.3.3,0,0,0-.2-.38.31.31,0,0,0-.39.2,21.13,21.13,0,0,1-4.61,7.65.3.3,0,0,0,.34.48Z" style="fill:#fff"></path><path d="M434,383.9a.3.3,0,0,0,.19-.32.29.29,0,0,0-.33-.27,25,25,0,0,1-15.18-2.85.3.3,0,0,0-.42.12.31.31,0,0,0,.12.41,25.93,25.93,0,0,0,15.54,2.93Z" style="fill:#fff"></path></g><g id="freepik--flower--inject-189"><path d="M450.32,362.28a34.9,34.9,0,0,1-.49,7.64,31.14,31.14,0,0,1-2.35,7.12,30.23,30.23,0,0,1-7.65,10.29,19.47,19.47,0,0,1-3.2,2.19,8.52,8.52,0,0,1-3.8,1.29c-.25,0-.31-.29-.16-.46a8.57,8.57,0,0,1,2.59-1.37,18.13,18.13,0,0,0,2.68-1.61,22.45,22.45,0,0,0,4.24-4.08,34.79,34.79,0,0,0,6.6-12.49,31.29,31.29,0,0,0,1.37-8.53c0-.16.17-.15.17,0Z" style="fill:#37474f"></path><path d="M448.66,372.62a21.13,21.13,0,0,0,11.18-6.28c5.18-5.43,6.37-9.44,4.8-12.06a4,4,0,0,0-4.2-2s-.6-3.41-2.51-3.78-4.56,1.85-4.56,1.85-.49-1.89-1.19-2.37-6.92,1.48-8.3,5.64S443.26,368.34,448.66,372.62Z" style="fill:#BA68C8"></path><path d="M448.66,372.62a21.13,21.13,0,0,0,11.18-6.28c5.18-5.43,6.37-9.44,4.8-12.06a4,4,0,0,0-4.2-2s-.6-3.41-2.51-3.78-4.56,1.85-4.56,1.85-.49-1.89-1.19-2.37-6.92,1.48-8.3,5.64S443.26,368.34,448.66,372.62Z" style="opacity:0.25"></path><path d="M447.69,372.11a25.4,25.4,0,0,1-6.43-9.95c-2.37-6.49-1.92-9.52.75-11.63s4.6-.59,3.94,3.05c0,0,1.64-.77,2.58-.06a3.77,3.77,0,0,1,1.25,3.13C449.58,357.31,445.12,365.48,447.69,372.11Z" style="fill:#BA68C8"></path><path d="M447.69,372.11a25.4,25.4,0,0,1-6.43-9.95c-2.37-6.49-1.92-9.52.75-11.63s4.6-.59,3.94,3.05c0,0,1.64-.77,2.58-.06a3.77,3.77,0,0,1,1.25,3.13C449.58,357.31,445.12,365.48,447.69,372.11Z" style="opacity:0.15"></path><path d="M451.07,372.08a22.44,22.44,0,0,0,9.41-1.53c4.32-1.91,7.25-4.71,4.82-6.33,0,0,1.6-1.07,1.07-2.56s-5.51-2.35-8.8-.16S451.07,372.08,451.07,372.08Z" style="fill:#BA68C8"></path><path d="M451.07,372.08a22.44,22.44,0,0,0,9.41-1.53c4.32-1.91,7.25-4.71,4.82-6.33,0,0,1.6-1.07,1.07-2.56s-5.51-2.35-8.8-.16S451.07,372.08,451.07,372.08Z" style="opacity:0.15"></path><path d="M447.69,372.11c-2.26-3-2.74-8.43-2.12-11.55.74-3.78,3.64-7.37,6.67-7.81s5.44,2,5.44,2,2.55-.79,4.21,2.15c1.14,2-1.79,7.17-5,10.65S450.07,372.38,447.69,372.11Z" style="fill:#BA68C8"></path><path d="M447.23,376.35a9,9,0,0,0-2.17-4.82c-1.93-2.35-3.42-4.61-2-5.8s3.56,3.38,3.56,3.38,1.37-3.95,3.34-3.45c2.55.66.59,5.36.59,5.36s3.79-2.16,4.76-.68-.52,2.83-2.73,3.52S447.88,375.44,447.23,376.35Z" style="fill:#37474f"></path><path d="M431,395.42s1.1,4.06,9.06,3.73c8.6-.36,13.85-10.64,22.55-8,0,0-2.49-9-17.75-8.37C430.39,383.34,431,395.42,431,395.42Z" style="fill:#BA68C8"></path><path d="M440.1,399.15c-8,.33-9.06-3.73-9.06-3.73,6.77-12.64,28.91-9.44,31.61-4.31C454,388.51,448.7,398.79,440.1,399.15Z" style="opacity:0.15"></path></g><path id="freepik--Heart--inject-189" d="M465.12,324a3.08,3.08,0,0,1,1.7-1.43h0a3.13,3.13,0,0,1,2.56.24c1.39.78,1.69,2.95,1.1,4.39.93-1.25,2.94-2.13,4.33-1.34a3.12,3.12,0,0,1,1.54,2.06h0a3.17,3.17,0,0,1-.33,2.2c-1.22,2.16-3.89,2.23-6.37,2.71l-2.61.49-.94-2.48C465.24,328.44,463.9,326.11,465.12,324Z" style="fill:#BA68C8;opacity:0.30000000000000004"></path><path id="freepik--heart--inject-189" d="M415.05,324.18a2.12,2.12,0,0,1,0-1.49h0a2.1,2.1,0,0,1,1.24-1.2,2.45,2.45,0,0,1,2.71,1.35,2.48,2.48,0,0,1,1.2-2.79,2.14,2.14,0,0,1,1.72.12h0a2.07,2.07,0,0,1,1,1.12c.57,1.56-.56,2.95-1.39,4.42l-.89,1.54-1.67-.6C417.39,326.07,415.63,325.74,415.05,324.18Z" style="fill:#BA68C8;opacity:0.30000000000000004"></path><path id="freepik--heart--inject-189" d="M479.66,360a2.11,2.11,0,0,1,1.47.26h0a2,2,0,0,1,1,1.41,2.47,2.47,0,0,1-1.77,2.46,2.47,2.47,0,0,1,2.55,1.64,2.13,2.13,0,0,1-.4,1.67h0a2.08,2.08,0,0,1-1.27.78c-1.63.3-2.82-1-4.13-2.1L475.72,365l.87-1.55C477.42,361.94,478,360.26,479.66,360Z" style="fill:#BA68C8;opacity:0.30000000000000004"></path></g><g id="freepik--plants--inject-189"><g id="freepik--plant--inject-189"><path d="M84.1,346.82a20.37,20.37,0,0,0-2.85,1.5,18.34,18.34,0,0,0-2.53,2.12,23.64,23.64,0,0,0-4,5.41,16.58,16.58,0,0,0-2,11.93,16.43,16.43,0,0,0,3.13,7.16c.21.26.4-.07.3-.29C74,370,72.58,364.43,74.39,359.4a24.81,24.81,0,0,1,3.74-6.58,26.88,26.88,0,0,1,2.72-3c.43-.42.88-.83,1.34-1.22A24.56,24.56,0,0,1,84.12,347s.06-.19,0-.15Z" style="fill:#37474f"></path><path d="M82.05,342.36a1.63,1.63,0,1,1-2.27.4A1.62,1.62,0,0,1,82.05,342.36Z" style="fill:#BA68C8"></path><path d="M87.72,348.06a1.63,1.63,0,1,1-2.27.4A1.63,1.63,0,0,1,87.72,348.06Z" style="fill:#BA68C8"></path><path d="M87.71,340a1.35,1.35,0,0,1-1.55,2.22A1.35,1.35,0,1,1,87.71,340Z" style="fill:#BA68C8"></path><path d="M93.5,340.71a1.35,1.35,0,1,1-1.88.34A1.35,1.35,0,0,1,93.5,340.71Z" style="fill:#BA68C8"></path><path d="M93.4,335.38a1.35,1.35,0,1,1-1.88.33A1.35,1.35,0,0,1,93.4,335.38Z" style="fill:#BA68C8"></path></g><g id="freepik--flower--inject-189"><path d="M61.85,375.34l-.09,0a.31.31,0,0,1-.09-.43c6.78-10.4,6.23-24-1.45-35.5a.33.33,0,0,1,.09-.44.31.31,0,0,1,.44.09c7.81,11.71,8.36,25.58,1.44,36.19A.32.32,0,0,1,61.85,375.34Z" style="fill:#455a64"></path><path d="M66.56,357.25a.31.31,0,0,1-.14-.09c-2.35-2.39-4.94-3-7.44-3.55a15.18,15.18,0,0,1-4.16-1.37,4.15,4.15,0,0,1-1.93-4.7c.26-.83,1.26-2.71,4.79-2.35,5.58.57,8.95,7.83,9.28,11.73a.32.32,0,0,1-.19.31A.3.3,0,0,1,66.56,357.25Zm-5.85-3.87a12.88,12.88,0,0,1,5.5,2.72c-.64-3.4-3.47-9.75-8.6-10.28-2.16-.22-3.66.47-4.12,1.91a3.52,3.52,0,0,0,1.64,4,15,15,0,0,0,4,1.3C59.64,353.12,60.17,353.24,60.71,353.38Z" style="fill:#455a64"></path><path d="M66.56,357.25a.32.32,0,0,1-.22-.23c-.78-3.08-5.33-7.43-9.54-8.14a.33.33,0,0,1-.26-.36.32.32,0,0,1,.36-.26c4.05.67,9.13,5,10.05,8.61a.31.31,0,0,1-.23.38Z" style="fill:#455a64"></path><path d="M66.15,353.4a.31.31,0,0,1-.24-.26c-.94-7.73,1.73-13.86,4.72-15.7a3.23,3.23,0,0,1,3.65-.08,3.87,3.87,0,0,1,1.88,3.26,6.37,6.37,0,0,1-2.84,4.91c-2.74,1.9-6.8,5.49-6.78,7.57a.32.32,0,0,1-.29.31Zm7-15.87A2.87,2.87,0,0,0,71,338c-2.62,1.62-5,6.79-4.57,13.49,1.55-2.92,6.33-6.28,6.57-6.45a5.7,5.7,0,0,0,2.57-4.39,3.23,3.23,0,0,0-1.6-2.74A2.58,2.58,0,0,0,73.17,337.53Z" style="fill:#455a64"></path><path d="M66.15,353.4a.32.32,0,0,1-.24-.31c.18-5.77,4.47-11.86,6.07-13.21a.32.32,0,0,1,.44,0,.31.31,0,0,1,0,.44c-1.54,1.3-5.67,7.17-5.84,12.75a.31.31,0,0,1-.32.3Z" style="fill:#455a64"></path><path d="M50,339.27A22.4,22.4,0,0,0,59.75,338c3-4.44,4-6.48,4.46-10.57a6.53,6.53,0,0,0-.41-2.91,1.55,1.55,0,0,0-1.87-.81,2.37,2.37,0,0,0-1,1.32q-1,2.34-2.11,4.7a11.16,11.16,0,0,0-.15-5.68c-.2-.67-.61-1.44-1.32-1.45s-1.23,1-1.35,1.83a19.83,19.83,0,0,0,.15,6.43,22,22,0,0,0-4.95-4.82,1.53,1.53,0,0,0-1.31-.38c-.76.27-.63,1.38-.29,2.11a14.07,14.07,0,0,0,3.25,4.43,16.6,16.6,0,0,0-7.06-2.18,1.54,1.54,0,0,0-1.1.23c-.57.52-.07,1.46.49,2a13.61,13.61,0,0,0,5.34,2.95c-1.34,0-4.42.19-4.64,1.28S47.87,339.05,50,339.27Z" style="fill:#BA68C8"></path></g><g id="freepik--plant--inject-189"><path d="M31.43,384.37A16.6,16.6,0,0,1,33.37,383a19.72,19.72,0,0,1,2.68-1.53,17.05,17.05,0,0,1,6.58-1.59,12.68,12.68,0,0,1,6.67,1.5,29.77,29.77,0,0,1,5.35,3.92c.22.19.31-.13.2-.29a14.5,14.5,0,0,0-12.24-6,17.19,17.19,0,0,0-7,1.69,13.23,13.23,0,0,0-2.51,1.61,13.47,13.47,0,0,0-1.74,1.88s0,.17.05.11Z" style="fill:#37474f"></path><path d="M26.77,382.56a1.39,1.39,0,1,0,.86-1.76A1.38,1.38,0,0,0,26.77,382.56Z" style="fill:#BA68C8"></path><path d="M30.1,388.51a1.38,1.38,0,1,0,2.61-.9,1.38,1.38,0,1,0-2.61.9Z" style="fill:#BA68C8"></path><path d="M23.5,386.61a1.15,1.15,0,1,0,2.18-.75,1.15,1.15,0,0,0-2.18.75Z" style="fill:#BA68C8"></path><path d="M22.76,391.51a1.15,1.15,0,1,0,.71-1.46A1.15,1.15,0,0,0,22.76,391.51Z" style="fill:#BA68C8"></path><path d="M18.44,390.19a1.15,1.15,0,1,0,.71-1.47A1.15,1.15,0,0,0,18.44,390.19Z" style="fill:#BA68C8"></path></g><g id="freepik--leaf--inject-189"><path d="M68.35,394.79c3.57-1,11-1.75,15.23-9.44s.76-22.78-2.59-26.42c-2.34-2.55-18.33,5.6-21.92,14.36S59,393.86,68.35,394.79Z" style="fill:#BA68C8"></path><path d="M68.35,394.79c3.57-1,11-1.75,15.23-9.44s.76-22.78-2.59-26.42c-2.34-2.55-18.33,5.6-21.92,14.36S59,393.86,68.35,394.79Z" style="fill:#fff;opacity:0.4"></path><path d="M65.79,393.12a.3.3,0,0,1-.19-.23c-2-12.76,6.91-27.69,12.45-32.46a.3.3,0,0,1,.43,0,.31.31,0,0,1,0,.43c-5.44,4.7-14.19,19.37-12.24,31.9a.31.31,0,0,1-.26.35A.29.29,0,0,1,65.79,393.12Z" style="fill:#fff"></path><path d="M71.75,369.09a.35.35,0,0,1-.2-.28.3.3,0,0,1,.3-.31,17.71,17.71,0,0,0,8.67-2.82.3.3,0,0,1,.42.07.31.31,0,0,1-.07.43,18.39,18.39,0,0,1-9,2.93Z" style="fill:#fff"></path><path d="M70.05,372.19a.27.27,0,0,1-.12-.09,8.29,8.29,0,0,1-2.31-5.56.3.3,0,0,1,.3-.31.32.32,0,0,1,.31.31,7.73,7.73,0,0,0,2.17,5.17.3.3,0,0,1,0,.43A.3.3,0,0,1,70.05,372.19Z" style="fill:#fff"></path><path d="M68.52,375.54a.32.32,0,0,1-.19-.31.31.31,0,0,1,.34-.28c4.15.43,9.79-.1,13.15-2.84a.31.31,0,0,1,.39.47c-3,2.43-8.07,3.55-13.6,3Z" style="fill:#fff"></path><path d="M66.69,380.61a.21.21,0,0,1-.11-.08,21.69,21.69,0,0,1-4.75-7.87.3.3,0,0,1,.2-.38.31.31,0,0,1,.39.2A21.13,21.13,0,0,0,67,380.13a.3.3,0,0,1-.34.48Z" style="fill:#fff"></path><path d="M66,383.9a.3.3,0,0,1-.19-.32.29.29,0,0,1,.33-.27,25,25,0,0,0,15.18-2.85.3.3,0,0,1,.42.12.31.31,0,0,1-.12.41,25.93,25.93,0,0,1-15.54,2.93Z" style="fill:#fff"></path></g><g id="freepik--flower--inject-189"><path d="M49.68,362.28a34.9,34.9,0,0,0,.49,7.64A31.14,31.14,0,0,0,52.52,377a30.23,30.23,0,0,0,7.65,10.29,19.47,19.47,0,0,0,3.2,2.19,8.52,8.52,0,0,0,3.8,1.29c.25,0,.31-.29.16-.46A8.57,8.57,0,0,0,64.74,389a18.13,18.13,0,0,1-2.68-1.61,22.45,22.45,0,0,1-4.24-4.08,34.79,34.79,0,0,1-6.6-12.49,31.29,31.29,0,0,1-1.37-8.53c0-.16-.17-.15-.17,0Z" style="fill:#37474f"></path><path d="M51.34,372.62a21.13,21.13,0,0,1-11.18-6.28c-5.18-5.43-6.37-9.44-4.8-12.06a4,4,0,0,1,4.2-2s.6-3.41,2.51-3.78,4.56,1.85,4.56,1.85.49-1.89,1.19-2.37,6.92,1.48,8.3,5.64S56.74,368.34,51.34,372.62Z" style="fill:#BA68C8"></path><path d="M51.34,372.62a21.13,21.13,0,0,1-11.18-6.28c-5.18-5.43-6.37-9.44-4.8-12.06a4,4,0,0,1,4.2-2s.6-3.41,2.51-3.78,4.56,1.85,4.56,1.85.49-1.89,1.19-2.37,6.92,1.48,8.3,5.64S56.74,368.34,51.34,372.62Z" style="opacity:0.25"></path><path d="M52.31,372.11a25.4,25.4,0,0,0,6.43-9.95c2.37-6.49,1.92-9.52-.75-11.63s-4.6-.59-3.94,3.05c0,0-1.64-.77-2.58-.06a3.77,3.77,0,0,0-1.25,3.13C50.42,357.31,54.88,365.48,52.31,372.11Z" style="fill:#BA68C8"></path><path d="M52.31,372.11a25.4,25.4,0,0,0,6.43-9.95c2.37-6.49,1.92-9.52-.75-11.63s-4.6-.59-3.94,3.05c0,0-1.64-.77-2.58-.06a3.77,3.77,0,0,0-1.25,3.13C50.42,357.31,54.88,365.48,52.31,372.11Z" style="opacity:0.15"></path><path d="M48.93,372.08a22.44,22.44,0,0,1-9.41-1.53c-4.32-1.91-7.25-4.71-4.82-6.33,0,0-1.6-1.07-1.07-2.56s5.51-2.35,8.8-.16S48.93,372.08,48.93,372.08Z" style="fill:#BA68C8"></path><path d="M48.93,372.08a22.44,22.44,0,0,1-9.41-1.53c-4.32-1.91-7.25-4.71-4.82-6.33,0,0-1.6-1.07-1.07-2.56s5.51-2.35,8.8-.16S48.93,372.08,48.93,372.08Z" style="opacity:0.15"></path><path d="M52.31,372.11c2.26-3,2.74-8.43,2.12-11.55-.74-3.78-3.64-7.37-6.67-7.81s-5.44,2-5.44,2-2.55-.79-4.21,2.15c-1.14,2,1.79,7.17,5,10.65S49.93,372.38,52.31,372.11Z" style="fill:#BA68C8"></path><path d="M52.77,376.35a9,9,0,0,1,2.17-4.82c1.93-2.35,3.42-4.61,2-5.8s-3.56,3.38-3.56,3.38S52,365.16,50,365.66c-2.56.66-.6,5.36-.6,5.36s-3.79-2.16-4.76-.68.52,2.83,2.73,3.52S52.12,375.44,52.77,376.35Z" style="fill:#37474f"></path><path d="M69,395.42s-1.1,4.06-9.06,3.73c-8.6-.36-13.85-10.64-22.55-8,0,0,2.49-9,17.75-8.37C69.61,383.34,69,395.42,69,395.42Z" style="fill:#BA68C8"></path><path d="M59.9,399.15c8,.33,9.06-3.73,9.06-3.73-6.77-12.64-28.91-9.44-31.61-4.31C46.05,388.51,51.3,398.79,59.9,399.15Z" style="opacity:0.15"></path></g><path id="freepik--heart--inject-189" d="M34.88,324a3.08,3.08,0,0,0-1.7-1.43h0a3.13,3.13,0,0,0-2.56.24c-1.39.78-1.69,2.95-1.1,4.39-.93-1.25-2.94-2.13-4.33-1.34a3.12,3.12,0,0,0-1.54,2.06h0a3.17,3.17,0,0,0,.33,2.2c1.22,2.16,3.89,2.23,6.37,2.71l2.61.49.94-2.48C34.76,328.44,36.1,326.11,34.88,324Z" style="fill:#BA68C8;opacity:0.30000000000000004"></path><path id="freepik--heart--inject-189" d="M85,324.18a2.12,2.12,0,0,0,0-1.49h0a2.1,2.1,0,0,0-1.24-1.2A2.45,2.45,0,0,0,81,322.83a2.48,2.48,0,0,0-1.2-2.79,2.14,2.14,0,0,0-1.72.12h0a2.07,2.07,0,0,0-1,1.12c-.57,1.56.56,2.95,1.39,4.42l.89,1.54,1.67-.6C82.61,326.07,84.37,325.74,85,324.18Z" style="fill:#BA68C8;opacity:0.30000000000000004"></path><path id="freepik--heart--inject-189" d="M20.34,360a2.11,2.11,0,0,0-1.47.26h0a2,2,0,0,0-1,1.41,2.47,2.47,0,0,0,1.77,2.46,2.47,2.47,0,0,0-2.55,1.64,2.13,2.13,0,0,0,.4,1.67h0a2.08,2.08,0,0,0,1.27.78c1.63.3,2.82-1,4.13-2.1L24.28,365l-.87-1.55C22.58,361.94,22,360.26,20.34,360Z" style="fill:#BA68C8;opacity:0.30000000000000004"></path></g></g><g id="freepik--character-2--inject-189"><g id="freepik--Character--inject-189"><g id="freepik--Bottom--inject-189"><path d="M397,377.36c-1.05-14.54.18-53.07.18-58.62,0-20.94-2.78-23-3-26.61,0,0,.36-34.22-2.28-74.92-1.49-23-7.74-30.5-12.18-40.68l-55.62-.62c-5.9,25.13-6.8,88.87-6.62,114.76.08,13.2,4.28,78.18,4.39,79.81.37,5.76-.83,9.18-3.09,11.6-4.73,5.08-9.89,8.77-15.82,13.19.86,2.27,8,2.18,11.52.46a89.22,89.22,0,0,0,13.15-8.39c4.87-3.6,11.1-6.5,11.18-12a6,6,0,0,1,.16-1c.09-3.2,9.48-45.88,10.49-55.77s-.61-25.42-.61-25.42l5.21-47s3.58,27.91,7.37,47c2.63,13.21,7.56,29,10.83,44.37s5.23,24.26,8.39,40.33c.43,2.2,4.46,24.84,5.5,29.83s11.93,5.13,12.63-3.46C399.19,398.56,397.19,380.09,397,377.36Z" style="fill:#b16668"></path><path d="M354,246.23l-4.44-28.79s-17.19-2-23.44-8.05c0,0,7.88,11.12,19.54,12.94l4.9,23.87-1.72,46.65Z" style="fill:#9a4a4d"></path><path d="M292.83,401.07c-.3,0-.79,3.31.83,4.74,1.87,1.65,7.39,4.38,14.73,3.52s11.33-3.1,14.29-5.52,7.1-5.84,10.43-6.54c3.08-.64,6.44-2,7.44-2.95s.9-5.17.9-5.17Z" style="fill:#263238"></path><path d="M339.07,372.83s.56,0,.74,1c.21,1.17.42,4.57.88,6.49.64,2.66,1,8.12.61,10.29s-5.46,3.61-8.68,4.8a40.76,40.76,0,0,0-10.47,6.45c-3.47,2.8-10.75,5.58-15.52,5.59-7.3,0-12-2-13.43-4.63-1.77-3.26-.33-5.13,8.09-8.92,1.59-.72,7.2-4,9.11-5.13a25.2,25.2,0,0,0,4.35-3.19c.91-.79,2.49-2.37,3.31-3.25s1.3-1.2,2.39-6.08c.15-.69.24-1.71.9-2.12a5.65,5.65,0,0,1,3-.32,21.9,21.9,0,0,1,3.23.49c1.23.29,3.91.89,4.63,2.06a6.12,6.12,0,0,1,.66,3c0,.49,0,1,0,1.47,0,.21-.1.59.2.5s.6-.8.7-1.05c.24-.55.4-1.13.66-1.67a9,9,0,0,1,1.06-1.76,8.49,8.49,0,0,1,1.34-1.34,12.64,12.64,0,0,0,1.45-.91A3.41,3.41,0,0,0,339.07,372.83Z" style="fill:#37474f"></path><path d="M299.93,394.53c10.55.84,13.8,7.39,14.21,11.43a24.63,24.63,0,0,1-7.51,1.49c-7.3,0-12.3-2-13.73-4.63C291.23,399.74,292.41,397.29,299.93,394.53Z" style="fill:#fafafa"></path><path d="M315.75,394.8a.51.51,0,0,0,.33-.11.52.52,0,0,0,.08-.73,12.4,12.4,0,0,0-9.5-3.86.51.51,0,1,0,.1,1,11.52,11.52,0,0,1,8.6,3.49A.51.51,0,0,0,315.75,394.8Z" style="fill:#f0f0f0"></path><path d="M320.33,392.2a.52.52,0,0,0,.33-.11.53.53,0,0,0,.08-.73,12.41,12.41,0,0,0-9.51-3.86.51.51,0,0,0-.46.56.51.51,0,0,0,.56.46,11.5,11.5,0,0,1,8.6,3.49A.53.53,0,0,0,320.33,392.2Z" style="fill:#f0f0f0"></path><path d="M324,389a.52.52,0,0,0,.33-.12.51.51,0,0,0,.08-.72,12.41,12.41,0,0,0-9.5-3.87.53.53,0,0,0-.47.57.52.52,0,0,0,.57.46,11.51,11.51,0,0,1,8.6,3.48A.49.49,0,0,0,324,389Z" style="fill:#f0f0f0"></path><path d="M328.13,386a.51.51,0,0,0,.33-.11.52.52,0,0,0,.09-.72c-2-2.58-6.55-4.31-10.39-3.93a.52.52,0,0,0,.1,1c3.46-.34,7.7,1.25,9.47,3.53A.51.51,0,0,0,328.13,386Z" style="fill:#f0f0f0"></path><path d="M382.68,411.64c.29,5,1.07,8.28,2.83,11.2s5.1,3.83,8.48,3,7.7-3.14,8.66-7.44,1.54-7.24.77-11.86Z" style="fill:#263238"></path><path d="M396.87,375.58c1.39.11,1.8,6.79,2.61,13.49.85,7.17,3,10.14,3.77,16,.87,6.72-.24,9.73-2.59,13.79s-10.7,8.05-14.81,2.23c-3.35-4.74-3.48-10-3.18-16.72.32-6.94-.58-11.81-1.46-17-1.06-6.2-2.64-10.52-.94-11.18,0,0,.44,2.25.57,3a7.64,7.64,0,0,0,.86,2.78c.63.93.81.47.66-.34s-.46-2.28-.51-2.7c-.2-1.85,1.74-2.51,7.24-2.9s6.26.25,6.73.86c.33.41.52.72.76,3.33.12,1.31.49,1.93.58,1.19a9.82,9.82,0,0,0,0-1.9C397,377.91,396.9,376,396.87,375.58Z" style="fill:#37474f"></path><path d="M403.63,409A16.78,16.78,0,0,1,401,419.2c-2.35,4.07-11.36,8.07-15.47,2.25-2.05-2.9-2.6-6.32-2.88-9.82C385.15,407.15,399.75,405.17,403.63,409Z" style="fill:#fafafa"></path><path d="M385.72,404.32a.53.53,0,0,0,.17,0c.06,0,6.49-2.69,12.76-1.24a.52.52,0,0,0,.23-1c-6.63-1.53-13.19,1.2-13.44,1.31a.52.52,0,0,0,.28,1Z" style="fill:#f0f0f0"></path><path d="M398.33,398a.52.52,0,0,0,.44-.35.51.51,0,0,0-.32-.65c-6.24-2.12-13.16,1.05-13.42,1.19a.51.51,0,0,0,.48.91c.06,0,6.8-3.1,12.61-1.13A.39.39,0,0,0,398.33,398Z" style="fill:#f0f0f0"></path><path d="M398.11,393.3a.51.51,0,0,0,.13-1c-6.86-2.46-13.43,1-13.67,1.15a.51.51,0,1,0,.53.88c.06,0,6.4-3.35,12.79-1.06A.55.55,0,0,0,398.11,393.3Z" style="fill:#f0f0f0"></path><path d="M397.77,388.65a.51.51,0,0,0,.13-1c-6.42-2.41-13.49,1.14-13.76,1.3a.52.52,0,1,0,.52.89c.06,0,6.91-3.46,12.88-1.23A.47.47,0,0,0,397.77,388.65Z" style="fill:#ebebeb"></path></g><g id="freepik--Top--inject-189"><path d="M361.3,100.18a12.32,12.32,0,0,1,.08-2.41,10.9,10.9,0,0,1,2.71-6.38,43.27,43.27,0,0,0,3.69-3.73,38.62,38.62,0,0,0,2.38-4.38c1.42-2.5,3.43-3.78,6.33-3.43A12.05,12.05,0,0,1,380.76,81a11.36,11.36,0,0,1,2.85,2.51,14,14,0,0,1,2.85,6.29c1.09,4.77-1.35,9.31-4.83,12.46a6.46,6.46,0,0,0-2.35,3.5,2.79,2.79,0,0,0,1.05,2.93,3.3,3.3,0,0,1-3.29-4.13c-.29.44-1.17,1.48-4,2.47a10.77,10.77,0,0,1-5.41.12c-1.75-.34-3.53-.88-4.63-2.38A8.35,8.35,0,0,1,361.3,100.18Z" style="fill:#263238"></path><path d="M364.8,104.91c1.89-2.13,4.55-3.91,9-8.71,6.21-6.68,13.35-23.06,1.59-33.15a14.31,14.31,0,0,0-7.13-14.52c-4.36-2.32-7.54-1.24-15.6-1.24S335.8,43.42,329,50.23c-6.17,6.19-1.54,11.25-2.77,15.27-.71,2.35-4.2,2.71-4.81,7.66-.34,2.82,2.33,5.31,3.44,7.58,1.48,3-2,5.27-3.73,3-.24,2.2,1.41,4.55,4.8,4.81,2.31.18,5.85-1.93,8-2.43,4.69.73,9.79.83,14.17,2.84C349.58,89.88,365,104.74,364.8,104.91Z" style="fill:#263238"></path><path d="M338.45,112.46c-9.17.18-13.92,3.13-21.13,14.62-6.31,10-16.61,31-16.61,31L254.8,172.92l1.86,16.21s39.28-7.91,43.31-8.66c12.35-2.29,13.3-4.16,16.8-8.59s18.73-29.74,18.73-29.74Z" style="fill:#b16668"></path><path d="M318.64,134.07c6.55-9.61,15.32-18.3,19.81-21.61a148.82,148.82,0,0,1,19.53.27c10.62.87,21.56,5.32,21.56,5.32,2.87,1.63,7.22,4.75,7.85,14.49a58.05,58.05,0,0,1-2.79,20.35c-2.22,7.07-3.31,11.27-3.85,13.6-1.48,6.44-1.46,9,2.19,15.51,12.88,22.88,12.2,26,14.58,81.12-3.63,2.3-12.56-1.63-16.89-9,0,0-5.76,8.38-22.4,12.54-17.31,4.34-33.64,1.32-41.94-10.44,1.33-43.62,4-58.25,5.52-77.78.63-9.18-.46-15.31-.6-20.39C311.58,149.78,314.71,139.84,318.64,134.07Z" style="fill:#455a64"></path><path d="M341.41,154.74s6.63,7.21,15.86,5.59a15.7,15.7,0,0,0,9.16-4.91.64.64,0,0,1,1,.75c-1.57,2.82-4.65,6-10.71,6.79C345.59,164.45,341.41,154.74,341.41,154.74Z" style="fill:#37474f"></path><path d="M336.6,59.47c-1.44.73-7.66,5.3-7.63,24.79,0,12.16,3.56,18.94,7.4,21.09a19.41,19.41,0,0,0,9.92,2.05l-.1,6.15s-11.08,10.56,2.32,11.85c12.23,1.18,19-9.65,19-9.65l.78-19.56a6.19,6.19,0,0,0,7.09.08c4.11-2.75,5.17-8.81,2.51-12s-8.29-2.85-10.67,1.18c0,0-1.58,1.24-3.83-3.87,0,0-8.94-1.58-15.4-6C339,69.32,337.18,62.5,336.6,59.47Z" style="fill:#b16668"></path><path d="M348.29,80.9a2.13,2.13,0,1,0,2.2-2.05A2.12,2.12,0,0,0,348.29,80.9Z" style="fill:#263238"></path><path d="M332.34,79.74a2.13,2.13,0,1,0,2.2-2.06A2.12,2.12,0,0,0,332.34,79.74Z" style="fill:#263238"></path><path d="M330.73,74.93l5.44-1.58a2.71,2.71,0,0,0-3.41-2A3,3,0,0,0,330.73,74.93Z" style="fill:#263238"></path><path d="M350.71,74.25l4.63,3.28a2.72,2.72,0,0,0-.58-3.91A3,3,0,0,0,350.71,74.25Z" style="fill:#263238"></path><path d="M350.2,92.51l-7.74,2.29a4,4,0,0,0,4.94,2.86A4.22,4.22,0,0,0,350.2,92.51Z" style="fill:#9a4a4d"></path><path d="M350.13,95a3.41,3.41,0,0,0-4.89,2.69,3.87,3.87,0,0,0,2.16,0A4.13,4.13,0,0,0,350.13,95Z" style="fill:#f28f8f"></path><path d="M343.9,76.19l-2.11,13.45-7-1.61C336.26,84,339.61,80.08,343.9,76.19Z" style="fill:#9a4a4d"></path><path d="M346.29,107.4c5.84-.47,8.76-1.5,12.65-4a16.49,16.49,0,0,0,5.28-5.67,15,15,0,0,1-5.71,8.11,21.89,21.89,0,0,1-12.25,3.55Z" style="fill:#9a4a4d"></path><g id="freepik--character-chest--inject-189"><path d="M299.47,177.32a25.15,25.15,0,0,0-22.57-.8v-5.36c0-4.17-2.6-8.35-7.49-11.17-8.32-4.8-20.23-3.89-26.61,2a19.56,19.56,0,0,0-6.42,14.88c0,.76,0,6.65,0,7.3,0,7.8,3.65,15.25,5.5,19l4.13,8.36,12.08,1c8.95.74,32.75,2.69,44.87-8.55a11.22,11.22,0,0,0,3.88-8.31c0-.73,0-6.63,0-7.31C306.85,184.23,304.31,180.12,299.47,177.32Z" style="fill:#BA68C8"></path><path d="M299.47,177.32a25.15,25.15,0,0,0-22.57-.8v-5.36c0-4.17-2.6-8.35-7.49-11.17-8.32-4.8-20.23-3.89-26.61,2a19.56,19.56,0,0,0-6.42,14.88c0,.76,0,6.65,0,7.3,0,7.8,3.65,15.25,5.5,19l4.13,8.36,12.08,1c8.95.74,32.75,2.69,44.87-8.55a11.22,11.22,0,0,0,3.88-8.31c0-.73,0-6.63,0-7.31C306.85,184.23,304.31,180.12,299.47,177.32Z" style="opacity:0.15"></path><path d="M238.33,172.51l-1.45-.21a22.32,22.32,0,0,0-.5,4.59c0,.76,0,6.65,0,7.3,0,7.8,3.65,15.25,5.5,19l4.13,8.36v-7.26Z" style="opacity:0.15"></path><path id="freepik--heart--inject-189" d="M258.13,205.26l-12.08-1-4.13-8.35c-3.07-6.2-11.22-22.66.9-33.91,6.38-5.91,18.29-6.82,26.6-2,7.66,4.41,9.7,12.17,5,18,6.62-4.7,17.42-5.06,25.08-.65,8.31,4.8,9.88,13.48,3.5,19.39C290.88,208,267.08,206,258.13,205.26Z" style="fill:#BA68C8"></path><g style="opacity:0.15"><path id="freepik--heart--inject-189" d="M258.13,205.26l-12.08-1-4.13-8.35c-3.07-6.2-11.22-22.66.9-33.91,6.38-5.91,18.29-6.82,26.6-2,7.66,4.41,9.7,12.17,5,18,6.62-4.7,17.42-5.06,25.08-.65,8.31,4.8,9.88,13.48,3.5,19.39C290.88,208,267.08,206,258.13,205.26Z"></path></g><path d="M299.78,173.41A25.42,25.42,0,0,0,277,172.6v-5.42c0-4.22-2.63-8.45-7.58-11.3C261,151,248.92,152,242.47,157.93A19.77,19.77,0,0,0,236,173c0,.76,0,3.59,0,4.25,0,7.89,3.7,15.43,5.57,19.2l4.18,8.45,12.21,1c9.06.75,33.13,2.72,45.38-8.65a11.31,11.31,0,0,0,3.93-8.4c0-.74,0-3.58,0-4.27C307.25,180.4,304.69,176.24,299.78,173.41Z" style="fill:#BA68C8"></path><polygon points="276.96 167.18 276.96 172.6 274.44 174.07 276.96 167.18" style="opacity:0.15"></polygon><path d="M245.74,168.67l-9.12-1A22,22,0,0,0,236,173c0,.76,0,3.59,0,4.25,0,7.89,3.7,15.43,5.57,19.2l4.18,8.45V168.67Z" style="opacity:0.15"></path><path id="freepik--heart--inject-189" d="M258,201.67l-12.21-1-4.18-8.45c-3.1-6.27-11.35-22.92.91-34.29,6.45-6,18.5-6.9,26.91-2.05,7.74,4.46,9.8,12.31,5,18.19,6.7-4.76,17.62-5.12,25.36-.66,8.41,4.85,10,13.63,3.55,19.61C291.09,204.39,267,202.42,258,201.67Z" style="fill:#BA68C8"></path><path id="freepik--heart--inject-189" d="M258,201.67l-12.21-1-4.18-8.45c-3.1-6.27-11.35-22.92.91-34.29,6.45-6,18.5-6.9,26.91-2.05,7.74,4.46,9.8,12.31,5,18.19,6.7-4.76,17.62-5.12,25.36-.66,8.41,4.85,10,13.63,3.55,19.61C291.09,204.39,267,202.42,258,201.67Z" style="fill:#fff;opacity:0.2"></path><path d="M269.83,202.28v10.85a83.43,83.43,0,0,0,12.43-.73V201.56Z" style="fill:#ebebeb"></path><path d="M243.86,156.78l26,45.5a88.34,88.34,0,0,0,12.43-.72l-27.78-48.65A21.69,21.69,0,0,0,243.86,156.78Z" style="fill:#fafafa"></path><path d="M235.25,157.74a10.71,10.71,0,0,0,6.78,7.1,57.18,57.18,0,0,0,12.36,2.76l-12.59-16Z" style="fill:#e0e0e0"></path><path d="M254.39,167.6a16.32,16.32,0,0,0-2.11-8.66c-2.41-3.77-10.48-7.37-10.48-7.37a35.06,35.06,0,0,0-6.55,6.17,25.32,25.32,0,0,1,18.05,9.66Z" style="fill:#ebebeb"></path><path d="M242,159.21a25.9,25.9,0,0,1,5.68,2.9l4.1-3.81a21.21,21.21,0,0,0-5.41-4.3Z" style="fill:#fafafa"></path><path d="M254.39,167.6a11.82,11.82,0,0,1-5.54,4.86c-4,1.78-10.56,1.47-10.56,1.47l-.36-8.3a8.28,8.28,0,0,0,6.8,3.93,12.18,12.18,0,0,0,8.14-2.71Z" style="fill:#e0e0e0"></path><path d="M254.39,167.6c-4-4.32-7.82-4.85-11.35-4.14-3.92.79-5.11,2.17-5.11,2.17l.36,8.3a13.51,13.51,0,0,1,7.87-5.62C251.81,166.67,254.39,167.6,254.39,167.6Z" style="fill:#ebebeb"></path><path d="M239.89,164.41c.92,1.41,2.36,3.7,3.28,5.15a15.37,15.37,0,0,1,3-1.25,27.75,27.75,0,0,1,3-.68l-3.43-4.43a13.24,13.24,0,0,0-2.68.26A15.64,15.64,0,0,0,239.89,164.41Z" style="fill:#fafafa"></path><path d="M254.19,166.67a18.45,18.45,0,0,0,9.95-4.8,21.25,21.25,0,0,0,5.18-10.13l-7.14-4.8a13.6,13.6,0,0,1-1.65,11.22,11.22,11.22,0,0,1-6.36,5.13Z" style="fill:#e0e0e0"></path><path d="M254.19,166.67l1.07-.18a18.71,18.71,0,0,1,6.05-10.75c5.47-4.7,8-4,8-4a21.71,21.71,0,0,0-7.14-4.8s-4.59,2.5-6.71,6.17C252.94,157.52,253.51,164.16,254.19,166.67Z" style="fill:#ebebeb"></path><path d="M265.39,152.85l-6-4c-.3.23-.6.48-.91.75l5.88,3.85C264.71,153.23,265.06,153,265.39,152.85Z" style="fill:#fafafa"></path><path d="M263.4,154.1l-5.84-3.64a13.74,13.74,0,0,0-1.59,1.88l-.05.06c-.16.23-.31.47-.45.71s-.13.31-.21.45l4.88,3.29a15.54,15.54,0,0,1,1.17-1.11C262.07,155.09,262.76,154.56,263.4,154.1Z" style="fill:#fafafa"></path><path d="M254.36,167.59s1.81,1.93,6.16,3,9.87.43,12.24-2.18l-.48-7.71s-3.67,4.94-9,5.78c-4.06.63-8.91-1-8.91-1Z" style="fill:#e0e0e0"></path><path d="M254.08,165.82s4.23-4.41,8.78-5.1c6.17-.93,9.42,0,9.42,0a11.42,11.42,0,0,1,.48,7.71s-2.66-2.87-8.91-3.1a21.19,21.19,0,0,0-9.49,2.26Z" style="fill:#ebebeb"></path><path d="M271.46,167.45a13.91,13.91,0,0,0-4.32-1.69l-.8-5.39a25.79,25.79,0,0,1,4.59.11A17.88,17.88,0,0,1,271.46,167.45Z" style="fill:#fafafa"></path><path d="M379.54,118.05c-7.4,4.19-13.59,22.44-13.59,22.44l-12,33.85s-39.22,16.18-42.52,17a53.16,53.16,0,0,1-8.95,1.27c-2.32.25-5,.43-8.11.49-2.55,0-5.86-.41-8.56-.22-2.2.16-3.68.74-2.84,2.88.42,1.07,2.6,1.79,3.83,2.1s2.21.58,3.26.84a30.3,30.3,0,0,1,3.25.93,8.31,8.31,0,0,1,2.38,1.07c1,1.23.28,4.35-1.7,6.34s-15.48,5.73-15.48,5.73c3.07,1.33,15.13,1.5,19.16,1.32,1.63-.07,8.08-3.46,12.17-5.32,4.48-2,6.41-3.6,11.25-4.83s18.55-3.19,32.1-6.58c13.93-3.47,15.71-4,20.59-13.7,7-14,11.69-23.05,16.27-35.93C394.12,136.36,394.49,121.85,379.54,118.05Z" style="fill:#b16668"></path></g><path d="M368.37,78.42l-4.69-3.56c0,.74.09,1.43.17,2.15a10,10,0,0,1-1.69,5.79A9.25,9.25,0,0,0,361,90.48c.5,1.44,2,4.33,3.59,4.75.06-.53-.38-1-.58-1.46a7,7,0,0,1-.63-3.12c.15-1.87,2.08-3.47,3.19-4.85A8.7,8.7,0,0,0,368.46,82C368.62,81.11,369,79.15,368.37,78.42Z" style="fill:#263238"></path></g></g></g><g id="freepik--character-1--inject-189"><g id="freepik--character--inject-189"><g id="freepik--bottom--inject-189"><path d="M174.48,371.89a1.46,1.46,0,0,0-1.1,1.28,35.27,35.27,0,0,1-.91,4.32,24.32,24.32,0,0,0-1.3,8.21c1.32,3.06,3.19,4.95,9.3,6.66,3.35.94,6.3,1.18,12,7.08A24.74,24.74,0,0,0,205.86,406c5.62.77,12.41-.81,15.2-2.37,2.58-1.44,4.61-3.88,2.53-6.69-.86-1.16-2.73-2-5.35-3.48-3.63-2-8-4.52-10-5.74-4.06-2.44-9.34-5.45-12.14-8.68-1-1.2-5.8-4.21-5.18-9.61-2.07-1-3.76-1.17-5.68.07s-3.91,3.25-3.9,5.54c-.4.17-1.74.6-1.83.17a8.31,8.31,0,0,1,0-1.32,2.78,2.78,0,0,0-1.65-2.19C177.1,371.36,175.33,371.74,174.48,371.89Z" style="fill:#37474f"></path><path d="M106.23,368.42c2.15.81,1.07,2.43,1.23,4a43,43,0,0,1,.39,4.67c0,.94.22,2.08,1.1,2.42.69.26,3.52-.11,4-.65a17.51,17.51,0,0,0,1.25-1.84,5.4,5.4,0,0,1,4-2.16c1.56-.09.6,0,1.65,1.17-.13.3-.78,1.85-.9,2.15-1.89,4.87-1.06,10.46,1.06,18.35a36.72,36.72,0,0,0,3.45,8.91c1.68,2.63,4.33,4,5.19,4.64s1.5,1.28,1.59,1.93a4.68,4.68,0,0,1-.54,2.77,7.33,7.33,0,0,1-3.63,2.65,20.44,20.44,0,0,1-16.2-1,11.73,11.73,0,0,1-5.73-6.1c-1.51-3.64-.91-8.47-1.37-12.36-1-8.43-3.67-11-5.28-15.21a13.21,13.21,0,0,1-.61-7.58c1.33-3,2.44-3.58,5.45-5C104.34,369.24,104.35,367.71,106.23,368.42Z" style="fill:#37474f"></path><path d="M212,389.94c-5.81-3.94-14-9.3-17.25-12.77s-3.79-6.69-3.44-11.45,3.2-27.85,7.18-50.07c2.44-13.66,3.33-20,4-26.63.93-9.75,2.2-20.06,2.14-36.87-.06-18,.08-49.39-9.23-81.55-9.25,6.5-35.95,7.31-47-1.43,0,0-7.13,7.56-15.5,24.67-6.26,12.79-6.1,28.32-5.87,51.16.28,26.66.8,52.36.8,52.36s-7.29,7.22-10.35,15.31c-2.62,6.95-3.1,10.6-5.18,25.57-2.12,15.29-3.9,22.8-4.68,25.89-.67,2.65-.92,4.07-2.28,5.91s-1.74,3.63-1.51,6.67c.63,8.15,3.37,13.41,4.84,20.23.76,3.53.92,6.7,4.88,9.12,3.46,2.11,8.33,1.53,10-.58-1.39-2.29-2.87-11.15-3.47-14.71a34.81,34.81,0,0,1,2.12-18.52c2-5.06,26.28-55.41,30.29-62.18,5.77-9.73,10.7-35.22,11.65-41.18,1.54-9.7,3.14-18.44,3.14-18.44l5.13,45.14A47.76,47.76,0,0,0,169.11,318c1.77,16.92,4.52,41,5,46.62a44.39,44.39,0,0,1-.09,10.05c.74,6,6.76,7.07,11.4,10.46,2.31,1.68,12.47,7.76,18.58,9.09C210.31,395.54,215.06,391.86,212,389.94Z" style="fill:#ffa8a7"></path><path d="M167.2,250.45,172.88,217s13.83-.55,21.17-9.43c0,0-.87,11.39-17,13.93l-7,28.91,2.31,45.14Z" style="fill:#f28f8f"></path><path d="M137.35,183.15c-6.71,6.83-10.47,14.26-16.15,31.58-4.08,12.47-9.89,32.49-12,44.8,8.41,7.54,21.51,9.17,21.51,9.17l-.34,2.28s14.64,4.9,24.89,3.55l.36-2s12.39,1.23,19.54.4l.22,2.14s15.75.38,22.52-3.68l-.3-2a53,53,0,0,0,20.68-8.82c-1.93-31.22-10.19-58.52-19.4-75.64Z" style="fill:#BA68C8"></path><path d="M172.21,273.16c1-.05,2-.12,2.93-.22h0s-1.44-34.84-2.93-45.2Z" style="opacity:0.2"></path><path d="M187.86,198.7c7.1,14.65,9.14,62.42,9.72,70.69a32.72,32.72,0,0,0,3.34-.74C200.45,258.47,197.21,214.08,187.86,198.7Z" style="opacity:0.2"></path><path d="M155.6,272.54s1.35.13,3.42.28c0-16.41,1.74-50.94,1.74-68.74-2.64,13.25-5.16,68.46-5.16,68.46Z" style="opacity:0.2"></path><path d="M126.14,267.8a44.08,44.08,0,0,0,4.55.9h0c1.49-13.62,6.68-57.58,13.38-74.18-5.07,8.78-9.69,26.62-13.38,46.29C128.4,253,126.93,262.39,126.14,267.8Z" style="opacity:0.2"></path><path d="M198.13,177.13l.73,7.8s-9.57,6.31-32,5.73-29.5-7.22-29.5-7.22l1.79-7.85s10.81,5.75,27.71,6.65A79.62,79.62,0,0,0,198.13,177.13Z" style="fill:#37474f"></path></g><g id="freepik--top--inject-189"><path d="M197.22,157.79c2.28-3.53,6.59-5.77,7.21-10.12.56-3.86-.89-7.21-2.52-10.57a10.1,10.1,0,0,1-.85-7.19,19.4,19.4,0,0,0,1-5.44c-.12-4.36-3.21-6.91-6.21-9.66-1.77-1.63-3-3.4-2.48-5.87.4-2,1.7-3.62,1.93-5.66a10.46,10.46,0,0,0-.54-5.68c-1.84-3.78-5.63-3-8.87-4.25-3.92-1.53-.81-6.32-2-9.54-1.49-4-5.86-5.84-9.75-6.66a77.55,77.55,0,0,0-8.19-.84c-8.57-.81-17.88-1-26.2,1.7-3,1.92-5,3.34-5.51,7.19-.56,4.25,3.14,7.43-.75,10.86-2.37,2.09-5.9,2.93-7.38,6-1.11,2.28-.74,4.5-.39,6.9a27.08,27.08,0,0,1,.56,3.7c0,1.33-.78,1.92-1.38,3.06a30.26,30.26,0,0,1-4.14,5.81c-3.68,4.26-7.43,9.55-5.7,15.38,1,3.19,4.49,5.84,3.93,9.42-.26,1.64-1.2,3.14-1.57,4.74a12.1,12.1,0,0,0,0,5.42c.89,3.5,5.41,6.5,8.69,7.36,5.1,1.34,10-1.34,15.22,0,4.52,1.16,6.45,5.78,10,8.34s8.26,4.49,12.62,4,8.08-3,11.51-5.53a10.35,10.35,0,0,1,5.92-2.27c3-.12,6.1.55,8.92-.84,3.55-1.74,4.77-5.35,6.39-8.71A10,10,0,0,1,197.22,157.79Z" style="fill:#263238"></path><path d="M181.18,114.37c6.33,1.11,9,.92,14.84,5.08s33.2,52.33,33.2,52.33-4.83,2.73-11.83.77-20.42-12-20.42-12Z" style="fill:#f28f8f"></path><path d="M181.18,114.37l9.62-1.2c4.68-.59,8.32-.19,10,.53-2.78,0-2.78,3.35,0,6s2.13,4.19.77,6.34.63,3.88,2,7.07-2.67,5.37-4,6.2-1.47,3.37-1.51,6.38-5.68,1.7-6.33,3.77Z" style="fill:#BA68C8"></path><path d="M181.18,114.37l9.62-1.2c4.68-.59,8.32-.19,10,.53-2.78,0-2.78,3.35,0,6s2.13,4.19.77,6.34.63,3.88,2,7.07-2.67,5.37-4,6.2-1.47,3.37-1.51,6.38-5.68,1.7-6.33,3.77Z" style="opacity:0.1"></path><path d="M138.78,115.11a107.54,107.54,0,0,1,15.84-1.94c5,0,10.13,0,15.25,0a45.92,45.92,0,0,1,11.31,1.2,223.16,223.16,0,0,1,14.45,17.3c6.59,8.9,7.84,12,7.3,19.58a20.37,20.37,0,0,1-4.07,10.19c.27,5.42.46,10.15.88,16.13-11.8,8.69-51.23,9.49-62.39-1,2-9.45,4.16-14.94.9-25.82C134.9,139.55,133.08,117.93,138.78,115.11Z" style="fill:#BA68C8"></path><path d="M123.22,112c-2.62,0-1.42,3.18-2,5.28s-3.12,2.09-3.9,4.31.72,3.93,2.52,5.14.3,3.32.84,5,2.09,2.76,4.76,2.7,10-18.64,10-18.64S127.93,112,123.22,112Z" style="fill:#BA68C8"></path><path d="M123.22,112c-2.62,0-1.42,3.18-2,5.28s-3.12,2.09-3.9,4.31.72,3.93,2.52,5.14.3,3.32.84,5,2.09,2.76,4.76,2.7,10-18.64,10-18.64S127.93,112,123.22,112Z" style="opacity:0.30000000000000004"></path><path d="M138.78,115.11c-6.81,1.58-11.22,3.68-13.36,11.5-2,7.43-3.61,28.34-2.68,39.13s1.9,16.58,3.68,18,16.43-14.75,16.14-15.09,2.84-26,2.84-26S147.2,119.33,138.78,115.11Z" style="fill:#ffa8a7"></path><path d="M145.56,137a90.62,90.62,0,0,0-8.32,9.51c-6,7.81-8.5,12.53-9.05,18.09l16.29-14.3c.51-4.29.92-7.65.92-7.65S145.58,140.29,145.56,137Z" style="fill:#f28f8f"></path><path d="M138.78,115.11c-5.42-.41-11.18-3.47-15.56-3.11,3.66.89,4.34,3.29,3.74,7-.42,2.62.72,4.36,4.54,4.45s5.31,1.4,4.19,4.84,1.49,5.29,4.66,5.25,5.29,4,5.17,6.55C147.24,135.18,146.79,116.36,138.78,115.11Z" style="fill:#BA68C8"></path><path d="M138.78,115.11c-5.42-.41-11.18-3.47-15.56-3.11,3.66.89,4.34,3.29,3.74,7-.42,2.62.72,4.36,4.54,4.45s5.31,1.4,4.19,4.84,1.49,5.29,4.66,5.25,5.29,4,5.17,6.55C147.24,135.18,146.79,116.36,138.78,115.11Z" style="opacity:0.1"></path><path d="M197.76,105.9s-.56-.36-.59-1.64.18-2.14.17-3.57-.34-3.83-1.61-4.22-2.25,2.5-2.56,4.9a10.89,10.89,0,0,1-2.4,6.35c-1.91,2.53-3.65,5.87-2.34,9.09Z" style="fill:#f28f8f"></path><path d="M206.93,102.11c-.45-2.43,0-5.38-.08-7.27a20.41,20.41,0,0,0-1-5.5c-.57-1.94-.89-4.44-1.53-4.75s-1.85.31-2,1.79c0,0-.76-1.18-1.38-2.39s-1-2.67-2-3-1.71,1.26-1.46,2.47.46,1.9.46,1.9-1.08.36-.4,2.56a11,11,0,0,0,1.19,2.51,10.26,10.26,0,0,0,.8,3.85,20.15,20.15,0,0,0,1,4.21c-.48,1.07-1.52,2.29-1.71,4.21s.07,2.4-2.38,4.47c-1.65,1.4-4.38,2.91-6,4.9s-2.82,4.14-1.3,7.1,2.71,5.11,4.11,8.21c1.05,2.34,2,5.39,6.26,16.39,3.29,8.54,3.52,9.59,5.23,12.74,2.39,4.4,5.07,10.07,12,13.68s15.23,3.46,14.76-2.65c-.56-7.32-2.11-13.17-4.95-17.35a76,76,0,0,0-7.76-9.62c-3.19-3.61-5.57-7.27-9.42-12.36s-6.32-9.8-6.14-11.37c.28-2.65,1.87-6.37,2.66-8.28C207,105.62,207.49,105.77,206.93,102.11Z" style="fill:#ffa8a7"></path><path d="M188.43,116.81c.19,1.49,1.09,2.69,1.72,4s1.31,2.65,1.93,4,1.24,2.68,1.82,4,1.18,3.3,1.73,4.67c-.68-1.31-1.33-3.22-2-4.55s-1.27-2.67-1.91-4l-1.89-4-.95-2A5.35,5.35,0,0,1,188.43,116.81Z" style="fill:#b16668"></path><path d="M202.36,86.38a11.59,11.59,0,0,0,.35,2c.17.64.36,1.29.57,1.9l0,.09,0,.13a8.2,8.2,0,0,0-.18,1,7.61,7.61,0,0,0,0,1.07,6.53,6.53,0,0,0,.41,2.1l.06.17-.08.12a6.38,6.38,0,0,0-.37.74,7.47,7.47,0,0,0-.29.79,5.93,5.93,0,0,0-.21.83,8.62,8.62,0,0,0-.11.87,5.05,5.05,0,0,1-.09-1.78,5.6,5.6,0,0,1,.51-1.77l0,.29a6,6,0,0,1-.57-2.32,6,6,0,0,1,.05-1.2,5.82,5.82,0,0,1,.27-1.19v.23a11.07,11.07,0,0,1-.37-2A6.7,6.7,0,0,1,202.36,86.38Z" style="fill:#f28f8f"></path><path d="M198,85.33a5.26,5.26,0,0,0,.62,1,6.59,6.59,0,0,0,.76.82l0,0,0,.12a8.68,8.68,0,0,0,.68,2.28,6.09,6.09,0,0,0,1.3,1.92l.17.18-.08.23a7.06,7.06,0,0,0-.28,1.28,12.26,12.26,0,0,0-.08,1.36c0,.46,0,.92.08,1.38s.14.92.22,1.39A8.92,8.92,0,0,1,200.9,96a8.67,8.67,0,0,1-.31-1.41,8,8,0,0,1-.05-1.46,5.69,5.69,0,0,1,.26-1.49l.09.41a5.9,5.9,0,0,1-.85-1,6.46,6.46,0,0,1-.6-1.17,8.07,8.07,0,0,1-.36-1.25,6.88,6.88,0,0,1-.13-1.29l.07.16a5,5,0,0,1-.66-1A3.94,3.94,0,0,1,198,85.33Z" style="fill:#f28f8f"></path><path d="M200.81,101.09a5.5,5.5,0,0,1-.91,2.4,8,8,0,0,1-1.73,1.9c.22-.38.47-.72.71-1.07s.48-.68.7-1A20.38,20.38,0,0,0,200.81,101.09Z" style="fill:#f28f8f"></path><path d="M192.47,110a10.59,10.59,0,0,0-1,4.44,8.39,8.39,0,0,0,.32,2.22,18.29,18.29,0,0,0,.83,2.18,6.32,6.32,0,0,1-1.39-2,6.2,6.2,0,0,1,1.25-6.86Z" style="fill:#f28f8f"></path><path d="M195.83,59.4c-2.86-4.08-7.91-5.46-10.73-4.1-2.6-3.45-7.81-5.4-12.09-5.63-16.37-.89-21.59,7.2-22.47,10.21-7.73,1.14-12.69,14.2-6.85,27.42,2.92,6.62,9.35,13.85,10,17.55l9.23,0a18.44,18.44,0,0,1,11.74-15.33c11.21-4.48,17.55-7.28,19.25-9.57C200.8,72.91,198.7,63.49,195.83,59.4Z" style="fill:#263238"></path><path d="M148.81,48.17c-4.35.56-7.08,2.78-7.87,7-3.89-.53-8.14.22-11,3.18a9.35,9.35,0,0,0-2.46,7.6c.21,2.59,1.57,4,3.18,5.76a6.18,6.18,0,0,0-3.42,7.57c.54,1.8,7.4,8.45,1.93,9,2.51,1.71,6.72.21,6.41-3.2A7.58,7.58,0,0,0,143,92.88c6.11.22,11-3.18,12.46-9.11l2.69-30.28C156.94,49.63,153,47.63,148.81,48.17Z" style="fill:#263238"></path><path d="M192.87,72.09a43.72,43.72,0,0,1,.8,5.37,85.64,85.64,0,0,1,.38,10.86c-.44,12.9-6.63,17.15-10.05,18.79-2.14,1-6.57,1.07-8.66.57l-.2,10.57s13.44,10,2.69,11.93c-5.37,1-12.05-.84-16.83-4.23a27.26,27.26,0,0,1-6.91-6.68l-.57-20.71s-2.63,2.84-7.55-1c-4.05-3.19-5.65-8.84-2.79-12.07s8.39-2.8,11.11,1.54c1.94,3.09,3.49.75,3.41-2.93s2.77-4.84,4-6.74c4.07-6.44,1.16-8.35,5-12.07,2.18-2.14,8.16-3,12.7.42C184.55,61,190.79,63,192.87,72.09Z" style="fill:#ffa8a7"></path><path d="M171.38,84.6c.25,1.5-1.53,3.05-4,3.45s-4.62-.48-4.87-2,1.52-3,4-3.45S171.13,83.09,171.38,84.6Z" style="fill:#f28f8f"></path><path d="M196.41,84.25c0,1.52-2,2.76-4.48,2.76s-4.47-1.24-4.47-2.76,2-2.76,4.47-2.76S196.41,82.72,196.41,84.25Z" style="fill:#f28f8f"></path><path d="M173.82,82a2.13,2.13,0,1,1-2.2-2.05A2.13,2.13,0,0,1,173.82,82Z" style="fill:#263238"></path><path d="M189.78,80.88a2.13,2.13,0,1,1-2.21-2A2.14,2.14,0,0,1,189.78,80.88Z" style="fill:#263238"></path><path d="M191.31,76.15l-4.91-2.83a2.72,2.72,0,0,1,3.79-1.12A3,3,0,0,1,191.31,76.15Z" style="fill:#263238"></path><path d="M171.4,75.4l-4.63,3.28a2.72,2.72,0,0,1,.58-3.91A3,3,0,0,1,171.4,75.4Z" style="fill:#263238"></path><path d="M171.91,93.66,179.65,96a4,4,0,0,1-4.94,2.86A4.22,4.22,0,0,1,171.91,93.66Z" style="fill:#b16668"></path><path d="M172,96.12a3.41,3.41,0,0,1,4.89,2.69,3.78,3.78,0,0,1-2.16,0A4.13,4.13,0,0,1,172,96.12Z" style="fill:#f28f8f"></path><polygon points="178.22 77.33 179.86 92.03 187.32 89.18 178.22 77.33" style="fill:#f28f8f"></polygon><path d="M175.34,107.68c-9.88-2-15.6-5.68-17.4-9.63a10.11,10.11,0,0,0,4.58,8c4.78,3,12.75,4.57,12.75,4.57Z" style="fill:#f28f8f"></path><path d="M168.11,123.24h0a14.54,14.54,0,0,0-3.38-5.67c-1.91-2.27-5.82-9.6-6.44-10.66s-1.18-4.8-1.68-7.28-1-4.12-3.49-3.67c0-.14,0-.51-.06-1.34-.1-1.94-.69-2.62-1.53-2.95a2.89,2.89,0,0,0-1.28-.11,3.58,3.58,0,0,0-.74-1.93c-.8-1-1.65-1-2.1-.65s-.48,1.64-.78,4.54a42.69,42.69,0,0,0-.42,6.54,4.66,4.66,0,0,0-.71,2.68,63,63,0,0,0,2.85,11c.63,1.63,4.83,9.3,5.81,12.09,1.23,3.09-1.36,7-5.17,11.72-3.94,4.85-7.91,9.94-11.63,14.2A83.63,83.63,0,0,0,129.07,163c-2.62,4.21-4,11-3.58,17.95.33,6,7.94,5.82,14.56,2s10-7.72,12.41-12a112.83,112.83,0,0,0,7.69-17.11c4.43-11.91,5.72-15.56,6.44-18C168,131.24,169.12,127.05,168.11,123.24Z" style="fill:#ffa8a7"></path><path d="M148.34,113.7c.78,1.71,1.71,3.34,2.57,5s1.74,3.34,2.54,5a16.1,16.1,0,0,1,1.06,2.65,5.81,5.81,0,0,1-.17,2.87,17.76,17.76,0,0,1-2.65,5c-1.09,1.54-2.29,3-3.48,4.45l-3.55,4.37c-2.38,2.92-4.79,5.81-7.31,8.6,2.42-2.88,4.74-5.84,7.08-8.78l3.51-4.41c1.18-1.47,2.36-2.92,3.44-4.45a17.47,17.47,0,0,0,2.63-4.9,5.51,5.51,0,0,0,.17-2.7,17.43,17.43,0,0,0-1-2.59C151.65,120.45,149.84,117.15,148.34,113.7Z" style="fill:#b16668"></path><path d="M153.1,96a1.34,1.34,0,0,0-.27,1c0,.36.08.72.13,1.09l.27,2.21c.17,1.46.3,2.93.41,4.4.06.72.08,1.5.18,2.17a21.17,21.17,0,0,0,.57,2.1l1.39,4.21a35.31,35.31,0,0,1-1.95-4,16,16,0,0,1-.72-2.15,7.74,7.74,0,0,1-.14-1.13l-.09-1.11c-.1-1.48-.2-3-.24-4.45,0-.74,0-1.48,0-2.21a10.67,10.67,0,0,1,0-1.13A1.33,1.33,0,0,1,153.1,96Z" style="fill:#f28f8f"></path><path d="M150.24,91.57c-.48.12-.55.61-.54,1s.05.88.08,1.32c.05.88.09,1.77.1,2.66,0,1.77,0,3.54,0,5.28a20,20,0,0,0,1,5.09c.47,1.68,1.06,3.36,1.58,5a42.39,42.39,0,0,1-2.11-4.89,16.14,16.14,0,0,1-1.24-5.23c0-1.79.08-3.55.17-5.32.06-.88.1-1.75.13-2.64,0-.44,0-.88.1-1.33a2,2,0,0,1,.18-.67A.74.74,0,0,1,150.24,91.57Z" style="fill:#f28f8f"></path><path d="M146.2,100.07c.18.94.33,1.86.54,2.77s.46,1.78.76,2.66a56.34,56.34,0,0,1,1.66,5.4,22.38,22.38,0,0,1-1.32-2.52,23.5,23.5,0,0,1-1.07-2.64,14.1,14.1,0,0,1-.62-2.81A11.41,11.41,0,0,1,146.2,100.07Z" style="fill:#f28f8f"></path><path d="M160.15,153.81c1.82-5,3.63-10,5.38-15a78.62,78.62,0,0,0,2.22-7.65,16.39,16.39,0,0,0,.22-7.84l.17.11h0l-.13,0,0-.13a10.73,10.73,0,0,0-1.76-3.57c-.76-1.1-1.73-2.07-2.49-3.21-1.52-2.25-2.86-4.61-4.19-7l-1-1.77c-.17-.31-.33-.58-.5-.9a7.8,7.8,0,0,1-.35-1c-.36-1.32-.58-2.66-.83-4a38.76,38.76,0,0,0-.84-3.94,2.76,2.76,0,0,0-1-1.58,2.6,2.6,0,0,0-1.85-.24l-.17,0V96a10.59,10.59,0,0,0-.36-3,1.85,1.85,0,0,0-.92-1.06,2.37,2.37,0,0,0-1.42-.2h-.15v-.15a3.39,3.39,0,0,0-.64-1.75A2,2,0,0,0,148,88.9a.77.77,0,0,0-.67.45,3.38,3.38,0,0,0-.23.91c-.08.65-.13,1.31-.19,2l-.39,3.93a25.65,25.65,0,0,0-.17,3.91v0l0,0a4.69,4.69,0,0,0-.63,3.32c.18,1.16.45,2.31.72,3.46a69.35,69.35,0,0,0,2,6.79,69.53,69.53,0,0,1-2.07-6.77c-.29-1.14-.58-2.28-.78-3.45a4.77,4.77,0,0,1,.63-3.47l0,.07a26,26,0,0,1,.15-4l.37-3.93c.06-.65.1-1.31.18-2a3.6,3.6,0,0,1,.25-1,1.06,1.06,0,0,1,.88-.6,2.21,2.21,0,0,1,1.75,1,3.7,3.7,0,0,1,.7,1.9l-.16-.13a2.81,2.81,0,0,1,1.59.22,2.23,2.23,0,0,1,1.07,1.21,5.61,5.61,0,0,1,.31,1.56l.08,1.55-.19-.15a2.86,2.86,0,0,1,2.08.27,3.13,3.13,0,0,1,1.17,1.74,40,40,0,0,1,.87,4c.25,1.33.48,2.66.84,4a6.23,6.23,0,0,0,.33.92c.15.28.34.59.49.88l1,1.78c1.32,2.36,2.65,4.72,4.14,7,.74,1.12,1.7,2.09,2.47,3.22a11.24,11.24,0,0,1,1.79,3.68l-.17-.11h0l.14,0,0,.13a16.79,16.79,0,0,1-.26,8,79.09,79.09,0,0,1-2.27,7.66C164,143.87,162,148.83,160.15,153.81Z" style="fill:#b16668"></path></g></g></g><g id="freepik--paper-planes--inject-189"><g id="freepik--paper-plane--inject-189"><path d="M453.7,233.72a9.36,9.36,0,0,1-.36,1h0a9.9,9.9,0,0,1-2.34,3.24,9.69,9.69,0,0,1-4.75-1.6c-1.35-1-1.55-2-1-3.12a2.9,2.9,0,0,1,.35-.49h0l.21-.19a2.35,2.35,0,0,1,3.05.13l.4.36.09-.53a2.26,2.26,0,0,1,3.16-1.83C453.63,231.15,454.16,232.12,453.7,233.72Z" style="fill:#BA68C8"></path><path d="M448.31,229.72a.3.3,0,0,1-.26-.13,4,4,0,0,1-.64-1.68.33.33,0,0,1,.27-.38.32.32,0,0,1,.38.27,3.26,3.26,0,0,0,.52,1.39.34.34,0,0,1-.07.47A.36.36,0,0,1,448.31,229.72Z" style="fill:#455a64"></path><path d="M467.84,229.79a8.28,8.28,0,0,1-2.47-.4.33.33,0,1,1,.2-.63,7.26,7.26,0,0,0,3.07.31.33.33,0,0,1,.07.66A8.1,8.1,0,0,1,467.84,229.79Zm3.86-1.15a.34.34,0,0,1-.28-.16.34.34,0,0,1,.1-.46,8.61,8.61,0,0,0,2.28-2.12.34.34,0,0,1,.47-.07.34.34,0,0,1,.06.47,9.45,9.45,0,0,1-2.45,2.29A.41.41,0,0,1,471.7,228.64Zm-9.13-.69a.35.35,0,0,1-.19-.06,8,8,0,0,1-2.3-2.45.32.32,0,0,1,.11-.45.33.33,0,0,1,.46.11,7.39,7.39,0,0,0,2.11,2.25.34.34,0,0,1,.09.46A.35.35,0,0,1,462.57,228Zm-14.7-3h-.07a.33.33,0,0,1-.25-.4,13.5,13.5,0,0,1,1.11-3.13.34.34,0,0,1,.45-.14.33.33,0,0,1,.15.44,12.5,12.5,0,0,0-1.07,3A.33.33,0,0,1,447.87,225Zm27.74-1.37a.23.23,0,0,1-.11,0,.33.33,0,0,1-.2-.42,9.52,9.52,0,0,0,.59-3.07.33.33,0,0,1,.33-.33h0a.34.34,0,0,1,.33.34,10,10,0,0,1-.63,3.29A.33.33,0,0,1,475.61,223.59Zm-16.33-1a.32.32,0,0,1-.32-.28,11.43,11.43,0,0,1-.16-2c0-.44,0-.89.06-1.34a.34.34,0,0,1,.36-.3.32.32,0,0,1,.3.36c0,.43,0,.86,0,1.28a11.3,11.3,0,0,0,.14,1.88.33.33,0,0,1-.27.38Zm-8.57-3.39a.31.31,0,0,1-.2-.07.32.32,0,0,1-.06-.46,19.71,19.71,0,0,1,2.28-2.4.34.34,0,0,1,.47,0,.33.33,0,0,1,0,.47,19,19,0,0,0-2.2,2.31A.32.32,0,0,1,450.71,219.17Zm24.75-1.88a.34.34,0,0,1-.29-.17,10.85,10.85,0,0,0-1.94-2.48.32.32,0,0,1,0-.46.32.32,0,0,1,.47,0,11.64,11.64,0,0,1,2.06,2.62.35.35,0,0,1-.29.5Zm-15.73-1.17h-.08a.34.34,0,0,1-.25-.4c.24-1,.55-2.05.93-3.15a.33.33,0,1,1,.62.21c-.37,1.08-.67,2.12-.9,3.09A.34.34,0,0,1,459.73,216.12Zm-4.19-1.26a.35.35,0,0,1-.28-.15.33.33,0,0,1,.09-.46c.59-.39,1.23-.77,1.89-1.13.32-.18.65-.35,1-.5a.32.32,0,0,1,.44.15.33.33,0,0,1-.15.44l-.95.49c-.64.35-1.26.72-1.83,1.1A.32.32,0,0,1,455.54,214.86Zm15.3-2a.42.42,0,0,1-.15,0,10.85,10.85,0,0,0-3-1.08.33.33,0,0,1-.25-.4.33.33,0,0,1,.39-.25A11.76,11.76,0,0,1,471,212.2a.34.34,0,0,1,.14.45A.35.35,0,0,1,470.84,212.83Zm-9.46-.77a.32.32,0,0,1-.32-.24.33.33,0,0,1,.22-.41,14.91,14.91,0,0,1,3.27-.58.32.32,0,0,1,.35.31.33.33,0,0,1-.31.35,14.16,14.16,0,0,0-3.12.56Zm.42-2.1a.28.28,0,0,1-.13,0,.33.33,0,0,1-.18-.43c.38-.91.8-1.86,1.32-3a.33.33,0,1,1,.6.28c-.52,1.12-.93,2.06-1.31,3A.33.33,0,0,1,461.8,210Zm2.64-5.94a.27.27,0,0,1-.12,0,.32.32,0,0,1-.19-.42,21.48,21.48,0,0,0,.91-3.06.33.33,0,0,1,.4-.26.32.32,0,0,1,.25.39,19.51,19.51,0,0,1-.94,3.16A.34.34,0,0,1,464.44,204Zm1.28-6.38a.3.3,0,0,1-.33-.29v-.08a14.3,14.3,0,0,0-.34-3.07.33.33,0,1,1,.65-.15,15.05,15.05,0,0,1,.35,3.22A.36.36,0,0,1,465.72,197.64Zm-1.41-6.25a.34.34,0,0,1-.3-.19,18.25,18.25,0,0,0-.94-1.72,10.54,10.54,0,0,0-.71-1,.34.34,0,0,1,.05-.47.34.34,0,0,1,.47.06,11.82,11.82,0,0,1,.75,1,16.59,16.59,0,0,1,1,1.79.32.32,0,0,1-.16.44A.32.32,0,0,1,464.31,191.39Zm-4.05-5a.33.33,0,0,1-.19-.06,14.65,14.65,0,0,0-2.76-1.58.33.33,0,1,1,.27-.6,15.34,15.34,0,0,1,2.88,1.64.34.34,0,0,1,.07.47A.32.32,0,0,1,460.26,186.4Zm-5.91-2.58h-.06a14.59,14.59,0,0,0-2.94-.3h-.22v-.67h.23a15.08,15.08,0,0,1,3.07.31.33.33,0,0,1-.07.65Z" style="fill:#455a64"></path><path d="M446.23,184.41a.33.33,0,0,1-.32-.22.33.33,0,0,1,.21-.42,15.77,15.77,0,0,1,1.62-.48.33.33,0,0,1,.4.24.33.33,0,0,1-.25.4c-.52.13-1,.28-1.55.46Z" style="fill:#455a64"></path><g id="freepik--paper-plane--inject-189"><polygon points="441.89 187.9 436.46 185.04 437.65 179.98 441.89 187.9" style="fill:#BA68C8"></polygon><path d="M437.65,180,436.46,185l1.81,1C439,184.88,437.46,181.14,437.65,180Z" style="opacity:0.2"></path><path d="M437.65,180,404,166.75s4.72,10.06,10.23,15.57,11.06,8,16.87,6.79C438.08,187.62,437.65,180,437.65,180Z" style="fill:#BA68C8"></path><path d="M437.65,180,404,166.75s4.72,10.06,10.23,15.57,11.06,8,16.87,6.79C438.08,187.62,437.65,180,437.65,180Z" style="fill:#fff;opacity:0.30000000000000004"></path><path d="M404,166.75l37.93,11.33s15.05-2.31,7.14-7.48C437.56,163.7,404,166.75,404,166.75Z" style="fill:#BA68C8"></path><path d="M404,166.75l37.93,11.33s15.05-2.31,7.14-7.48C437.56,163.7,404,166.75,404,166.75Z" style="fill:#fff;opacity:0.30000000000000004"></path><polygon points="441.89 178.09 441.89 187.9 437.65 179.98 403.96 166.75 441.89 178.09" style="fill:#BA68C8"></polygon><polygon points="441.89 178.09 441.89 187.9 437.65 179.98 403.96 166.75 441.89 178.09" style="opacity:0.2"></polygon></g></g><g id="freepik--paper-plane--inject-189"><path d="M91.82,52.13a7,7,0,0,1-.85.57h0A10,10,0,0,1,87.17,54a9.67,9.67,0,0,1-2.92-4.07c-.54-1.57-.06-2.57,1-3.11a2.39,2.39,0,0,1,.57-.19h0l.28,0a2.35,2.35,0,0,1,2.4,1.9l.12.52L89,48.6a2.35,2.35,0,0,1,3-.29,2.31,2.31,0,0,1,.59.65C93.26,50,93.13,51.1,91.82,52.13Z" style="fill:#BA68C8"></path><path d="M85.33,57.57a.34.34,0,0,1-.26-.12.34.34,0,0,1,.05-.47,3.35,3.35,0,0,0,1-1.14.33.33,0,0,1,.44-.16.33.33,0,0,1,.17.43,4.09,4.09,0,0,1-1.15,1.39A.33.33,0,0,1,85.33,57.57Z" style="fill:#455a64"></path><path d="M44.82,76.68a.33.33,0,0,1-.28-.16,16.09,16.09,0,0,1-1.37-3,.34.34,0,0,1,.21-.42.32.32,0,0,1,.42.21,14.74,14.74,0,0,0,1.31,2.89.33.33,0,0,1-.12.45A.26.26,0,0,1,44.82,76.68Zm-2-6.13a.32.32,0,0,1-.33-.29,14.66,14.66,0,0,1-.09-1.62,13.62,13.62,0,0,1,.1-1.7.34.34,0,0,1,.37-.29.34.34,0,0,1,.29.37,14.38,14.38,0,0,0-.1,1.62,13.56,13.56,0,0,0,.09,1.55.34.34,0,0,1-.3.36Zm.78-6.39-.12,0a.33.33,0,0,1-.19-.43,12.16,12.16,0,0,1,.53-1.15,20.11,20.11,0,0,1,1.08-1.76.33.33,0,1,1,.54.39,18.32,18.32,0,0,0-1,1.68A8.15,8.15,0,0,0,43.9,64,.34.34,0,0,1,43.59,64.16Zm35.67-4.55a.33.33,0,0,1-.33-.31.33.33,0,0,1,.32-.35,12.5,12.5,0,0,0,3.11-.55.34.34,0,0,1,.2.64,13.23,13.23,0,0,1-3.28.57ZM76,59.44h0a18.27,18.27,0,0,1-3.2-.8.33.33,0,0,1-.21-.42A.34.34,0,0,1,73,58a18,18,0,0,0,3.1.78.32.32,0,0,1,.27.38A.33.33,0,0,1,76,59.44Zm-28.71-.55a.33.33,0,0,1-.23-.58,15.38,15.38,0,0,1,2.7-1.93.33.33,0,1,1,.32.58,13.54,13.54,0,0,0-2.57,1.85A.37.37,0,0,1,47.31,58.89Zm22.58-1.51a.42.42,0,0,1-.15,0c-.63-.32-1.27-.68-1.91-1.08-.32-.2-.63-.4-.92-.6a.33.33,0,0,1,.37-.55c.29.2.59.4.9.59.62.38,1.25.73,1.86,1a.32.32,0,0,1,.14.44A.31.31,0,0,1,69.89,57.38Zm-17-1.66a.34.34,0,0,1-.32-.23.33.33,0,0,1,.22-.42A20.65,20.65,0,0,1,56,54.33a.33.33,0,1,1,.1.66A19.64,19.64,0,0,0,53,55.7Zm6.4-1a.34.34,0,0,1-.34-.3.33.33,0,0,1,.31-.36c1.19-.1,2.25-.21,3.22-.33a.33.33,0,0,1,.37.29.34.34,0,0,1-.29.37c-1,.12-2,.23-3.25.33Zm6.45-.83a.33.33,0,0,1-.33-.27.32.32,0,0,1,.26-.38c1.13-.22,2.19-.47,3.14-.74a.33.33,0,1,1,.18.63,32.62,32.62,0,0,1-3.19.76Zm-1.2-.17a.32.32,0,0,1-.23-.1A15.12,15.12,0,0,1,62.22,51a.33.33,0,0,1,.1-.46.32.32,0,0,1,.45.09,14.77,14.77,0,0,0,2,2.44.32.32,0,0,1,0,.47A.35.35,0,0,1,64.57,53.68ZM72,52a.34.34,0,0,1-.3-.19.33.33,0,0,1,.16-.44,12.74,12.74,0,0,0,2.7-1.64.33.33,0,0,1,.42.52A13.64,13.64,0,0,1,72.12,52,.35.35,0,0,1,72,52ZM61.1,48.27a.34.34,0,0,1-.32-.23,11.87,11.87,0,0,1-.55-3.29.33.33,0,0,1,.32-.34h0a.32.32,0,0,1,.33.32,11.18,11.18,0,0,0,.52,3.1.33.33,0,0,1-.21.42Zm15.76-.41a.35.35,0,0,1-.17,0,.33.33,0,0,1-.12-.45,7.53,7.53,0,0,0,.9-2.95.31.31,0,0,1,.36-.3.33.33,0,0,1,.3.36,8.13,8.13,0,0,1-1,3.21A.34.34,0,0,1,76.86,47.86Zm-15.93-6h-.08a.32.32,0,0,1-.24-.4,11.52,11.52,0,0,1,1.26-3.09.33.33,0,1,1,.57.35,10.43,10.43,0,0,0-1.19,2.9A.33.33,0,0,1,60.93,41.85Zm16.7-.3a.33.33,0,0,1-.32-.26,7.3,7.3,0,0,0-1.24-2.82.33.33,0,1,1,.53-.4A7.81,7.81,0,0,1,78,41.15a.32.32,0,0,1-.25.39ZM64.49,36.66a.35.35,0,0,1-.29-.18.33.33,0,0,1,.13-.45A10.23,10.23,0,0,1,67.5,35a.32.32,0,0,1,.38.27.34.34,0,0,1-.27.39,9.48,9.48,0,0,0-3,1A.3.3,0,0,1,64.49,36.66Zm9.39-.15a.26.26,0,0,1-.15,0,8.73,8.73,0,0,0-3-.92.35.35,0,0,1-.29-.38.33.33,0,0,1,.38-.28,9.36,9.36,0,0,1,3.2,1,.33.33,0,0,1,.13.45A.32.32,0,0,1,73.88,36.51Z" style="fill:#455a64"></path><path d="M48,80.51a.3.3,0,0,1-.22-.08c-.43-.37-.84-.77-1.22-1.17a.32.32,0,0,1,0-.47.33.33,0,0,1,.47,0,14,14,0,0,0,1.17,1.13.34.34,0,0,1,0,.47A.36.36,0,0,1,48,80.51Z" style="fill:#455a64"></path><g id="freepik--paper-plane--inject-189"><path d="M86.51,102.77,53.12,86.15a16.53,16.53,0,0,0-10.65-1.52c-3.23.67-6.53,2.39-7.6,6.5s3.24,8.72,14.79,10.36C65.67,103.76,86.51,102.77,86.51,102.77Z" style="fill:#BA68C8"></path><path d="M86.51,102.77,53.12,86.15a16.53,16.53,0,0,0-10.65-1.52c-3.23.67-6.53,2.39-7.6,6.5s3.24,8.72,14.79,10.36C65.67,103.76,86.51,102.77,86.51,102.77Z" style="fill:#fff;opacity:0.30000000000000004"></path><path d="M86.51,102.77,54.3,81.18s-3.15-7.41,5.92-8.52c4.1-.5,8.51,1.31,13.83,8.52C80.62,90.08,86.51,102.77,86.51,102.77Z" style="fill:#BA68C8"></path><path d="M86.51,102.77,54.3,81.18s-3.15-7.41,5.92-8.52c4.1-.5,8.51,1.31,13.83,8.52C80.62,90.08,86.51,102.77,86.51,102.77Z" style="fill:#fff;opacity:0.30000000000000004"></path><polygon points="54.3 81.18 54.92 87.06 86.51 102.77 54.3 81.18" style="fill:#BA68C8"></polygon><polygon points="54.3 81.18 54.92 87.06 86.51 102.77 54.3 81.18" style="opacity:0.2"></polygon></g></g></g></svg>