<svg xmlns="http://www.w3.org/2000/svg" version="1.1" xmlns:xlink="http://www.w3.org/1999/xlink" xmlns:svgjs="http://svgjs.dev/svgjs" width="2000" height="1847" viewBox="0 0 2000 1847"><g transform="matrix(1,0,0,1,-0.5917298875078814,0.5658474518110097)"><svg viewBox="0 0 354 327" data-background-color="#1b214e" preserveAspectRatio="xMidYMid meet" height="1847" width="2000" xmlns="http://www.w3.org/2000/svg" xmlns:xlink="http://www.w3.org/1999/xlink"><defs></defs><g id="tight-bounds" transform="matrix(1,0,0,1,0.10478295920950131,-0.10017981415387567)"><svg viewBox="0 0 353.78962176148036 327.2" height="327.2" width="353.78962176148036"><g><svg viewBox="0 0 395.52 365.7940652856376" height="327.2" width="353.78962176148036"><g transform="matrix(1,0,0,1,0,240.55322300760264)"><svg viewBox="0 0 395.52 125.24084227803496" height="125.24084227803496" width="395.52"><g><svg viewBox="0 0 395.52 125.24084227803496" height="125.24084227803496" width="395.52"><g><svg viewBox="0 0 395.52 125.24084227803496" height="125.24084227803496" width="395.52"><g transform="matrix(1,0,0,1,0,0)"><svg width="395.52" viewBox="0.0000209808349609375 0.000017762184143066406 158.7115936279297 50.25579071044922" height="125.24084227803496" data-palette-color="#d900ff"><g class="undefined-text-0" data-fill-palette-color="primary" id="text-0"><path d="M29.072 46.656v0c-0.748 0.198-1.736-0.005-2.965-0.611-1.228-0.599-2.566-1.458-4.015-2.577-1.449-1.119-2.919-2.375-4.412-3.765-1.486-1.392-2.921-2.812-4.305-4.259-1.379-1.455-2.555-2.771-3.529-3.947v0c-0.068 3.308-0.117 6.556-0.148 9.743-0.029 3.194-0.088 6.148-0.176 8.861v0c-0.883 0.234-1.781 0.203-2.693-0.093-0.921-0.301-1.49-0.86-1.707-1.679v0c-0.094-0.354-0.126-0.801-0.097-1.34 0.038-0.534 0.06-1.047 0.068-1.538v0c0.187-2.988 0.359-5.709 0.515-8.165 0.15-2.454 0.316-4.753 0.499-6.898 0.183-2.145 0.386-4.282 0.607-6.41 0.23-2.123 0.505-4.327 0.824-6.612 0.317-2.291 0.692-4.804 1.125-7.54v0c-1.248 0.572-2.303 1.211-3.165 1.915-0.863 0.698-1.562 1.3-2.097 1.808-0.526 0.512-0.906 0.799-1.137 0.86v0c-0.129 0.034-0.374-0.008-0.737-0.125-0.361-0.111-0.694-0.275-0.999-0.491-0.301-0.224-0.477-0.432-0.528-0.625v0c0.819-0.603 1.769-1.276 2.848-2.018 1.079-0.741 2.297-1.457 3.652-2.147 1.355-0.69 2.803-1.24 4.343-1.648v0c1.437-0.381 2.968-0.604 4.591-0.669 1.632-0.06 3.202 0.11 4.708 0.511 1.502 0.409 2.803 1.105 3.906 2.088 1.102 0.984 1.875 2.31 2.317 3.98v0c0.415 1.566 0.421 3.006 0.018 4.319-0.403 1.314-1.081 2.518-2.033 3.612-0.952 1.094-2.049 2.067-3.291 2.921-1.243 0.854-2.532 1.596-3.869 2.225-1.341 0.638-2.579 1.16-3.713 1.564-1.134 0.404-2.054 0.72-2.759 0.949v0c1.485 1.386 2.929 2.751 4.334 4.096 1.403 1.338 2.877 2.644 4.422 3.918 1.543 1.267 3.285 2.491 5.226 3.673 1.941 1.182 4.176 2.314 6.704 3.396v0c-0.021 0.599-0.284 1.165-0.791 1.699-0.498 0.539-1.012 0.879-1.541 1.019zM9.935 27.697v0c1.771-0.58 3.492-1.343 5.166-2.29 1.671-0.954 3.132-2.041 4.38-3.262 1.249-1.221 2.147-2.58 2.695-4.077 0.55-1.491 0.599-3.087 0.148-4.787v0c-0.458-1.727-1.244-2.977-2.359-3.751-1.109-0.775-2.39-1.198-3.844-1.267-1.453-0.07-2.922 0.075-4.406 0.433v0c-0.519 2.517-0.916 5.429-1.191 8.737-0.281 3.309-0.478 6.731-0.589 10.264z" fill="#d900ff" data-fill-palette-color="primary"></path><path d="M33.948 41.705v0c-1.068 0.161-2.052-0.058-2.95-0.658-0.893-0.6-1.447-1.619-1.664-3.057v0c-0.181-1.2-0.107-2.526 0.22-3.977 0.327-1.452 0.859-2.917 1.593-4.396 0.735-1.479 1.622-2.863 2.661-4.153 1.041-1.283 2.186-2.359 3.438-3.227 1.257-0.877 2.551-1.416 3.883-1.617v0c1.404-0.211 2.638-0.03 3.702 0.545 1.064 0.575 1.685 1.449 1.861 2.622v0c0.136 0.903-0.055 1.583-0.573 2.038-0.512 0.448-1.197 0.669-2.054 0.663v0c0.026-0.274 0.041-0.576 0.046-0.906 0.005-0.324-0.015-0.635-0.06-0.932v0c-0.106-0.705-0.351-1.302-0.734-1.791-0.384-0.488-1.011-0.667-1.881-0.535v0c-0.936 0.141-1.841 0.601-2.715 1.379-0.874 0.779-1.684 1.757-2.43 2.935-0.747 1.171-1.377 2.429-1.889 3.773-0.52 1.339-0.89 2.642-1.11 3.909-0.215 1.259-0.252 2.357-0.111 3.293v0c0.172 1.14 0.673 1.648 1.503 1.523v0c0.771-0.116 1.563-0.613 2.375-1.49 0.806-0.87 1.601-1.947 2.385-3.231 0.779-1.277 1.514-2.574 2.205-3.892 0.691-1.318 1.286-2.476 1.783-3.474v0c0.113-0.192 0.218-0.296 0.317-0.311v0c0.17 0.008 0.448 0.044 0.835 0.107 0.387 0.063 0.744 0.171 1.071 0.324 0.334 0.159 0.526 0.406 0.576 0.743v0c0.05 0.33-0.038 0.778-0.262 1.344-0.218 0.565-0.464 1.192-0.738 1.881-0.274 0.688-0.511 1.375-0.712 2.059-0.208 0.679-0.267 1.318-0.176 1.917v0c0.066 0.435 0.255 0.845 0.569 1.229 0.313 0.378 0.753 0.524 1.32 0.439v0c0.837-0.126 1.892-0.909 3.166-2.348 1.267-1.438 2.446-3.658 3.537-6.661v0l0.922 0.68c-0.499 1.922-1.206 3.654-2.12 5.194-0.914 1.54-1.932 2.796-3.053 3.767-1.115 0.97-2.292 1.549-3.531 1.735v0c-1.338 0.202-2.385-0.059-3.142-0.781-0.756-0.722-1.243-1.562-1.461-2.521v0c-0.016-0.105-0.022-0.216-0.02-0.33-0.005-0.121-0.014-0.23-0.029-0.33v0c-1.115 1.907-2.168 3.424-3.158 4.551-0.991 1.12-2.123 1.776-3.395 1.968z" fill="#d900ff" data-fill-palette-color="primary"></path><path d="M56.385 37.495v0c-1.415 0.117-2.514-0.223-3.296-1.021-0.783-0.805-1.225-1.828-1.328-3.07v0c-0.064-0.777-0.009-1.765 0.165-2.964 0.174-1.205 0.45-2.476 0.828-3.812 0.384-1.343 0.847-2.612 1.39-3.808 0.543-1.196 1.15-2.189 1.82-2.98 0.664-0.784 1.348-1.206 2.052-1.264v0c0.405-0.034 0.754 0.058 1.047 0.274 0.285 0.21 0.446 0.535 0.482 0.974v0c0.036 0.438-0.167 1.128-0.611 2.067-0.451 0.934-0.984 2.005-1.6 3.214-0.609 1.201-1.125 2.448-1.546 3.74-0.415 1.285-0.575 2.503-0.48 3.652v0c0.092 1.11 0.353 1.834 0.782 2.173 0.436 0.338 1.043 0.475 1.821 0.411v0c1.143-0.095 2.334-0.772 3.574-2.032 1.234-1.253 2.456-3.371 3.667-6.355v0l0.716 0.653c-0.864 3.055-2.148 5.47-3.854 7.243-1.7 1.767-3.576 2.735-5.629 2.905zM60.49 14.046v0c-0.605 0.05-1.165-0.047-1.68-0.292-0.509-0.245-0.79-0.687-0.842-1.325v0c-0.067-0.811 0.305-1.53 1.115-2.16 0.811-0.623 1.672-0.972 2.582-1.047v0c0.578-0.048 1.061 0.046 1.449 0.281 0.395 0.242 0.618 0.681 0.671 1.319v0c0.059 0.711-0.255 1.406-0.941 2.085-0.692 0.686-1.477 1.066-2.354 1.139z" fill="#d900ff" data-fill-palette-color="primary"></path><path d="M80.748 36.194v0c-1.253 0.01-2.212-0.303-2.877-0.938-0.665-0.635-1.001-1.442-1.009-2.422v0c-0.006-0.713 0.109-1.451 0.343-2.213 0.234-0.762 0.465-1.54 0.692-2.335 0.234-0.802 0.348-1.573 0.342-2.313v0c-0.006-0.813-0.197-1.372-0.573-1.676-0.376-0.297-0.817-0.444-1.323-0.44v0c-1.013 0.008-2.05 0.439-3.11 1.295-1.06 0.848-2.092 1.913-3.096 3.194-1.004 1.274-1.94 2.608-2.809 4.001-0.869 1.393-1.62 2.633-2.251 3.718v0c-0.613 0.005-1.191-0.091-1.732-0.287-0.542-0.202-1.001-0.556-1.379-1.059v0c0.032-0.167 0.225-0.685 0.578-1.555 0.347-0.863 0.735-1.912 1.166-3.149 0.43-1.237 0.817-2.516 1.16-3.839 0.343-1.323 0.51-2.541 0.502-3.654v0c0.238-0.242 0.593-0.498 1.064-0.768 0.471-0.277 0.96-0.417 1.467-0.421v0c1.08-0.008 1.624 0.477 1.631 1.457v0c0.003 0.44-0.091 1.144-0.283 2.112-0.199 0.962-0.461 2.004-0.786 3.126v0c0.904-1.26 1.881-2.468 2.932-3.622 1.058-1.162 2.177-2.12 3.358-2.876 1.174-0.749 2.371-1.128 3.591-1.138v0c1.387-0.011 2.414 0.461 3.081 1.416 0.667 0.962 1.006 2.036 1.015 3.222v0c0.008 1.013-0.155 1.968-0.488 2.864-0.333 0.903-0.656 1.752-0.97 2.548-0.314 0.796-0.468 1.584-0.462 2.363v0c0.004 0.573 0.134 0.986 0.39 1.237 0.255 0.251 0.57 0.376 0.943 0.373v0c0.807-0.006 1.64-0.409 2.5-1.209 0.854-0.8 1.673-1.806 2.457-3.019 0.784-1.206 1.478-2.418 2.082-3.637v0l0.765 0.655c-0.701 1.659-1.486 3.168-2.355 4.528-0.87 1.36-1.841 2.441-2.915 3.243-1.074 0.802-2.287 1.208-3.641 1.218z" fill="#d900ff" data-fill-palette-color="primary"></path><path d="M91.752 39.003v0c-1.854-0.144-3.214-0.842-4.08-2.093-0.872-1.258-1.228-2.914-1.068-4.968v0c0.129-1.655 0.567-3.597 1.315-5.825 0.755-2.228 1.701-4.545 2.837-6.951 1.136-2.406 2.379-4.76 3.729-7.063 1.349-2.302 2.704-4.377 4.064-6.223 1.367-1.846 2.627-3.3 3.779-4.361 1.146-1.068 2.091-1.573 2.836-1.515v0c0.638 0.05 1.08 0.468 1.327 1.257 0.247 0.781 0.358 1.542 0.334 2.283v0c-0.073 0.944-0.365 2.075-0.875 3.392-0.51 1.318-1.197 2.705-2.059 4.163-0.856 1.465-1.83 2.9-2.923 4.307-1.092 1.406-2.261 2.68-3.506 3.819-1.239 1.141-2.511 2.018-3.816 2.633v0c-0.231 0.39-0.576 1.125-1.034 2.206-0.458 1.081-0.896 2.318-1.311 3.71-0.409 1.392-0.667 2.78-0.775 4.162v0c-0.107 1.383 0.005 2.555 0.339 3.517 0.334 0.955 0.989 1.471 1.966 1.547v0c0.911 0.071 1.908-0.25 2.993-0.961 1.092-0.711 2.003-1.633 2.733-2.766v0c-1.191-0.768-2.051-1.784-2.582-3.05-0.531-1.258-0.745-2.545-0.642-3.861v0c0.129-1.655 0.67-2.944 1.624-3.866 0.955-0.929 2.037-1.346 3.247-1.252v0c1.05 0.082 1.879 0.554 2.487 1.417 0.608 0.863 0.848 2.119 0.721 3.767v0c-0.079 1.01-0.295 2.07-0.649 3.179-0.36 1.109-0.852 2.181-1.473 3.216v0c0.17 0.053 0.327 0.092 0.472 0.117 0.151 0.032 0.347 0.057 0.586 0.076v0c1.176 0.091 2.201-0.143 3.074-0.704 0.879-0.56 1.639-1.257 2.279-2.09 0.64-0.833 1.157-1.589 1.55-2.267v0l0.637 0.962c-1.04 2.019-2.222 3.462-3.546 4.329-1.318 0.867-2.854 1.233-4.608 1.096v0c-0.199-0.015-0.408-0.042-0.626-0.079-0.218-0.037-0.428-0.08-0.632-0.129v0c-1.029 1.451-2.276 2.662-3.743 3.631-1.466 0.969-3.126 1.382-4.981 1.238zM99.428 31.866v0c0.36-0.681 0.653-1.387 0.877-2.119 0.23-0.724 0.378-1.509 0.444-2.352v0c0.095-1.216 0.022-2.138-0.217-2.765-0.239-0.627-0.578-0.958-1.016-0.992v0c-0.472-0.037-0.902 0.251-1.291 0.862-0.389 0.612-0.618 1.373-0.688 2.284v0c-0.06 0.778 0.031 1.661 0.275 2.649 0.251 0.982 0.79 1.793 1.616 2.433zM94.72 19.143v0c0.938-0.709 1.86-1.564 2.767-2.564 0.913-0.992 1.768-2.063 2.566-3.21 0.804-1.141 1.526-2.262 2.167-3.363 0.648-1.106 1.177-2.108 1.588-3.006 0.411-0.898 0.654-1.618 0.73-2.16v0c0.008-0.1 0.013-0.173 0.017-0.219 0.004-0.053-0.01-0.081-0.044-0.084v0c-0.311 0.043-0.857 0.482-1.637 1.318-0.774 0.843-1.657 1.964-2.649 3.365-0.991 1.394-1.978 2.952-2.961 4.674-0.976 1.723-1.825 3.472-2.544 5.249z" fill="#d900ff" data-fill-palette-color="primary"></path><path d="M109.71 38.44v0c-1.469-0.23-2.415-0.864-2.84-1.902-0.417-1.044-0.532-2.165-0.344-3.364v0c0.168-1.074 0.506-2.134 1.014-3.181 0.508-1.047 1.122-2.014 1.841-2.9 0.718-0.88 1.476-1.564 2.275-2.053 0.792-0.49 1.557-0.677 2.294-0.562v0c0.198 0.031 0.432 0.108 0.703 0.232 0.27 0.13 0.464 0.272 0.581 0.425v0c-0.432 0.344-0.916 0.852-1.453 1.523-0.529 0.666-1.036 1.4-1.519 2.202-0.482 0.795-0.898 1.6-1.249 2.416-0.351 0.822-0.582 1.582-0.691 2.28v0c-0.121 0.771-0.083 1.394 0.112 1.87 0.202 0.477 0.603 0.762 1.203 0.856v0c0.672 0.105 1.522-0.13 2.549-0.704 1.028-0.575 2.042-1.317 3.041-2.226v0c-0.894-1.058-1.488-2.22-1.782-3.488-0.302-1.262-0.335-2.644-0.1-4.145v0c0.131-0.836 0.454-1.693 0.97-2.571 0.515-0.878 1.204-1.573 2.067-2.085 0.87-0.512 1.924-0.671 3.162-0.477v0c1.403 0.22 2.316 0.764 2.74 1.634 0.431 0.87 0.56 1.856 0.388 2.955v0c-0.194 1.238-0.739 2.584-1.634 4.036-0.895 1.452-1.904 2.809-3.027 4.071v0c0.426 0.337 0.923 0.549 1.49 0.638v0c0.507 0.079 1.128 0.059 1.862-0.063 0.742-0.127 1.478-0.413 2.209-0.858 0.739-0.451 1.38-1.096 1.923-1.936v0l0.706 0.728c-0.954 1.524-2.099 2.57-3.437 3.136-1.336 0.56-2.574 0.751-3.713 0.572v0c-0.435-0.068-0.863-0.179-1.284-0.332-0.421-0.154-0.8-0.341-1.137-0.563v0c-1.359 1.224-2.825 2.226-4.398 3.006-1.579 0.778-3.087 1.055-4.522 0.83zM118.618 32.031v0c1.019-1.035 1.908-2.188 2.667-3.459 0.765-1.264 1.236-2.465 1.415-3.604v0c0.13-0.83 0.1-1.459-0.089-1.887-0.19-0.421-0.503-0.666-0.938-0.734v0c-0.665-0.104-1.406 0.252-2.222 1.069-0.809 0.811-1.323 1.918-1.543 3.322v0c-0.126 0.804-0.14 1.716-0.043 2.736 0.096 1.027 0.347 1.88 0.753 2.557z" fill="#d900ff" data-fill-palette-color="primary"></path><path d="M137.841 44.474v0c-1.084-0.282-1.69-0.946-1.817-1.992-0.127-1.046-0.033-2.244 0.285-3.594v0c0.119-0.458 0.289-1.044 0.509-1.758 0.22-0.714 0.435-1.34 0.644-1.879v0c-1.031 1.13-2.127 2.216-3.287 3.258-1.161 1.048-2.304 1.853-3.428 2.414-1.124 0.562-2.196 0.71-3.216 0.444v0c-1.077-0.28-1.844-1.014-2.3-2.2-0.464-1.182-0.517-2.46-0.159-3.834v0c0.247-0.948 0.687-2.005 1.321-3.169 0.634-1.165 1.345-2.282 2.132-3.351 0.782-1.071 1.53-1.934 2.245-2.588 0.715-0.654 1.249-0.935 1.604-0.843v0c0.232 0.06 0.594 0.285 1.085 0.675 0.491 0.39 0.725 0.774 0.702 1.154v0c-0.507 0.467-1.158 1.18-1.952 2.137-0.789 0.966-1.538 2.031-2.247 3.197-0.702 1.161-1.188 2.264-1.461 3.309v0c-0.052 0.2-0.121 0.557-0.207 1.072-0.081 0.523-0.057 1.012 0.073 1.466 0.123 0.452 0.43 0.742 0.921 0.87v0c0.723 0.188 1.611-0.063 2.666-0.753 1.046-0.685 2.168-1.606 3.364-2.762 1.19-1.158 2.334-2.365 3.433-3.622v0c0.648-1.299 1.153-2.232 1.514-2.799 0.355-0.569 0.654-0.911 0.897-1.027 0.236-0.111 0.502-0.128 0.799-0.05v0c0.555 0.144 0.969 0.366 1.242 0.664 0.267 0.297 0.345 0.658 0.235 1.084v0c-0.017 0.065-0.073 0.188-0.169 0.37-0.104 0.187-0.18 0.308-0.229 0.364v0c-0.414 0.664-0.847 1.495-1.3 2.493-0.453 0.998-0.877 2.059-1.272 3.182-0.4 1.115-0.746 2.231-1.037 3.347v0c-0.203 0.781-0.305 1.409-0.304 1.884 0.002 0.469 0.2 0.755 0.593 0.857v0c0.458 0.119 1.071-0.024 1.838-0.431 0.769-0.413 1.622-1.004 2.559-1.773 0.931-0.77 1.872-1.635 2.824-2.592 0.945-0.959 1.828-1.928 2.648-2.907v0c0.443-1.703 0.903-2.965 1.377-3.785 0.474-0.814 0.949-1.344 1.427-1.592 0.483-0.24 0.953-0.3 1.411-0.18v0c0.755 0.196 1.217 0.578 1.386 1.146 0.163 0.566 0.197 1.029 0.103 1.391v0c-0.077 0.297-0.216 0.567-0.417 0.81-0.201 0.244-0.399 0.461-0.594 0.652v0c-0.353 0.432-0.74 0.978-1.16 1.641-0.414 0.664-0.769 1.567-1.067 2.708v0c-0.144 0.555-0.243 1.132-0.295 1.732-0.053 0.599 0.037 1.129 0.268 1.588 0.23 0.466 0.655 0.78 1.274 0.942v0c0.626 0.163 1.309 0.051 2.05-0.335 0.748-0.384 1.649-1.19 2.706-2.416v0l0.654 0.904c-1.157 1.483-2.264 2.411-3.319 2.784-1.059 0.365-1.996 0.442-2.808 0.23v0c-1.052-0.274-1.848-0.88-2.389-1.821-0.539-0.946-0.847-2.077-0.925-3.392v0c-1.196 1.232-2.48 2.41-3.854 3.533-1.376 1.13-2.722 2.002-4.04 2.617-1.313 0.623-2.491 0.798-3.536 0.526z" fill="#d900ff" data-fill-palette-color="primary"></path></g></svg></g></svg></g></svg></g></svg></g><g transform="matrix(1,0,0,1,111.0719366032094,0)"><svg viewBox="0 0 173.3761267935812 202.6396828058606" height="202.6396828058606" width="173.3761267935812"><g><svg xmlns="http://www.w3.org/2000/svg" xmlns:xlink="http://www.w3.org/1999/xlink" version="1.1" x="0" y="0" viewBox="7.865182399749756 0 85.55882263183594 100" enable-background="new 0 0 100 100" xml:space="preserve" height="202.6396828058606" width="173.3761267935812" class="icon-icon-0" data-fill-palette-color="accent" id="icon-0"><path d="M88.545 49.887c-0.812-0.929-1.759-1.733-2.812-2.387L70.284 34.382 93.424 0 62.191 27.511l-1.623-1.379 1.364-6.416c0 0 0.856-4.026 0.85-4.038l-0.005 0.001c-1.442-2.581-7.466-2.366-13.757 0.564-4.663 2.173-8.181 5.238-9.357 7.848C26.725 28.225 14.851 41.949 10.02 60.279 6.096 75.173 7.712 89.719 13.4 100h64.088c0.235-1.188 0.364-2.414 0.364-3.671 0-3.049-0.739-6.122-2.188-8.81-0.702-1.302-1.554-2.547-2.534-3.655-1.245-1.408-2.74-2.559-4.103-3.846-2.785-2.63-6.568-5.704-7.936-9.394-0.977-2.635-0.949-5.437-0.406-8.187 0 0 8.332 2.857 8.338 2.853 2.258 3.17 5.956 5.246 10.146 5.246 6.882 0 12.46-5.578 12.46-12.46 0-3.12-1.154-5.964-3.043-8.154L88.545 49.887z" fill="#d900ff" data-fill-palette-color="accent"></path></svg></g></svg></g><g></g></svg></g></svg><rect width="353.78962176148036" height="327.2" fill="none" stroke="none" visibility="hidden"></rect></g></svg></g></svg>